G04 #@! TF.FileFunction,Legend,Top*
%FSLAX46Y46*%
G04 Gerber Fmt 4.6, Leading zero omitted, Abs format (unit mm)*
G04 Created by KiCad (PCBNEW 4.0.3-stable) date 10/01/16 01:25:36*
%MOMM*%
%LPD*%
G01*
G04 APERTURE LIST*
%ADD10C,0.100000*%
%ADD11C,0.150000*%
G04 APERTURE END LIST*
D10*
D11*
X178867735Y-115441177D02*
X178867735Y-110361177D01*
X178867735Y-110361177D02*
X181407735Y-110361177D01*
X181407735Y-110361177D02*
X181407735Y-115441177D01*
X181407735Y-115441177D02*
X178867735Y-115441177D01*
X133392735Y-108956177D02*
X134662735Y-108956177D01*
X133392735Y-101606177D02*
X134662735Y-101606177D01*
X153222735Y-101606177D02*
X151952735Y-101606177D01*
X153222735Y-108956177D02*
X151952735Y-108956177D01*
X133392735Y-108956177D02*
X133392735Y-101606177D01*
X153222735Y-108956177D02*
X153222735Y-101606177D01*
X134662735Y-108956177D02*
X134662735Y-110241177D01*
X102242735Y-103991177D02*
X99242735Y-103991177D01*
X99242735Y-101491177D02*
X102242735Y-101491177D01*
X102282735Y-107166177D02*
X99282735Y-107166177D01*
X99282735Y-104666177D02*
X102282735Y-104666177D01*
X102282735Y-78591177D02*
X99282735Y-78591177D01*
X99282735Y-76091177D02*
X102282735Y-76091177D01*
X102242735Y-81766177D02*
X99242735Y-81766177D01*
X99242735Y-79266177D02*
X102242735Y-79266177D01*
X102242735Y-54461177D02*
X99242735Y-54461177D01*
X99242735Y-51961177D02*
X102242735Y-51961177D01*
X102282735Y-57636177D02*
X99282735Y-57636177D01*
X99282735Y-55136177D02*
X102282735Y-55136177D01*
X152637735Y-60872177D02*
X152637735Y-65870177D01*
X152777735Y-60880177D02*
X152777735Y-63217177D01*
X152777735Y-63525177D02*
X152777735Y-65862177D01*
X152917735Y-60896177D02*
X152917735Y-62898177D01*
X152917735Y-63844177D02*
X152917735Y-65846177D01*
X153057735Y-60920177D02*
X153057735Y-62751177D01*
X153057735Y-63991177D02*
X153057735Y-65822177D01*
X153197735Y-60953177D02*
X153197735Y-62659177D01*
X153197735Y-64083177D02*
X153197735Y-65789177D01*
X153337735Y-60994177D02*
X153337735Y-62603177D01*
X153337735Y-64139177D02*
X153337735Y-65748177D01*
X153477735Y-61044177D02*
X153477735Y-62576177D01*
X153477735Y-64166177D02*
X153477735Y-65698177D01*
X153617735Y-61105177D02*
X153617735Y-62573177D01*
X153617735Y-64169177D02*
X153617735Y-65637177D01*
X153757735Y-61175177D02*
X153757735Y-62595177D01*
X153757735Y-64147177D02*
X153757735Y-65567177D01*
X153897735Y-61257177D02*
X153897735Y-62645177D01*
X153897735Y-64097177D02*
X153897735Y-65485177D01*
X154037735Y-61352177D02*
X154037735Y-62727177D01*
X154037735Y-64015177D02*
X154037735Y-65390177D01*
X154177735Y-61463177D02*
X154177735Y-62859177D01*
X154177735Y-63883177D02*
X154177735Y-65279177D01*
X154317735Y-61591177D02*
X154317735Y-63106177D01*
X154317735Y-63636177D02*
X154317735Y-65151177D01*
X154457735Y-61740177D02*
X154457735Y-65002177D01*
X154597735Y-61919177D02*
X154597735Y-64823177D01*
X154737735Y-62138177D02*
X154737735Y-64604177D01*
X154877735Y-62427177D02*
X154877735Y-64315177D01*
X155017735Y-62899177D02*
X155017735Y-63843177D01*
X154362735Y-63371177D02*
G75*
G03X154362735Y-63371177I-800000J0D01*
G01*
X155100235Y-63371177D02*
G75*
G03X155100235Y-63371177I-2537500J0D01*
G01*
X137247735Y-65870177D02*
X137247735Y-60872177D01*
X137107735Y-65862177D02*
X137107735Y-63525177D01*
X137107735Y-63217177D02*
X137107735Y-60880177D01*
X136967735Y-65846177D02*
X136967735Y-63844177D01*
X136967735Y-62898177D02*
X136967735Y-60896177D01*
X136827735Y-65822177D02*
X136827735Y-63991177D01*
X136827735Y-62751177D02*
X136827735Y-60920177D01*
X136687735Y-65789177D02*
X136687735Y-64083177D01*
X136687735Y-62659177D02*
X136687735Y-60953177D01*
X136547735Y-65748177D02*
X136547735Y-64139177D01*
X136547735Y-62603177D02*
X136547735Y-60994177D01*
X136407735Y-65698177D02*
X136407735Y-64166177D01*
X136407735Y-62576177D02*
X136407735Y-61044177D01*
X136267735Y-65637177D02*
X136267735Y-64169177D01*
X136267735Y-62573177D02*
X136267735Y-61105177D01*
X136127735Y-65567177D02*
X136127735Y-64147177D01*
X136127735Y-62595177D02*
X136127735Y-61175177D01*
X135987735Y-65485177D02*
X135987735Y-64097177D01*
X135987735Y-62645177D02*
X135987735Y-61257177D01*
X135847735Y-65390177D02*
X135847735Y-64015177D01*
X135847735Y-62727177D02*
X135847735Y-61352177D01*
X135707735Y-65279177D02*
X135707735Y-63883177D01*
X135707735Y-62859177D02*
X135707735Y-61463177D01*
X135567735Y-65151177D02*
X135567735Y-63636177D01*
X135567735Y-63106177D02*
X135567735Y-61591177D01*
X135427735Y-65002177D02*
X135427735Y-61740177D01*
X135287735Y-64823177D02*
X135287735Y-61919177D01*
X135147735Y-64604177D02*
X135147735Y-62138177D01*
X135007735Y-64315177D02*
X135007735Y-62427177D01*
X134867735Y-63843177D02*
X134867735Y-62899177D01*
X137122735Y-63371177D02*
G75*
G03X137122735Y-63371177I-800000J0D01*
G01*
X139860235Y-63371177D02*
G75*
G03X139860235Y-63371177I-2537500J0D01*
G01*
X122007735Y-57615177D02*
X122007735Y-52617177D01*
X121867735Y-57607177D02*
X121867735Y-55270177D01*
X121867735Y-54962177D02*
X121867735Y-52625177D01*
X121727735Y-57591177D02*
X121727735Y-55589177D01*
X121727735Y-54643177D02*
X121727735Y-52641177D01*
X121587735Y-57567177D02*
X121587735Y-55736177D01*
X121587735Y-54496177D02*
X121587735Y-52665177D01*
X121447735Y-57534177D02*
X121447735Y-55828177D01*
X121447735Y-54404177D02*
X121447735Y-52698177D01*
X121307735Y-57493177D02*
X121307735Y-55884177D01*
X121307735Y-54348177D02*
X121307735Y-52739177D01*
X121167735Y-57443177D02*
X121167735Y-55911177D01*
X121167735Y-54321177D02*
X121167735Y-52789177D01*
X121027735Y-57382177D02*
X121027735Y-55914177D01*
X121027735Y-54318177D02*
X121027735Y-52850177D01*
X120887735Y-57312177D02*
X120887735Y-55892177D01*
X120887735Y-54340177D02*
X120887735Y-52920177D01*
X120747735Y-57230177D02*
X120747735Y-55842177D01*
X120747735Y-54390177D02*
X120747735Y-53002177D01*
X120607735Y-57135177D02*
X120607735Y-55760177D01*
X120607735Y-54472177D02*
X120607735Y-53097177D01*
X120467735Y-57024177D02*
X120467735Y-55628177D01*
X120467735Y-54604177D02*
X120467735Y-53208177D01*
X120327735Y-56896177D02*
X120327735Y-55381177D01*
X120327735Y-54851177D02*
X120327735Y-53336177D01*
X120187735Y-56747177D02*
X120187735Y-53485177D01*
X120047735Y-56568177D02*
X120047735Y-53664177D01*
X119907735Y-56349177D02*
X119907735Y-53883177D01*
X119767735Y-56060177D02*
X119767735Y-54172177D01*
X119627735Y-55588177D02*
X119627735Y-54644177D01*
X121882735Y-55116177D02*
G75*
G03X121882735Y-55116177I-800000J0D01*
G01*
X124620235Y-55116177D02*
G75*
G03X124620235Y-55116177I-2537500J0D01*
G01*
X150907735Y-127296177D02*
X150907735Y-130296177D01*
X148407735Y-130296177D02*
X148407735Y-127296177D01*
X152392735Y-59520177D02*
X152392735Y-54522177D01*
X152252735Y-59512177D02*
X152252735Y-57175177D01*
X152252735Y-56867177D02*
X152252735Y-54530177D01*
X152112735Y-59496177D02*
X152112735Y-57494177D01*
X152112735Y-56548177D02*
X152112735Y-54546177D01*
X151972735Y-59472177D02*
X151972735Y-57641177D01*
X151972735Y-56401177D02*
X151972735Y-54570177D01*
X151832735Y-59439177D02*
X151832735Y-57733177D01*
X151832735Y-56309177D02*
X151832735Y-54603177D01*
X151692735Y-59398177D02*
X151692735Y-57789177D01*
X151692735Y-56253177D02*
X151692735Y-54644177D01*
X151552735Y-59348177D02*
X151552735Y-57816177D01*
X151552735Y-56226177D02*
X151552735Y-54694177D01*
X151412735Y-59287177D02*
X151412735Y-57819177D01*
X151412735Y-56223177D02*
X151412735Y-54755177D01*
X151272735Y-59217177D02*
X151272735Y-57797177D01*
X151272735Y-56245177D02*
X151272735Y-54825177D01*
X151132735Y-59135177D02*
X151132735Y-57747177D01*
X151132735Y-56295177D02*
X151132735Y-54907177D01*
X150992735Y-59040177D02*
X150992735Y-57665177D01*
X150992735Y-56377177D02*
X150992735Y-55002177D01*
X150852735Y-58929177D02*
X150852735Y-57533177D01*
X150852735Y-56509177D02*
X150852735Y-55113177D01*
X150712735Y-58801177D02*
X150712735Y-57286177D01*
X150712735Y-56756177D02*
X150712735Y-55241177D01*
X150572735Y-58652177D02*
X150572735Y-55390177D01*
X150432735Y-58473177D02*
X150432735Y-55569177D01*
X150292735Y-58254177D02*
X150292735Y-55788177D01*
X150152735Y-57965177D02*
X150152735Y-56077177D01*
X150012735Y-57493177D02*
X150012735Y-56549177D01*
X152267735Y-57021177D02*
G75*
G03X152267735Y-57021177I-800000J0D01*
G01*
X155005235Y-57021177D02*
G75*
G03X155005235Y-57021177I-2537500J0D01*
G01*
X137302735Y-51347177D02*
X137302735Y-56345177D01*
X137442735Y-51355177D02*
X137442735Y-53692177D01*
X137442735Y-54000177D02*
X137442735Y-56337177D01*
X137582735Y-51371177D02*
X137582735Y-53373177D01*
X137582735Y-54319177D02*
X137582735Y-56321177D01*
X137722735Y-51395177D02*
X137722735Y-53226177D01*
X137722735Y-54466177D02*
X137722735Y-56297177D01*
X137862735Y-51428177D02*
X137862735Y-53134177D01*
X137862735Y-54558177D02*
X137862735Y-56264177D01*
X138002735Y-51469177D02*
X138002735Y-53078177D01*
X138002735Y-54614177D02*
X138002735Y-56223177D01*
X138142735Y-51519177D02*
X138142735Y-53051177D01*
X138142735Y-54641177D02*
X138142735Y-56173177D01*
X138282735Y-51580177D02*
X138282735Y-53048177D01*
X138282735Y-54644177D02*
X138282735Y-56112177D01*
X138422735Y-51650177D02*
X138422735Y-53070177D01*
X138422735Y-54622177D02*
X138422735Y-56042177D01*
X138562735Y-51732177D02*
X138562735Y-53120177D01*
X138562735Y-54572177D02*
X138562735Y-55960177D01*
X138702735Y-51827177D02*
X138702735Y-53202177D01*
X138702735Y-54490177D02*
X138702735Y-55865177D01*
X138842735Y-51938177D02*
X138842735Y-53334177D01*
X138842735Y-54358177D02*
X138842735Y-55754177D01*
X138982735Y-52066177D02*
X138982735Y-53581177D01*
X138982735Y-54111177D02*
X138982735Y-55626177D01*
X139122735Y-52215177D02*
X139122735Y-55477177D01*
X139262735Y-52394177D02*
X139262735Y-55298177D01*
X139402735Y-52613177D02*
X139402735Y-55079177D01*
X139542735Y-52902177D02*
X139542735Y-54790177D01*
X139682735Y-53374177D02*
X139682735Y-54318177D01*
X139027735Y-53846177D02*
G75*
G03X139027735Y-53846177I-800000J0D01*
G01*
X139765235Y-53846177D02*
G75*
G03X139765235Y-53846177I-2537500J0D01*
G01*
X126756735Y-76511177D02*
X121758735Y-76511177D01*
X126748735Y-76651177D02*
X124411735Y-76651177D01*
X124103735Y-76651177D02*
X121766735Y-76651177D01*
X126732735Y-76791177D02*
X124730735Y-76791177D01*
X123784735Y-76791177D02*
X121782735Y-76791177D01*
X126708735Y-76931177D02*
X124877735Y-76931177D01*
X123637735Y-76931177D02*
X121806735Y-76931177D01*
X126675735Y-77071177D02*
X124969735Y-77071177D01*
X123545735Y-77071177D02*
X121839735Y-77071177D01*
X126634735Y-77211177D02*
X125025735Y-77211177D01*
X123489735Y-77211177D02*
X121880735Y-77211177D01*
X126584735Y-77351177D02*
X125052735Y-77351177D01*
X123462735Y-77351177D02*
X121930735Y-77351177D01*
X126523735Y-77491177D02*
X125055735Y-77491177D01*
X123459735Y-77491177D02*
X121991735Y-77491177D01*
X126453735Y-77631177D02*
X125033735Y-77631177D01*
X123481735Y-77631177D02*
X122061735Y-77631177D01*
X126371735Y-77771177D02*
X124983735Y-77771177D01*
X123531735Y-77771177D02*
X122143735Y-77771177D01*
X126276735Y-77911177D02*
X124901735Y-77911177D01*
X123613735Y-77911177D02*
X122238735Y-77911177D01*
X126165735Y-78051177D02*
X124769735Y-78051177D01*
X123745735Y-78051177D02*
X122349735Y-78051177D01*
X126037735Y-78191177D02*
X124522735Y-78191177D01*
X123992735Y-78191177D02*
X122477735Y-78191177D01*
X125888735Y-78331177D02*
X122626735Y-78331177D01*
X125709735Y-78471177D02*
X122805735Y-78471177D01*
X125490735Y-78611177D02*
X123024735Y-78611177D01*
X125201735Y-78751177D02*
X123313735Y-78751177D01*
X124729735Y-78891177D02*
X123785735Y-78891177D01*
X125057735Y-77436177D02*
G75*
G03X125057735Y-77436177I-800000J0D01*
G01*
X126795235Y-76436177D02*
G75*
G03X126795235Y-76436177I-2537500J0D01*
G01*
X134072735Y-84920177D02*
X134072735Y-79922177D01*
X133932735Y-84912177D02*
X133932735Y-82575177D01*
X133932735Y-82267177D02*
X133932735Y-79930177D01*
X133792735Y-84896177D02*
X133792735Y-82894177D01*
X133792735Y-81948177D02*
X133792735Y-79946177D01*
X133652735Y-84872177D02*
X133652735Y-83041177D01*
X133652735Y-81801177D02*
X133652735Y-79970177D01*
X133512735Y-84839177D02*
X133512735Y-83133177D01*
X133512735Y-81709177D02*
X133512735Y-80003177D01*
X133372735Y-84798177D02*
X133372735Y-83189177D01*
X133372735Y-81653177D02*
X133372735Y-80044177D01*
X133232735Y-84748177D02*
X133232735Y-83216177D01*
X133232735Y-81626177D02*
X133232735Y-80094177D01*
X133092735Y-84687177D02*
X133092735Y-83219177D01*
X133092735Y-81623177D02*
X133092735Y-80155177D01*
X132952735Y-84617177D02*
X132952735Y-83197177D01*
X132952735Y-81645177D02*
X132952735Y-80225177D01*
X132812735Y-84535177D02*
X132812735Y-83147177D01*
X132812735Y-81695177D02*
X132812735Y-80307177D01*
X132672735Y-84440177D02*
X132672735Y-83065177D01*
X132672735Y-81777177D02*
X132672735Y-80402177D01*
X132532735Y-84329177D02*
X132532735Y-82933177D01*
X132532735Y-81909177D02*
X132532735Y-80513177D01*
X132392735Y-84201177D02*
X132392735Y-82686177D01*
X132392735Y-82156177D02*
X132392735Y-80641177D01*
X132252735Y-84052177D02*
X132252735Y-80790177D01*
X132112735Y-83873177D02*
X132112735Y-80969177D01*
X131972735Y-83654177D02*
X131972735Y-81188177D01*
X131832735Y-83365177D02*
X131832735Y-81477177D01*
X131692735Y-82893177D02*
X131692735Y-81949177D01*
X133947735Y-82421177D02*
G75*
G03X133947735Y-82421177I-800000J0D01*
G01*
X136685235Y-82421177D02*
G75*
G03X136685235Y-82421177I-2537500J0D01*
G01*
X161067735Y-127256177D02*
X161067735Y-130256177D01*
X158567735Y-130256177D02*
X158567735Y-127256177D01*
X181832735Y-101491177D02*
X184832735Y-101491177D01*
X184832735Y-103991177D02*
X181832735Y-103991177D01*
X181792735Y-104666177D02*
X184792735Y-104666177D01*
X184792735Y-107166177D02*
X181792735Y-107166177D01*
X181832735Y-76091177D02*
X184832735Y-76091177D01*
X184832735Y-78591177D02*
X181832735Y-78591177D01*
X181832735Y-79266177D02*
X184832735Y-79266177D01*
X184832735Y-81766177D02*
X181832735Y-81766177D01*
X181832735Y-51961177D02*
X184832735Y-51961177D01*
X184832735Y-54461177D02*
X181832735Y-54461177D01*
X181792735Y-55136177D02*
X184792735Y-55136177D01*
X184792735Y-57636177D02*
X181792735Y-57636177D01*
X152542735Y-111672177D02*
X152542735Y-116670177D01*
X152682735Y-111680177D02*
X152682735Y-114017177D01*
X152682735Y-114325177D02*
X152682735Y-116662177D01*
X152822735Y-111696177D02*
X152822735Y-113698177D01*
X152822735Y-114644177D02*
X152822735Y-116646177D01*
X152962735Y-111720177D02*
X152962735Y-113551177D01*
X152962735Y-114791177D02*
X152962735Y-116622177D01*
X153102735Y-111753177D02*
X153102735Y-113459177D01*
X153102735Y-114883177D02*
X153102735Y-116589177D01*
X153242735Y-111794177D02*
X153242735Y-113403177D01*
X153242735Y-114939177D02*
X153242735Y-116548177D01*
X153382735Y-111844177D02*
X153382735Y-113376177D01*
X153382735Y-114966177D02*
X153382735Y-116498177D01*
X153522735Y-111905177D02*
X153522735Y-113373177D01*
X153522735Y-114969177D02*
X153522735Y-116437177D01*
X153662735Y-111975177D02*
X153662735Y-113395177D01*
X153662735Y-114947177D02*
X153662735Y-116367177D01*
X153802735Y-112057177D02*
X153802735Y-113445177D01*
X153802735Y-114897177D02*
X153802735Y-116285177D01*
X153942735Y-112152177D02*
X153942735Y-113527177D01*
X153942735Y-114815177D02*
X153942735Y-116190177D01*
X154082735Y-112263177D02*
X154082735Y-113659177D01*
X154082735Y-114683177D02*
X154082735Y-116079177D01*
X154222735Y-112391177D02*
X154222735Y-113906177D01*
X154222735Y-114436177D02*
X154222735Y-115951177D01*
X154362735Y-112540177D02*
X154362735Y-115802177D01*
X154502735Y-112719177D02*
X154502735Y-115623177D01*
X154642735Y-112938177D02*
X154642735Y-115404177D01*
X154782735Y-113227177D02*
X154782735Y-115115177D01*
X154922735Y-113699177D02*
X154922735Y-114643177D01*
X154267735Y-114171177D02*
G75*
G03X154267735Y-114171177I-800000J0D01*
G01*
X155005235Y-114171177D02*
G75*
G03X155005235Y-114171177I-2537500J0D01*
G01*
X152542735Y-93892177D02*
X152542735Y-98890177D01*
X152682735Y-93900177D02*
X152682735Y-96237177D01*
X152682735Y-96545177D02*
X152682735Y-98882177D01*
X152822735Y-93916177D02*
X152822735Y-95918177D01*
X152822735Y-96864177D02*
X152822735Y-98866177D01*
X152962735Y-93940177D02*
X152962735Y-95771177D01*
X152962735Y-97011177D02*
X152962735Y-98842177D01*
X153102735Y-93973177D02*
X153102735Y-95679177D01*
X153102735Y-97103177D02*
X153102735Y-98809177D01*
X153242735Y-94014177D02*
X153242735Y-95623177D01*
X153242735Y-97159177D02*
X153242735Y-98768177D01*
X153382735Y-94064177D02*
X153382735Y-95596177D01*
X153382735Y-97186177D02*
X153382735Y-98718177D01*
X153522735Y-94125177D02*
X153522735Y-95593177D01*
X153522735Y-97189177D02*
X153522735Y-98657177D01*
X153662735Y-94195177D02*
X153662735Y-95615177D01*
X153662735Y-97167177D02*
X153662735Y-98587177D01*
X153802735Y-94277177D02*
X153802735Y-95665177D01*
X153802735Y-97117177D02*
X153802735Y-98505177D01*
X153942735Y-94372177D02*
X153942735Y-95747177D01*
X153942735Y-97035177D02*
X153942735Y-98410177D01*
X154082735Y-94483177D02*
X154082735Y-95879177D01*
X154082735Y-96903177D02*
X154082735Y-98299177D01*
X154222735Y-94611177D02*
X154222735Y-96126177D01*
X154222735Y-96656177D02*
X154222735Y-98171177D01*
X154362735Y-94760177D02*
X154362735Y-98022177D01*
X154502735Y-94939177D02*
X154502735Y-97843177D01*
X154642735Y-95158177D02*
X154642735Y-97624177D01*
X154782735Y-95447177D02*
X154782735Y-97335177D01*
X154922735Y-95919177D02*
X154922735Y-96863177D01*
X154267735Y-96391177D02*
G75*
G03X154267735Y-96391177I-800000J0D01*
G01*
X155005235Y-96391177D02*
G75*
G03X155005235Y-96391177I-2537500J0D01*
G01*
X134072735Y-98890177D02*
X134072735Y-93892177D01*
X133932735Y-98882177D02*
X133932735Y-96545177D01*
X133932735Y-96237177D02*
X133932735Y-93900177D01*
X133792735Y-98866177D02*
X133792735Y-96864177D01*
X133792735Y-95918177D02*
X133792735Y-93916177D01*
X133652735Y-98842177D02*
X133652735Y-97011177D01*
X133652735Y-95771177D02*
X133652735Y-93940177D01*
X133512735Y-98809177D02*
X133512735Y-97103177D01*
X133512735Y-95679177D02*
X133512735Y-93973177D01*
X133372735Y-98768177D02*
X133372735Y-97159177D01*
X133372735Y-95623177D02*
X133372735Y-94014177D01*
X133232735Y-98718177D02*
X133232735Y-97186177D01*
X133232735Y-95596177D02*
X133232735Y-94064177D01*
X133092735Y-98657177D02*
X133092735Y-97189177D01*
X133092735Y-95593177D02*
X133092735Y-94125177D01*
X132952735Y-98587177D02*
X132952735Y-97167177D01*
X132952735Y-95615177D02*
X132952735Y-94195177D01*
X132812735Y-98505177D02*
X132812735Y-97117177D01*
X132812735Y-95665177D02*
X132812735Y-94277177D01*
X132672735Y-98410177D02*
X132672735Y-97035177D01*
X132672735Y-95747177D02*
X132672735Y-94372177D01*
X132532735Y-98299177D02*
X132532735Y-96903177D01*
X132532735Y-95879177D02*
X132532735Y-94483177D01*
X132392735Y-98171177D02*
X132392735Y-96656177D01*
X132392735Y-96126177D02*
X132392735Y-94611177D01*
X132252735Y-98022177D02*
X132252735Y-94760177D01*
X132112735Y-97843177D02*
X132112735Y-94939177D01*
X131972735Y-97624177D02*
X131972735Y-95158177D01*
X131832735Y-97335177D02*
X131832735Y-95447177D01*
X131692735Y-96863177D02*
X131692735Y-95919177D01*
X133947735Y-96391177D02*
G75*
G03X133947735Y-96391177I-800000J0D01*
G01*
X136685235Y-96391177D02*
G75*
G03X136685235Y-96391177I-2537500J0D01*
G01*
X152637735Y-79287177D02*
X152637735Y-84285177D01*
X152777735Y-79295177D02*
X152777735Y-81632177D01*
X152777735Y-81940177D02*
X152777735Y-84277177D01*
X152917735Y-79311177D02*
X152917735Y-81313177D01*
X152917735Y-82259177D02*
X152917735Y-84261177D01*
X153057735Y-79335177D02*
X153057735Y-81166177D01*
X153057735Y-82406177D02*
X153057735Y-84237177D01*
X153197735Y-79368177D02*
X153197735Y-81074177D01*
X153197735Y-82498177D02*
X153197735Y-84204177D01*
X153337735Y-79409177D02*
X153337735Y-81018177D01*
X153337735Y-82554177D02*
X153337735Y-84163177D01*
X153477735Y-79459177D02*
X153477735Y-80991177D01*
X153477735Y-82581177D02*
X153477735Y-84113177D01*
X153617735Y-79520177D02*
X153617735Y-80988177D01*
X153617735Y-82584177D02*
X153617735Y-84052177D01*
X153757735Y-79590177D02*
X153757735Y-81010177D01*
X153757735Y-82562177D02*
X153757735Y-83982177D01*
X153897735Y-79672177D02*
X153897735Y-81060177D01*
X153897735Y-82512177D02*
X153897735Y-83900177D01*
X154037735Y-79767177D02*
X154037735Y-81142177D01*
X154037735Y-82430177D02*
X154037735Y-83805177D01*
X154177735Y-79878177D02*
X154177735Y-81274177D01*
X154177735Y-82298177D02*
X154177735Y-83694177D01*
X154317735Y-80006177D02*
X154317735Y-81521177D01*
X154317735Y-82051177D02*
X154317735Y-83566177D01*
X154457735Y-80155177D02*
X154457735Y-83417177D01*
X154597735Y-80334177D02*
X154597735Y-83238177D01*
X154737735Y-80553177D02*
X154737735Y-83019177D01*
X154877735Y-80842177D02*
X154877735Y-82730177D01*
X155017735Y-81314177D02*
X155017735Y-82258177D01*
X154362735Y-81786177D02*
G75*
G03X154362735Y-81786177I-800000J0D01*
G01*
X155100235Y-81786177D02*
G75*
G03X155100235Y-81786177I-2537500J0D01*
G01*
X159858735Y-97951177D02*
X164856735Y-97951177D01*
X159866735Y-97811177D02*
X162203735Y-97811177D01*
X162511735Y-97811177D02*
X164848735Y-97811177D01*
X159882735Y-97671177D02*
X161884735Y-97671177D01*
X162830735Y-97671177D02*
X164832735Y-97671177D01*
X159906735Y-97531177D02*
X161737735Y-97531177D01*
X162977735Y-97531177D02*
X164808735Y-97531177D01*
X159939735Y-97391177D02*
X161645735Y-97391177D01*
X163069735Y-97391177D02*
X164775735Y-97391177D01*
X159980735Y-97251177D02*
X161589735Y-97251177D01*
X163125735Y-97251177D02*
X164734735Y-97251177D01*
X160030735Y-97111177D02*
X161562735Y-97111177D01*
X163152735Y-97111177D02*
X164684735Y-97111177D01*
X160091735Y-96971177D02*
X161559735Y-96971177D01*
X163155735Y-96971177D02*
X164623735Y-96971177D01*
X160161735Y-96831177D02*
X161581735Y-96831177D01*
X163133735Y-96831177D02*
X164553735Y-96831177D01*
X160243735Y-96691177D02*
X161631735Y-96691177D01*
X163083735Y-96691177D02*
X164471735Y-96691177D01*
X160338735Y-96551177D02*
X161713735Y-96551177D01*
X163001735Y-96551177D02*
X164376735Y-96551177D01*
X160449735Y-96411177D02*
X161845735Y-96411177D01*
X162869735Y-96411177D02*
X164265735Y-96411177D01*
X160577735Y-96271177D02*
X162092735Y-96271177D01*
X162622735Y-96271177D02*
X164137735Y-96271177D01*
X160726735Y-96131177D02*
X163988735Y-96131177D01*
X160905735Y-95991177D02*
X163809735Y-95991177D01*
X161124735Y-95851177D02*
X163590735Y-95851177D01*
X161413735Y-95711177D02*
X163301735Y-95711177D01*
X161885735Y-95571177D02*
X162829735Y-95571177D01*
X163157735Y-97026177D02*
G75*
G03X163157735Y-97026177I-800000J0D01*
G01*
X164895235Y-98026177D02*
G75*
G03X164895235Y-98026177I-2537500J0D01*
G01*
X164856735Y-87306177D02*
X159858735Y-87306177D01*
X164848735Y-87446177D02*
X162511735Y-87446177D01*
X162203735Y-87446177D02*
X159866735Y-87446177D01*
X164832735Y-87586177D02*
X162830735Y-87586177D01*
X161884735Y-87586177D02*
X159882735Y-87586177D01*
X164808735Y-87726177D02*
X162977735Y-87726177D01*
X161737735Y-87726177D02*
X159906735Y-87726177D01*
X164775735Y-87866177D02*
X163069735Y-87866177D01*
X161645735Y-87866177D02*
X159939735Y-87866177D01*
X164734735Y-88006177D02*
X163125735Y-88006177D01*
X161589735Y-88006177D02*
X159980735Y-88006177D01*
X164684735Y-88146177D02*
X163152735Y-88146177D01*
X161562735Y-88146177D02*
X160030735Y-88146177D01*
X164623735Y-88286177D02*
X163155735Y-88286177D01*
X161559735Y-88286177D02*
X160091735Y-88286177D01*
X164553735Y-88426177D02*
X163133735Y-88426177D01*
X161581735Y-88426177D02*
X160161735Y-88426177D01*
X164471735Y-88566177D02*
X163083735Y-88566177D01*
X161631735Y-88566177D02*
X160243735Y-88566177D01*
X164376735Y-88706177D02*
X163001735Y-88706177D01*
X161713735Y-88706177D02*
X160338735Y-88706177D01*
X164265735Y-88846177D02*
X162869735Y-88846177D01*
X161845735Y-88846177D02*
X160449735Y-88846177D01*
X164137735Y-88986177D02*
X162622735Y-88986177D01*
X162092735Y-88986177D02*
X160577735Y-88986177D01*
X163988735Y-89126177D02*
X160726735Y-89126177D01*
X163809735Y-89266177D02*
X160905735Y-89266177D01*
X163590735Y-89406177D02*
X161124735Y-89406177D01*
X163301735Y-89546177D02*
X161413735Y-89546177D01*
X162829735Y-89686177D02*
X161885735Y-89686177D01*
X163157735Y-88231177D02*
G75*
G03X163157735Y-88231177I-800000J0D01*
G01*
X164895235Y-87231177D02*
G75*
G03X164895235Y-87231177I-2537500J0D01*
G01*
X121758735Y-85251177D02*
X126756735Y-85251177D01*
X121766735Y-85111177D02*
X124103735Y-85111177D01*
X124411735Y-85111177D02*
X126748735Y-85111177D01*
X121782735Y-84971177D02*
X123784735Y-84971177D01*
X124730735Y-84971177D02*
X126732735Y-84971177D01*
X121806735Y-84831177D02*
X123637735Y-84831177D01*
X124877735Y-84831177D02*
X126708735Y-84831177D01*
X121839735Y-84691177D02*
X123545735Y-84691177D01*
X124969735Y-84691177D02*
X126675735Y-84691177D01*
X121880735Y-84551177D02*
X123489735Y-84551177D01*
X125025735Y-84551177D02*
X126634735Y-84551177D01*
X121930735Y-84411177D02*
X123462735Y-84411177D01*
X125052735Y-84411177D02*
X126584735Y-84411177D01*
X121991735Y-84271177D02*
X123459735Y-84271177D01*
X125055735Y-84271177D02*
X126523735Y-84271177D01*
X122061735Y-84131177D02*
X123481735Y-84131177D01*
X125033735Y-84131177D02*
X126453735Y-84131177D01*
X122143735Y-83991177D02*
X123531735Y-83991177D01*
X124983735Y-83991177D02*
X126371735Y-83991177D01*
X122238735Y-83851177D02*
X123613735Y-83851177D01*
X124901735Y-83851177D02*
X126276735Y-83851177D01*
X122349735Y-83711177D02*
X123745735Y-83711177D01*
X124769735Y-83711177D02*
X126165735Y-83711177D01*
X122477735Y-83571177D02*
X123992735Y-83571177D01*
X124522735Y-83571177D02*
X126037735Y-83571177D01*
X122626735Y-83431177D02*
X125888735Y-83431177D01*
X122805735Y-83291177D02*
X125709735Y-83291177D01*
X123024735Y-83151177D02*
X125490735Y-83151177D01*
X123313735Y-83011177D02*
X125201735Y-83011177D01*
X123785735Y-82871177D02*
X124729735Y-82871177D01*
X125057735Y-84326177D02*
G75*
G03X125057735Y-84326177I-800000J0D01*
G01*
X126795235Y-85326177D02*
G75*
G03X126795235Y-85326177I-2537500J0D01*
G01*
X142287735Y-83036177D02*
X139287735Y-83036177D01*
X139287735Y-80536177D02*
X142287735Y-80536177D01*
X132456855Y-143772337D02*
X141458615Y-143772337D01*
X132456855Y-147272457D02*
X141458615Y-147272457D01*
X141458615Y-147272457D02*
X141458615Y-132771597D01*
X141458615Y-132771597D02*
X132456855Y-132771597D01*
X132456855Y-132771597D02*
X132456855Y-147272457D01*
X159817735Y-67181177D02*
X159817735Y-68197177D01*
X159817735Y-62355177D02*
X159817735Y-61085177D01*
X161087735Y-62609177D02*
X158547735Y-62609177D01*
X161087735Y-62863177D02*
X158547735Y-62863177D01*
X161087735Y-63117177D02*
X158547735Y-63117177D01*
X161087735Y-62355177D02*
X158547735Y-62355177D01*
X161087735Y-63371177D02*
X158547735Y-62101177D01*
X161087735Y-62101177D02*
X158547735Y-63371177D01*
X161087735Y-63371177D02*
X158547735Y-63371177D01*
X161087735Y-62736177D02*
X158547735Y-62736177D01*
X158547735Y-62101177D02*
X161087735Y-62101177D01*
X161087735Y-62101177D02*
X161087735Y-67181177D01*
X161087735Y-67181177D02*
X158547735Y-67181177D01*
X158547735Y-67181177D02*
X158547735Y-62101177D01*
X132512735Y-61466177D02*
X132512735Y-62482177D01*
X132512735Y-56640177D02*
X132512735Y-55370177D01*
X133782735Y-56894177D02*
X131242735Y-56894177D01*
X133782735Y-57148177D02*
X131242735Y-57148177D01*
X133782735Y-57402177D02*
X131242735Y-57402177D01*
X133782735Y-56640177D02*
X131242735Y-56640177D01*
X133782735Y-57656177D02*
X131242735Y-56386177D01*
X133782735Y-56386177D02*
X131242735Y-57656177D01*
X133782735Y-57656177D02*
X131242735Y-57656177D01*
X133782735Y-57021177D02*
X131242735Y-57021177D01*
X131242735Y-56386177D02*
X133782735Y-56386177D01*
X133782735Y-56386177D02*
X133782735Y-61466177D01*
X133782735Y-61466177D02*
X131242735Y-61466177D01*
X131242735Y-61466177D02*
X131242735Y-56386177D01*
X124255195Y-63371177D02*
X124255195Y-62355177D01*
X124255195Y-68197177D02*
X124255195Y-69467177D01*
X122985195Y-67943177D02*
X125525195Y-67943177D01*
X122985195Y-67689177D02*
X125525195Y-67689177D01*
X122985195Y-67435177D02*
X125525195Y-67435177D01*
X122985195Y-68197177D02*
X125525195Y-68197177D01*
X122985195Y-67181177D02*
X125525195Y-68451177D01*
X122985195Y-68451177D02*
X125525195Y-67181177D01*
X122985195Y-67181177D02*
X125525195Y-67181177D01*
X122985195Y-67816177D02*
X125525195Y-67816177D01*
X125525195Y-68451177D02*
X122985195Y-68451177D01*
X122985195Y-68451177D02*
X122985195Y-63371177D01*
X122985195Y-63371177D02*
X125525195Y-63371177D01*
X125525195Y-63371177D02*
X125525195Y-68451177D01*
X75236639Y-121228065D02*
G75*
G03X72211735Y-121243177I-1524904J2484888D01*
G01*
X75211735Y-121243177D02*
X72211735Y-121243177D01*
X76229671Y-118743177D02*
G75*
G03X76229671Y-118743177I-2517936J0D01*
G01*
X67108639Y-121228065D02*
G75*
G03X64083735Y-121243177I-1524904J2484888D01*
G01*
X67083735Y-121243177D02*
X64083735Y-121243177D01*
X68101671Y-118743177D02*
G75*
G03X68101671Y-118743177I-2517936J0D01*
G01*
X75236639Y-95828065D02*
G75*
G03X72211735Y-95843177I-1524904J2484888D01*
G01*
X75211735Y-95843177D02*
X72211735Y-95843177D01*
X76229671Y-93343177D02*
G75*
G03X76229671Y-93343177I-2517936J0D01*
G01*
X67108639Y-95828065D02*
G75*
G03X64083735Y-95843177I-1524904J2484888D01*
G01*
X67083735Y-95843177D02*
X64083735Y-95843177D01*
X68101671Y-93343177D02*
G75*
G03X68101671Y-93343177I-2517936J0D01*
G01*
X75236639Y-70428065D02*
G75*
G03X72211735Y-70443177I-1524904J2484888D01*
G01*
X75211735Y-70443177D02*
X72211735Y-70443177D01*
X76229671Y-67943177D02*
G75*
G03X76229671Y-67943177I-2517936J0D01*
G01*
X67108639Y-70428065D02*
G75*
G03X64083735Y-70443177I-1524904J2484888D01*
G01*
X67083735Y-70443177D02*
X64083735Y-70443177D01*
X68101671Y-67943177D02*
G75*
G03X68101671Y-67943177I-2517936J0D01*
G01*
X75236639Y-112592065D02*
G75*
G03X72211735Y-112607177I-1524904J2484888D01*
G01*
X75211735Y-112607177D02*
X72211735Y-112607177D01*
X76229671Y-110107177D02*
G75*
G03X76229671Y-110107177I-2517936J0D01*
G01*
X67108639Y-112592065D02*
G75*
G03X64083735Y-112607177I-1524904J2484888D01*
G01*
X67083735Y-112607177D02*
X64083735Y-112607177D01*
X68101671Y-110107177D02*
G75*
G03X68101671Y-110107177I-2517936J0D01*
G01*
X75236639Y-87192065D02*
G75*
G03X72211735Y-87207177I-1524904J2484888D01*
G01*
X75211735Y-87207177D02*
X72211735Y-87207177D01*
X76229671Y-84707177D02*
G75*
G03X76229671Y-84707177I-2517936J0D01*
G01*
X67108639Y-87192065D02*
G75*
G03X64083735Y-87207177I-1524904J2484888D01*
G01*
X67083735Y-87207177D02*
X64083735Y-87207177D01*
X68101671Y-84707177D02*
G75*
G03X68101671Y-84707177I-2517936J0D01*
G01*
X75236639Y-61792065D02*
G75*
G03X72211735Y-61807177I-1524904J2484888D01*
G01*
X75211735Y-61807177D02*
X72211735Y-61807177D01*
X76229671Y-59307177D02*
G75*
G03X76229671Y-59307177I-2517936J0D01*
G01*
X67108639Y-61792065D02*
G75*
G03X64083735Y-61807177I-1524904J2484888D01*
G01*
X67083735Y-61807177D02*
X64083735Y-61807177D01*
X68101671Y-59307177D02*
G75*
G03X68101671Y-59307177I-2517936J0D01*
G01*
X162357735Y-110361177D02*
X162357735Y-111377177D01*
X162357735Y-105535177D02*
X162357735Y-104265177D01*
X163627735Y-105789177D02*
X161087735Y-105789177D01*
X163627735Y-106043177D02*
X161087735Y-106043177D01*
X163627735Y-106297177D02*
X161087735Y-106297177D01*
X163627735Y-105535177D02*
X161087735Y-105535177D01*
X163627735Y-106551177D02*
X161087735Y-105281177D01*
X163627735Y-105281177D02*
X161087735Y-106551177D01*
X163627735Y-106551177D02*
X161087735Y-106551177D01*
X163627735Y-105916177D02*
X161087735Y-105916177D01*
X161087735Y-105281177D02*
X163627735Y-105281177D01*
X163627735Y-105281177D02*
X163627735Y-110361177D01*
X163627735Y-110361177D02*
X161087735Y-110361177D01*
X161087735Y-110361177D02*
X161087735Y-105281177D01*
X157280275Y-93851177D02*
X157280275Y-94867177D01*
X157280275Y-89025177D02*
X157280275Y-87755177D01*
X158550275Y-89279177D02*
X156010275Y-89279177D01*
X158550275Y-89533177D02*
X156010275Y-89533177D01*
X158550275Y-89787177D02*
X156010275Y-89787177D01*
X158550275Y-89025177D02*
X156010275Y-89025177D01*
X158550275Y-90041177D02*
X156010275Y-88771177D01*
X158550275Y-88771177D02*
X156010275Y-90041177D01*
X158550275Y-90041177D02*
X156010275Y-90041177D01*
X158550275Y-89406177D02*
X156010275Y-89406177D01*
X156010275Y-88771177D02*
X158550275Y-88771177D01*
X158550275Y-88771177D02*
X158550275Y-93851177D01*
X158550275Y-93851177D02*
X156010275Y-93851177D01*
X156010275Y-93851177D02*
X156010275Y-88771177D01*
X129594275Y-93851177D02*
X129594275Y-94867177D01*
X129594275Y-89025177D02*
X129594275Y-87755177D01*
X130864275Y-89279177D02*
X128324275Y-89279177D01*
X130864275Y-89533177D02*
X128324275Y-89533177D01*
X130864275Y-89787177D02*
X128324275Y-89787177D01*
X130864275Y-89025177D02*
X128324275Y-89025177D01*
X130864275Y-90041177D02*
X128324275Y-88771177D01*
X130864275Y-88771177D02*
X128324275Y-90041177D01*
X130864275Y-90041177D02*
X128324275Y-90041177D01*
X130864275Y-89406177D02*
X128324275Y-89406177D01*
X128324275Y-88771177D02*
X130864275Y-88771177D01*
X130864275Y-88771177D02*
X130864275Y-93851177D01*
X130864275Y-93851177D02*
X128324275Y-93851177D01*
X128324275Y-93851177D02*
X128324275Y-88771177D01*
X212396639Y-121228065D02*
G75*
G03X209371735Y-121243177I-1524904J2484888D01*
G01*
X212371735Y-121243177D02*
X209371735Y-121243177D01*
X213389671Y-118743177D02*
G75*
G03X213389671Y-118743177I-2517936J0D01*
G01*
X220524639Y-121228065D02*
G75*
G03X217499735Y-121243177I-1524904J2484888D01*
G01*
X220499735Y-121243177D02*
X217499735Y-121243177D01*
X221517671Y-118743177D02*
G75*
G03X221517671Y-118743177I-2517936J0D01*
G01*
X220524639Y-95828065D02*
G75*
G03X217499735Y-95843177I-1524904J2484888D01*
G01*
X220499735Y-95843177D02*
X217499735Y-95843177D01*
X221517671Y-93343177D02*
G75*
G03X221517671Y-93343177I-2517936J0D01*
G01*
X212396639Y-95828065D02*
G75*
G03X209371735Y-95843177I-1524904J2484888D01*
G01*
X212371735Y-95843177D02*
X209371735Y-95843177D01*
X213389671Y-93343177D02*
G75*
G03X213389671Y-93343177I-2517936J0D01*
G01*
X212396639Y-70428065D02*
G75*
G03X209371735Y-70443177I-1524904J2484888D01*
G01*
X212371735Y-70443177D02*
X209371735Y-70443177D01*
X213389671Y-67943177D02*
G75*
G03X213389671Y-67943177I-2517936J0D01*
G01*
X220524639Y-70428065D02*
G75*
G03X217499735Y-70443177I-1524904J2484888D01*
G01*
X220499735Y-70443177D02*
X217499735Y-70443177D01*
X221517671Y-67943177D02*
G75*
G03X221517671Y-67943177I-2517936J0D01*
G01*
X212396639Y-112592065D02*
G75*
G03X209371735Y-112607177I-1524904J2484888D01*
G01*
X212371735Y-112607177D02*
X209371735Y-112607177D01*
X213389671Y-110107177D02*
G75*
G03X213389671Y-110107177I-2517936J0D01*
G01*
X220524639Y-112592065D02*
G75*
G03X217499735Y-112607177I-1524904J2484888D01*
G01*
X220499735Y-112607177D02*
X217499735Y-112607177D01*
X221517671Y-110107177D02*
G75*
G03X221517671Y-110107177I-2517936J0D01*
G01*
X220524639Y-87192065D02*
G75*
G03X217499735Y-87207177I-1524904J2484888D01*
G01*
X220499735Y-87207177D02*
X217499735Y-87207177D01*
X221517671Y-84707177D02*
G75*
G03X221517671Y-84707177I-2517936J0D01*
G01*
X212396639Y-87192065D02*
G75*
G03X209371735Y-87207177I-1524904J2484888D01*
G01*
X212371735Y-87207177D02*
X209371735Y-87207177D01*
X213389671Y-84707177D02*
G75*
G03X213389671Y-84707177I-2517936J0D01*
G01*
X212396639Y-61792065D02*
G75*
G03X209371735Y-61807177I-1524904J2484888D01*
G01*
X212371735Y-61807177D02*
X209371735Y-61807177D01*
X213389671Y-59307177D02*
G75*
G03X213389671Y-59307177I-2517936J0D01*
G01*
X220524639Y-61792065D02*
G75*
G03X217499735Y-61807177I-1524904J2484888D01*
G01*
X220499735Y-61807177D02*
X217499735Y-61807177D01*
X221517671Y-59307177D02*
G75*
G03X221517671Y-59307177I-2517936J0D01*
G01*
X161157735Y-131221177D02*
X148157735Y-131221177D01*
X148157735Y-131221177D02*
X148157735Y-141721177D01*
X148157735Y-141721177D02*
X161157735Y-141721177D01*
X161157735Y-141721177D02*
X161157735Y-131221177D01*
X90602735Y-109980177D02*
X90602735Y-107186177D01*
X89332735Y-109980177D02*
X89332735Y-107186177D01*
X88062735Y-109980177D02*
X88062735Y-107186177D01*
X91732735Y-107186177D02*
X86932735Y-107186177D01*
X86932735Y-107186177D02*
X86932735Y-101996177D01*
X86932735Y-101996177D02*
X91732735Y-101996177D01*
X91732735Y-101996177D02*
X91732735Y-107186177D01*
X90602735Y-84580177D02*
X90602735Y-81786177D01*
X89332735Y-84580177D02*
X89332735Y-81786177D01*
X88062735Y-84580177D02*
X88062735Y-81786177D01*
X91732735Y-81786177D02*
X86932735Y-81786177D01*
X86932735Y-81786177D02*
X86932735Y-76596177D01*
X86932735Y-76596177D02*
X91732735Y-76596177D01*
X91732735Y-76596177D02*
X91732735Y-81786177D01*
X90602735Y-57910177D02*
X90602735Y-55116177D01*
X89332735Y-57910177D02*
X89332735Y-55116177D01*
X88062735Y-57910177D02*
X88062735Y-55116177D01*
X91732735Y-55116177D02*
X86932735Y-55116177D01*
X86932735Y-55116177D02*
X86932735Y-49926177D01*
X86932735Y-49926177D02*
X91732735Y-49926177D01*
X91732735Y-49926177D02*
X91732735Y-55116177D01*
X194742735Y-109980177D02*
X194742735Y-107186177D01*
X193472735Y-109980177D02*
X193472735Y-107186177D01*
X192202735Y-109980177D02*
X192202735Y-107186177D01*
X195872735Y-107186177D02*
X191072735Y-107186177D01*
X191072735Y-107186177D02*
X191072735Y-101996177D01*
X191072735Y-101996177D02*
X195872735Y-101996177D01*
X195872735Y-101996177D02*
X195872735Y-107186177D01*
X194742735Y-84580177D02*
X194742735Y-81786177D01*
X193472735Y-84580177D02*
X193472735Y-81786177D01*
X192202735Y-84580177D02*
X192202735Y-81786177D01*
X195872735Y-81786177D02*
X191072735Y-81786177D01*
X191072735Y-81786177D02*
X191072735Y-76596177D01*
X191072735Y-76596177D02*
X195872735Y-76596177D01*
X195872735Y-76596177D02*
X195872735Y-81786177D01*
X194742735Y-59180177D02*
X194742735Y-56386177D01*
X193472735Y-59180177D02*
X193472735Y-56386177D01*
X192202735Y-59180177D02*
X192202735Y-56386177D01*
X195872735Y-56386177D02*
X191072735Y-56386177D01*
X191072735Y-56386177D02*
X191072735Y-51196177D01*
X191072735Y-51196177D02*
X195872735Y-51196177D01*
X195872735Y-51196177D02*
X195872735Y-56386177D01*
X102667735Y-115441177D02*
X102667735Y-110361177D01*
X102667735Y-110361177D02*
X105207735Y-110361177D01*
X105207735Y-110361177D02*
X105207735Y-115441177D01*
X105207735Y-115441177D02*
X102667735Y-115441177D01*
X102667735Y-90041177D02*
X102667735Y-84961177D01*
X102667735Y-84961177D02*
X105207735Y-84961177D01*
X105207735Y-84961177D02*
X105207735Y-90041177D01*
X105207735Y-90041177D02*
X102667735Y-90041177D01*
X102667735Y-65911177D02*
X102667735Y-60831177D01*
X102667735Y-60831177D02*
X105207735Y-60831177D01*
X105207735Y-60831177D02*
X105207735Y-65911177D01*
X105207735Y-65911177D02*
X102667735Y-65911177D01*
X98857735Y-115441177D02*
X98857735Y-110361177D01*
X98857735Y-110361177D02*
X101397735Y-110361177D01*
X101397735Y-110361177D02*
X101397735Y-115441177D01*
X101397735Y-115441177D02*
X98857735Y-115441177D01*
X98857735Y-90041177D02*
X98857735Y-84961177D01*
X98857735Y-84961177D02*
X101397735Y-84961177D01*
X101397735Y-84961177D02*
X101397735Y-90041177D01*
X101397735Y-90041177D02*
X98857735Y-90041177D01*
X98857735Y-65911177D02*
X98857735Y-60831177D01*
X98857735Y-60831177D02*
X101397735Y-60831177D01*
X101397735Y-60831177D02*
X101397735Y-65911177D01*
X101397735Y-65911177D02*
X98857735Y-65911177D01*
X105842735Y-104646177D02*
X110922735Y-104646177D01*
X110922735Y-104646177D02*
X110922735Y-107186177D01*
X110922735Y-107186177D02*
X105842735Y-107186177D01*
X105842735Y-107186177D02*
X105842735Y-104646177D01*
X105842735Y-79246177D02*
X110922735Y-79246177D01*
X110922735Y-79246177D02*
X110922735Y-81786177D01*
X110922735Y-81786177D02*
X105842735Y-81786177D01*
X105842735Y-81786177D02*
X105842735Y-79246177D01*
X105842735Y-53846177D02*
X110922735Y-53846177D01*
X110922735Y-53846177D02*
X110922735Y-56386177D01*
X110922735Y-56386177D02*
X105842735Y-56386177D01*
X105842735Y-56386177D02*
X105842735Y-53846177D01*
X155372735Y-76071177D02*
X155372735Y-70991177D01*
X155372735Y-70991177D02*
X157912735Y-70991177D01*
X157912735Y-70991177D02*
X157912735Y-76071177D01*
X157912735Y-76071177D02*
X155372735Y-76071177D01*
X129337735Y-76071177D02*
X129337735Y-70991177D01*
X129337735Y-70991177D02*
X131877735Y-70991177D01*
X131877735Y-70991177D02*
X131877735Y-76071177D01*
X131877735Y-76071177D02*
X129337735Y-76071177D01*
X119812735Y-67816177D02*
X119812735Y-62736177D01*
X119812735Y-62736177D02*
X122352735Y-62736177D01*
X122352735Y-62736177D02*
X122352735Y-67816177D01*
X122352735Y-67816177D02*
X119812735Y-67816177D01*
X148387735Y-125601177D02*
X143307735Y-125601177D01*
X143307735Y-125601177D02*
X143307735Y-123061177D01*
X143307735Y-123061177D02*
X148387735Y-123061177D01*
X148387735Y-123061177D02*
X148387735Y-125601177D01*
X162357735Y-65911177D02*
X162357735Y-60831177D01*
X162357735Y-60831177D02*
X164897735Y-60831177D01*
X164897735Y-60831177D02*
X164897735Y-65911177D01*
X164897735Y-65911177D02*
X162357735Y-65911177D01*
X127432735Y-60196177D02*
X127432735Y-55116177D01*
X127432735Y-55116177D02*
X129972735Y-55116177D01*
X129972735Y-55116177D02*
X129972735Y-60196177D01*
X129972735Y-60196177D02*
X127432735Y-60196177D01*
X119177735Y-70356177D02*
X119177735Y-75436177D01*
X119177735Y-75436177D02*
X116637735Y-75436177D01*
X116637735Y-75436177D02*
X116637735Y-70356177D01*
X116637735Y-70356177D02*
X119177735Y-70356177D01*
X143307735Y-119886177D02*
X148387735Y-119886177D01*
X148387735Y-119886177D02*
X148387735Y-122426177D01*
X148387735Y-122426177D02*
X143307735Y-122426177D01*
X143307735Y-122426177D02*
X143307735Y-119886177D01*
X84252735Y-118616177D02*
X89332735Y-118616177D01*
X89332735Y-118616177D02*
X89332735Y-121156177D01*
X89332735Y-121156177D02*
X84252735Y-121156177D01*
X84252735Y-121156177D02*
X84252735Y-118616177D01*
X84252735Y-115441177D02*
X89332735Y-115441177D01*
X89332735Y-115441177D02*
X89332735Y-117981177D01*
X89332735Y-117981177D02*
X84252735Y-117981177D01*
X84252735Y-117981177D02*
X84252735Y-115441177D01*
X84252735Y-93216177D02*
X89332735Y-93216177D01*
X89332735Y-93216177D02*
X89332735Y-95756177D01*
X89332735Y-95756177D02*
X84252735Y-95756177D01*
X84252735Y-95756177D02*
X84252735Y-93216177D01*
X84252735Y-90041177D02*
X89332735Y-90041177D01*
X89332735Y-90041177D02*
X89332735Y-92581177D01*
X89332735Y-92581177D02*
X84252735Y-92581177D01*
X84252735Y-92581177D02*
X84252735Y-90041177D01*
X84252735Y-66546177D02*
X89332735Y-66546177D01*
X89332735Y-66546177D02*
X89332735Y-69086177D01*
X89332735Y-69086177D02*
X84252735Y-69086177D01*
X84252735Y-69086177D02*
X84252735Y-66546177D01*
X84252735Y-63371177D02*
X89332735Y-63371177D01*
X89332735Y-63371177D02*
X89332735Y-65911177D01*
X89332735Y-65911177D02*
X84252735Y-65911177D01*
X84252735Y-65911177D02*
X84252735Y-63371177D01*
X178867735Y-90041177D02*
X178867735Y-84961177D01*
X178867735Y-84961177D02*
X181407735Y-84961177D01*
X181407735Y-84961177D02*
X181407735Y-90041177D01*
X181407735Y-90041177D02*
X178867735Y-90041177D01*
X178867735Y-65911177D02*
X178867735Y-60831177D01*
X178867735Y-60831177D02*
X181407735Y-60831177D01*
X181407735Y-60831177D02*
X181407735Y-65911177D01*
X181407735Y-65911177D02*
X178867735Y-65911177D01*
X182677735Y-115441177D02*
X182677735Y-110361177D01*
X182677735Y-110361177D02*
X185217735Y-110361177D01*
X185217735Y-110361177D02*
X185217735Y-115441177D01*
X185217735Y-115441177D02*
X182677735Y-115441177D01*
X182677735Y-90041177D02*
X182677735Y-84961177D01*
X182677735Y-84961177D02*
X185217735Y-84961177D01*
X185217735Y-84961177D02*
X185217735Y-90041177D01*
X185217735Y-90041177D02*
X182677735Y-90041177D01*
X182677735Y-65911177D02*
X182677735Y-60831177D01*
X182677735Y-60831177D02*
X185217735Y-60831177D01*
X185217735Y-60831177D02*
X185217735Y-65911177D01*
X185217735Y-65911177D02*
X182677735Y-65911177D01*
X161087735Y-123061177D02*
X166167735Y-123061177D01*
X166167735Y-123061177D02*
X166167735Y-125601177D01*
X166167735Y-125601177D02*
X161087735Y-125601177D01*
X161087735Y-125601177D02*
X161087735Y-123061177D01*
X178232735Y-107186177D02*
X173152735Y-107186177D01*
X173152735Y-107186177D02*
X173152735Y-104646177D01*
X173152735Y-104646177D02*
X178232735Y-104646177D01*
X178232735Y-104646177D02*
X178232735Y-107186177D01*
X178232735Y-81786177D02*
X173152735Y-81786177D01*
X173152735Y-81786177D02*
X173152735Y-79246177D01*
X173152735Y-79246177D02*
X178232735Y-79246177D01*
X178232735Y-79246177D02*
X178232735Y-81786177D01*
X178232735Y-56386177D02*
X173152735Y-56386177D01*
X173152735Y-56386177D02*
X173152735Y-53846177D01*
X173152735Y-53846177D02*
X178232735Y-53846177D01*
X178232735Y-53846177D02*
X178232735Y-56386177D01*
X166167735Y-122426177D02*
X161087735Y-122426177D01*
X161087735Y-122426177D02*
X161087735Y-119886177D01*
X161087735Y-119886177D02*
X166167735Y-119886177D01*
X166167735Y-119886177D02*
X166167735Y-122426177D01*
X157277735Y-104011177D02*
X157277735Y-109091177D01*
X157277735Y-109091177D02*
X154737735Y-109091177D01*
X154737735Y-109091177D02*
X154737735Y-104011177D01*
X154737735Y-104011177D02*
X157277735Y-104011177D01*
X157912735Y-109091177D02*
X157912735Y-104011177D01*
X157912735Y-104011177D02*
X160452735Y-104011177D01*
X160452735Y-104011177D02*
X160452735Y-109091177D01*
X160452735Y-109091177D02*
X157912735Y-109091177D01*
X129972735Y-109091177D02*
X129972735Y-104011177D01*
X129972735Y-104011177D02*
X132512735Y-104011177D01*
X132512735Y-104011177D02*
X132512735Y-109091177D01*
X132512735Y-109091177D02*
X129972735Y-109091177D01*
X168707735Y-97026177D02*
X168707735Y-102106177D01*
X168707735Y-102106177D02*
X166167735Y-102106177D01*
X166167735Y-102106177D02*
X166167735Y-97026177D01*
X166167735Y-97026177D02*
X168707735Y-97026177D01*
X163627735Y-76071177D02*
X163627735Y-81151177D01*
X163627735Y-81151177D02*
X161087735Y-81151177D01*
X161087735Y-81151177D02*
X161087735Y-76071177D01*
X161087735Y-76071177D02*
X163627735Y-76071177D01*
X118542735Y-101471177D02*
X118542735Y-96391177D01*
X118542735Y-96391177D02*
X121082735Y-96391177D01*
X121082735Y-96391177D02*
X121082735Y-101471177D01*
X121082735Y-101471177D02*
X118542735Y-101471177D01*
X124892735Y-101471177D02*
X124892735Y-96391177D01*
X124892735Y-96391177D02*
X127432735Y-96391177D01*
X127432735Y-96391177D02*
X127432735Y-101471177D01*
X127432735Y-101471177D02*
X124892735Y-101471177D01*
X124257735Y-96391177D02*
X124257735Y-101471177D01*
X124257735Y-101471177D02*
X121717735Y-101471177D01*
X121717735Y-101471177D02*
X121717735Y-96391177D01*
X121717735Y-96391177D02*
X124257735Y-96391177D01*
X201092735Y-121156177D02*
X196012735Y-121156177D01*
X196012735Y-121156177D02*
X196012735Y-118616177D01*
X196012735Y-118616177D02*
X201092735Y-118616177D01*
X201092735Y-118616177D02*
X201092735Y-121156177D01*
X201092735Y-117981177D02*
X196012735Y-117981177D01*
X196012735Y-117981177D02*
X196012735Y-115441177D01*
X196012735Y-115441177D02*
X201092735Y-115441177D01*
X201092735Y-115441177D02*
X201092735Y-117981177D01*
X201092735Y-95756177D02*
X196012735Y-95756177D01*
X196012735Y-95756177D02*
X196012735Y-93216177D01*
X196012735Y-93216177D02*
X201092735Y-93216177D01*
X201092735Y-93216177D02*
X201092735Y-95756177D01*
X196012735Y-90041177D02*
X201092735Y-90041177D01*
X201092735Y-90041177D02*
X201092735Y-92581177D01*
X201092735Y-92581177D02*
X196012735Y-92581177D01*
X196012735Y-92581177D02*
X196012735Y-90041177D01*
X201092735Y-70356177D02*
X196012735Y-70356177D01*
X196012735Y-70356177D02*
X196012735Y-67816177D01*
X196012735Y-67816177D02*
X201092735Y-67816177D01*
X201092735Y-67816177D02*
X201092735Y-70356177D01*
X201092735Y-67181177D02*
X196012735Y-67181177D01*
X196012735Y-67181177D02*
X196012735Y-64641177D01*
X196012735Y-64641177D02*
X201092735Y-64641177D01*
X201092735Y-64641177D02*
X201092735Y-67181177D01*
X106477735Y-109345177D02*
X106985735Y-109345177D01*
X106477735Y-110361177D02*
X106477735Y-108329177D01*
X108001735Y-110361177D02*
X106477735Y-110361177D01*
X108001735Y-108329177D02*
X106477735Y-108329177D01*
X118161735Y-108075177D02*
X108001735Y-108075177D01*
X108001735Y-117727177D02*
X118161735Y-117727177D01*
X118161735Y-117727177D02*
X118161735Y-117219177D01*
X118161735Y-117219177D02*
X117653735Y-117219177D01*
X117653735Y-117219177D02*
X117653735Y-108583177D01*
X117653735Y-108583177D02*
X118161735Y-108583177D01*
X118161735Y-108583177D02*
X118161735Y-108075177D01*
X108001735Y-117727177D02*
X108001735Y-108075177D01*
X106477735Y-83945177D02*
X106985735Y-83945177D01*
X106477735Y-84961177D02*
X106477735Y-82929177D01*
X108001735Y-84961177D02*
X106477735Y-84961177D01*
X108001735Y-82929177D02*
X106477735Y-82929177D01*
X118161735Y-82675177D02*
X108001735Y-82675177D01*
X108001735Y-92327177D02*
X118161735Y-92327177D01*
X118161735Y-92327177D02*
X118161735Y-91819177D01*
X118161735Y-91819177D02*
X117653735Y-91819177D01*
X117653735Y-91819177D02*
X117653735Y-83183177D01*
X117653735Y-83183177D02*
X118161735Y-83183177D01*
X118161735Y-83183177D02*
X118161735Y-82675177D01*
X108001735Y-92327177D02*
X108001735Y-82675177D01*
X106477735Y-58545177D02*
X106985735Y-58545177D01*
X106477735Y-59561177D02*
X106477735Y-57529177D01*
X108001735Y-59561177D02*
X106477735Y-59561177D01*
X108001735Y-57529177D02*
X106477735Y-57529177D01*
X118161735Y-57275177D02*
X108001735Y-57275177D01*
X108001735Y-66927177D02*
X118161735Y-66927177D01*
X118161735Y-66927177D02*
X118161735Y-66419177D01*
X118161735Y-66419177D02*
X117653735Y-66419177D01*
X117653735Y-66419177D02*
X117653735Y-57783177D01*
X117653735Y-57783177D02*
X118161735Y-57783177D01*
X118161735Y-57783177D02*
X118161735Y-57275177D01*
X108001735Y-66927177D02*
X108001735Y-57275177D01*
X177597735Y-116457177D02*
X177089735Y-116457177D01*
X177597735Y-115441177D02*
X177597735Y-117473177D01*
X176073735Y-115441177D02*
X177597735Y-115441177D01*
X176073735Y-117473177D02*
X177597735Y-117473177D01*
X165913735Y-117727177D02*
X176073735Y-117727177D01*
X176073735Y-108075177D02*
X165913735Y-108075177D01*
X165913735Y-108075177D02*
X165913735Y-108583177D01*
X165913735Y-108583177D02*
X166421735Y-108583177D01*
X166421735Y-108583177D02*
X166421735Y-117219177D01*
X166421735Y-117219177D02*
X165913735Y-117219177D01*
X165913735Y-117219177D02*
X165913735Y-117727177D01*
X176073735Y-108075177D02*
X176073735Y-117727177D01*
X177597735Y-91057177D02*
X177089735Y-91057177D01*
X177597735Y-90041177D02*
X177597735Y-92073177D01*
X176073735Y-90041177D02*
X177597735Y-90041177D01*
X176073735Y-92073177D02*
X177597735Y-92073177D01*
X165913735Y-92327177D02*
X176073735Y-92327177D01*
X176073735Y-82675177D02*
X165913735Y-82675177D01*
X165913735Y-82675177D02*
X165913735Y-83183177D01*
X165913735Y-83183177D02*
X166421735Y-83183177D01*
X166421735Y-83183177D02*
X166421735Y-91819177D01*
X166421735Y-91819177D02*
X165913735Y-91819177D01*
X165913735Y-91819177D02*
X165913735Y-92327177D01*
X176073735Y-82675177D02*
X176073735Y-92327177D01*
X177597735Y-65657177D02*
X177089735Y-65657177D01*
X177597735Y-64641177D02*
X177597735Y-66673177D01*
X176073735Y-64641177D02*
X177597735Y-64641177D01*
X176073735Y-66673177D02*
X177597735Y-66673177D01*
X165913735Y-66927177D02*
X176073735Y-66927177D01*
X176073735Y-57275177D02*
X165913735Y-57275177D01*
X165913735Y-57275177D02*
X165913735Y-57783177D01*
X165913735Y-57783177D02*
X166421735Y-57783177D01*
X166421735Y-57783177D02*
X166421735Y-66419177D01*
X166421735Y-66419177D02*
X165913735Y-66419177D01*
X165913735Y-66419177D02*
X165913735Y-66927177D01*
X176073735Y-57275177D02*
X176073735Y-66927177D01*
X131877735Y-140079177D02*
X121717735Y-140079177D01*
X121717735Y-134491177D02*
X131877735Y-134491177D01*
X127305735Y-140587177D02*
X127305735Y-142619177D01*
X125273735Y-140587177D02*
X125273735Y-142619177D01*
X123241735Y-140079177D02*
X123241735Y-140587177D01*
X123241735Y-140587177D02*
X128829735Y-140587177D01*
X128829735Y-140587177D02*
X128829735Y-140079177D01*
X125273735Y-142619177D02*
X127305735Y-142619177D01*
X129337735Y-133221177D02*
X129337735Y-134491177D01*
X126797735Y-133221177D02*
X126797735Y-134491177D01*
X124257735Y-133221177D02*
X124257735Y-134491177D01*
X131877735Y-134491177D02*
X131877735Y-140079177D01*
X121717735Y-134491177D02*
X121717735Y-140079177D01*
X133392735Y-75936177D02*
X134662735Y-75936177D01*
X133392735Y-68586177D02*
X134662735Y-68586177D01*
X153222735Y-68586177D02*
X151952735Y-68586177D01*
X153222735Y-75936177D02*
X151952735Y-75936177D01*
X133392735Y-75936177D02*
X133392735Y-68586177D01*
X153222735Y-75936177D02*
X153222735Y-68586177D01*
X134662735Y-75936177D02*
X134662735Y-77221177D01*
X149412735Y-85096177D02*
X148142735Y-85096177D01*
X149412735Y-92446177D02*
X148142735Y-92446177D01*
X137202735Y-92446177D02*
X138472735Y-92446177D01*
X137202735Y-85096177D02*
X138472735Y-85096177D01*
X149412735Y-85096177D02*
X149412735Y-92446177D01*
X137202735Y-85096177D02*
X137202735Y-92446177D01*
X148142735Y-85096177D02*
X148142735Y-83811177D01*
X179494878Y-119068558D02*
X179161544Y-118592367D01*
X178923449Y-119068558D02*
X178923449Y-118068558D01*
X179304402Y-118068558D01*
X179399640Y-118116177D01*
X179447259Y-118163796D01*
X179494878Y-118259034D01*
X179494878Y-118401891D01*
X179447259Y-118497129D01*
X179399640Y-118544748D01*
X179304402Y-118592367D01*
X178923449Y-118592367D01*
X179875830Y-118163796D02*
X179923449Y-118116177D01*
X180018687Y-118068558D01*
X180256783Y-118068558D01*
X180352021Y-118116177D01*
X180399640Y-118163796D01*
X180447259Y-118259034D01*
X180447259Y-118354272D01*
X180399640Y-118497129D01*
X179828211Y-119068558D01*
X180447259Y-119068558D01*
X181304402Y-118401891D02*
X181304402Y-119068558D01*
X181066306Y-118020939D02*
X180828211Y-118735225D01*
X181447259Y-118735225D01*
X153682116Y-105662082D02*
X154491640Y-105662082D01*
X154586878Y-105614463D01*
X154634497Y-105566844D01*
X154682116Y-105471606D01*
X154682116Y-105281129D01*
X154634497Y-105185891D01*
X154586878Y-105138272D01*
X154491640Y-105090653D01*
X153682116Y-105090653D01*
X153777354Y-104662082D02*
X153729735Y-104614463D01*
X153682116Y-104519225D01*
X153682116Y-104281129D01*
X153729735Y-104185891D01*
X153777354Y-104138272D01*
X153872592Y-104090653D01*
X153967830Y-104090653D01*
X154110687Y-104138272D01*
X154682116Y-104709701D01*
X154682116Y-104090653D01*
X97944878Y-102272843D02*
X97992497Y-102320462D01*
X98040116Y-102463319D01*
X98040116Y-102558557D01*
X97992497Y-102701415D01*
X97897259Y-102796653D01*
X97802021Y-102844272D01*
X97611545Y-102891891D01*
X97468687Y-102891891D01*
X97278211Y-102844272D01*
X97182973Y-102796653D01*
X97087735Y-102701415D01*
X97040116Y-102558557D01*
X97040116Y-102463319D01*
X97087735Y-102320462D01*
X97135354Y-102272843D01*
X98040116Y-101320462D02*
X98040116Y-101891891D01*
X98040116Y-101606177D02*
X97040116Y-101606177D01*
X97182973Y-101701415D01*
X97278211Y-101796653D01*
X97325830Y-101891891D01*
X97944878Y-105447843D02*
X97992497Y-105495462D01*
X98040116Y-105638319D01*
X98040116Y-105733557D01*
X97992497Y-105876415D01*
X97897259Y-105971653D01*
X97802021Y-106019272D01*
X97611545Y-106066891D01*
X97468687Y-106066891D01*
X97278211Y-106019272D01*
X97182973Y-105971653D01*
X97087735Y-105876415D01*
X97040116Y-105733557D01*
X97040116Y-105638319D01*
X97087735Y-105495462D01*
X97135354Y-105447843D01*
X97135354Y-105066891D02*
X97087735Y-105019272D01*
X97040116Y-104924034D01*
X97040116Y-104685938D01*
X97087735Y-104590700D01*
X97135354Y-104543081D01*
X97230592Y-104495462D01*
X97325830Y-104495462D01*
X97468687Y-104543081D01*
X98040116Y-105114510D01*
X98040116Y-104495462D01*
X97944878Y-76872843D02*
X97992497Y-76920462D01*
X98040116Y-77063319D01*
X98040116Y-77158557D01*
X97992497Y-77301415D01*
X97897259Y-77396653D01*
X97802021Y-77444272D01*
X97611545Y-77491891D01*
X97468687Y-77491891D01*
X97278211Y-77444272D01*
X97182973Y-77396653D01*
X97087735Y-77301415D01*
X97040116Y-77158557D01*
X97040116Y-77063319D01*
X97087735Y-76920462D01*
X97135354Y-76872843D01*
X97040116Y-76539510D02*
X97040116Y-75920462D01*
X97421068Y-76253796D01*
X97421068Y-76110938D01*
X97468687Y-76015700D01*
X97516306Y-75968081D01*
X97611545Y-75920462D01*
X97849640Y-75920462D01*
X97944878Y-75968081D01*
X97992497Y-76015700D01*
X98040116Y-76110938D01*
X98040116Y-76396653D01*
X97992497Y-76491891D01*
X97944878Y-76539510D01*
X97944878Y-80047843D02*
X97992497Y-80095462D01*
X98040116Y-80238319D01*
X98040116Y-80333557D01*
X97992497Y-80476415D01*
X97897259Y-80571653D01*
X97802021Y-80619272D01*
X97611545Y-80666891D01*
X97468687Y-80666891D01*
X97278211Y-80619272D01*
X97182973Y-80571653D01*
X97087735Y-80476415D01*
X97040116Y-80333557D01*
X97040116Y-80238319D01*
X97087735Y-80095462D01*
X97135354Y-80047843D01*
X97373449Y-79190700D02*
X98040116Y-79190700D01*
X96992497Y-79428796D02*
X97706783Y-79666891D01*
X97706783Y-79047843D01*
X97944878Y-52742843D02*
X97992497Y-52790462D01*
X98040116Y-52933319D01*
X98040116Y-53028557D01*
X97992497Y-53171415D01*
X97897259Y-53266653D01*
X97802021Y-53314272D01*
X97611545Y-53361891D01*
X97468687Y-53361891D01*
X97278211Y-53314272D01*
X97182973Y-53266653D01*
X97087735Y-53171415D01*
X97040116Y-53028557D01*
X97040116Y-52933319D01*
X97087735Y-52790462D01*
X97135354Y-52742843D01*
X97040116Y-51838081D02*
X97040116Y-52314272D01*
X97516306Y-52361891D01*
X97468687Y-52314272D01*
X97421068Y-52219034D01*
X97421068Y-51980938D01*
X97468687Y-51885700D01*
X97516306Y-51838081D01*
X97611545Y-51790462D01*
X97849640Y-51790462D01*
X97944878Y-51838081D01*
X97992497Y-51885700D01*
X98040116Y-51980938D01*
X98040116Y-52219034D01*
X97992497Y-52314272D01*
X97944878Y-52361891D01*
X97944878Y-55917843D02*
X97992497Y-55965462D01*
X98040116Y-56108319D01*
X98040116Y-56203557D01*
X97992497Y-56346415D01*
X97897259Y-56441653D01*
X97802021Y-56489272D01*
X97611545Y-56536891D01*
X97468687Y-56536891D01*
X97278211Y-56489272D01*
X97182973Y-56441653D01*
X97087735Y-56346415D01*
X97040116Y-56203557D01*
X97040116Y-56108319D01*
X97087735Y-55965462D01*
X97135354Y-55917843D01*
X97040116Y-55060700D02*
X97040116Y-55251177D01*
X97087735Y-55346415D01*
X97135354Y-55394034D01*
X97278211Y-55489272D01*
X97468687Y-55536891D01*
X97849640Y-55536891D01*
X97944878Y-55489272D01*
X97992497Y-55441653D01*
X98040116Y-55346415D01*
X98040116Y-55155938D01*
X97992497Y-55060700D01*
X97944878Y-55013081D01*
X97849640Y-54965462D01*
X97611545Y-54965462D01*
X97516306Y-55013081D01*
X97468687Y-55060700D01*
X97421068Y-55155938D01*
X97421068Y-55346415D01*
X97468687Y-55441653D01*
X97516306Y-55489272D01*
X97611545Y-55536891D01*
X149379878Y-63537843D02*
X149427497Y-63585462D01*
X149475116Y-63728319D01*
X149475116Y-63823557D01*
X149427497Y-63966415D01*
X149332259Y-64061653D01*
X149237021Y-64109272D01*
X149046545Y-64156891D01*
X148903687Y-64156891D01*
X148713211Y-64109272D01*
X148617973Y-64061653D01*
X148522735Y-63966415D01*
X148475116Y-63823557D01*
X148475116Y-63728319D01*
X148522735Y-63585462D01*
X148570354Y-63537843D01*
X148475116Y-63204510D02*
X148475116Y-62537843D01*
X149475116Y-62966415D01*
X141124878Y-63537843D02*
X141172497Y-63585462D01*
X141220116Y-63728319D01*
X141220116Y-63823557D01*
X141172497Y-63966415D01*
X141077259Y-64061653D01*
X140982021Y-64109272D01*
X140791545Y-64156891D01*
X140648687Y-64156891D01*
X140458211Y-64109272D01*
X140362973Y-64061653D01*
X140267735Y-63966415D01*
X140220116Y-63823557D01*
X140220116Y-63728319D01*
X140267735Y-63585462D01*
X140315354Y-63537843D01*
X140648687Y-62966415D02*
X140601068Y-63061653D01*
X140553449Y-63109272D01*
X140458211Y-63156891D01*
X140410592Y-63156891D01*
X140315354Y-63109272D01*
X140267735Y-63061653D01*
X140220116Y-62966415D01*
X140220116Y-62775938D01*
X140267735Y-62680700D01*
X140315354Y-62633081D01*
X140410592Y-62585462D01*
X140458211Y-62585462D01*
X140553449Y-62633081D01*
X140601068Y-62680700D01*
X140648687Y-62775938D01*
X140648687Y-62966415D01*
X140696306Y-63061653D01*
X140743925Y-63109272D01*
X140839164Y-63156891D01*
X141029640Y-63156891D01*
X141124878Y-63109272D01*
X141172497Y-63061653D01*
X141220116Y-62966415D01*
X141220116Y-62775938D01*
X141172497Y-62680700D01*
X141124878Y-62633081D01*
X141029640Y-62585462D01*
X140839164Y-62585462D01*
X140743925Y-62633081D01*
X140696306Y-62680700D01*
X140648687Y-62775938D01*
X121916069Y-59273320D02*
X121868450Y-59320939D01*
X121725593Y-59368558D01*
X121630355Y-59368558D01*
X121487497Y-59320939D01*
X121392259Y-59225701D01*
X121344640Y-59130463D01*
X121297021Y-58939987D01*
X121297021Y-58797129D01*
X121344640Y-58606653D01*
X121392259Y-58511415D01*
X121487497Y-58416177D01*
X121630355Y-58368558D01*
X121725593Y-58368558D01*
X121868450Y-58416177D01*
X121916069Y-58463796D01*
X122392259Y-59368558D02*
X122582735Y-59368558D01*
X122677974Y-59320939D01*
X122725593Y-59273320D01*
X122820831Y-59130463D01*
X122868450Y-58939987D01*
X122868450Y-58559034D01*
X122820831Y-58463796D01*
X122773212Y-58416177D01*
X122677974Y-58368558D01*
X122487497Y-58368558D01*
X122392259Y-58416177D01*
X122344640Y-58463796D01*
X122297021Y-58559034D01*
X122297021Y-58797129D01*
X122344640Y-58892367D01*
X122392259Y-58939987D01*
X122487497Y-58987606D01*
X122677974Y-58987606D01*
X122773212Y-58939987D01*
X122820831Y-58892367D01*
X122868450Y-58797129D01*
X152514878Y-129439034D02*
X152562497Y-129486653D01*
X152610116Y-129629510D01*
X152610116Y-129724748D01*
X152562497Y-129867606D01*
X152467259Y-129962844D01*
X152372021Y-130010463D01*
X152181545Y-130058082D01*
X152038687Y-130058082D01*
X151848211Y-130010463D01*
X151752973Y-129962844D01*
X151657735Y-129867606D01*
X151610116Y-129724748D01*
X151610116Y-129629510D01*
X151657735Y-129486653D01*
X151705354Y-129439034D01*
X152610116Y-128486653D02*
X152610116Y-129058082D01*
X152610116Y-128772368D02*
X151610116Y-128772368D01*
X151752973Y-128867606D01*
X151848211Y-128962844D01*
X151895830Y-129058082D01*
X151610116Y-127867606D02*
X151610116Y-127772367D01*
X151657735Y-127677129D01*
X151705354Y-127629510D01*
X151800592Y-127581891D01*
X151991068Y-127534272D01*
X152229164Y-127534272D01*
X152419640Y-127581891D01*
X152514878Y-127629510D01*
X152562497Y-127677129D01*
X152610116Y-127772367D01*
X152610116Y-127867606D01*
X152562497Y-127962844D01*
X152514878Y-128010463D01*
X152419640Y-128058082D01*
X152229164Y-128105701D01*
X151991068Y-128105701D01*
X151800592Y-128058082D01*
X151705354Y-128010463D01*
X151657735Y-127962844D01*
X151610116Y-127867606D01*
X149252878Y-57664034D02*
X149300497Y-57711653D01*
X149348116Y-57854510D01*
X149348116Y-57949748D01*
X149300497Y-58092606D01*
X149205259Y-58187844D01*
X149110021Y-58235463D01*
X148919545Y-58283082D01*
X148776687Y-58283082D01*
X148586211Y-58235463D01*
X148490973Y-58187844D01*
X148395735Y-58092606D01*
X148348116Y-57949748D01*
X148348116Y-57854510D01*
X148395735Y-57711653D01*
X148443354Y-57664034D01*
X149348116Y-56711653D02*
X149348116Y-57283082D01*
X149348116Y-56997368D02*
X148348116Y-56997368D01*
X148490973Y-57092606D01*
X148586211Y-57187844D01*
X148633830Y-57283082D01*
X149348116Y-55759272D02*
X149348116Y-56330701D01*
X149348116Y-56044987D02*
X148348116Y-56044987D01*
X148490973Y-56140225D01*
X148586211Y-56235463D01*
X148633830Y-56330701D01*
X141156878Y-54489034D02*
X141204497Y-54536653D01*
X141252116Y-54679510D01*
X141252116Y-54774748D01*
X141204497Y-54917606D01*
X141109259Y-55012844D01*
X141014021Y-55060463D01*
X140823545Y-55108082D01*
X140680687Y-55108082D01*
X140490211Y-55060463D01*
X140394973Y-55012844D01*
X140299735Y-54917606D01*
X140252116Y-54774748D01*
X140252116Y-54679510D01*
X140299735Y-54536653D01*
X140347354Y-54489034D01*
X141252116Y-53536653D02*
X141252116Y-54108082D01*
X141252116Y-53822368D02*
X140252116Y-53822368D01*
X140394973Y-53917606D01*
X140490211Y-54012844D01*
X140537830Y-54108082D01*
X140347354Y-53155701D02*
X140299735Y-53108082D01*
X140252116Y-53012844D01*
X140252116Y-52774748D01*
X140299735Y-52679510D01*
X140347354Y-52631891D01*
X140442592Y-52584272D01*
X140537830Y-52584272D01*
X140680687Y-52631891D01*
X141252116Y-53203320D01*
X141252116Y-52584272D01*
X123614878Y-80365320D02*
X123567259Y-80412939D01*
X123424402Y-80460558D01*
X123329164Y-80460558D01*
X123186306Y-80412939D01*
X123091068Y-80317701D01*
X123043449Y-80222463D01*
X122995830Y-80031987D01*
X122995830Y-79889129D01*
X123043449Y-79698653D01*
X123091068Y-79603415D01*
X123186306Y-79508177D01*
X123329164Y-79460558D01*
X123424402Y-79460558D01*
X123567259Y-79508177D01*
X123614878Y-79555796D01*
X124567259Y-80460558D02*
X123995830Y-80460558D01*
X124281544Y-80460558D02*
X124281544Y-79460558D01*
X124186306Y-79603415D01*
X124091068Y-79698653D01*
X123995830Y-79746272D01*
X124900592Y-79460558D02*
X125519640Y-79460558D01*
X125186306Y-79841510D01*
X125329164Y-79841510D01*
X125424402Y-79889129D01*
X125472021Y-79936748D01*
X125519640Y-80031987D01*
X125519640Y-80270082D01*
X125472021Y-80365320D01*
X125424402Y-80412939D01*
X125329164Y-80460558D01*
X125043449Y-80460558D01*
X124948211Y-80412939D01*
X124900592Y-80365320D01*
X133504878Y-86578320D02*
X133457259Y-86625939D01*
X133314402Y-86673558D01*
X133219164Y-86673558D01*
X133076306Y-86625939D01*
X132981068Y-86530701D01*
X132933449Y-86435463D01*
X132885830Y-86244987D01*
X132885830Y-86102129D01*
X132933449Y-85911653D01*
X132981068Y-85816415D01*
X133076306Y-85721177D01*
X133219164Y-85673558D01*
X133314402Y-85673558D01*
X133457259Y-85721177D01*
X133504878Y-85768796D01*
X134457259Y-86673558D02*
X133885830Y-86673558D01*
X134171544Y-86673558D02*
X134171544Y-85673558D01*
X134076306Y-85816415D01*
X133981068Y-85911653D01*
X133885830Y-85959272D01*
X135314402Y-86006891D02*
X135314402Y-86673558D01*
X135076306Y-85625939D02*
X134838211Y-86340225D01*
X135457259Y-86340225D01*
X162674878Y-129399034D02*
X162722497Y-129446653D01*
X162770116Y-129589510D01*
X162770116Y-129684748D01*
X162722497Y-129827606D01*
X162627259Y-129922844D01*
X162532021Y-129970463D01*
X162341545Y-130018082D01*
X162198687Y-130018082D01*
X162008211Y-129970463D01*
X161912973Y-129922844D01*
X161817735Y-129827606D01*
X161770116Y-129684748D01*
X161770116Y-129589510D01*
X161817735Y-129446653D01*
X161865354Y-129399034D01*
X162770116Y-128446653D02*
X162770116Y-129018082D01*
X162770116Y-128732368D02*
X161770116Y-128732368D01*
X161912973Y-128827606D01*
X162008211Y-128922844D01*
X162055830Y-129018082D01*
X161770116Y-127541891D02*
X161770116Y-128018082D01*
X162246306Y-128065701D01*
X162198687Y-128018082D01*
X162151068Y-127922844D01*
X162151068Y-127684748D01*
X162198687Y-127589510D01*
X162246306Y-127541891D01*
X162341545Y-127494272D01*
X162579640Y-127494272D01*
X162674878Y-127541891D01*
X162722497Y-127589510D01*
X162770116Y-127684748D01*
X162770116Y-127922844D01*
X162722497Y-128018082D01*
X162674878Y-128065701D01*
X186844878Y-103384034D02*
X186892497Y-103431653D01*
X186940116Y-103574510D01*
X186940116Y-103669748D01*
X186892497Y-103812606D01*
X186797259Y-103907844D01*
X186702021Y-103955463D01*
X186511545Y-104003082D01*
X186368687Y-104003082D01*
X186178211Y-103955463D01*
X186082973Y-103907844D01*
X185987735Y-103812606D01*
X185940116Y-103669748D01*
X185940116Y-103574510D01*
X185987735Y-103431653D01*
X186035354Y-103384034D01*
X186940116Y-102431653D02*
X186940116Y-103003082D01*
X186940116Y-102717368D02*
X185940116Y-102717368D01*
X186082973Y-102812606D01*
X186178211Y-102907844D01*
X186225830Y-103003082D01*
X185940116Y-101574510D02*
X185940116Y-101764987D01*
X185987735Y-101860225D01*
X186035354Y-101907844D01*
X186178211Y-102003082D01*
X186368687Y-102050701D01*
X186749640Y-102050701D01*
X186844878Y-102003082D01*
X186892497Y-101955463D01*
X186940116Y-101860225D01*
X186940116Y-101669748D01*
X186892497Y-101574510D01*
X186844878Y-101526891D01*
X186749640Y-101479272D01*
X186511545Y-101479272D01*
X186416306Y-101526891D01*
X186368687Y-101574510D01*
X186321068Y-101669748D01*
X186321068Y-101860225D01*
X186368687Y-101955463D01*
X186416306Y-102003082D01*
X186511545Y-102050701D01*
X186844878Y-106559034D02*
X186892497Y-106606653D01*
X186940116Y-106749510D01*
X186940116Y-106844748D01*
X186892497Y-106987606D01*
X186797259Y-107082844D01*
X186702021Y-107130463D01*
X186511545Y-107178082D01*
X186368687Y-107178082D01*
X186178211Y-107130463D01*
X186082973Y-107082844D01*
X185987735Y-106987606D01*
X185940116Y-106844748D01*
X185940116Y-106749510D01*
X185987735Y-106606653D01*
X186035354Y-106559034D01*
X186940116Y-105606653D02*
X186940116Y-106178082D01*
X186940116Y-105892368D02*
X185940116Y-105892368D01*
X186082973Y-105987606D01*
X186178211Y-106082844D01*
X186225830Y-106178082D01*
X185940116Y-105273320D02*
X185940116Y-104606653D01*
X186940116Y-105035225D01*
X186884878Y-77984034D02*
X186932497Y-78031653D01*
X186980116Y-78174510D01*
X186980116Y-78269748D01*
X186932497Y-78412606D01*
X186837259Y-78507844D01*
X186742021Y-78555463D01*
X186551545Y-78603082D01*
X186408687Y-78603082D01*
X186218211Y-78555463D01*
X186122973Y-78507844D01*
X186027735Y-78412606D01*
X185980116Y-78269748D01*
X185980116Y-78174510D01*
X186027735Y-78031653D01*
X186075354Y-77984034D01*
X186980116Y-77031653D02*
X186980116Y-77603082D01*
X186980116Y-77317368D02*
X185980116Y-77317368D01*
X186122973Y-77412606D01*
X186218211Y-77507844D01*
X186265830Y-77603082D01*
X186408687Y-76460225D02*
X186361068Y-76555463D01*
X186313449Y-76603082D01*
X186218211Y-76650701D01*
X186170592Y-76650701D01*
X186075354Y-76603082D01*
X186027735Y-76555463D01*
X185980116Y-76460225D01*
X185980116Y-76269748D01*
X186027735Y-76174510D01*
X186075354Y-76126891D01*
X186170592Y-76079272D01*
X186218211Y-76079272D01*
X186313449Y-76126891D01*
X186361068Y-76174510D01*
X186408687Y-76269748D01*
X186408687Y-76460225D01*
X186456306Y-76555463D01*
X186503925Y-76603082D01*
X186599164Y-76650701D01*
X186789640Y-76650701D01*
X186884878Y-76603082D01*
X186932497Y-76555463D01*
X186980116Y-76460225D01*
X186980116Y-76269748D01*
X186932497Y-76174510D01*
X186884878Y-76126891D01*
X186789640Y-76079272D01*
X186599164Y-76079272D01*
X186503925Y-76126891D01*
X186456306Y-76174510D01*
X186408687Y-76269748D01*
X186844878Y-81159034D02*
X186892497Y-81206653D01*
X186940116Y-81349510D01*
X186940116Y-81444748D01*
X186892497Y-81587606D01*
X186797259Y-81682844D01*
X186702021Y-81730463D01*
X186511545Y-81778082D01*
X186368687Y-81778082D01*
X186178211Y-81730463D01*
X186082973Y-81682844D01*
X185987735Y-81587606D01*
X185940116Y-81444748D01*
X185940116Y-81349510D01*
X185987735Y-81206653D01*
X186035354Y-81159034D01*
X186940116Y-80206653D02*
X186940116Y-80778082D01*
X186940116Y-80492368D02*
X185940116Y-80492368D01*
X186082973Y-80587606D01*
X186178211Y-80682844D01*
X186225830Y-80778082D01*
X186940116Y-79730463D02*
X186940116Y-79539987D01*
X186892497Y-79444748D01*
X186844878Y-79397129D01*
X186702021Y-79301891D01*
X186511545Y-79254272D01*
X186130592Y-79254272D01*
X186035354Y-79301891D01*
X185987735Y-79349510D01*
X185940116Y-79444748D01*
X185940116Y-79635225D01*
X185987735Y-79730463D01*
X186035354Y-79778082D01*
X186130592Y-79825701D01*
X186368687Y-79825701D01*
X186463925Y-79778082D01*
X186511545Y-79730463D01*
X186559164Y-79635225D01*
X186559164Y-79444748D01*
X186511545Y-79349510D01*
X186463925Y-79301891D01*
X186368687Y-79254272D01*
X186844878Y-53854034D02*
X186892497Y-53901653D01*
X186940116Y-54044510D01*
X186940116Y-54139748D01*
X186892497Y-54282606D01*
X186797259Y-54377844D01*
X186702021Y-54425463D01*
X186511545Y-54473082D01*
X186368687Y-54473082D01*
X186178211Y-54425463D01*
X186082973Y-54377844D01*
X185987735Y-54282606D01*
X185940116Y-54139748D01*
X185940116Y-54044510D01*
X185987735Y-53901653D01*
X186035354Y-53854034D01*
X186035354Y-53473082D02*
X185987735Y-53425463D01*
X185940116Y-53330225D01*
X185940116Y-53092129D01*
X185987735Y-52996891D01*
X186035354Y-52949272D01*
X186130592Y-52901653D01*
X186225830Y-52901653D01*
X186368687Y-52949272D01*
X186940116Y-53520701D01*
X186940116Y-52901653D01*
X185940116Y-52282606D02*
X185940116Y-52187367D01*
X185987735Y-52092129D01*
X186035354Y-52044510D01*
X186130592Y-51996891D01*
X186321068Y-51949272D01*
X186559164Y-51949272D01*
X186749640Y-51996891D01*
X186844878Y-52044510D01*
X186892497Y-52092129D01*
X186940116Y-52187367D01*
X186940116Y-52282606D01*
X186892497Y-52377844D01*
X186844878Y-52425463D01*
X186749640Y-52473082D01*
X186559164Y-52520701D01*
X186321068Y-52520701D01*
X186130592Y-52473082D01*
X186035354Y-52425463D01*
X185987735Y-52377844D01*
X185940116Y-52282606D01*
X186844878Y-57029034D02*
X186892497Y-57076653D01*
X186940116Y-57219510D01*
X186940116Y-57314748D01*
X186892497Y-57457606D01*
X186797259Y-57552844D01*
X186702021Y-57600463D01*
X186511545Y-57648082D01*
X186368687Y-57648082D01*
X186178211Y-57600463D01*
X186082973Y-57552844D01*
X185987735Y-57457606D01*
X185940116Y-57314748D01*
X185940116Y-57219510D01*
X185987735Y-57076653D01*
X186035354Y-57029034D01*
X186035354Y-56648082D02*
X185987735Y-56600463D01*
X185940116Y-56505225D01*
X185940116Y-56267129D01*
X185987735Y-56171891D01*
X186035354Y-56124272D01*
X186130592Y-56076653D01*
X186225830Y-56076653D01*
X186368687Y-56124272D01*
X186940116Y-56695701D01*
X186940116Y-56076653D01*
X186940116Y-55124272D02*
X186940116Y-55695701D01*
X186940116Y-55409987D02*
X185940116Y-55409987D01*
X186082973Y-55505225D01*
X186178211Y-55600463D01*
X186225830Y-55695701D01*
X152094878Y-118338320D02*
X152047259Y-118385939D01*
X151904402Y-118433558D01*
X151809164Y-118433558D01*
X151666306Y-118385939D01*
X151571068Y-118290701D01*
X151523449Y-118195463D01*
X151475830Y-118004987D01*
X151475830Y-117862129D01*
X151523449Y-117671653D01*
X151571068Y-117576415D01*
X151666306Y-117481177D01*
X151809164Y-117433558D01*
X151904402Y-117433558D01*
X152047259Y-117481177D01*
X152094878Y-117528796D01*
X152475830Y-117528796D02*
X152523449Y-117481177D01*
X152618687Y-117433558D01*
X152856783Y-117433558D01*
X152952021Y-117481177D01*
X152999640Y-117528796D01*
X153047259Y-117624034D01*
X153047259Y-117719272D01*
X152999640Y-117862129D01*
X152428211Y-118433558D01*
X153047259Y-118433558D01*
X153428211Y-117528796D02*
X153475830Y-117481177D01*
X153571068Y-117433558D01*
X153809164Y-117433558D01*
X153904402Y-117481177D01*
X153952021Y-117528796D01*
X153999640Y-117624034D01*
X153999640Y-117719272D01*
X153952021Y-117862129D01*
X153380592Y-118433558D01*
X153999640Y-118433558D01*
X151824878Y-92948320D02*
X151777259Y-92995939D01*
X151634402Y-93043558D01*
X151539164Y-93043558D01*
X151396306Y-92995939D01*
X151301068Y-92900701D01*
X151253449Y-92805463D01*
X151205830Y-92614987D01*
X151205830Y-92472129D01*
X151253449Y-92281653D01*
X151301068Y-92186415D01*
X151396306Y-92091177D01*
X151539164Y-92043558D01*
X151634402Y-92043558D01*
X151777259Y-92091177D01*
X151824878Y-92138796D01*
X152205830Y-92138796D02*
X152253449Y-92091177D01*
X152348687Y-92043558D01*
X152586783Y-92043558D01*
X152682021Y-92091177D01*
X152729640Y-92138796D01*
X152777259Y-92234034D01*
X152777259Y-92329272D01*
X152729640Y-92472129D01*
X152158211Y-93043558D01*
X152777259Y-93043558D01*
X153110592Y-92043558D02*
X153729640Y-92043558D01*
X153396306Y-92424510D01*
X153539164Y-92424510D01*
X153634402Y-92472129D01*
X153682021Y-92519748D01*
X153729640Y-92614987D01*
X153729640Y-92853082D01*
X153682021Y-92948320D01*
X153634402Y-92995939D01*
X153539164Y-93043558D01*
X153253449Y-93043558D01*
X153158211Y-92995939D01*
X153110592Y-92948320D01*
X133504878Y-92938320D02*
X133457259Y-92985939D01*
X133314402Y-93033558D01*
X133219164Y-93033558D01*
X133076306Y-92985939D01*
X132981068Y-92890701D01*
X132933449Y-92795463D01*
X132885830Y-92604987D01*
X132885830Y-92462129D01*
X132933449Y-92271653D01*
X132981068Y-92176415D01*
X133076306Y-92081177D01*
X133219164Y-92033558D01*
X133314402Y-92033558D01*
X133457259Y-92081177D01*
X133504878Y-92128796D01*
X133885830Y-92128796D02*
X133933449Y-92081177D01*
X134028687Y-92033558D01*
X134266783Y-92033558D01*
X134362021Y-92081177D01*
X134409640Y-92128796D01*
X134457259Y-92224034D01*
X134457259Y-92319272D01*
X134409640Y-92462129D01*
X133838211Y-93033558D01*
X134457259Y-93033558D01*
X135314402Y-92366891D02*
X135314402Y-93033558D01*
X135076306Y-91985939D02*
X134838211Y-92700225D01*
X135457259Y-92700225D01*
X152189878Y-85953320D02*
X152142259Y-86000939D01*
X151999402Y-86048558D01*
X151904164Y-86048558D01*
X151761306Y-86000939D01*
X151666068Y-85905701D01*
X151618449Y-85810463D01*
X151570830Y-85619987D01*
X151570830Y-85477129D01*
X151618449Y-85286653D01*
X151666068Y-85191415D01*
X151761306Y-85096177D01*
X151904164Y-85048558D01*
X151999402Y-85048558D01*
X152142259Y-85096177D01*
X152189878Y-85143796D01*
X152570830Y-85143796D02*
X152618449Y-85096177D01*
X152713687Y-85048558D01*
X152951783Y-85048558D01*
X153047021Y-85096177D01*
X153094640Y-85143796D01*
X153142259Y-85239034D01*
X153142259Y-85334272D01*
X153094640Y-85477129D01*
X152523211Y-86048558D01*
X153142259Y-86048558D01*
X154047021Y-85048558D02*
X153570830Y-85048558D01*
X153523211Y-85524748D01*
X153570830Y-85477129D01*
X153666068Y-85429510D01*
X153904164Y-85429510D01*
X153999402Y-85477129D01*
X154047021Y-85524748D01*
X154094640Y-85619987D01*
X154094640Y-85858082D01*
X154047021Y-85953320D01*
X153999402Y-86000939D01*
X153904164Y-86048558D01*
X153666068Y-86048558D01*
X153570830Y-86000939D01*
X153523211Y-85953320D01*
X161714878Y-94811320D02*
X161667259Y-94858939D01*
X161524402Y-94906558D01*
X161429164Y-94906558D01*
X161286306Y-94858939D01*
X161191068Y-94763701D01*
X161143449Y-94668463D01*
X161095830Y-94477987D01*
X161095830Y-94335129D01*
X161143449Y-94144653D01*
X161191068Y-94049415D01*
X161286306Y-93954177D01*
X161429164Y-93906558D01*
X161524402Y-93906558D01*
X161667259Y-93954177D01*
X161714878Y-94001796D01*
X162095830Y-94001796D02*
X162143449Y-93954177D01*
X162238687Y-93906558D01*
X162476783Y-93906558D01*
X162572021Y-93954177D01*
X162619640Y-94001796D01*
X162667259Y-94097034D01*
X162667259Y-94192272D01*
X162619640Y-94335129D01*
X162048211Y-94906558D01*
X162667259Y-94906558D01*
X163524402Y-93906558D02*
X163333925Y-93906558D01*
X163238687Y-93954177D01*
X163191068Y-94001796D01*
X163095830Y-94144653D01*
X163048211Y-94335129D01*
X163048211Y-94716082D01*
X163095830Y-94811320D01*
X163143449Y-94858939D01*
X163238687Y-94906558D01*
X163429164Y-94906558D01*
X163524402Y-94858939D01*
X163572021Y-94811320D01*
X163619640Y-94716082D01*
X163619640Y-94477987D01*
X163572021Y-94382748D01*
X163524402Y-94335129D01*
X163429164Y-94287510D01*
X163238687Y-94287510D01*
X163143449Y-94335129D01*
X163095830Y-94382748D01*
X163048211Y-94477987D01*
X161714878Y-91160320D02*
X161667259Y-91207939D01*
X161524402Y-91255558D01*
X161429164Y-91255558D01*
X161286306Y-91207939D01*
X161191068Y-91112701D01*
X161143449Y-91017463D01*
X161095830Y-90826987D01*
X161095830Y-90684129D01*
X161143449Y-90493653D01*
X161191068Y-90398415D01*
X161286306Y-90303177D01*
X161429164Y-90255558D01*
X161524402Y-90255558D01*
X161667259Y-90303177D01*
X161714878Y-90350796D01*
X162095830Y-90350796D02*
X162143449Y-90303177D01*
X162238687Y-90255558D01*
X162476783Y-90255558D01*
X162572021Y-90303177D01*
X162619640Y-90350796D01*
X162667259Y-90446034D01*
X162667259Y-90541272D01*
X162619640Y-90684129D01*
X162048211Y-91255558D01*
X162667259Y-91255558D01*
X163000592Y-90255558D02*
X163667259Y-90255558D01*
X163238687Y-91255558D01*
X123614878Y-82111320D02*
X123567259Y-82158939D01*
X123424402Y-82206558D01*
X123329164Y-82206558D01*
X123186306Y-82158939D01*
X123091068Y-82063701D01*
X123043449Y-81968463D01*
X122995830Y-81777987D01*
X122995830Y-81635129D01*
X123043449Y-81444653D01*
X123091068Y-81349415D01*
X123186306Y-81254177D01*
X123329164Y-81206558D01*
X123424402Y-81206558D01*
X123567259Y-81254177D01*
X123614878Y-81301796D01*
X123995830Y-81301796D02*
X124043449Y-81254177D01*
X124138687Y-81206558D01*
X124376783Y-81206558D01*
X124472021Y-81254177D01*
X124519640Y-81301796D01*
X124567259Y-81397034D01*
X124567259Y-81492272D01*
X124519640Y-81635129D01*
X123948211Y-82206558D01*
X124567259Y-82206558D01*
X125138687Y-81635129D02*
X125043449Y-81587510D01*
X124995830Y-81539891D01*
X124948211Y-81444653D01*
X124948211Y-81397034D01*
X124995830Y-81301796D01*
X125043449Y-81254177D01*
X125138687Y-81206558D01*
X125329164Y-81206558D01*
X125424402Y-81254177D01*
X125472021Y-81301796D01*
X125519640Y-81397034D01*
X125519640Y-81444653D01*
X125472021Y-81539891D01*
X125424402Y-81587510D01*
X125329164Y-81635129D01*
X125138687Y-81635129D01*
X125043449Y-81682748D01*
X124995830Y-81730367D01*
X124948211Y-81825606D01*
X124948211Y-82016082D01*
X124995830Y-82111320D01*
X125043449Y-82158939D01*
X125138687Y-82206558D01*
X125329164Y-82206558D01*
X125424402Y-82158939D01*
X125472021Y-82111320D01*
X125519640Y-82016082D01*
X125519640Y-81825606D01*
X125472021Y-81730367D01*
X125424402Y-81682748D01*
X125329164Y-81635129D01*
X143918878Y-82429034D02*
X143966497Y-82476653D01*
X144014116Y-82619510D01*
X144014116Y-82714748D01*
X143966497Y-82857606D01*
X143871259Y-82952844D01*
X143776021Y-83000463D01*
X143585545Y-83048082D01*
X143442687Y-83048082D01*
X143252211Y-83000463D01*
X143156973Y-82952844D01*
X143061735Y-82857606D01*
X143014116Y-82714748D01*
X143014116Y-82619510D01*
X143061735Y-82476653D01*
X143109354Y-82429034D01*
X143109354Y-82048082D02*
X143061735Y-82000463D01*
X143014116Y-81905225D01*
X143014116Y-81667129D01*
X143061735Y-81571891D01*
X143109354Y-81524272D01*
X143204592Y-81476653D01*
X143299830Y-81476653D01*
X143442687Y-81524272D01*
X144014116Y-82095701D01*
X144014116Y-81476653D01*
X144014116Y-81000463D02*
X144014116Y-80809987D01*
X143966497Y-80714748D01*
X143918878Y-80667129D01*
X143776021Y-80571891D01*
X143585545Y-80524272D01*
X143204592Y-80524272D01*
X143109354Y-80571891D01*
X143061735Y-80619510D01*
X143014116Y-80714748D01*
X143014116Y-80905225D01*
X143061735Y-81000463D01*
X143109354Y-81048082D01*
X143204592Y-81095701D01*
X143442687Y-81095701D01*
X143537925Y-81048082D01*
X143585545Y-81000463D01*
X143633164Y-80905225D01*
X143633164Y-80714748D01*
X143585545Y-80619510D01*
X143537925Y-80571891D01*
X143442687Y-80524272D01*
X135743450Y-130029940D02*
X135695831Y-130077559D01*
X135552974Y-130125178D01*
X135457736Y-130125178D01*
X135314878Y-130077559D01*
X135219640Y-129982321D01*
X135172021Y-129887083D01*
X135124402Y-129696607D01*
X135124402Y-129553749D01*
X135172021Y-129363273D01*
X135219640Y-129268035D01*
X135314878Y-129172797D01*
X135457736Y-129125178D01*
X135552974Y-129125178D01*
X135695831Y-129172797D01*
X135743450Y-129220416D01*
X136362497Y-129125178D02*
X136552974Y-129125178D01*
X136648212Y-129172797D01*
X136743450Y-129268035D01*
X136791069Y-129458511D01*
X136791069Y-129791845D01*
X136743450Y-129982321D01*
X136648212Y-130077559D01*
X136552974Y-130125178D01*
X136362497Y-130125178D01*
X136267259Y-130077559D01*
X136172021Y-129982321D01*
X136124402Y-129791845D01*
X136124402Y-129458511D01*
X136172021Y-129268035D01*
X136267259Y-129172797D01*
X136362497Y-129125178D01*
X137219640Y-130125178D02*
X137219640Y-129125178D01*
X137791069Y-130125178D01*
X137791069Y-129125178D01*
X138791069Y-130125178D02*
X138219640Y-130125178D01*
X138505354Y-130125178D02*
X138505354Y-129125178D01*
X138410116Y-129268035D01*
X138314878Y-129363273D01*
X138219640Y-129410892D01*
X160267576Y-65887272D02*
X159267576Y-65887272D01*
X159267576Y-65649177D01*
X159315195Y-65506319D01*
X159410433Y-65411081D01*
X159505671Y-65363462D01*
X159696147Y-65315843D01*
X159839005Y-65315843D01*
X160029481Y-65363462D01*
X160124719Y-65411081D01*
X160219957Y-65506319D01*
X160267576Y-65649177D01*
X160267576Y-65887272D01*
X160267576Y-64363462D02*
X160267576Y-64934891D01*
X160267576Y-64649177D02*
X159267576Y-64649177D01*
X159410433Y-64744415D01*
X159505671Y-64839653D01*
X159553290Y-64934891D01*
X132962576Y-60172272D02*
X131962576Y-60172272D01*
X131962576Y-59934177D01*
X132010195Y-59791319D01*
X132105433Y-59696081D01*
X132200671Y-59648462D01*
X132391147Y-59600843D01*
X132534005Y-59600843D01*
X132724481Y-59648462D01*
X132819719Y-59696081D01*
X132914957Y-59791319D01*
X132962576Y-59934177D01*
X132962576Y-60172272D01*
X132057814Y-59219891D02*
X132010195Y-59172272D01*
X131962576Y-59077034D01*
X131962576Y-58838938D01*
X132010195Y-58743700D01*
X132057814Y-58696081D01*
X132153052Y-58648462D01*
X132248290Y-58648462D01*
X132391147Y-58696081D01*
X132962576Y-59267510D01*
X132962576Y-58648462D01*
X124710116Y-66141272D02*
X123710116Y-66141272D01*
X123710116Y-65903177D01*
X123757735Y-65760319D01*
X123852973Y-65665081D01*
X123948211Y-65617462D01*
X124138687Y-65569843D01*
X124281545Y-65569843D01*
X124472021Y-65617462D01*
X124567259Y-65665081D01*
X124662497Y-65760319D01*
X124710116Y-65903177D01*
X124710116Y-66141272D01*
X123710116Y-65236510D02*
X123710116Y-64617462D01*
X124091068Y-64950796D01*
X124091068Y-64807938D01*
X124138687Y-64712700D01*
X124186306Y-64665081D01*
X124281545Y-64617462D01*
X124519640Y-64617462D01*
X124614878Y-64665081D01*
X124662497Y-64712700D01*
X124710116Y-64807938D01*
X124710116Y-65093653D01*
X124662497Y-65188891D01*
X124614878Y-65236510D01*
X78228116Y-119227272D02*
X77228116Y-119227272D01*
X77228116Y-118989177D01*
X77275735Y-118846319D01*
X77370973Y-118751081D01*
X77466211Y-118703462D01*
X77656687Y-118655843D01*
X77799545Y-118655843D01*
X77990021Y-118703462D01*
X78085259Y-118751081D01*
X78180497Y-118846319D01*
X78228116Y-118989177D01*
X78228116Y-119227272D01*
X77561449Y-117798700D02*
X78228116Y-117798700D01*
X77180497Y-118036796D02*
X77894783Y-118274891D01*
X77894783Y-117655843D01*
X76069116Y-122180082D02*
X75069116Y-122180082D01*
X76069116Y-121608653D02*
X75497687Y-122037225D01*
X75069116Y-121608653D02*
X75640545Y-122180082D01*
X70100116Y-119227272D02*
X69100116Y-119227272D01*
X69100116Y-118989177D01*
X69147735Y-118846319D01*
X69242973Y-118751081D01*
X69338211Y-118703462D01*
X69528687Y-118655843D01*
X69671545Y-118655843D01*
X69862021Y-118703462D01*
X69957259Y-118751081D01*
X70052497Y-118846319D01*
X70100116Y-118989177D01*
X70100116Y-119227272D01*
X69100116Y-117751081D02*
X69100116Y-118227272D01*
X69576306Y-118274891D01*
X69528687Y-118227272D01*
X69481068Y-118132034D01*
X69481068Y-117893938D01*
X69528687Y-117798700D01*
X69576306Y-117751081D01*
X69671545Y-117703462D01*
X69909640Y-117703462D01*
X70004878Y-117751081D01*
X70052497Y-117798700D01*
X70100116Y-117893938D01*
X70100116Y-118132034D01*
X70052497Y-118227272D01*
X70004878Y-118274891D01*
X67941116Y-122180082D02*
X66941116Y-122180082D01*
X67941116Y-121608653D02*
X67369687Y-122037225D01*
X66941116Y-121608653D02*
X67512545Y-122180082D01*
X78228116Y-93827272D02*
X77228116Y-93827272D01*
X77228116Y-93589177D01*
X77275735Y-93446319D01*
X77370973Y-93351081D01*
X77466211Y-93303462D01*
X77656687Y-93255843D01*
X77799545Y-93255843D01*
X77990021Y-93303462D01*
X78085259Y-93351081D01*
X78180497Y-93446319D01*
X78228116Y-93589177D01*
X78228116Y-93827272D01*
X77228116Y-92398700D02*
X77228116Y-92589177D01*
X77275735Y-92684415D01*
X77323354Y-92732034D01*
X77466211Y-92827272D01*
X77656687Y-92874891D01*
X78037640Y-92874891D01*
X78132878Y-92827272D01*
X78180497Y-92779653D01*
X78228116Y-92684415D01*
X78228116Y-92493938D01*
X78180497Y-92398700D01*
X78132878Y-92351081D01*
X78037640Y-92303462D01*
X77799545Y-92303462D01*
X77704306Y-92351081D01*
X77656687Y-92398700D01*
X77609068Y-92493938D01*
X77609068Y-92684415D01*
X77656687Y-92779653D01*
X77704306Y-92827272D01*
X77799545Y-92874891D01*
X76069116Y-96780082D02*
X75069116Y-96780082D01*
X76069116Y-96208653D02*
X75497687Y-96637225D01*
X75069116Y-96208653D02*
X75640545Y-96780082D01*
X70100116Y-93827272D02*
X69100116Y-93827272D01*
X69100116Y-93589177D01*
X69147735Y-93446319D01*
X69242973Y-93351081D01*
X69338211Y-93303462D01*
X69528687Y-93255843D01*
X69671545Y-93255843D01*
X69862021Y-93303462D01*
X69957259Y-93351081D01*
X70052497Y-93446319D01*
X70100116Y-93589177D01*
X70100116Y-93827272D01*
X69100116Y-92922510D02*
X69100116Y-92255843D01*
X70100116Y-92684415D01*
X67941116Y-96780082D02*
X66941116Y-96780082D01*
X67941116Y-96208653D02*
X67369687Y-96637225D01*
X66941116Y-96208653D02*
X67512545Y-96780082D01*
X78228116Y-68427272D02*
X77228116Y-68427272D01*
X77228116Y-68189177D01*
X77275735Y-68046319D01*
X77370973Y-67951081D01*
X77466211Y-67903462D01*
X77656687Y-67855843D01*
X77799545Y-67855843D01*
X77990021Y-67903462D01*
X78085259Y-67951081D01*
X78180497Y-68046319D01*
X78228116Y-68189177D01*
X78228116Y-68427272D01*
X77656687Y-67284415D02*
X77609068Y-67379653D01*
X77561449Y-67427272D01*
X77466211Y-67474891D01*
X77418592Y-67474891D01*
X77323354Y-67427272D01*
X77275735Y-67379653D01*
X77228116Y-67284415D01*
X77228116Y-67093938D01*
X77275735Y-66998700D01*
X77323354Y-66951081D01*
X77418592Y-66903462D01*
X77466211Y-66903462D01*
X77561449Y-66951081D01*
X77609068Y-66998700D01*
X77656687Y-67093938D01*
X77656687Y-67284415D01*
X77704306Y-67379653D01*
X77751925Y-67427272D01*
X77847164Y-67474891D01*
X78037640Y-67474891D01*
X78132878Y-67427272D01*
X78180497Y-67379653D01*
X78228116Y-67284415D01*
X78228116Y-67093938D01*
X78180497Y-66998700D01*
X78132878Y-66951081D01*
X78037640Y-66903462D01*
X77847164Y-66903462D01*
X77751925Y-66951081D01*
X77704306Y-66998700D01*
X77656687Y-67093938D01*
X76069116Y-71380082D02*
X75069116Y-71380082D01*
X76069116Y-70808653D02*
X75497687Y-71237225D01*
X75069116Y-70808653D02*
X75640545Y-71380082D01*
X70100116Y-68427272D02*
X69100116Y-68427272D01*
X69100116Y-68189177D01*
X69147735Y-68046319D01*
X69242973Y-67951081D01*
X69338211Y-67903462D01*
X69528687Y-67855843D01*
X69671545Y-67855843D01*
X69862021Y-67903462D01*
X69957259Y-67951081D01*
X70052497Y-68046319D01*
X70100116Y-68189177D01*
X70100116Y-68427272D01*
X70100116Y-67379653D02*
X70100116Y-67189177D01*
X70052497Y-67093938D01*
X70004878Y-67046319D01*
X69862021Y-66951081D01*
X69671545Y-66903462D01*
X69290592Y-66903462D01*
X69195354Y-66951081D01*
X69147735Y-66998700D01*
X69100116Y-67093938D01*
X69100116Y-67284415D01*
X69147735Y-67379653D01*
X69195354Y-67427272D01*
X69290592Y-67474891D01*
X69528687Y-67474891D01*
X69623925Y-67427272D01*
X69671545Y-67379653D01*
X69719164Y-67284415D01*
X69719164Y-67093938D01*
X69671545Y-66998700D01*
X69623925Y-66951081D01*
X69528687Y-66903462D01*
X67941116Y-71380082D02*
X66941116Y-71380082D01*
X67941116Y-70808653D02*
X67369687Y-71237225D01*
X66941116Y-70808653D02*
X67512545Y-71380082D01*
X78228116Y-111067463D02*
X77228116Y-111067463D01*
X77228116Y-110829368D01*
X77275735Y-110686510D01*
X77370973Y-110591272D01*
X77466211Y-110543653D01*
X77656687Y-110496034D01*
X77799545Y-110496034D01*
X77990021Y-110543653D01*
X78085259Y-110591272D01*
X78180497Y-110686510D01*
X78228116Y-110829368D01*
X78228116Y-111067463D01*
X78228116Y-109543653D02*
X78228116Y-110115082D01*
X78228116Y-109829368D02*
X77228116Y-109829368D01*
X77370973Y-109924606D01*
X77466211Y-110019844D01*
X77513830Y-110115082D01*
X77228116Y-108924606D02*
X77228116Y-108829367D01*
X77275735Y-108734129D01*
X77323354Y-108686510D01*
X77418592Y-108638891D01*
X77609068Y-108591272D01*
X77847164Y-108591272D01*
X78037640Y-108638891D01*
X78132878Y-108686510D01*
X78180497Y-108734129D01*
X78228116Y-108829367D01*
X78228116Y-108924606D01*
X78180497Y-109019844D01*
X78132878Y-109067463D01*
X78037640Y-109115082D01*
X77847164Y-109162701D01*
X77609068Y-109162701D01*
X77418592Y-109115082D01*
X77323354Y-109067463D01*
X77275735Y-109019844D01*
X77228116Y-108924606D01*
X76069116Y-113544082D02*
X75069116Y-113544082D01*
X76069116Y-112972653D02*
X75497687Y-113401225D01*
X75069116Y-112972653D02*
X75640545Y-113544082D01*
X70100116Y-111067463D02*
X69100116Y-111067463D01*
X69100116Y-110829368D01*
X69147735Y-110686510D01*
X69242973Y-110591272D01*
X69338211Y-110543653D01*
X69528687Y-110496034D01*
X69671545Y-110496034D01*
X69862021Y-110543653D01*
X69957259Y-110591272D01*
X70052497Y-110686510D01*
X70100116Y-110829368D01*
X70100116Y-111067463D01*
X70100116Y-109543653D02*
X70100116Y-110115082D01*
X70100116Y-109829368D02*
X69100116Y-109829368D01*
X69242973Y-109924606D01*
X69338211Y-110019844D01*
X69385830Y-110115082D01*
X70100116Y-108591272D02*
X70100116Y-109162701D01*
X70100116Y-108876987D02*
X69100116Y-108876987D01*
X69242973Y-108972225D01*
X69338211Y-109067463D01*
X69385830Y-109162701D01*
X67941116Y-113544082D02*
X66941116Y-113544082D01*
X67941116Y-112972653D02*
X67369687Y-113401225D01*
X66941116Y-112972653D02*
X67512545Y-113544082D01*
X78228116Y-85667463D02*
X77228116Y-85667463D01*
X77228116Y-85429368D01*
X77275735Y-85286510D01*
X77370973Y-85191272D01*
X77466211Y-85143653D01*
X77656687Y-85096034D01*
X77799545Y-85096034D01*
X77990021Y-85143653D01*
X78085259Y-85191272D01*
X78180497Y-85286510D01*
X78228116Y-85429368D01*
X78228116Y-85667463D01*
X78228116Y-84143653D02*
X78228116Y-84715082D01*
X78228116Y-84429368D02*
X77228116Y-84429368D01*
X77370973Y-84524606D01*
X77466211Y-84619844D01*
X77513830Y-84715082D01*
X77323354Y-83762701D02*
X77275735Y-83715082D01*
X77228116Y-83619844D01*
X77228116Y-83381748D01*
X77275735Y-83286510D01*
X77323354Y-83238891D01*
X77418592Y-83191272D01*
X77513830Y-83191272D01*
X77656687Y-83238891D01*
X78228116Y-83810320D01*
X78228116Y-83191272D01*
X76069116Y-88144082D02*
X75069116Y-88144082D01*
X76069116Y-87572653D02*
X75497687Y-88001225D01*
X75069116Y-87572653D02*
X75640545Y-88144082D01*
X70100116Y-85667463D02*
X69100116Y-85667463D01*
X69100116Y-85429368D01*
X69147735Y-85286510D01*
X69242973Y-85191272D01*
X69338211Y-85143653D01*
X69528687Y-85096034D01*
X69671545Y-85096034D01*
X69862021Y-85143653D01*
X69957259Y-85191272D01*
X70052497Y-85286510D01*
X70100116Y-85429368D01*
X70100116Y-85667463D01*
X70100116Y-84143653D02*
X70100116Y-84715082D01*
X70100116Y-84429368D02*
X69100116Y-84429368D01*
X69242973Y-84524606D01*
X69338211Y-84619844D01*
X69385830Y-84715082D01*
X69100116Y-83810320D02*
X69100116Y-83191272D01*
X69481068Y-83524606D01*
X69481068Y-83381748D01*
X69528687Y-83286510D01*
X69576306Y-83238891D01*
X69671545Y-83191272D01*
X69909640Y-83191272D01*
X70004878Y-83238891D01*
X70052497Y-83286510D01*
X70100116Y-83381748D01*
X70100116Y-83667463D01*
X70052497Y-83762701D01*
X70004878Y-83810320D01*
X67941116Y-88144082D02*
X66941116Y-88144082D01*
X67941116Y-87572653D02*
X67369687Y-88001225D01*
X66941116Y-87572653D02*
X67512545Y-88144082D01*
X78228116Y-60267463D02*
X77228116Y-60267463D01*
X77228116Y-60029368D01*
X77275735Y-59886510D01*
X77370973Y-59791272D01*
X77466211Y-59743653D01*
X77656687Y-59696034D01*
X77799545Y-59696034D01*
X77990021Y-59743653D01*
X78085259Y-59791272D01*
X78180497Y-59886510D01*
X78228116Y-60029368D01*
X78228116Y-60267463D01*
X78228116Y-58743653D02*
X78228116Y-59315082D01*
X78228116Y-59029368D02*
X77228116Y-59029368D01*
X77370973Y-59124606D01*
X77466211Y-59219844D01*
X77513830Y-59315082D01*
X77561449Y-57886510D02*
X78228116Y-57886510D01*
X77180497Y-58124606D02*
X77894783Y-58362701D01*
X77894783Y-57743653D01*
X76069116Y-62744082D02*
X75069116Y-62744082D01*
X76069116Y-62172653D02*
X75497687Y-62601225D01*
X75069116Y-62172653D02*
X75640545Y-62744082D01*
X70100116Y-60267463D02*
X69100116Y-60267463D01*
X69100116Y-60029368D01*
X69147735Y-59886510D01*
X69242973Y-59791272D01*
X69338211Y-59743653D01*
X69528687Y-59696034D01*
X69671545Y-59696034D01*
X69862021Y-59743653D01*
X69957259Y-59791272D01*
X70052497Y-59886510D01*
X70100116Y-60029368D01*
X70100116Y-60267463D01*
X70100116Y-58743653D02*
X70100116Y-59315082D01*
X70100116Y-59029368D02*
X69100116Y-59029368D01*
X69242973Y-59124606D01*
X69338211Y-59219844D01*
X69385830Y-59315082D01*
X69100116Y-57838891D02*
X69100116Y-58315082D01*
X69576306Y-58362701D01*
X69528687Y-58315082D01*
X69481068Y-58219844D01*
X69481068Y-57981748D01*
X69528687Y-57886510D01*
X69576306Y-57838891D01*
X69671545Y-57791272D01*
X69909640Y-57791272D01*
X70004878Y-57838891D01*
X70052497Y-57886510D01*
X70100116Y-57981748D01*
X70100116Y-58219844D01*
X70052497Y-58315082D01*
X70004878Y-58362701D01*
X67941116Y-62744082D02*
X66941116Y-62744082D01*
X67941116Y-62172653D02*
X67369687Y-62601225D01*
X66941116Y-62172653D02*
X67512545Y-62744082D01*
X162807576Y-109543463D02*
X161807576Y-109543463D01*
X161807576Y-109305368D01*
X161855195Y-109162510D01*
X161950433Y-109067272D01*
X162045671Y-109019653D01*
X162236147Y-108972034D01*
X162379005Y-108972034D01*
X162569481Y-109019653D01*
X162664719Y-109067272D01*
X162759957Y-109162510D01*
X162807576Y-109305368D01*
X162807576Y-109543463D01*
X162807576Y-108019653D02*
X162807576Y-108591082D01*
X162807576Y-108305368D02*
X161807576Y-108305368D01*
X161950433Y-108400606D01*
X162045671Y-108495844D01*
X162093290Y-108591082D01*
X161807576Y-107162510D02*
X161807576Y-107352987D01*
X161855195Y-107448225D01*
X161902814Y-107495844D01*
X162045671Y-107591082D01*
X162236147Y-107638701D01*
X162617100Y-107638701D01*
X162712338Y-107591082D01*
X162759957Y-107543463D01*
X162807576Y-107448225D01*
X162807576Y-107257748D01*
X162759957Y-107162510D01*
X162712338Y-107114891D01*
X162617100Y-107067272D01*
X162379005Y-107067272D01*
X162283766Y-107114891D01*
X162236147Y-107162510D01*
X162188528Y-107257748D01*
X162188528Y-107448225D01*
X162236147Y-107543463D01*
X162283766Y-107591082D01*
X162379005Y-107638701D01*
X157730116Y-93033463D02*
X156730116Y-93033463D01*
X156730116Y-92795368D01*
X156777735Y-92652510D01*
X156872973Y-92557272D01*
X156968211Y-92509653D01*
X157158687Y-92462034D01*
X157301545Y-92462034D01*
X157492021Y-92509653D01*
X157587259Y-92557272D01*
X157682497Y-92652510D01*
X157730116Y-92795368D01*
X157730116Y-93033463D01*
X157730116Y-91509653D02*
X157730116Y-92081082D01*
X157730116Y-91795368D02*
X156730116Y-91795368D01*
X156872973Y-91890606D01*
X156968211Y-91985844D01*
X157015830Y-92081082D01*
X156730116Y-91176320D02*
X156730116Y-90509653D01*
X157730116Y-90938225D01*
X130044116Y-93033463D02*
X129044116Y-93033463D01*
X129044116Y-92795368D01*
X129091735Y-92652510D01*
X129186973Y-92557272D01*
X129282211Y-92509653D01*
X129472687Y-92462034D01*
X129615545Y-92462034D01*
X129806021Y-92509653D01*
X129901259Y-92557272D01*
X129996497Y-92652510D01*
X130044116Y-92795368D01*
X130044116Y-93033463D01*
X130044116Y-91509653D02*
X130044116Y-92081082D01*
X130044116Y-91795368D02*
X129044116Y-91795368D01*
X129186973Y-91890606D01*
X129282211Y-91985844D01*
X129329830Y-92081082D01*
X129472687Y-90938225D02*
X129425068Y-91033463D01*
X129377449Y-91081082D01*
X129282211Y-91128701D01*
X129234592Y-91128701D01*
X129139354Y-91081082D01*
X129091735Y-91033463D01*
X129044116Y-90938225D01*
X129044116Y-90747748D01*
X129091735Y-90652510D01*
X129139354Y-90604891D01*
X129234592Y-90557272D01*
X129282211Y-90557272D01*
X129377449Y-90604891D01*
X129425068Y-90652510D01*
X129472687Y-90747748D01*
X129472687Y-90938225D01*
X129520306Y-91033463D01*
X129567925Y-91081082D01*
X129663164Y-91128701D01*
X129853640Y-91128701D01*
X129948878Y-91081082D01*
X129996497Y-91033463D01*
X130044116Y-90938225D01*
X130044116Y-90747748D01*
X129996497Y-90652510D01*
X129948878Y-90604891D01*
X129853640Y-90557272D01*
X129663164Y-90557272D01*
X129567925Y-90604891D01*
X129520306Y-90652510D01*
X129472687Y-90747748D01*
X215388116Y-119703463D02*
X214388116Y-119703463D01*
X214388116Y-119465368D01*
X214435735Y-119322510D01*
X214530973Y-119227272D01*
X214626211Y-119179653D01*
X214816687Y-119132034D01*
X214959545Y-119132034D01*
X215150021Y-119179653D01*
X215245259Y-119227272D01*
X215340497Y-119322510D01*
X215388116Y-119465368D01*
X215388116Y-119703463D01*
X215388116Y-118179653D02*
X215388116Y-118751082D01*
X215388116Y-118465368D02*
X214388116Y-118465368D01*
X214530973Y-118560606D01*
X214626211Y-118655844D01*
X214673830Y-118751082D01*
X215388116Y-117703463D02*
X215388116Y-117512987D01*
X215340497Y-117417748D01*
X215292878Y-117370129D01*
X215150021Y-117274891D01*
X214959545Y-117227272D01*
X214578592Y-117227272D01*
X214483354Y-117274891D01*
X214435735Y-117322510D01*
X214388116Y-117417748D01*
X214388116Y-117608225D01*
X214435735Y-117703463D01*
X214483354Y-117751082D01*
X214578592Y-117798701D01*
X214816687Y-117798701D01*
X214911925Y-117751082D01*
X214959545Y-117703463D01*
X215007164Y-117608225D01*
X215007164Y-117417748D01*
X214959545Y-117322510D01*
X214911925Y-117274891D01*
X214816687Y-117227272D01*
X213229116Y-122180082D02*
X212229116Y-122180082D01*
X213229116Y-121608653D02*
X212657687Y-122037225D01*
X212229116Y-121608653D02*
X212800545Y-122180082D01*
X223516116Y-119703463D02*
X222516116Y-119703463D01*
X222516116Y-119465368D01*
X222563735Y-119322510D01*
X222658973Y-119227272D01*
X222754211Y-119179653D01*
X222944687Y-119132034D01*
X223087545Y-119132034D01*
X223278021Y-119179653D01*
X223373259Y-119227272D01*
X223468497Y-119322510D01*
X223516116Y-119465368D01*
X223516116Y-119703463D01*
X222611354Y-118751082D02*
X222563735Y-118703463D01*
X222516116Y-118608225D01*
X222516116Y-118370129D01*
X222563735Y-118274891D01*
X222611354Y-118227272D01*
X222706592Y-118179653D01*
X222801830Y-118179653D01*
X222944687Y-118227272D01*
X223516116Y-118798701D01*
X223516116Y-118179653D01*
X222516116Y-117560606D02*
X222516116Y-117465367D01*
X222563735Y-117370129D01*
X222611354Y-117322510D01*
X222706592Y-117274891D01*
X222897068Y-117227272D01*
X223135164Y-117227272D01*
X223325640Y-117274891D01*
X223420878Y-117322510D01*
X223468497Y-117370129D01*
X223516116Y-117465367D01*
X223516116Y-117560606D01*
X223468497Y-117655844D01*
X223420878Y-117703463D01*
X223325640Y-117751082D01*
X223135164Y-117798701D01*
X222897068Y-117798701D01*
X222706592Y-117751082D01*
X222611354Y-117703463D01*
X222563735Y-117655844D01*
X222516116Y-117560606D01*
X221357116Y-122180082D02*
X220357116Y-122180082D01*
X221357116Y-121608653D02*
X220785687Y-122037225D01*
X220357116Y-121608653D02*
X220928545Y-122180082D01*
X223516116Y-94303463D02*
X222516116Y-94303463D01*
X222516116Y-94065368D01*
X222563735Y-93922510D01*
X222658973Y-93827272D01*
X222754211Y-93779653D01*
X222944687Y-93732034D01*
X223087545Y-93732034D01*
X223278021Y-93779653D01*
X223373259Y-93827272D01*
X223468497Y-93922510D01*
X223516116Y-94065368D01*
X223516116Y-94303463D01*
X222611354Y-93351082D02*
X222563735Y-93303463D01*
X222516116Y-93208225D01*
X222516116Y-92970129D01*
X222563735Y-92874891D01*
X222611354Y-92827272D01*
X222706592Y-92779653D01*
X222801830Y-92779653D01*
X222944687Y-92827272D01*
X223516116Y-93398701D01*
X223516116Y-92779653D01*
X223516116Y-91827272D02*
X223516116Y-92398701D01*
X223516116Y-92112987D02*
X222516116Y-92112987D01*
X222658973Y-92208225D01*
X222754211Y-92303463D01*
X222801830Y-92398701D01*
X221357116Y-96780082D02*
X220357116Y-96780082D01*
X221357116Y-96208653D02*
X220785687Y-96637225D01*
X220357116Y-96208653D02*
X220928545Y-96780082D01*
X215388116Y-94303463D02*
X214388116Y-94303463D01*
X214388116Y-94065368D01*
X214435735Y-93922510D01*
X214530973Y-93827272D01*
X214626211Y-93779653D01*
X214816687Y-93732034D01*
X214959545Y-93732034D01*
X215150021Y-93779653D01*
X215245259Y-93827272D01*
X215340497Y-93922510D01*
X215388116Y-94065368D01*
X215388116Y-94303463D01*
X214483354Y-93351082D02*
X214435735Y-93303463D01*
X214388116Y-93208225D01*
X214388116Y-92970129D01*
X214435735Y-92874891D01*
X214483354Y-92827272D01*
X214578592Y-92779653D01*
X214673830Y-92779653D01*
X214816687Y-92827272D01*
X215388116Y-93398701D01*
X215388116Y-92779653D01*
X214483354Y-92398701D02*
X214435735Y-92351082D01*
X214388116Y-92255844D01*
X214388116Y-92017748D01*
X214435735Y-91922510D01*
X214483354Y-91874891D01*
X214578592Y-91827272D01*
X214673830Y-91827272D01*
X214816687Y-91874891D01*
X215388116Y-92446320D01*
X215388116Y-91827272D01*
X213229116Y-96780082D02*
X212229116Y-96780082D01*
X213229116Y-96208653D02*
X212657687Y-96637225D01*
X212229116Y-96208653D02*
X212800545Y-96780082D01*
X215388116Y-68903463D02*
X214388116Y-68903463D01*
X214388116Y-68665368D01*
X214435735Y-68522510D01*
X214530973Y-68427272D01*
X214626211Y-68379653D01*
X214816687Y-68332034D01*
X214959545Y-68332034D01*
X215150021Y-68379653D01*
X215245259Y-68427272D01*
X215340497Y-68522510D01*
X215388116Y-68665368D01*
X215388116Y-68903463D01*
X214483354Y-67951082D02*
X214435735Y-67903463D01*
X214388116Y-67808225D01*
X214388116Y-67570129D01*
X214435735Y-67474891D01*
X214483354Y-67427272D01*
X214578592Y-67379653D01*
X214673830Y-67379653D01*
X214816687Y-67427272D01*
X215388116Y-67998701D01*
X215388116Y-67379653D01*
X214388116Y-67046320D02*
X214388116Y-66427272D01*
X214769068Y-66760606D01*
X214769068Y-66617748D01*
X214816687Y-66522510D01*
X214864306Y-66474891D01*
X214959545Y-66427272D01*
X215197640Y-66427272D01*
X215292878Y-66474891D01*
X215340497Y-66522510D01*
X215388116Y-66617748D01*
X215388116Y-66903463D01*
X215340497Y-66998701D01*
X215292878Y-67046320D01*
X213229116Y-71380082D02*
X212229116Y-71380082D01*
X213229116Y-70808653D02*
X212657687Y-71237225D01*
X212229116Y-70808653D02*
X212800545Y-71380082D01*
X223516116Y-68903463D02*
X222516116Y-68903463D01*
X222516116Y-68665368D01*
X222563735Y-68522510D01*
X222658973Y-68427272D01*
X222754211Y-68379653D01*
X222944687Y-68332034D01*
X223087545Y-68332034D01*
X223278021Y-68379653D01*
X223373259Y-68427272D01*
X223468497Y-68522510D01*
X223516116Y-68665368D01*
X223516116Y-68903463D01*
X222611354Y-67951082D02*
X222563735Y-67903463D01*
X222516116Y-67808225D01*
X222516116Y-67570129D01*
X222563735Y-67474891D01*
X222611354Y-67427272D01*
X222706592Y-67379653D01*
X222801830Y-67379653D01*
X222944687Y-67427272D01*
X223516116Y-67998701D01*
X223516116Y-67379653D01*
X222849449Y-66522510D02*
X223516116Y-66522510D01*
X222468497Y-66760606D02*
X223182783Y-66998701D01*
X223182783Y-66379653D01*
X221357116Y-71380082D02*
X220357116Y-71380082D01*
X221357116Y-70808653D02*
X220785687Y-71237225D01*
X220357116Y-70808653D02*
X220928545Y-71380082D01*
X215388116Y-111067463D02*
X214388116Y-111067463D01*
X214388116Y-110829368D01*
X214435735Y-110686510D01*
X214530973Y-110591272D01*
X214626211Y-110543653D01*
X214816687Y-110496034D01*
X214959545Y-110496034D01*
X215150021Y-110543653D01*
X215245259Y-110591272D01*
X215340497Y-110686510D01*
X215388116Y-110829368D01*
X215388116Y-111067463D01*
X214483354Y-110115082D02*
X214435735Y-110067463D01*
X214388116Y-109972225D01*
X214388116Y-109734129D01*
X214435735Y-109638891D01*
X214483354Y-109591272D01*
X214578592Y-109543653D01*
X214673830Y-109543653D01*
X214816687Y-109591272D01*
X215388116Y-110162701D01*
X215388116Y-109543653D01*
X214388116Y-108638891D02*
X214388116Y-109115082D01*
X214864306Y-109162701D01*
X214816687Y-109115082D01*
X214769068Y-109019844D01*
X214769068Y-108781748D01*
X214816687Y-108686510D01*
X214864306Y-108638891D01*
X214959545Y-108591272D01*
X215197640Y-108591272D01*
X215292878Y-108638891D01*
X215340497Y-108686510D01*
X215388116Y-108781748D01*
X215388116Y-109019844D01*
X215340497Y-109115082D01*
X215292878Y-109162701D01*
X213229116Y-113544082D02*
X212229116Y-113544082D01*
X213229116Y-112972653D02*
X212657687Y-113401225D01*
X212229116Y-112972653D02*
X212800545Y-113544082D01*
X223516116Y-111067463D02*
X222516116Y-111067463D01*
X222516116Y-110829368D01*
X222563735Y-110686510D01*
X222658973Y-110591272D01*
X222754211Y-110543653D01*
X222944687Y-110496034D01*
X223087545Y-110496034D01*
X223278021Y-110543653D01*
X223373259Y-110591272D01*
X223468497Y-110686510D01*
X223516116Y-110829368D01*
X223516116Y-111067463D01*
X222611354Y-110115082D02*
X222563735Y-110067463D01*
X222516116Y-109972225D01*
X222516116Y-109734129D01*
X222563735Y-109638891D01*
X222611354Y-109591272D01*
X222706592Y-109543653D01*
X222801830Y-109543653D01*
X222944687Y-109591272D01*
X223516116Y-110162701D01*
X223516116Y-109543653D01*
X222516116Y-108686510D02*
X222516116Y-108876987D01*
X222563735Y-108972225D01*
X222611354Y-109019844D01*
X222754211Y-109115082D01*
X222944687Y-109162701D01*
X223325640Y-109162701D01*
X223420878Y-109115082D01*
X223468497Y-109067463D01*
X223516116Y-108972225D01*
X223516116Y-108781748D01*
X223468497Y-108686510D01*
X223420878Y-108638891D01*
X223325640Y-108591272D01*
X223087545Y-108591272D01*
X222992306Y-108638891D01*
X222944687Y-108686510D01*
X222897068Y-108781748D01*
X222897068Y-108972225D01*
X222944687Y-109067463D01*
X222992306Y-109115082D01*
X223087545Y-109162701D01*
X221357116Y-113544082D02*
X220357116Y-113544082D01*
X221357116Y-112972653D02*
X220785687Y-113401225D01*
X220357116Y-112972653D02*
X220928545Y-113544082D01*
X223516116Y-85667463D02*
X222516116Y-85667463D01*
X222516116Y-85429368D01*
X222563735Y-85286510D01*
X222658973Y-85191272D01*
X222754211Y-85143653D01*
X222944687Y-85096034D01*
X223087545Y-85096034D01*
X223278021Y-85143653D01*
X223373259Y-85191272D01*
X223468497Y-85286510D01*
X223516116Y-85429368D01*
X223516116Y-85667463D01*
X222611354Y-84715082D02*
X222563735Y-84667463D01*
X222516116Y-84572225D01*
X222516116Y-84334129D01*
X222563735Y-84238891D01*
X222611354Y-84191272D01*
X222706592Y-84143653D01*
X222801830Y-84143653D01*
X222944687Y-84191272D01*
X223516116Y-84762701D01*
X223516116Y-84143653D01*
X222516116Y-83810320D02*
X222516116Y-83143653D01*
X223516116Y-83572225D01*
X221357116Y-88144082D02*
X220357116Y-88144082D01*
X221357116Y-87572653D02*
X220785687Y-88001225D01*
X220357116Y-87572653D02*
X220928545Y-88144082D01*
X215388116Y-85667463D02*
X214388116Y-85667463D01*
X214388116Y-85429368D01*
X214435735Y-85286510D01*
X214530973Y-85191272D01*
X214626211Y-85143653D01*
X214816687Y-85096034D01*
X214959545Y-85096034D01*
X215150021Y-85143653D01*
X215245259Y-85191272D01*
X215340497Y-85286510D01*
X215388116Y-85429368D01*
X215388116Y-85667463D01*
X214483354Y-84715082D02*
X214435735Y-84667463D01*
X214388116Y-84572225D01*
X214388116Y-84334129D01*
X214435735Y-84238891D01*
X214483354Y-84191272D01*
X214578592Y-84143653D01*
X214673830Y-84143653D01*
X214816687Y-84191272D01*
X215388116Y-84762701D01*
X215388116Y-84143653D01*
X214816687Y-83572225D02*
X214769068Y-83667463D01*
X214721449Y-83715082D01*
X214626211Y-83762701D01*
X214578592Y-83762701D01*
X214483354Y-83715082D01*
X214435735Y-83667463D01*
X214388116Y-83572225D01*
X214388116Y-83381748D01*
X214435735Y-83286510D01*
X214483354Y-83238891D01*
X214578592Y-83191272D01*
X214626211Y-83191272D01*
X214721449Y-83238891D01*
X214769068Y-83286510D01*
X214816687Y-83381748D01*
X214816687Y-83572225D01*
X214864306Y-83667463D01*
X214911925Y-83715082D01*
X215007164Y-83762701D01*
X215197640Y-83762701D01*
X215292878Y-83715082D01*
X215340497Y-83667463D01*
X215388116Y-83572225D01*
X215388116Y-83381748D01*
X215340497Y-83286510D01*
X215292878Y-83238891D01*
X215197640Y-83191272D01*
X215007164Y-83191272D01*
X214911925Y-83238891D01*
X214864306Y-83286510D01*
X214816687Y-83381748D01*
X213229116Y-88144082D02*
X212229116Y-88144082D01*
X213229116Y-87572653D02*
X212657687Y-88001225D01*
X212229116Y-87572653D02*
X212800545Y-88144082D01*
X215388116Y-60267463D02*
X214388116Y-60267463D01*
X214388116Y-60029368D01*
X214435735Y-59886510D01*
X214530973Y-59791272D01*
X214626211Y-59743653D01*
X214816687Y-59696034D01*
X214959545Y-59696034D01*
X215150021Y-59743653D01*
X215245259Y-59791272D01*
X215340497Y-59886510D01*
X215388116Y-60029368D01*
X215388116Y-60267463D01*
X214483354Y-59315082D02*
X214435735Y-59267463D01*
X214388116Y-59172225D01*
X214388116Y-58934129D01*
X214435735Y-58838891D01*
X214483354Y-58791272D01*
X214578592Y-58743653D01*
X214673830Y-58743653D01*
X214816687Y-58791272D01*
X215388116Y-59362701D01*
X215388116Y-58743653D01*
X215388116Y-58267463D02*
X215388116Y-58076987D01*
X215340497Y-57981748D01*
X215292878Y-57934129D01*
X215150021Y-57838891D01*
X214959545Y-57791272D01*
X214578592Y-57791272D01*
X214483354Y-57838891D01*
X214435735Y-57886510D01*
X214388116Y-57981748D01*
X214388116Y-58172225D01*
X214435735Y-58267463D01*
X214483354Y-58315082D01*
X214578592Y-58362701D01*
X214816687Y-58362701D01*
X214911925Y-58315082D01*
X214959545Y-58267463D01*
X215007164Y-58172225D01*
X215007164Y-57981748D01*
X214959545Y-57886510D01*
X214911925Y-57838891D01*
X214816687Y-57791272D01*
X213229116Y-62744082D02*
X212229116Y-62744082D01*
X213229116Y-62172653D02*
X212657687Y-62601225D01*
X212229116Y-62172653D02*
X212800545Y-62744082D01*
X223516116Y-60267463D02*
X222516116Y-60267463D01*
X222516116Y-60029368D01*
X222563735Y-59886510D01*
X222658973Y-59791272D01*
X222754211Y-59743653D01*
X222944687Y-59696034D01*
X223087545Y-59696034D01*
X223278021Y-59743653D01*
X223373259Y-59791272D01*
X223468497Y-59886510D01*
X223516116Y-60029368D01*
X223516116Y-60267463D01*
X222516116Y-59362701D02*
X222516116Y-58743653D01*
X222897068Y-59076987D01*
X222897068Y-58934129D01*
X222944687Y-58838891D01*
X222992306Y-58791272D01*
X223087545Y-58743653D01*
X223325640Y-58743653D01*
X223420878Y-58791272D01*
X223468497Y-58838891D01*
X223516116Y-58934129D01*
X223516116Y-59219844D01*
X223468497Y-59315082D01*
X223420878Y-59362701D01*
X222516116Y-58124606D02*
X222516116Y-58029367D01*
X222563735Y-57934129D01*
X222611354Y-57886510D01*
X222706592Y-57838891D01*
X222897068Y-57791272D01*
X223135164Y-57791272D01*
X223325640Y-57838891D01*
X223420878Y-57886510D01*
X223468497Y-57934129D01*
X223516116Y-58029367D01*
X223516116Y-58124606D01*
X223468497Y-58219844D01*
X223420878Y-58267463D01*
X223325640Y-58315082D01*
X223135164Y-58362701D01*
X222897068Y-58362701D01*
X222706592Y-58315082D01*
X222611354Y-58267463D01*
X222563735Y-58219844D01*
X222516116Y-58124606D01*
X221357116Y-62744082D02*
X220357116Y-62744082D01*
X221357116Y-62172653D02*
X220785687Y-62601225D01*
X220357116Y-62172653D02*
X220928545Y-62744082D01*
X146610116Y-140054510D02*
X147324402Y-140054510D01*
X147467259Y-140102130D01*
X147562497Y-140197368D01*
X147610116Y-140340225D01*
X147610116Y-140435463D01*
X147610116Y-139054510D02*
X147610116Y-139625939D01*
X147610116Y-139340225D02*
X146610116Y-139340225D01*
X146752973Y-139435463D01*
X146848211Y-139530701D01*
X146895830Y-139625939D01*
X90507497Y-113543796D02*
X90412259Y-113496177D01*
X90317021Y-113400939D01*
X90174164Y-113258082D01*
X90078925Y-113210463D01*
X89983687Y-113210463D01*
X90031306Y-113448558D02*
X89936068Y-113400939D01*
X89840830Y-113305701D01*
X89793211Y-113115225D01*
X89793211Y-112781891D01*
X89840830Y-112591415D01*
X89936068Y-112496177D01*
X90031306Y-112448558D01*
X90221783Y-112448558D01*
X90317021Y-112496177D01*
X90412259Y-112591415D01*
X90459878Y-112781891D01*
X90459878Y-113115225D01*
X90412259Y-113305701D01*
X90317021Y-113400939D01*
X90221783Y-113448558D01*
X90031306Y-113448558D01*
X91412259Y-113448558D02*
X90840830Y-113448558D01*
X91126544Y-113448558D02*
X91126544Y-112448558D01*
X91031306Y-112591415D01*
X90936068Y-112686653D01*
X90840830Y-112734272D01*
X90507497Y-88143796D02*
X90412259Y-88096177D01*
X90317021Y-88000939D01*
X90174164Y-87858082D01*
X90078925Y-87810463D01*
X89983687Y-87810463D01*
X90031306Y-88048558D02*
X89936068Y-88000939D01*
X89840830Y-87905701D01*
X89793211Y-87715225D01*
X89793211Y-87381891D01*
X89840830Y-87191415D01*
X89936068Y-87096177D01*
X90031306Y-87048558D01*
X90221783Y-87048558D01*
X90317021Y-87096177D01*
X90412259Y-87191415D01*
X90459878Y-87381891D01*
X90459878Y-87715225D01*
X90412259Y-87905701D01*
X90317021Y-88000939D01*
X90221783Y-88048558D01*
X90031306Y-88048558D01*
X90840830Y-87143796D02*
X90888449Y-87096177D01*
X90983687Y-87048558D01*
X91221783Y-87048558D01*
X91317021Y-87096177D01*
X91364640Y-87143796D01*
X91412259Y-87239034D01*
X91412259Y-87334272D01*
X91364640Y-87477129D01*
X90793211Y-88048558D01*
X91412259Y-88048558D01*
X90507497Y-61473796D02*
X90412259Y-61426177D01*
X90317021Y-61330939D01*
X90174164Y-61188082D01*
X90078925Y-61140463D01*
X89983687Y-61140463D01*
X90031306Y-61378558D02*
X89936068Y-61330939D01*
X89840830Y-61235701D01*
X89793211Y-61045225D01*
X89793211Y-60711891D01*
X89840830Y-60521415D01*
X89936068Y-60426177D01*
X90031306Y-60378558D01*
X90221783Y-60378558D01*
X90317021Y-60426177D01*
X90412259Y-60521415D01*
X90459878Y-60711891D01*
X90459878Y-61045225D01*
X90412259Y-61235701D01*
X90317021Y-61330939D01*
X90221783Y-61378558D01*
X90031306Y-61378558D01*
X90793211Y-60378558D02*
X91412259Y-60378558D01*
X91078925Y-60759510D01*
X91221783Y-60759510D01*
X91317021Y-60807129D01*
X91364640Y-60854748D01*
X91412259Y-60949987D01*
X91412259Y-61188082D01*
X91364640Y-61283320D01*
X91317021Y-61330939D01*
X91221783Y-61378558D01*
X90936068Y-61378558D01*
X90840830Y-61330939D01*
X90793211Y-61283320D01*
X194647497Y-113543796D02*
X194552259Y-113496177D01*
X194457021Y-113400939D01*
X194314164Y-113258082D01*
X194218925Y-113210463D01*
X194123687Y-113210463D01*
X194171306Y-113448558D02*
X194076068Y-113400939D01*
X193980830Y-113305701D01*
X193933211Y-113115225D01*
X193933211Y-112781891D01*
X193980830Y-112591415D01*
X194076068Y-112496177D01*
X194171306Y-112448558D01*
X194361783Y-112448558D01*
X194457021Y-112496177D01*
X194552259Y-112591415D01*
X194599878Y-112781891D01*
X194599878Y-113115225D01*
X194552259Y-113305701D01*
X194457021Y-113400939D01*
X194361783Y-113448558D01*
X194171306Y-113448558D01*
X195457021Y-112781891D02*
X195457021Y-113448558D01*
X195218925Y-112400939D02*
X194980830Y-113115225D01*
X195599878Y-113115225D01*
X194647497Y-88143796D02*
X194552259Y-88096177D01*
X194457021Y-88000939D01*
X194314164Y-87858082D01*
X194218925Y-87810463D01*
X194123687Y-87810463D01*
X194171306Y-88048558D02*
X194076068Y-88000939D01*
X193980830Y-87905701D01*
X193933211Y-87715225D01*
X193933211Y-87381891D01*
X193980830Y-87191415D01*
X194076068Y-87096177D01*
X194171306Y-87048558D01*
X194361783Y-87048558D01*
X194457021Y-87096177D01*
X194552259Y-87191415D01*
X194599878Y-87381891D01*
X194599878Y-87715225D01*
X194552259Y-87905701D01*
X194457021Y-88000939D01*
X194361783Y-88048558D01*
X194171306Y-88048558D01*
X195504640Y-87048558D02*
X195028449Y-87048558D01*
X194980830Y-87524748D01*
X195028449Y-87477129D01*
X195123687Y-87429510D01*
X195361783Y-87429510D01*
X195457021Y-87477129D01*
X195504640Y-87524748D01*
X195552259Y-87619987D01*
X195552259Y-87858082D01*
X195504640Y-87953320D01*
X195457021Y-88000939D01*
X195361783Y-88048558D01*
X195123687Y-88048558D01*
X195028449Y-88000939D01*
X194980830Y-87953320D01*
X194647497Y-62743796D02*
X194552259Y-62696177D01*
X194457021Y-62600939D01*
X194314164Y-62458082D01*
X194218925Y-62410463D01*
X194123687Y-62410463D01*
X194171306Y-62648558D02*
X194076068Y-62600939D01*
X193980830Y-62505701D01*
X193933211Y-62315225D01*
X193933211Y-61981891D01*
X193980830Y-61791415D01*
X194076068Y-61696177D01*
X194171306Y-61648558D01*
X194361783Y-61648558D01*
X194457021Y-61696177D01*
X194552259Y-61791415D01*
X194599878Y-61981891D01*
X194599878Y-62315225D01*
X194552259Y-62505701D01*
X194457021Y-62600939D01*
X194361783Y-62648558D01*
X194171306Y-62648558D01*
X195457021Y-61648558D02*
X195266544Y-61648558D01*
X195171306Y-61696177D01*
X195123687Y-61743796D01*
X195028449Y-61886653D01*
X194980830Y-62077129D01*
X194980830Y-62458082D01*
X195028449Y-62553320D01*
X195076068Y-62600939D01*
X195171306Y-62648558D01*
X195361783Y-62648558D01*
X195457021Y-62600939D01*
X195504640Y-62553320D01*
X195552259Y-62458082D01*
X195552259Y-62219987D01*
X195504640Y-62124748D01*
X195457021Y-62077129D01*
X195361783Y-62029510D01*
X195171306Y-62029510D01*
X195076068Y-62077129D01*
X195028449Y-62124748D01*
X194980830Y-62219987D01*
X103771069Y-119195558D02*
X103437735Y-118719367D01*
X103199640Y-119195558D02*
X103199640Y-118195558D01*
X103580593Y-118195558D01*
X103675831Y-118243177D01*
X103723450Y-118290796D01*
X103771069Y-118386034D01*
X103771069Y-118528891D01*
X103723450Y-118624129D01*
X103675831Y-118671748D01*
X103580593Y-118719367D01*
X103199640Y-118719367D01*
X104723450Y-119195558D02*
X104152021Y-119195558D01*
X104437735Y-119195558D02*
X104437735Y-118195558D01*
X104342497Y-118338415D01*
X104247259Y-118433653D01*
X104152021Y-118481272D01*
X103771069Y-93795558D02*
X103437735Y-93319367D01*
X103199640Y-93795558D02*
X103199640Y-92795558D01*
X103580593Y-92795558D01*
X103675831Y-92843177D01*
X103723450Y-92890796D01*
X103771069Y-92986034D01*
X103771069Y-93128891D01*
X103723450Y-93224129D01*
X103675831Y-93271748D01*
X103580593Y-93319367D01*
X103199640Y-93319367D01*
X104152021Y-92890796D02*
X104199640Y-92843177D01*
X104294878Y-92795558D01*
X104532974Y-92795558D01*
X104628212Y-92843177D01*
X104675831Y-92890796D01*
X104723450Y-92986034D01*
X104723450Y-93081272D01*
X104675831Y-93224129D01*
X104104402Y-93795558D01*
X104723450Y-93795558D01*
X103771069Y-69665558D02*
X103437735Y-69189367D01*
X103199640Y-69665558D02*
X103199640Y-68665558D01*
X103580593Y-68665558D01*
X103675831Y-68713177D01*
X103723450Y-68760796D01*
X103771069Y-68856034D01*
X103771069Y-68998891D01*
X103723450Y-69094129D01*
X103675831Y-69141748D01*
X103580593Y-69189367D01*
X103199640Y-69189367D01*
X104104402Y-68665558D02*
X104723450Y-68665558D01*
X104390116Y-69046510D01*
X104532974Y-69046510D01*
X104628212Y-69094129D01*
X104675831Y-69141748D01*
X104723450Y-69236987D01*
X104723450Y-69475082D01*
X104675831Y-69570320D01*
X104628212Y-69617939D01*
X104532974Y-69665558D01*
X104247259Y-69665558D01*
X104152021Y-69617939D01*
X104104402Y-69570320D01*
X99961069Y-119195558D02*
X99627735Y-118719367D01*
X99389640Y-119195558D02*
X99389640Y-118195558D01*
X99770593Y-118195558D01*
X99865831Y-118243177D01*
X99913450Y-118290796D01*
X99961069Y-118386034D01*
X99961069Y-118528891D01*
X99913450Y-118624129D01*
X99865831Y-118671748D01*
X99770593Y-118719367D01*
X99389640Y-118719367D01*
X100818212Y-118528891D02*
X100818212Y-119195558D01*
X100580116Y-118147939D02*
X100342021Y-118862225D01*
X100961069Y-118862225D01*
X99961069Y-93795558D02*
X99627735Y-93319367D01*
X99389640Y-93795558D02*
X99389640Y-92795558D01*
X99770593Y-92795558D01*
X99865831Y-92843177D01*
X99913450Y-92890796D01*
X99961069Y-92986034D01*
X99961069Y-93128891D01*
X99913450Y-93224129D01*
X99865831Y-93271748D01*
X99770593Y-93319367D01*
X99389640Y-93319367D01*
X100865831Y-92795558D02*
X100389640Y-92795558D01*
X100342021Y-93271748D01*
X100389640Y-93224129D01*
X100484878Y-93176510D01*
X100722974Y-93176510D01*
X100818212Y-93224129D01*
X100865831Y-93271748D01*
X100913450Y-93366987D01*
X100913450Y-93605082D01*
X100865831Y-93700320D01*
X100818212Y-93747939D01*
X100722974Y-93795558D01*
X100484878Y-93795558D01*
X100389640Y-93747939D01*
X100342021Y-93700320D01*
X99961069Y-69665558D02*
X99627735Y-69189367D01*
X99389640Y-69665558D02*
X99389640Y-68665558D01*
X99770593Y-68665558D01*
X99865831Y-68713177D01*
X99913450Y-68760796D01*
X99961069Y-68856034D01*
X99961069Y-68998891D01*
X99913450Y-69094129D01*
X99865831Y-69141748D01*
X99770593Y-69189367D01*
X99389640Y-69189367D01*
X100818212Y-68665558D02*
X100627735Y-68665558D01*
X100532497Y-68713177D01*
X100484878Y-68760796D01*
X100389640Y-68903653D01*
X100342021Y-69094129D01*
X100342021Y-69475082D01*
X100389640Y-69570320D01*
X100437259Y-69617939D01*
X100532497Y-69665558D01*
X100722974Y-69665558D01*
X100818212Y-69617939D01*
X100865831Y-69570320D01*
X100913450Y-69475082D01*
X100913450Y-69236987D01*
X100865831Y-69141748D01*
X100818212Y-69094129D01*
X100722974Y-69046510D01*
X100532497Y-69046510D01*
X100437259Y-69094129D01*
X100389640Y-69141748D01*
X100342021Y-69236987D01*
X114677116Y-106082843D02*
X114200925Y-106416177D01*
X114677116Y-106654272D02*
X113677116Y-106654272D01*
X113677116Y-106273319D01*
X113724735Y-106178081D01*
X113772354Y-106130462D01*
X113867592Y-106082843D01*
X114010449Y-106082843D01*
X114105687Y-106130462D01*
X114153306Y-106178081D01*
X114200925Y-106273319D01*
X114200925Y-106654272D01*
X113677116Y-105749510D02*
X113677116Y-105082843D01*
X114677116Y-105511415D01*
X114677116Y-80555843D02*
X114200925Y-80889177D01*
X114677116Y-81127272D02*
X113677116Y-81127272D01*
X113677116Y-80746319D01*
X113724735Y-80651081D01*
X113772354Y-80603462D01*
X113867592Y-80555843D01*
X114010449Y-80555843D01*
X114105687Y-80603462D01*
X114153306Y-80651081D01*
X114200925Y-80746319D01*
X114200925Y-81127272D01*
X114105687Y-79984415D02*
X114058068Y-80079653D01*
X114010449Y-80127272D01*
X113915211Y-80174891D01*
X113867592Y-80174891D01*
X113772354Y-80127272D01*
X113724735Y-80079653D01*
X113677116Y-79984415D01*
X113677116Y-79793938D01*
X113724735Y-79698700D01*
X113772354Y-79651081D01*
X113867592Y-79603462D01*
X113915211Y-79603462D01*
X114010449Y-79651081D01*
X114058068Y-79698700D01*
X114105687Y-79793938D01*
X114105687Y-79984415D01*
X114153306Y-80079653D01*
X114200925Y-80127272D01*
X114296164Y-80174891D01*
X114486640Y-80174891D01*
X114581878Y-80127272D01*
X114629497Y-80079653D01*
X114677116Y-79984415D01*
X114677116Y-79793938D01*
X114629497Y-79698700D01*
X114581878Y-79651081D01*
X114486640Y-79603462D01*
X114296164Y-79603462D01*
X114200925Y-79651081D01*
X114153306Y-79698700D01*
X114105687Y-79793938D01*
X114550116Y-55282843D02*
X114073925Y-55616177D01*
X114550116Y-55854272D02*
X113550116Y-55854272D01*
X113550116Y-55473319D01*
X113597735Y-55378081D01*
X113645354Y-55330462D01*
X113740592Y-55282843D01*
X113883449Y-55282843D01*
X113978687Y-55330462D01*
X114026306Y-55378081D01*
X114073925Y-55473319D01*
X114073925Y-55854272D01*
X114550116Y-54806653D02*
X114550116Y-54616177D01*
X114502497Y-54520938D01*
X114454878Y-54473319D01*
X114312021Y-54378081D01*
X114121545Y-54330462D01*
X113740592Y-54330462D01*
X113645354Y-54378081D01*
X113597735Y-54425700D01*
X113550116Y-54520938D01*
X113550116Y-54711415D01*
X113597735Y-54806653D01*
X113645354Y-54854272D01*
X113740592Y-54901891D01*
X113978687Y-54901891D01*
X114073925Y-54854272D01*
X114121545Y-54806653D01*
X114169164Y-54711415D01*
X114169164Y-54520938D01*
X114121545Y-54425700D01*
X114073925Y-54378081D01*
X113978687Y-54330462D01*
X155999878Y-68141558D02*
X155666544Y-67665367D01*
X155428449Y-68141558D02*
X155428449Y-67141558D01*
X155809402Y-67141558D01*
X155904640Y-67189177D01*
X155952259Y-67236796D01*
X155999878Y-67332034D01*
X155999878Y-67474891D01*
X155952259Y-67570129D01*
X155904640Y-67617748D01*
X155809402Y-67665367D01*
X155428449Y-67665367D01*
X156952259Y-68141558D02*
X156380830Y-68141558D01*
X156666544Y-68141558D02*
X156666544Y-67141558D01*
X156571306Y-67284415D01*
X156476068Y-67379653D01*
X156380830Y-67427272D01*
X157571306Y-67141558D02*
X157666545Y-67141558D01*
X157761783Y-67189177D01*
X157809402Y-67236796D01*
X157857021Y-67332034D01*
X157904640Y-67522510D01*
X157904640Y-67760606D01*
X157857021Y-67951082D01*
X157809402Y-68046320D01*
X157761783Y-68093939D01*
X157666545Y-68141558D01*
X157571306Y-68141558D01*
X157476068Y-68093939D01*
X157428449Y-68046320D01*
X157380830Y-67951082D01*
X157333211Y-67760606D01*
X157333211Y-67522510D01*
X157380830Y-67332034D01*
X157428449Y-67236796D01*
X157476068Y-67189177D01*
X157571306Y-67141558D01*
X129964878Y-79698558D02*
X129631544Y-79222367D01*
X129393449Y-79698558D02*
X129393449Y-78698558D01*
X129774402Y-78698558D01*
X129869640Y-78746177D01*
X129917259Y-78793796D01*
X129964878Y-78889034D01*
X129964878Y-79031891D01*
X129917259Y-79127129D01*
X129869640Y-79174748D01*
X129774402Y-79222367D01*
X129393449Y-79222367D01*
X130917259Y-79698558D02*
X130345830Y-79698558D01*
X130631544Y-79698558D02*
X130631544Y-78698558D01*
X130536306Y-78841415D01*
X130441068Y-78936653D01*
X130345830Y-78984272D01*
X131869640Y-79698558D02*
X131298211Y-79698558D01*
X131583925Y-79698558D02*
X131583925Y-78698558D01*
X131488687Y-78841415D01*
X131393449Y-78936653D01*
X131298211Y-78984272D01*
X119630116Y-65284034D02*
X119153925Y-65617368D01*
X119630116Y-65855463D02*
X118630116Y-65855463D01*
X118630116Y-65474510D01*
X118677735Y-65379272D01*
X118725354Y-65331653D01*
X118820592Y-65284034D01*
X118963449Y-65284034D01*
X119058687Y-65331653D01*
X119106306Y-65379272D01*
X119153925Y-65474510D01*
X119153925Y-65855463D01*
X119630116Y-64331653D02*
X119630116Y-64903082D01*
X119630116Y-64617368D02*
X118630116Y-64617368D01*
X118772973Y-64712606D01*
X118868211Y-64807844D01*
X118915830Y-64903082D01*
X118725354Y-63950701D02*
X118677735Y-63903082D01*
X118630116Y-63807844D01*
X118630116Y-63569748D01*
X118677735Y-63474510D01*
X118725354Y-63426891D01*
X118820592Y-63379272D01*
X118915830Y-63379272D01*
X119058687Y-63426891D01*
X119630116Y-63998320D01*
X119630116Y-63379272D01*
X140585116Y-124974034D02*
X140108925Y-125307368D01*
X140585116Y-125545463D02*
X139585116Y-125545463D01*
X139585116Y-125164510D01*
X139632735Y-125069272D01*
X139680354Y-125021653D01*
X139775592Y-124974034D01*
X139918449Y-124974034D01*
X140013687Y-125021653D01*
X140061306Y-125069272D01*
X140108925Y-125164510D01*
X140108925Y-125545463D01*
X140585116Y-124021653D02*
X140585116Y-124593082D01*
X140585116Y-124307368D02*
X139585116Y-124307368D01*
X139727973Y-124402606D01*
X139823211Y-124497844D01*
X139870830Y-124593082D01*
X139585116Y-123688320D02*
X139585116Y-123069272D01*
X139966068Y-123402606D01*
X139966068Y-123259748D01*
X140013687Y-123164510D01*
X140061306Y-123116891D01*
X140156545Y-123069272D01*
X140394640Y-123069272D01*
X140489878Y-123116891D01*
X140537497Y-123164510D01*
X140585116Y-123259748D01*
X140585116Y-123545463D01*
X140537497Y-123640701D01*
X140489878Y-123688320D01*
X162984878Y-69665558D02*
X162651544Y-69189367D01*
X162413449Y-69665558D02*
X162413449Y-68665558D01*
X162794402Y-68665558D01*
X162889640Y-68713177D01*
X162937259Y-68760796D01*
X162984878Y-68856034D01*
X162984878Y-68998891D01*
X162937259Y-69094129D01*
X162889640Y-69141748D01*
X162794402Y-69189367D01*
X162413449Y-69189367D01*
X163937259Y-69665558D02*
X163365830Y-69665558D01*
X163651544Y-69665558D02*
X163651544Y-68665558D01*
X163556306Y-68808415D01*
X163461068Y-68903653D01*
X163365830Y-68951272D01*
X164794402Y-68998891D02*
X164794402Y-69665558D01*
X164556306Y-68617939D02*
X164318211Y-69332225D01*
X164937259Y-69332225D01*
X128059878Y-63950558D02*
X127726544Y-63474367D01*
X127488449Y-63950558D02*
X127488449Y-62950558D01*
X127869402Y-62950558D01*
X127964640Y-62998177D01*
X128012259Y-63045796D01*
X128059878Y-63141034D01*
X128059878Y-63283891D01*
X128012259Y-63379129D01*
X127964640Y-63426748D01*
X127869402Y-63474367D01*
X127488449Y-63474367D01*
X129012259Y-63950558D02*
X128440830Y-63950558D01*
X128726544Y-63950558D02*
X128726544Y-62950558D01*
X128631306Y-63093415D01*
X128536068Y-63188653D01*
X128440830Y-63236272D01*
X129917021Y-62950558D02*
X129440830Y-62950558D01*
X129393211Y-63426748D01*
X129440830Y-63379129D01*
X129536068Y-63331510D01*
X129774164Y-63331510D01*
X129869402Y-63379129D01*
X129917021Y-63426748D01*
X129964640Y-63521987D01*
X129964640Y-63760082D01*
X129917021Y-63855320D01*
X129869402Y-63902939D01*
X129774164Y-63950558D01*
X129536068Y-63950558D01*
X129440830Y-63902939D01*
X129393211Y-63855320D01*
X117264878Y-79190558D02*
X116931544Y-78714367D01*
X116693449Y-79190558D02*
X116693449Y-78190558D01*
X117074402Y-78190558D01*
X117169640Y-78238177D01*
X117217259Y-78285796D01*
X117264878Y-78381034D01*
X117264878Y-78523891D01*
X117217259Y-78619129D01*
X117169640Y-78666748D01*
X117074402Y-78714367D01*
X116693449Y-78714367D01*
X118217259Y-79190558D02*
X117645830Y-79190558D01*
X117931544Y-79190558D02*
X117931544Y-78190558D01*
X117836306Y-78333415D01*
X117741068Y-78428653D01*
X117645830Y-78476272D01*
X119074402Y-78190558D02*
X118883925Y-78190558D01*
X118788687Y-78238177D01*
X118741068Y-78285796D01*
X118645830Y-78428653D01*
X118598211Y-78619129D01*
X118598211Y-79000082D01*
X118645830Y-79095320D01*
X118693449Y-79142939D01*
X118788687Y-79190558D01*
X118979164Y-79190558D01*
X119074402Y-79142939D01*
X119122021Y-79095320D01*
X119169640Y-79000082D01*
X119169640Y-78761987D01*
X119122021Y-78666748D01*
X119074402Y-78619129D01*
X118979164Y-78571510D01*
X118788687Y-78571510D01*
X118693449Y-78619129D01*
X118645830Y-78666748D01*
X118598211Y-78761987D01*
X140585116Y-121799034D02*
X140108925Y-122132368D01*
X140585116Y-122370463D02*
X139585116Y-122370463D01*
X139585116Y-121989510D01*
X139632735Y-121894272D01*
X139680354Y-121846653D01*
X139775592Y-121799034D01*
X139918449Y-121799034D01*
X140013687Y-121846653D01*
X140061306Y-121894272D01*
X140108925Y-121989510D01*
X140108925Y-122370463D01*
X140585116Y-120846653D02*
X140585116Y-121418082D01*
X140585116Y-121132368D02*
X139585116Y-121132368D01*
X139727973Y-121227606D01*
X139823211Y-121322844D01*
X139870830Y-121418082D01*
X139585116Y-120513320D02*
X139585116Y-119846653D01*
X140585116Y-120275225D01*
X86784878Y-122370558D02*
X86451544Y-121894367D01*
X86213449Y-122370558D02*
X86213449Y-121370558D01*
X86594402Y-121370558D01*
X86689640Y-121418177D01*
X86737259Y-121465796D01*
X86784878Y-121561034D01*
X86784878Y-121703891D01*
X86737259Y-121799129D01*
X86689640Y-121846748D01*
X86594402Y-121894367D01*
X86213449Y-121894367D01*
X87737259Y-122370558D02*
X87165830Y-122370558D01*
X87451544Y-122370558D02*
X87451544Y-121370558D01*
X87356306Y-121513415D01*
X87261068Y-121608653D01*
X87165830Y-121656272D01*
X88308687Y-121799129D02*
X88213449Y-121751510D01*
X88165830Y-121703891D01*
X88118211Y-121608653D01*
X88118211Y-121561034D01*
X88165830Y-121465796D01*
X88213449Y-121418177D01*
X88308687Y-121370558D01*
X88499164Y-121370558D01*
X88594402Y-121418177D01*
X88642021Y-121465796D01*
X88689640Y-121561034D01*
X88689640Y-121608653D01*
X88642021Y-121703891D01*
X88594402Y-121751510D01*
X88499164Y-121799129D01*
X88308687Y-121799129D01*
X88213449Y-121846748D01*
X88165830Y-121894367D01*
X88118211Y-121989606D01*
X88118211Y-122180082D01*
X88165830Y-122275320D01*
X88213449Y-122322939D01*
X88308687Y-122370558D01*
X88499164Y-122370558D01*
X88594402Y-122322939D01*
X88642021Y-122275320D01*
X88689640Y-122180082D01*
X88689640Y-121989606D01*
X88642021Y-121894367D01*
X88594402Y-121846748D01*
X88499164Y-121799129D01*
X86784878Y-115131558D02*
X86451544Y-114655367D01*
X86213449Y-115131558D02*
X86213449Y-114131558D01*
X86594402Y-114131558D01*
X86689640Y-114179177D01*
X86737259Y-114226796D01*
X86784878Y-114322034D01*
X86784878Y-114464891D01*
X86737259Y-114560129D01*
X86689640Y-114607748D01*
X86594402Y-114655367D01*
X86213449Y-114655367D01*
X87737259Y-115131558D02*
X87165830Y-115131558D01*
X87451544Y-115131558D02*
X87451544Y-114131558D01*
X87356306Y-114274415D01*
X87261068Y-114369653D01*
X87165830Y-114417272D01*
X88213449Y-115131558D02*
X88403925Y-115131558D01*
X88499164Y-115083939D01*
X88546783Y-115036320D01*
X88642021Y-114893463D01*
X88689640Y-114702987D01*
X88689640Y-114322034D01*
X88642021Y-114226796D01*
X88594402Y-114179177D01*
X88499164Y-114131558D01*
X88308687Y-114131558D01*
X88213449Y-114179177D01*
X88165830Y-114226796D01*
X88118211Y-114322034D01*
X88118211Y-114560129D01*
X88165830Y-114655367D01*
X88213449Y-114702987D01*
X88308687Y-114750606D01*
X88499164Y-114750606D01*
X88594402Y-114702987D01*
X88642021Y-114655367D01*
X88689640Y-114560129D01*
X86911878Y-96970558D02*
X86578544Y-96494367D01*
X86340449Y-96970558D02*
X86340449Y-95970558D01*
X86721402Y-95970558D01*
X86816640Y-96018177D01*
X86864259Y-96065796D01*
X86911878Y-96161034D01*
X86911878Y-96303891D01*
X86864259Y-96399129D01*
X86816640Y-96446748D01*
X86721402Y-96494367D01*
X86340449Y-96494367D01*
X87292830Y-96065796D02*
X87340449Y-96018177D01*
X87435687Y-95970558D01*
X87673783Y-95970558D01*
X87769021Y-96018177D01*
X87816640Y-96065796D01*
X87864259Y-96161034D01*
X87864259Y-96256272D01*
X87816640Y-96399129D01*
X87245211Y-96970558D01*
X87864259Y-96970558D01*
X88483306Y-95970558D02*
X88578545Y-95970558D01*
X88673783Y-96018177D01*
X88721402Y-96065796D01*
X88769021Y-96161034D01*
X88816640Y-96351510D01*
X88816640Y-96589606D01*
X88769021Y-96780082D01*
X88721402Y-96875320D01*
X88673783Y-96922939D01*
X88578545Y-96970558D01*
X88483306Y-96970558D01*
X88388068Y-96922939D01*
X88340449Y-96875320D01*
X88292830Y-96780082D01*
X88245211Y-96589606D01*
X88245211Y-96351510D01*
X88292830Y-96161034D01*
X88340449Y-96065796D01*
X88388068Y-96018177D01*
X88483306Y-95970558D01*
X86784878Y-89223558D02*
X86451544Y-88747367D01*
X86213449Y-89223558D02*
X86213449Y-88223558D01*
X86594402Y-88223558D01*
X86689640Y-88271177D01*
X86737259Y-88318796D01*
X86784878Y-88414034D01*
X86784878Y-88556891D01*
X86737259Y-88652129D01*
X86689640Y-88699748D01*
X86594402Y-88747367D01*
X86213449Y-88747367D01*
X87165830Y-88318796D02*
X87213449Y-88271177D01*
X87308687Y-88223558D01*
X87546783Y-88223558D01*
X87642021Y-88271177D01*
X87689640Y-88318796D01*
X87737259Y-88414034D01*
X87737259Y-88509272D01*
X87689640Y-88652129D01*
X87118211Y-89223558D01*
X87737259Y-89223558D01*
X88689640Y-89223558D02*
X88118211Y-89223558D01*
X88403925Y-89223558D02*
X88403925Y-88223558D01*
X88308687Y-88366415D01*
X88213449Y-88461653D01*
X88118211Y-88509272D01*
X86911878Y-70300558D02*
X86578544Y-69824367D01*
X86340449Y-70300558D02*
X86340449Y-69300558D01*
X86721402Y-69300558D01*
X86816640Y-69348177D01*
X86864259Y-69395796D01*
X86911878Y-69491034D01*
X86911878Y-69633891D01*
X86864259Y-69729129D01*
X86816640Y-69776748D01*
X86721402Y-69824367D01*
X86340449Y-69824367D01*
X87292830Y-69395796D02*
X87340449Y-69348177D01*
X87435687Y-69300558D01*
X87673783Y-69300558D01*
X87769021Y-69348177D01*
X87816640Y-69395796D01*
X87864259Y-69491034D01*
X87864259Y-69586272D01*
X87816640Y-69729129D01*
X87245211Y-70300558D01*
X87864259Y-70300558D01*
X88245211Y-69395796D02*
X88292830Y-69348177D01*
X88388068Y-69300558D01*
X88626164Y-69300558D01*
X88721402Y-69348177D01*
X88769021Y-69395796D01*
X88816640Y-69491034D01*
X88816640Y-69586272D01*
X88769021Y-69729129D01*
X88197592Y-70300558D01*
X88816640Y-70300558D01*
X86911878Y-62553558D02*
X86578544Y-62077367D01*
X86340449Y-62553558D02*
X86340449Y-61553558D01*
X86721402Y-61553558D01*
X86816640Y-61601177D01*
X86864259Y-61648796D01*
X86911878Y-61744034D01*
X86911878Y-61886891D01*
X86864259Y-61982129D01*
X86816640Y-62029748D01*
X86721402Y-62077367D01*
X86340449Y-62077367D01*
X87292830Y-61648796D02*
X87340449Y-61601177D01*
X87435687Y-61553558D01*
X87673783Y-61553558D01*
X87769021Y-61601177D01*
X87816640Y-61648796D01*
X87864259Y-61744034D01*
X87864259Y-61839272D01*
X87816640Y-61982129D01*
X87245211Y-62553558D01*
X87864259Y-62553558D01*
X88197592Y-61553558D02*
X88816640Y-61553558D01*
X88483306Y-61934510D01*
X88626164Y-61934510D01*
X88721402Y-61982129D01*
X88769021Y-62029748D01*
X88816640Y-62124987D01*
X88816640Y-62363082D01*
X88769021Y-62458320D01*
X88721402Y-62505939D01*
X88626164Y-62553558D01*
X88340449Y-62553558D01*
X88245211Y-62505939D01*
X88197592Y-62458320D01*
X179494878Y-93668558D02*
X179161544Y-93192367D01*
X178923449Y-93668558D02*
X178923449Y-92668558D01*
X179304402Y-92668558D01*
X179399640Y-92716177D01*
X179447259Y-92763796D01*
X179494878Y-92859034D01*
X179494878Y-93001891D01*
X179447259Y-93097129D01*
X179399640Y-93144748D01*
X179304402Y-93192367D01*
X178923449Y-93192367D01*
X179875830Y-92763796D02*
X179923449Y-92716177D01*
X180018687Y-92668558D01*
X180256783Y-92668558D01*
X180352021Y-92716177D01*
X180399640Y-92763796D01*
X180447259Y-92859034D01*
X180447259Y-92954272D01*
X180399640Y-93097129D01*
X179828211Y-93668558D01*
X180447259Y-93668558D01*
X181352021Y-92668558D02*
X180875830Y-92668558D01*
X180828211Y-93144748D01*
X180875830Y-93097129D01*
X180971068Y-93049510D01*
X181209164Y-93049510D01*
X181304402Y-93097129D01*
X181352021Y-93144748D01*
X181399640Y-93239987D01*
X181399640Y-93478082D01*
X181352021Y-93573320D01*
X181304402Y-93620939D01*
X181209164Y-93668558D01*
X180971068Y-93668558D01*
X180875830Y-93620939D01*
X180828211Y-93573320D01*
X179494878Y-69538558D02*
X179161544Y-69062367D01*
X178923449Y-69538558D02*
X178923449Y-68538558D01*
X179304402Y-68538558D01*
X179399640Y-68586177D01*
X179447259Y-68633796D01*
X179494878Y-68729034D01*
X179494878Y-68871891D01*
X179447259Y-68967129D01*
X179399640Y-69014748D01*
X179304402Y-69062367D01*
X178923449Y-69062367D01*
X179875830Y-68633796D02*
X179923449Y-68586177D01*
X180018687Y-68538558D01*
X180256783Y-68538558D01*
X180352021Y-68586177D01*
X180399640Y-68633796D01*
X180447259Y-68729034D01*
X180447259Y-68824272D01*
X180399640Y-68967129D01*
X179828211Y-69538558D01*
X180447259Y-69538558D01*
X181304402Y-68538558D02*
X181113925Y-68538558D01*
X181018687Y-68586177D01*
X180971068Y-68633796D01*
X180875830Y-68776653D01*
X180828211Y-68967129D01*
X180828211Y-69348082D01*
X180875830Y-69443320D01*
X180923449Y-69490939D01*
X181018687Y-69538558D01*
X181209164Y-69538558D01*
X181304402Y-69490939D01*
X181352021Y-69443320D01*
X181399640Y-69348082D01*
X181399640Y-69109987D01*
X181352021Y-69014748D01*
X181304402Y-68967129D01*
X181209164Y-68919510D01*
X181018687Y-68919510D01*
X180923449Y-68967129D01*
X180875830Y-69014748D01*
X180828211Y-69109987D01*
X183304878Y-119068558D02*
X182971544Y-118592367D01*
X182733449Y-119068558D02*
X182733449Y-118068558D01*
X183114402Y-118068558D01*
X183209640Y-118116177D01*
X183257259Y-118163796D01*
X183304878Y-118259034D01*
X183304878Y-118401891D01*
X183257259Y-118497129D01*
X183209640Y-118544748D01*
X183114402Y-118592367D01*
X182733449Y-118592367D01*
X183685830Y-118163796D02*
X183733449Y-118116177D01*
X183828687Y-118068558D01*
X184066783Y-118068558D01*
X184162021Y-118116177D01*
X184209640Y-118163796D01*
X184257259Y-118259034D01*
X184257259Y-118354272D01*
X184209640Y-118497129D01*
X183638211Y-119068558D01*
X184257259Y-119068558D01*
X184590592Y-118068558D02*
X185257259Y-118068558D01*
X184828687Y-119068558D01*
X183304878Y-93668558D02*
X182971544Y-93192367D01*
X182733449Y-93668558D02*
X182733449Y-92668558D01*
X183114402Y-92668558D01*
X183209640Y-92716177D01*
X183257259Y-92763796D01*
X183304878Y-92859034D01*
X183304878Y-93001891D01*
X183257259Y-93097129D01*
X183209640Y-93144748D01*
X183114402Y-93192367D01*
X182733449Y-93192367D01*
X183685830Y-92763796D02*
X183733449Y-92716177D01*
X183828687Y-92668558D01*
X184066783Y-92668558D01*
X184162021Y-92716177D01*
X184209640Y-92763796D01*
X184257259Y-92859034D01*
X184257259Y-92954272D01*
X184209640Y-93097129D01*
X183638211Y-93668558D01*
X184257259Y-93668558D01*
X184828687Y-93097129D02*
X184733449Y-93049510D01*
X184685830Y-93001891D01*
X184638211Y-92906653D01*
X184638211Y-92859034D01*
X184685830Y-92763796D01*
X184733449Y-92716177D01*
X184828687Y-92668558D01*
X185019164Y-92668558D01*
X185114402Y-92716177D01*
X185162021Y-92763796D01*
X185209640Y-92859034D01*
X185209640Y-92906653D01*
X185162021Y-93001891D01*
X185114402Y-93049510D01*
X185019164Y-93097129D01*
X184828687Y-93097129D01*
X184733449Y-93144748D01*
X184685830Y-93192367D01*
X184638211Y-93287606D01*
X184638211Y-93478082D01*
X184685830Y-93573320D01*
X184733449Y-93620939D01*
X184828687Y-93668558D01*
X185019164Y-93668558D01*
X185114402Y-93620939D01*
X185162021Y-93573320D01*
X185209640Y-93478082D01*
X185209640Y-93287606D01*
X185162021Y-93192367D01*
X185114402Y-93144748D01*
X185019164Y-93097129D01*
X183304878Y-69538558D02*
X182971544Y-69062367D01*
X182733449Y-69538558D02*
X182733449Y-68538558D01*
X183114402Y-68538558D01*
X183209640Y-68586177D01*
X183257259Y-68633796D01*
X183304878Y-68729034D01*
X183304878Y-68871891D01*
X183257259Y-68967129D01*
X183209640Y-69014748D01*
X183114402Y-69062367D01*
X182733449Y-69062367D01*
X183685830Y-68633796D02*
X183733449Y-68586177D01*
X183828687Y-68538558D01*
X184066783Y-68538558D01*
X184162021Y-68586177D01*
X184209640Y-68633796D01*
X184257259Y-68729034D01*
X184257259Y-68824272D01*
X184209640Y-68967129D01*
X183638211Y-69538558D01*
X184257259Y-69538558D01*
X184733449Y-69538558D02*
X184923925Y-69538558D01*
X185019164Y-69490939D01*
X185066783Y-69443320D01*
X185162021Y-69300463D01*
X185209640Y-69109987D01*
X185209640Y-68729034D01*
X185162021Y-68633796D01*
X185114402Y-68586177D01*
X185019164Y-68538558D01*
X184828687Y-68538558D01*
X184733449Y-68586177D01*
X184685830Y-68633796D01*
X184638211Y-68729034D01*
X184638211Y-68967129D01*
X184685830Y-69062367D01*
X184733449Y-69109987D01*
X184828687Y-69157606D01*
X185019164Y-69157606D01*
X185114402Y-69109987D01*
X185162021Y-69062367D01*
X185209640Y-68967129D01*
X170430116Y-124974034D02*
X169953925Y-125307368D01*
X170430116Y-125545463D02*
X169430116Y-125545463D01*
X169430116Y-125164510D01*
X169477735Y-125069272D01*
X169525354Y-125021653D01*
X169620592Y-124974034D01*
X169763449Y-124974034D01*
X169858687Y-125021653D01*
X169906306Y-125069272D01*
X169953925Y-125164510D01*
X169953925Y-125545463D01*
X169430116Y-124640701D02*
X169430116Y-124021653D01*
X169811068Y-124354987D01*
X169811068Y-124212129D01*
X169858687Y-124116891D01*
X169906306Y-124069272D01*
X170001545Y-124021653D01*
X170239640Y-124021653D01*
X170334878Y-124069272D01*
X170382497Y-124116891D01*
X170430116Y-124212129D01*
X170430116Y-124497844D01*
X170382497Y-124593082D01*
X170334878Y-124640701D01*
X169430116Y-123402606D02*
X169430116Y-123307367D01*
X169477735Y-123212129D01*
X169525354Y-123164510D01*
X169620592Y-123116891D01*
X169811068Y-123069272D01*
X170049164Y-123069272D01*
X170239640Y-123116891D01*
X170334878Y-123164510D01*
X170382497Y-123212129D01*
X170430116Y-123307367D01*
X170430116Y-123402606D01*
X170382497Y-123497844D01*
X170334878Y-123545463D01*
X170239640Y-123593082D01*
X170049164Y-123640701D01*
X169811068Y-123640701D01*
X169620592Y-123593082D01*
X169525354Y-123545463D01*
X169477735Y-123497844D01*
X169430116Y-123402606D01*
X170303116Y-106559034D02*
X169826925Y-106892368D01*
X170303116Y-107130463D02*
X169303116Y-107130463D01*
X169303116Y-106749510D01*
X169350735Y-106654272D01*
X169398354Y-106606653D01*
X169493592Y-106559034D01*
X169636449Y-106559034D01*
X169731687Y-106606653D01*
X169779306Y-106654272D01*
X169826925Y-106749510D01*
X169826925Y-107130463D01*
X169303116Y-106225701D02*
X169303116Y-105606653D01*
X169684068Y-105939987D01*
X169684068Y-105797129D01*
X169731687Y-105701891D01*
X169779306Y-105654272D01*
X169874545Y-105606653D01*
X170112640Y-105606653D01*
X170207878Y-105654272D01*
X170255497Y-105701891D01*
X170303116Y-105797129D01*
X170303116Y-106082844D01*
X170255497Y-106178082D01*
X170207878Y-106225701D01*
X170303116Y-104654272D02*
X170303116Y-105225701D01*
X170303116Y-104939987D02*
X169303116Y-104939987D01*
X169445973Y-105035225D01*
X169541211Y-105130463D01*
X169588830Y-105225701D01*
X170430116Y-81159034D02*
X169953925Y-81492368D01*
X170430116Y-81730463D02*
X169430116Y-81730463D01*
X169430116Y-81349510D01*
X169477735Y-81254272D01*
X169525354Y-81206653D01*
X169620592Y-81159034D01*
X169763449Y-81159034D01*
X169858687Y-81206653D01*
X169906306Y-81254272D01*
X169953925Y-81349510D01*
X169953925Y-81730463D01*
X169430116Y-80825701D02*
X169430116Y-80206653D01*
X169811068Y-80539987D01*
X169811068Y-80397129D01*
X169858687Y-80301891D01*
X169906306Y-80254272D01*
X170001545Y-80206653D01*
X170239640Y-80206653D01*
X170334878Y-80254272D01*
X170382497Y-80301891D01*
X170430116Y-80397129D01*
X170430116Y-80682844D01*
X170382497Y-80778082D01*
X170334878Y-80825701D01*
X169525354Y-79825701D02*
X169477735Y-79778082D01*
X169430116Y-79682844D01*
X169430116Y-79444748D01*
X169477735Y-79349510D01*
X169525354Y-79301891D01*
X169620592Y-79254272D01*
X169715830Y-79254272D01*
X169858687Y-79301891D01*
X170430116Y-79873320D01*
X170430116Y-79254272D01*
X170430116Y-55759034D02*
X169953925Y-56092368D01*
X170430116Y-56330463D02*
X169430116Y-56330463D01*
X169430116Y-55949510D01*
X169477735Y-55854272D01*
X169525354Y-55806653D01*
X169620592Y-55759034D01*
X169763449Y-55759034D01*
X169858687Y-55806653D01*
X169906306Y-55854272D01*
X169953925Y-55949510D01*
X169953925Y-56330463D01*
X169430116Y-55425701D02*
X169430116Y-54806653D01*
X169811068Y-55139987D01*
X169811068Y-54997129D01*
X169858687Y-54901891D01*
X169906306Y-54854272D01*
X170001545Y-54806653D01*
X170239640Y-54806653D01*
X170334878Y-54854272D01*
X170382497Y-54901891D01*
X170430116Y-54997129D01*
X170430116Y-55282844D01*
X170382497Y-55378082D01*
X170334878Y-55425701D01*
X169430116Y-54473320D02*
X169430116Y-53854272D01*
X169811068Y-54187606D01*
X169811068Y-54044748D01*
X169858687Y-53949510D01*
X169906306Y-53901891D01*
X170001545Y-53854272D01*
X170239640Y-53854272D01*
X170334878Y-53901891D01*
X170382497Y-53949510D01*
X170430116Y-54044748D01*
X170430116Y-54330463D01*
X170382497Y-54425701D01*
X170334878Y-54473320D01*
X170430116Y-121799034D02*
X169953925Y-122132368D01*
X170430116Y-122370463D02*
X169430116Y-122370463D01*
X169430116Y-121989510D01*
X169477735Y-121894272D01*
X169525354Y-121846653D01*
X169620592Y-121799034D01*
X169763449Y-121799034D01*
X169858687Y-121846653D01*
X169906306Y-121894272D01*
X169953925Y-121989510D01*
X169953925Y-122370463D01*
X169430116Y-121465701D02*
X169430116Y-120846653D01*
X169811068Y-121179987D01*
X169811068Y-121037129D01*
X169858687Y-120941891D01*
X169906306Y-120894272D01*
X170001545Y-120846653D01*
X170239640Y-120846653D01*
X170334878Y-120894272D01*
X170382497Y-120941891D01*
X170430116Y-121037129D01*
X170430116Y-121322844D01*
X170382497Y-121418082D01*
X170334878Y-121465701D01*
X169763449Y-119989510D02*
X170430116Y-119989510D01*
X169382497Y-120227606D02*
X170096783Y-120465701D01*
X170096783Y-119846653D01*
X155364878Y-101161558D02*
X155031544Y-100685367D01*
X154793449Y-101161558D02*
X154793449Y-100161558D01*
X155174402Y-100161558D01*
X155269640Y-100209177D01*
X155317259Y-100256796D01*
X155364878Y-100352034D01*
X155364878Y-100494891D01*
X155317259Y-100590129D01*
X155269640Y-100637748D01*
X155174402Y-100685367D01*
X154793449Y-100685367D01*
X155698211Y-100161558D02*
X156317259Y-100161558D01*
X155983925Y-100542510D01*
X156126783Y-100542510D01*
X156222021Y-100590129D01*
X156269640Y-100637748D01*
X156317259Y-100732987D01*
X156317259Y-100971082D01*
X156269640Y-101066320D01*
X156222021Y-101113939D01*
X156126783Y-101161558D01*
X155841068Y-101161558D01*
X155745830Y-101113939D01*
X155698211Y-101066320D01*
X157222021Y-100161558D02*
X156745830Y-100161558D01*
X156698211Y-100637748D01*
X156745830Y-100590129D01*
X156841068Y-100542510D01*
X157079164Y-100542510D01*
X157174402Y-100590129D01*
X157222021Y-100637748D01*
X157269640Y-100732987D01*
X157269640Y-100971082D01*
X157222021Y-101066320D01*
X157174402Y-101113939D01*
X157079164Y-101161558D01*
X156841068Y-101161558D01*
X156745830Y-101113939D01*
X156698211Y-101066320D01*
X158539878Y-112845558D02*
X158206544Y-112369367D01*
X157968449Y-112845558D02*
X157968449Y-111845558D01*
X158349402Y-111845558D01*
X158444640Y-111893177D01*
X158492259Y-111940796D01*
X158539878Y-112036034D01*
X158539878Y-112178891D01*
X158492259Y-112274129D01*
X158444640Y-112321748D01*
X158349402Y-112369367D01*
X157968449Y-112369367D01*
X158873211Y-111845558D02*
X159492259Y-111845558D01*
X159158925Y-112226510D01*
X159301783Y-112226510D01*
X159397021Y-112274129D01*
X159444640Y-112321748D01*
X159492259Y-112416987D01*
X159492259Y-112655082D01*
X159444640Y-112750320D01*
X159397021Y-112797939D01*
X159301783Y-112845558D01*
X159016068Y-112845558D01*
X158920830Y-112797939D01*
X158873211Y-112750320D01*
X160349402Y-111845558D02*
X160158925Y-111845558D01*
X160063687Y-111893177D01*
X160016068Y-111940796D01*
X159920830Y-112083653D01*
X159873211Y-112274129D01*
X159873211Y-112655082D01*
X159920830Y-112750320D01*
X159968449Y-112797939D01*
X160063687Y-112845558D01*
X160254164Y-112845558D01*
X160349402Y-112797939D01*
X160397021Y-112750320D01*
X160444640Y-112655082D01*
X160444640Y-112416987D01*
X160397021Y-112321748D01*
X160349402Y-112274129D01*
X160254164Y-112226510D01*
X160063687Y-112226510D01*
X159968449Y-112274129D01*
X159920830Y-112321748D01*
X159873211Y-112416987D01*
X130599878Y-112845558D02*
X130266544Y-112369367D01*
X130028449Y-112845558D02*
X130028449Y-111845558D01*
X130409402Y-111845558D01*
X130504640Y-111893177D01*
X130552259Y-111940796D01*
X130599878Y-112036034D01*
X130599878Y-112178891D01*
X130552259Y-112274129D01*
X130504640Y-112321748D01*
X130409402Y-112369367D01*
X130028449Y-112369367D01*
X130933211Y-111845558D02*
X131552259Y-111845558D01*
X131218925Y-112226510D01*
X131361783Y-112226510D01*
X131457021Y-112274129D01*
X131504640Y-112321748D01*
X131552259Y-112416987D01*
X131552259Y-112655082D01*
X131504640Y-112750320D01*
X131457021Y-112797939D01*
X131361783Y-112845558D01*
X131076068Y-112845558D01*
X130980830Y-112797939D01*
X130933211Y-112750320D01*
X131885592Y-111845558D02*
X132552259Y-111845558D01*
X132123687Y-112845558D01*
X166794878Y-94176558D02*
X166461544Y-93700367D01*
X166223449Y-94176558D02*
X166223449Y-93176558D01*
X166604402Y-93176558D01*
X166699640Y-93224177D01*
X166747259Y-93271796D01*
X166794878Y-93367034D01*
X166794878Y-93509891D01*
X166747259Y-93605129D01*
X166699640Y-93652748D01*
X166604402Y-93700367D01*
X166223449Y-93700367D01*
X167128211Y-93176558D02*
X167747259Y-93176558D01*
X167413925Y-93557510D01*
X167556783Y-93557510D01*
X167652021Y-93605129D01*
X167699640Y-93652748D01*
X167747259Y-93747987D01*
X167747259Y-93986082D01*
X167699640Y-94081320D01*
X167652021Y-94128939D01*
X167556783Y-94176558D01*
X167271068Y-94176558D01*
X167175830Y-94128939D01*
X167128211Y-94081320D01*
X168318687Y-93605129D02*
X168223449Y-93557510D01*
X168175830Y-93509891D01*
X168128211Y-93414653D01*
X168128211Y-93367034D01*
X168175830Y-93271796D01*
X168223449Y-93224177D01*
X168318687Y-93176558D01*
X168509164Y-93176558D01*
X168604402Y-93224177D01*
X168652021Y-93271796D01*
X168699640Y-93367034D01*
X168699640Y-93414653D01*
X168652021Y-93509891D01*
X168604402Y-93557510D01*
X168509164Y-93605129D01*
X168318687Y-93605129D01*
X168223449Y-93652748D01*
X168175830Y-93700367D01*
X168128211Y-93795606D01*
X168128211Y-93986082D01*
X168175830Y-94081320D01*
X168223449Y-94128939D01*
X168318687Y-94176558D01*
X168509164Y-94176558D01*
X168604402Y-94128939D01*
X168652021Y-94081320D01*
X168699640Y-93986082D01*
X168699640Y-93795606D01*
X168652021Y-93700367D01*
X168604402Y-93652748D01*
X168509164Y-93605129D01*
X161714878Y-73221558D02*
X161381544Y-72745367D01*
X161143449Y-73221558D02*
X161143449Y-72221558D01*
X161524402Y-72221558D01*
X161619640Y-72269177D01*
X161667259Y-72316796D01*
X161714878Y-72412034D01*
X161714878Y-72554891D01*
X161667259Y-72650129D01*
X161619640Y-72697748D01*
X161524402Y-72745367D01*
X161143449Y-72745367D01*
X162048211Y-72221558D02*
X162667259Y-72221558D01*
X162333925Y-72602510D01*
X162476783Y-72602510D01*
X162572021Y-72650129D01*
X162619640Y-72697748D01*
X162667259Y-72792987D01*
X162667259Y-73031082D01*
X162619640Y-73126320D01*
X162572021Y-73173939D01*
X162476783Y-73221558D01*
X162191068Y-73221558D01*
X162095830Y-73173939D01*
X162048211Y-73126320D01*
X163143449Y-73221558D02*
X163333925Y-73221558D01*
X163429164Y-73173939D01*
X163476783Y-73126320D01*
X163572021Y-72983463D01*
X163619640Y-72792987D01*
X163619640Y-72412034D01*
X163572021Y-72316796D01*
X163524402Y-72269177D01*
X163429164Y-72221558D01*
X163238687Y-72221558D01*
X163143449Y-72269177D01*
X163095830Y-72316796D01*
X163048211Y-72412034D01*
X163048211Y-72650129D01*
X163095830Y-72745367D01*
X163143449Y-72792987D01*
X163238687Y-72840606D01*
X163429164Y-72840606D01*
X163524402Y-72792987D01*
X163572021Y-72745367D01*
X163619640Y-72650129D01*
X119169878Y-105225558D02*
X118836544Y-104749367D01*
X118598449Y-105225558D02*
X118598449Y-104225558D01*
X118979402Y-104225558D01*
X119074640Y-104273177D01*
X119122259Y-104320796D01*
X119169878Y-104416034D01*
X119169878Y-104558891D01*
X119122259Y-104654129D01*
X119074640Y-104701748D01*
X118979402Y-104749367D01*
X118598449Y-104749367D01*
X120027021Y-104558891D02*
X120027021Y-105225558D01*
X119788925Y-104177939D02*
X119550830Y-104892225D01*
X120169878Y-104892225D01*
X120741306Y-104225558D02*
X120836545Y-104225558D01*
X120931783Y-104273177D01*
X120979402Y-104320796D01*
X121027021Y-104416034D01*
X121074640Y-104606510D01*
X121074640Y-104844606D01*
X121027021Y-105035082D01*
X120979402Y-105130320D01*
X120931783Y-105177939D01*
X120836545Y-105225558D01*
X120741306Y-105225558D01*
X120646068Y-105177939D01*
X120598449Y-105130320D01*
X120550830Y-105035082D01*
X120503211Y-104844606D01*
X120503211Y-104606510D01*
X120550830Y-104416034D01*
X120598449Y-104320796D01*
X120646068Y-104273177D01*
X120741306Y-104225558D01*
X125519878Y-93541558D02*
X125186544Y-93065367D01*
X124948449Y-93541558D02*
X124948449Y-92541558D01*
X125329402Y-92541558D01*
X125424640Y-92589177D01*
X125472259Y-92636796D01*
X125519878Y-92732034D01*
X125519878Y-92874891D01*
X125472259Y-92970129D01*
X125424640Y-93017748D01*
X125329402Y-93065367D01*
X124948449Y-93065367D01*
X126377021Y-92874891D02*
X126377021Y-93541558D01*
X126138925Y-92493939D02*
X125900830Y-93208225D01*
X126519878Y-93208225D01*
X127424640Y-93541558D02*
X126853211Y-93541558D01*
X127138925Y-93541558D02*
X127138925Y-92541558D01*
X127043687Y-92684415D01*
X126948449Y-92779653D01*
X126853211Y-92827272D01*
X122344878Y-93541558D02*
X122011544Y-93065367D01*
X121773449Y-93541558D02*
X121773449Y-92541558D01*
X122154402Y-92541558D01*
X122249640Y-92589177D01*
X122297259Y-92636796D01*
X122344878Y-92732034D01*
X122344878Y-92874891D01*
X122297259Y-92970129D01*
X122249640Y-93017748D01*
X122154402Y-93065367D01*
X121773449Y-93065367D01*
X123202021Y-92874891D02*
X123202021Y-93541558D01*
X122963925Y-92493939D02*
X122725830Y-93208225D01*
X123344878Y-93208225D01*
X123678211Y-92636796D02*
X123725830Y-92589177D01*
X123821068Y-92541558D01*
X124059164Y-92541558D01*
X124154402Y-92589177D01*
X124202021Y-92636796D01*
X124249640Y-92732034D01*
X124249640Y-92827272D01*
X124202021Y-92970129D01*
X123630592Y-93541558D01*
X124249640Y-93541558D01*
X198163878Y-122370558D02*
X197830544Y-121894367D01*
X197592449Y-122370558D02*
X197592449Y-121370558D01*
X197973402Y-121370558D01*
X198068640Y-121418177D01*
X198116259Y-121465796D01*
X198163878Y-121561034D01*
X198163878Y-121703891D01*
X198116259Y-121799129D01*
X198068640Y-121846748D01*
X197973402Y-121894367D01*
X197592449Y-121894367D01*
X199021021Y-121703891D02*
X199021021Y-122370558D01*
X198782925Y-121322939D02*
X198544830Y-122037225D01*
X199163878Y-122037225D01*
X199449592Y-121370558D02*
X200068640Y-121370558D01*
X199735306Y-121751510D01*
X199878164Y-121751510D01*
X199973402Y-121799129D01*
X200021021Y-121846748D01*
X200068640Y-121941987D01*
X200068640Y-122180082D01*
X200021021Y-122275320D01*
X199973402Y-122322939D01*
X199878164Y-122370558D01*
X199592449Y-122370558D01*
X199497211Y-122322939D01*
X199449592Y-122275320D01*
X197655878Y-115131558D02*
X197322544Y-114655367D01*
X197084449Y-115131558D02*
X197084449Y-114131558D01*
X197465402Y-114131558D01*
X197560640Y-114179177D01*
X197608259Y-114226796D01*
X197655878Y-114322034D01*
X197655878Y-114464891D01*
X197608259Y-114560129D01*
X197560640Y-114607748D01*
X197465402Y-114655367D01*
X197084449Y-114655367D01*
X198513021Y-114464891D02*
X198513021Y-115131558D01*
X198274925Y-114083939D02*
X198036830Y-114798225D01*
X198655878Y-114798225D01*
X199465402Y-114464891D02*
X199465402Y-115131558D01*
X199227306Y-114083939D02*
X198989211Y-114798225D01*
X199608259Y-114798225D01*
X197909878Y-96843558D02*
X197576544Y-96367367D01*
X197338449Y-96843558D02*
X197338449Y-95843558D01*
X197719402Y-95843558D01*
X197814640Y-95891177D01*
X197862259Y-95938796D01*
X197909878Y-96034034D01*
X197909878Y-96176891D01*
X197862259Y-96272129D01*
X197814640Y-96319748D01*
X197719402Y-96367367D01*
X197338449Y-96367367D01*
X198767021Y-96176891D02*
X198767021Y-96843558D01*
X198528925Y-95795939D02*
X198290830Y-96510225D01*
X198909878Y-96510225D01*
X199767021Y-95843558D02*
X199290830Y-95843558D01*
X199243211Y-96319748D01*
X199290830Y-96272129D01*
X199386068Y-96224510D01*
X199624164Y-96224510D01*
X199719402Y-96272129D01*
X199767021Y-96319748D01*
X199814640Y-96414987D01*
X199814640Y-96653082D01*
X199767021Y-96748320D01*
X199719402Y-96795939D01*
X199624164Y-96843558D01*
X199386068Y-96843558D01*
X199290830Y-96795939D01*
X199243211Y-96748320D01*
X197909878Y-89223558D02*
X197576544Y-88747367D01*
X197338449Y-89223558D02*
X197338449Y-88223558D01*
X197719402Y-88223558D01*
X197814640Y-88271177D01*
X197862259Y-88318796D01*
X197909878Y-88414034D01*
X197909878Y-88556891D01*
X197862259Y-88652129D01*
X197814640Y-88699748D01*
X197719402Y-88747367D01*
X197338449Y-88747367D01*
X198767021Y-88556891D02*
X198767021Y-89223558D01*
X198528925Y-88175939D02*
X198290830Y-88890225D01*
X198909878Y-88890225D01*
X199719402Y-88223558D02*
X199528925Y-88223558D01*
X199433687Y-88271177D01*
X199386068Y-88318796D01*
X199290830Y-88461653D01*
X199243211Y-88652129D01*
X199243211Y-89033082D01*
X199290830Y-89128320D01*
X199338449Y-89175939D01*
X199433687Y-89223558D01*
X199624164Y-89223558D01*
X199719402Y-89175939D01*
X199767021Y-89128320D01*
X199814640Y-89033082D01*
X199814640Y-88794987D01*
X199767021Y-88699748D01*
X199719402Y-88652129D01*
X199624164Y-88604510D01*
X199433687Y-88604510D01*
X199338449Y-88652129D01*
X199290830Y-88699748D01*
X199243211Y-88794987D01*
X197909878Y-71443558D02*
X197576544Y-70967367D01*
X197338449Y-71443558D02*
X197338449Y-70443558D01*
X197719402Y-70443558D01*
X197814640Y-70491177D01*
X197862259Y-70538796D01*
X197909878Y-70634034D01*
X197909878Y-70776891D01*
X197862259Y-70872129D01*
X197814640Y-70919748D01*
X197719402Y-70967367D01*
X197338449Y-70967367D01*
X198767021Y-70776891D02*
X198767021Y-71443558D01*
X198528925Y-70395939D02*
X198290830Y-71110225D01*
X198909878Y-71110225D01*
X199195592Y-70443558D02*
X199862259Y-70443558D01*
X199433687Y-71443558D01*
X197909878Y-63823558D02*
X197576544Y-63347367D01*
X197338449Y-63823558D02*
X197338449Y-62823558D01*
X197719402Y-62823558D01*
X197814640Y-62871177D01*
X197862259Y-62918796D01*
X197909878Y-63014034D01*
X197909878Y-63156891D01*
X197862259Y-63252129D01*
X197814640Y-63299748D01*
X197719402Y-63347367D01*
X197338449Y-63347367D01*
X198767021Y-63156891D02*
X198767021Y-63823558D01*
X198528925Y-62775939D02*
X198290830Y-63490225D01*
X198909878Y-63490225D01*
X199433687Y-63252129D02*
X199338449Y-63204510D01*
X199290830Y-63156891D01*
X199243211Y-63061653D01*
X199243211Y-63014034D01*
X199290830Y-62918796D01*
X199338449Y-62871177D01*
X199433687Y-62823558D01*
X199624164Y-62823558D01*
X199719402Y-62871177D01*
X199767021Y-62918796D01*
X199814640Y-63014034D01*
X199814640Y-63061653D01*
X199767021Y-63156891D01*
X199719402Y-63204510D01*
X199624164Y-63252129D01*
X199433687Y-63252129D01*
X199338449Y-63299748D01*
X199290830Y-63347367D01*
X199243211Y-63442606D01*
X199243211Y-63633082D01*
X199290830Y-63728320D01*
X199338449Y-63775939D01*
X199433687Y-63823558D01*
X199624164Y-63823558D01*
X199719402Y-63775939D01*
X199767021Y-63728320D01*
X199814640Y-63633082D01*
X199814640Y-63442606D01*
X199767021Y-63347367D01*
X199719402Y-63299748D01*
X199624164Y-63252129D01*
X107565116Y-112607415D02*
X107088925Y-112940749D01*
X107565116Y-113178844D02*
X106565116Y-113178844D01*
X106565116Y-112797891D01*
X106612735Y-112702653D01*
X106660354Y-112655034D01*
X106755592Y-112607415D01*
X106898449Y-112607415D01*
X106993687Y-112655034D01*
X107041306Y-112702653D01*
X107088925Y-112797891D01*
X107088925Y-113178844D01*
X106565116Y-112321701D02*
X107565116Y-111988368D01*
X106565116Y-111655034D01*
X107565116Y-110797891D02*
X107565116Y-111369320D01*
X107565116Y-111083606D02*
X106565116Y-111083606D01*
X106707973Y-111178844D01*
X106803211Y-111274082D01*
X106850830Y-111369320D01*
X107565116Y-87207415D02*
X107088925Y-87540749D01*
X107565116Y-87778844D02*
X106565116Y-87778844D01*
X106565116Y-87397891D01*
X106612735Y-87302653D01*
X106660354Y-87255034D01*
X106755592Y-87207415D01*
X106898449Y-87207415D01*
X106993687Y-87255034D01*
X107041306Y-87302653D01*
X107088925Y-87397891D01*
X107088925Y-87778844D01*
X106565116Y-86921701D02*
X107565116Y-86588368D01*
X106565116Y-86255034D01*
X106660354Y-85969320D02*
X106612735Y-85921701D01*
X106565116Y-85826463D01*
X106565116Y-85588367D01*
X106612735Y-85493129D01*
X106660354Y-85445510D01*
X106755592Y-85397891D01*
X106850830Y-85397891D01*
X106993687Y-85445510D01*
X107565116Y-86016939D01*
X107565116Y-85397891D01*
X107565116Y-61807415D02*
X107088925Y-62140749D01*
X107565116Y-62378844D02*
X106565116Y-62378844D01*
X106565116Y-61997891D01*
X106612735Y-61902653D01*
X106660354Y-61855034D01*
X106755592Y-61807415D01*
X106898449Y-61807415D01*
X106993687Y-61855034D01*
X107041306Y-61902653D01*
X107088925Y-61997891D01*
X107088925Y-62378844D01*
X106565116Y-61521701D02*
X107565116Y-61188368D01*
X106565116Y-60855034D01*
X106565116Y-60616939D02*
X106565116Y-59997891D01*
X106946068Y-60331225D01*
X106946068Y-60188367D01*
X106993687Y-60093129D01*
X107041306Y-60045510D01*
X107136545Y-59997891D01*
X107374640Y-59997891D01*
X107469878Y-60045510D01*
X107517497Y-60093129D01*
X107565116Y-60188367D01*
X107565116Y-60474082D01*
X107517497Y-60569320D01*
X107469878Y-60616939D01*
X177288116Y-114385415D02*
X176811925Y-114718749D01*
X177288116Y-114956844D02*
X176288116Y-114956844D01*
X176288116Y-114575891D01*
X176335735Y-114480653D01*
X176383354Y-114433034D01*
X176478592Y-114385415D01*
X176621449Y-114385415D01*
X176716687Y-114433034D01*
X176764306Y-114480653D01*
X176811925Y-114575891D01*
X176811925Y-114956844D01*
X176288116Y-114099701D02*
X177288116Y-113766368D01*
X176288116Y-113433034D01*
X176621449Y-112671129D02*
X177288116Y-112671129D01*
X176240497Y-112909225D02*
X176954783Y-113147320D01*
X176954783Y-112528272D01*
X177288116Y-88985415D02*
X176811925Y-89318749D01*
X177288116Y-89556844D02*
X176288116Y-89556844D01*
X176288116Y-89175891D01*
X176335735Y-89080653D01*
X176383354Y-89033034D01*
X176478592Y-88985415D01*
X176621449Y-88985415D01*
X176716687Y-89033034D01*
X176764306Y-89080653D01*
X176811925Y-89175891D01*
X176811925Y-89556844D01*
X176288116Y-88699701D02*
X177288116Y-88366368D01*
X176288116Y-88033034D01*
X176288116Y-87223510D02*
X176288116Y-87699701D01*
X176764306Y-87747320D01*
X176716687Y-87699701D01*
X176669068Y-87604463D01*
X176669068Y-87366367D01*
X176716687Y-87271129D01*
X176764306Y-87223510D01*
X176859545Y-87175891D01*
X177097640Y-87175891D01*
X177192878Y-87223510D01*
X177240497Y-87271129D01*
X177288116Y-87366367D01*
X177288116Y-87604463D01*
X177240497Y-87699701D01*
X177192878Y-87747320D01*
X177288116Y-63585415D02*
X176811925Y-63918749D01*
X177288116Y-64156844D02*
X176288116Y-64156844D01*
X176288116Y-63775891D01*
X176335735Y-63680653D01*
X176383354Y-63633034D01*
X176478592Y-63585415D01*
X176621449Y-63585415D01*
X176716687Y-63633034D01*
X176764306Y-63680653D01*
X176811925Y-63775891D01*
X176811925Y-64156844D01*
X176288116Y-63299701D02*
X177288116Y-62966368D01*
X176288116Y-62633034D01*
X176288116Y-61871129D02*
X176288116Y-62061606D01*
X176335735Y-62156844D01*
X176383354Y-62204463D01*
X176526211Y-62299701D01*
X176716687Y-62347320D01*
X177097640Y-62347320D01*
X177192878Y-62299701D01*
X177240497Y-62252082D01*
X177288116Y-62156844D01*
X177288116Y-61966367D01*
X177240497Y-61871129D01*
X177192878Y-61823510D01*
X177097640Y-61775891D01*
X176859545Y-61775891D01*
X176764306Y-61823510D01*
X176716687Y-61871129D01*
X176669068Y-61966367D01*
X176669068Y-62156844D01*
X176716687Y-62252082D01*
X176764306Y-62299701D01*
X176859545Y-62347320D01*
X125464402Y-136419939D02*
X125607259Y-136467558D01*
X125845355Y-136467558D01*
X125940593Y-136419939D01*
X125988212Y-136372320D01*
X126035831Y-136277082D01*
X126035831Y-136181844D01*
X125988212Y-136086606D01*
X125940593Y-136038987D01*
X125845355Y-135991367D01*
X125654878Y-135943748D01*
X125559640Y-135896129D01*
X125512021Y-135848510D01*
X125464402Y-135753272D01*
X125464402Y-135658034D01*
X125512021Y-135562796D01*
X125559640Y-135515177D01*
X125654878Y-135467558D01*
X125892974Y-135467558D01*
X126035831Y-135515177D01*
X126369164Y-135467558D02*
X126607259Y-136467558D01*
X126797736Y-135753272D01*
X126988212Y-136467558D01*
X127226307Y-135467558D01*
X128131069Y-136467558D02*
X127559640Y-136467558D01*
X127845354Y-136467558D02*
X127845354Y-135467558D01*
X127750116Y-135610415D01*
X127654878Y-135705653D01*
X127559640Y-135753272D01*
X153682116Y-72769082D02*
X154491640Y-72769082D01*
X154586878Y-72721463D01*
X154634497Y-72673844D01*
X154682116Y-72578606D01*
X154682116Y-72388129D01*
X154634497Y-72292891D01*
X154586878Y-72245272D01*
X154491640Y-72197653D01*
X153682116Y-72197653D01*
X154682116Y-71197653D02*
X154682116Y-71769082D01*
X154682116Y-71483368D02*
X153682116Y-71483368D01*
X153824973Y-71578606D01*
X153920211Y-71673844D01*
X153967830Y-71769082D01*
X149872116Y-89279082D02*
X150681640Y-89279082D01*
X150776878Y-89231463D01*
X150824497Y-89183844D01*
X150872116Y-89088606D01*
X150872116Y-88898129D01*
X150824497Y-88802891D01*
X150776878Y-88755272D01*
X150681640Y-88707653D01*
X149872116Y-88707653D01*
X149872116Y-88326701D02*
X149872116Y-87707653D01*
X150253068Y-88040987D01*
X150253068Y-87898129D01*
X150300687Y-87802891D01*
X150348306Y-87755272D01*
X150443545Y-87707653D01*
X150681640Y-87707653D01*
X150776878Y-87755272D01*
X150824497Y-87802891D01*
X150872116Y-87898129D01*
X150872116Y-88183844D01*
X150824497Y-88279082D01*
X150776878Y-88326701D01*
M02*
