G04 #@! TF.FileFunction,Legend,Top*
%FSLAX46Y46*%
G04 Gerber Fmt 4.6, Leading zero omitted, Abs format (unit mm)*
G04 Created by KiCad (PCBNEW 4.0.3-stable) date 10/01/16 13:54:14*
%MOMM*%
%LPD*%
G01*
G04 APERTURE LIST*
%ADD10C,0.100000*%
%ADD11C,0.150000*%
G04 APERTURE END LIST*
D10*
D11*
X168907735Y-123191177D02*
X168907735Y-118111177D01*
X168907735Y-118111177D02*
X171447735Y-118111177D01*
X171447735Y-118111177D02*
X171447735Y-123191177D01*
X171447735Y-123191177D02*
X168907735Y-123191177D01*
X123432735Y-116706177D02*
X124702735Y-116706177D01*
X123432735Y-109356177D02*
X124702735Y-109356177D01*
X143262735Y-109356177D02*
X141992735Y-109356177D01*
X143262735Y-116706177D02*
X141992735Y-116706177D01*
X123432735Y-116706177D02*
X123432735Y-109356177D01*
X143262735Y-116706177D02*
X143262735Y-109356177D01*
X124702735Y-116706177D02*
X124702735Y-117991177D01*
X92282735Y-111741177D02*
X89282735Y-111741177D01*
X89282735Y-109241177D02*
X92282735Y-109241177D01*
X92322735Y-114916177D02*
X89322735Y-114916177D01*
X89322735Y-112416177D02*
X92322735Y-112416177D01*
X92322735Y-86341177D02*
X89322735Y-86341177D01*
X89322735Y-83841177D02*
X92322735Y-83841177D01*
X92282735Y-89516177D02*
X89282735Y-89516177D01*
X89282735Y-87016177D02*
X92282735Y-87016177D01*
X92282735Y-62211177D02*
X89282735Y-62211177D01*
X89282735Y-59711177D02*
X92282735Y-59711177D01*
X92322735Y-65386177D02*
X89322735Y-65386177D01*
X89322735Y-62886177D02*
X92322735Y-62886177D01*
X142677735Y-68622177D02*
X142677735Y-73620177D01*
X142817735Y-68630177D02*
X142817735Y-70967177D01*
X142817735Y-71275177D02*
X142817735Y-73612177D01*
X142957735Y-68646177D02*
X142957735Y-70648177D01*
X142957735Y-71594177D02*
X142957735Y-73596177D01*
X143097735Y-68670177D02*
X143097735Y-70501177D01*
X143097735Y-71741177D02*
X143097735Y-73572177D01*
X143237735Y-68703177D02*
X143237735Y-70409177D01*
X143237735Y-71833177D02*
X143237735Y-73539177D01*
X143377735Y-68744177D02*
X143377735Y-70353177D01*
X143377735Y-71889177D02*
X143377735Y-73498177D01*
X143517735Y-68794177D02*
X143517735Y-70326177D01*
X143517735Y-71916177D02*
X143517735Y-73448177D01*
X143657735Y-68855177D02*
X143657735Y-70323177D01*
X143657735Y-71919177D02*
X143657735Y-73387177D01*
X143797735Y-68925177D02*
X143797735Y-70345177D01*
X143797735Y-71897177D02*
X143797735Y-73317177D01*
X143937735Y-69007177D02*
X143937735Y-70395177D01*
X143937735Y-71847177D02*
X143937735Y-73235177D01*
X144077735Y-69102177D02*
X144077735Y-70477177D01*
X144077735Y-71765177D02*
X144077735Y-73140177D01*
X144217735Y-69213177D02*
X144217735Y-70609177D01*
X144217735Y-71633177D02*
X144217735Y-73029177D01*
X144357735Y-69341177D02*
X144357735Y-70856177D01*
X144357735Y-71386177D02*
X144357735Y-72901177D01*
X144497735Y-69490177D02*
X144497735Y-72752177D01*
X144637735Y-69669177D02*
X144637735Y-72573177D01*
X144777735Y-69888177D02*
X144777735Y-72354177D01*
X144917735Y-70177177D02*
X144917735Y-72065177D01*
X145057735Y-70649177D02*
X145057735Y-71593177D01*
X144402735Y-71121177D02*
G75*
G03X144402735Y-71121177I-800000J0D01*
G01*
X145140235Y-71121177D02*
G75*
G03X145140235Y-71121177I-2537500J0D01*
G01*
X127287735Y-73620177D02*
X127287735Y-68622177D01*
X127147735Y-73612177D02*
X127147735Y-71275177D01*
X127147735Y-70967177D02*
X127147735Y-68630177D01*
X127007735Y-73596177D02*
X127007735Y-71594177D01*
X127007735Y-70648177D02*
X127007735Y-68646177D01*
X126867735Y-73572177D02*
X126867735Y-71741177D01*
X126867735Y-70501177D02*
X126867735Y-68670177D01*
X126727735Y-73539177D02*
X126727735Y-71833177D01*
X126727735Y-70409177D02*
X126727735Y-68703177D01*
X126587735Y-73498177D02*
X126587735Y-71889177D01*
X126587735Y-70353177D02*
X126587735Y-68744177D01*
X126447735Y-73448177D02*
X126447735Y-71916177D01*
X126447735Y-70326177D02*
X126447735Y-68794177D01*
X126307735Y-73387177D02*
X126307735Y-71919177D01*
X126307735Y-70323177D02*
X126307735Y-68855177D01*
X126167735Y-73317177D02*
X126167735Y-71897177D01*
X126167735Y-70345177D02*
X126167735Y-68925177D01*
X126027735Y-73235177D02*
X126027735Y-71847177D01*
X126027735Y-70395177D02*
X126027735Y-69007177D01*
X125887735Y-73140177D02*
X125887735Y-71765177D01*
X125887735Y-70477177D02*
X125887735Y-69102177D01*
X125747735Y-73029177D02*
X125747735Y-71633177D01*
X125747735Y-70609177D02*
X125747735Y-69213177D01*
X125607735Y-72901177D02*
X125607735Y-71386177D01*
X125607735Y-70856177D02*
X125607735Y-69341177D01*
X125467735Y-72752177D02*
X125467735Y-69490177D01*
X125327735Y-72573177D02*
X125327735Y-69669177D01*
X125187735Y-72354177D02*
X125187735Y-69888177D01*
X125047735Y-72065177D02*
X125047735Y-70177177D01*
X124907735Y-71593177D02*
X124907735Y-70649177D01*
X127162735Y-71121177D02*
G75*
G03X127162735Y-71121177I-800000J0D01*
G01*
X129900235Y-71121177D02*
G75*
G03X129900235Y-71121177I-2537500J0D01*
G01*
X112047735Y-65365177D02*
X112047735Y-60367177D01*
X111907735Y-65357177D02*
X111907735Y-63020177D01*
X111907735Y-62712177D02*
X111907735Y-60375177D01*
X111767735Y-65341177D02*
X111767735Y-63339177D01*
X111767735Y-62393177D02*
X111767735Y-60391177D01*
X111627735Y-65317177D02*
X111627735Y-63486177D01*
X111627735Y-62246177D02*
X111627735Y-60415177D01*
X111487735Y-65284177D02*
X111487735Y-63578177D01*
X111487735Y-62154177D02*
X111487735Y-60448177D01*
X111347735Y-65243177D02*
X111347735Y-63634177D01*
X111347735Y-62098177D02*
X111347735Y-60489177D01*
X111207735Y-65193177D02*
X111207735Y-63661177D01*
X111207735Y-62071177D02*
X111207735Y-60539177D01*
X111067735Y-65132177D02*
X111067735Y-63664177D01*
X111067735Y-62068177D02*
X111067735Y-60600177D01*
X110927735Y-65062177D02*
X110927735Y-63642177D01*
X110927735Y-62090177D02*
X110927735Y-60670177D01*
X110787735Y-64980177D02*
X110787735Y-63592177D01*
X110787735Y-62140177D02*
X110787735Y-60752177D01*
X110647735Y-64885177D02*
X110647735Y-63510177D01*
X110647735Y-62222177D02*
X110647735Y-60847177D01*
X110507735Y-64774177D02*
X110507735Y-63378177D01*
X110507735Y-62354177D02*
X110507735Y-60958177D01*
X110367735Y-64646177D02*
X110367735Y-63131177D01*
X110367735Y-62601177D02*
X110367735Y-61086177D01*
X110227735Y-64497177D02*
X110227735Y-61235177D01*
X110087735Y-64318177D02*
X110087735Y-61414177D01*
X109947735Y-64099177D02*
X109947735Y-61633177D01*
X109807735Y-63810177D02*
X109807735Y-61922177D01*
X109667735Y-63338177D02*
X109667735Y-62394177D01*
X111922735Y-62866177D02*
G75*
G03X111922735Y-62866177I-800000J0D01*
G01*
X114660235Y-62866177D02*
G75*
G03X114660235Y-62866177I-2537500J0D01*
G01*
X140947735Y-135046177D02*
X140947735Y-138046177D01*
X138447735Y-138046177D02*
X138447735Y-135046177D01*
X142432735Y-67270177D02*
X142432735Y-62272177D01*
X142292735Y-67262177D02*
X142292735Y-64925177D01*
X142292735Y-64617177D02*
X142292735Y-62280177D01*
X142152735Y-67246177D02*
X142152735Y-65244177D01*
X142152735Y-64298177D02*
X142152735Y-62296177D01*
X142012735Y-67222177D02*
X142012735Y-65391177D01*
X142012735Y-64151177D02*
X142012735Y-62320177D01*
X141872735Y-67189177D02*
X141872735Y-65483177D01*
X141872735Y-64059177D02*
X141872735Y-62353177D01*
X141732735Y-67148177D02*
X141732735Y-65539177D01*
X141732735Y-64003177D02*
X141732735Y-62394177D01*
X141592735Y-67098177D02*
X141592735Y-65566177D01*
X141592735Y-63976177D02*
X141592735Y-62444177D01*
X141452735Y-67037177D02*
X141452735Y-65569177D01*
X141452735Y-63973177D02*
X141452735Y-62505177D01*
X141312735Y-66967177D02*
X141312735Y-65547177D01*
X141312735Y-63995177D02*
X141312735Y-62575177D01*
X141172735Y-66885177D02*
X141172735Y-65497177D01*
X141172735Y-64045177D02*
X141172735Y-62657177D01*
X141032735Y-66790177D02*
X141032735Y-65415177D01*
X141032735Y-64127177D02*
X141032735Y-62752177D01*
X140892735Y-66679177D02*
X140892735Y-65283177D01*
X140892735Y-64259177D02*
X140892735Y-62863177D01*
X140752735Y-66551177D02*
X140752735Y-65036177D01*
X140752735Y-64506177D02*
X140752735Y-62991177D01*
X140612735Y-66402177D02*
X140612735Y-63140177D01*
X140472735Y-66223177D02*
X140472735Y-63319177D01*
X140332735Y-66004177D02*
X140332735Y-63538177D01*
X140192735Y-65715177D02*
X140192735Y-63827177D01*
X140052735Y-65243177D02*
X140052735Y-64299177D01*
X142307735Y-64771177D02*
G75*
G03X142307735Y-64771177I-800000J0D01*
G01*
X145045235Y-64771177D02*
G75*
G03X145045235Y-64771177I-2537500J0D01*
G01*
X127342735Y-59097177D02*
X127342735Y-64095177D01*
X127482735Y-59105177D02*
X127482735Y-61442177D01*
X127482735Y-61750177D02*
X127482735Y-64087177D01*
X127622735Y-59121177D02*
X127622735Y-61123177D01*
X127622735Y-62069177D02*
X127622735Y-64071177D01*
X127762735Y-59145177D02*
X127762735Y-60976177D01*
X127762735Y-62216177D02*
X127762735Y-64047177D01*
X127902735Y-59178177D02*
X127902735Y-60884177D01*
X127902735Y-62308177D02*
X127902735Y-64014177D01*
X128042735Y-59219177D02*
X128042735Y-60828177D01*
X128042735Y-62364177D02*
X128042735Y-63973177D01*
X128182735Y-59269177D02*
X128182735Y-60801177D01*
X128182735Y-62391177D02*
X128182735Y-63923177D01*
X128322735Y-59330177D02*
X128322735Y-60798177D01*
X128322735Y-62394177D02*
X128322735Y-63862177D01*
X128462735Y-59400177D02*
X128462735Y-60820177D01*
X128462735Y-62372177D02*
X128462735Y-63792177D01*
X128602735Y-59482177D02*
X128602735Y-60870177D01*
X128602735Y-62322177D02*
X128602735Y-63710177D01*
X128742735Y-59577177D02*
X128742735Y-60952177D01*
X128742735Y-62240177D02*
X128742735Y-63615177D01*
X128882735Y-59688177D02*
X128882735Y-61084177D01*
X128882735Y-62108177D02*
X128882735Y-63504177D01*
X129022735Y-59816177D02*
X129022735Y-61331177D01*
X129022735Y-61861177D02*
X129022735Y-63376177D01*
X129162735Y-59965177D02*
X129162735Y-63227177D01*
X129302735Y-60144177D02*
X129302735Y-63048177D01*
X129442735Y-60363177D02*
X129442735Y-62829177D01*
X129582735Y-60652177D02*
X129582735Y-62540177D01*
X129722735Y-61124177D02*
X129722735Y-62068177D01*
X129067735Y-61596177D02*
G75*
G03X129067735Y-61596177I-800000J0D01*
G01*
X129805235Y-61596177D02*
G75*
G03X129805235Y-61596177I-2537500J0D01*
G01*
X116796735Y-84261177D02*
X111798735Y-84261177D01*
X116788735Y-84401177D02*
X114451735Y-84401177D01*
X114143735Y-84401177D02*
X111806735Y-84401177D01*
X116772735Y-84541177D02*
X114770735Y-84541177D01*
X113824735Y-84541177D02*
X111822735Y-84541177D01*
X116748735Y-84681177D02*
X114917735Y-84681177D01*
X113677735Y-84681177D02*
X111846735Y-84681177D01*
X116715735Y-84821177D02*
X115009735Y-84821177D01*
X113585735Y-84821177D02*
X111879735Y-84821177D01*
X116674735Y-84961177D02*
X115065735Y-84961177D01*
X113529735Y-84961177D02*
X111920735Y-84961177D01*
X116624735Y-85101177D02*
X115092735Y-85101177D01*
X113502735Y-85101177D02*
X111970735Y-85101177D01*
X116563735Y-85241177D02*
X115095735Y-85241177D01*
X113499735Y-85241177D02*
X112031735Y-85241177D01*
X116493735Y-85381177D02*
X115073735Y-85381177D01*
X113521735Y-85381177D02*
X112101735Y-85381177D01*
X116411735Y-85521177D02*
X115023735Y-85521177D01*
X113571735Y-85521177D02*
X112183735Y-85521177D01*
X116316735Y-85661177D02*
X114941735Y-85661177D01*
X113653735Y-85661177D02*
X112278735Y-85661177D01*
X116205735Y-85801177D02*
X114809735Y-85801177D01*
X113785735Y-85801177D02*
X112389735Y-85801177D01*
X116077735Y-85941177D02*
X114562735Y-85941177D01*
X114032735Y-85941177D02*
X112517735Y-85941177D01*
X115928735Y-86081177D02*
X112666735Y-86081177D01*
X115749735Y-86221177D02*
X112845735Y-86221177D01*
X115530735Y-86361177D02*
X113064735Y-86361177D01*
X115241735Y-86501177D02*
X113353735Y-86501177D01*
X114769735Y-86641177D02*
X113825735Y-86641177D01*
X115097735Y-85186177D02*
G75*
G03X115097735Y-85186177I-800000J0D01*
G01*
X116835235Y-84186177D02*
G75*
G03X116835235Y-84186177I-2537500J0D01*
G01*
X124112735Y-92670177D02*
X124112735Y-87672177D01*
X123972735Y-92662177D02*
X123972735Y-90325177D01*
X123972735Y-90017177D02*
X123972735Y-87680177D01*
X123832735Y-92646177D02*
X123832735Y-90644177D01*
X123832735Y-89698177D02*
X123832735Y-87696177D01*
X123692735Y-92622177D02*
X123692735Y-90791177D01*
X123692735Y-89551177D02*
X123692735Y-87720177D01*
X123552735Y-92589177D02*
X123552735Y-90883177D01*
X123552735Y-89459177D02*
X123552735Y-87753177D01*
X123412735Y-92548177D02*
X123412735Y-90939177D01*
X123412735Y-89403177D02*
X123412735Y-87794177D01*
X123272735Y-92498177D02*
X123272735Y-90966177D01*
X123272735Y-89376177D02*
X123272735Y-87844177D01*
X123132735Y-92437177D02*
X123132735Y-90969177D01*
X123132735Y-89373177D02*
X123132735Y-87905177D01*
X122992735Y-92367177D02*
X122992735Y-90947177D01*
X122992735Y-89395177D02*
X122992735Y-87975177D01*
X122852735Y-92285177D02*
X122852735Y-90897177D01*
X122852735Y-89445177D02*
X122852735Y-88057177D01*
X122712735Y-92190177D02*
X122712735Y-90815177D01*
X122712735Y-89527177D02*
X122712735Y-88152177D01*
X122572735Y-92079177D02*
X122572735Y-90683177D01*
X122572735Y-89659177D02*
X122572735Y-88263177D01*
X122432735Y-91951177D02*
X122432735Y-90436177D01*
X122432735Y-89906177D02*
X122432735Y-88391177D01*
X122292735Y-91802177D02*
X122292735Y-88540177D01*
X122152735Y-91623177D02*
X122152735Y-88719177D01*
X122012735Y-91404177D02*
X122012735Y-88938177D01*
X121872735Y-91115177D02*
X121872735Y-89227177D01*
X121732735Y-90643177D02*
X121732735Y-89699177D01*
X123987735Y-90171177D02*
G75*
G03X123987735Y-90171177I-800000J0D01*
G01*
X126725235Y-90171177D02*
G75*
G03X126725235Y-90171177I-2537500J0D01*
G01*
X151107735Y-135006177D02*
X151107735Y-138006177D01*
X148607735Y-138006177D02*
X148607735Y-135006177D01*
X171872735Y-109241177D02*
X174872735Y-109241177D01*
X174872735Y-111741177D02*
X171872735Y-111741177D01*
X171832735Y-112416177D02*
X174832735Y-112416177D01*
X174832735Y-114916177D02*
X171832735Y-114916177D01*
X171872735Y-83841177D02*
X174872735Y-83841177D01*
X174872735Y-86341177D02*
X171872735Y-86341177D01*
X171872735Y-87016177D02*
X174872735Y-87016177D01*
X174872735Y-89516177D02*
X171872735Y-89516177D01*
X171872735Y-59711177D02*
X174872735Y-59711177D01*
X174872735Y-62211177D02*
X171872735Y-62211177D01*
X171832735Y-62886177D02*
X174832735Y-62886177D01*
X174832735Y-65386177D02*
X171832735Y-65386177D01*
X142582735Y-119422177D02*
X142582735Y-124420177D01*
X142722735Y-119430177D02*
X142722735Y-121767177D01*
X142722735Y-122075177D02*
X142722735Y-124412177D01*
X142862735Y-119446177D02*
X142862735Y-121448177D01*
X142862735Y-122394177D02*
X142862735Y-124396177D01*
X143002735Y-119470177D02*
X143002735Y-121301177D01*
X143002735Y-122541177D02*
X143002735Y-124372177D01*
X143142735Y-119503177D02*
X143142735Y-121209177D01*
X143142735Y-122633177D02*
X143142735Y-124339177D01*
X143282735Y-119544177D02*
X143282735Y-121153177D01*
X143282735Y-122689177D02*
X143282735Y-124298177D01*
X143422735Y-119594177D02*
X143422735Y-121126177D01*
X143422735Y-122716177D02*
X143422735Y-124248177D01*
X143562735Y-119655177D02*
X143562735Y-121123177D01*
X143562735Y-122719177D02*
X143562735Y-124187177D01*
X143702735Y-119725177D02*
X143702735Y-121145177D01*
X143702735Y-122697177D02*
X143702735Y-124117177D01*
X143842735Y-119807177D02*
X143842735Y-121195177D01*
X143842735Y-122647177D02*
X143842735Y-124035177D01*
X143982735Y-119902177D02*
X143982735Y-121277177D01*
X143982735Y-122565177D02*
X143982735Y-123940177D01*
X144122735Y-120013177D02*
X144122735Y-121409177D01*
X144122735Y-122433177D02*
X144122735Y-123829177D01*
X144262735Y-120141177D02*
X144262735Y-121656177D01*
X144262735Y-122186177D02*
X144262735Y-123701177D01*
X144402735Y-120290177D02*
X144402735Y-123552177D01*
X144542735Y-120469177D02*
X144542735Y-123373177D01*
X144682735Y-120688177D02*
X144682735Y-123154177D01*
X144822735Y-120977177D02*
X144822735Y-122865177D01*
X144962735Y-121449177D02*
X144962735Y-122393177D01*
X144307735Y-121921177D02*
G75*
G03X144307735Y-121921177I-800000J0D01*
G01*
X145045235Y-121921177D02*
G75*
G03X145045235Y-121921177I-2537500J0D01*
G01*
X142582735Y-101642177D02*
X142582735Y-106640177D01*
X142722735Y-101650177D02*
X142722735Y-103987177D01*
X142722735Y-104295177D02*
X142722735Y-106632177D01*
X142862735Y-101666177D02*
X142862735Y-103668177D01*
X142862735Y-104614177D02*
X142862735Y-106616177D01*
X143002735Y-101690177D02*
X143002735Y-103521177D01*
X143002735Y-104761177D02*
X143002735Y-106592177D01*
X143142735Y-101723177D02*
X143142735Y-103429177D01*
X143142735Y-104853177D02*
X143142735Y-106559177D01*
X143282735Y-101764177D02*
X143282735Y-103373177D01*
X143282735Y-104909177D02*
X143282735Y-106518177D01*
X143422735Y-101814177D02*
X143422735Y-103346177D01*
X143422735Y-104936177D02*
X143422735Y-106468177D01*
X143562735Y-101875177D02*
X143562735Y-103343177D01*
X143562735Y-104939177D02*
X143562735Y-106407177D01*
X143702735Y-101945177D02*
X143702735Y-103365177D01*
X143702735Y-104917177D02*
X143702735Y-106337177D01*
X143842735Y-102027177D02*
X143842735Y-103415177D01*
X143842735Y-104867177D02*
X143842735Y-106255177D01*
X143982735Y-102122177D02*
X143982735Y-103497177D01*
X143982735Y-104785177D02*
X143982735Y-106160177D01*
X144122735Y-102233177D02*
X144122735Y-103629177D01*
X144122735Y-104653177D02*
X144122735Y-106049177D01*
X144262735Y-102361177D02*
X144262735Y-103876177D01*
X144262735Y-104406177D02*
X144262735Y-105921177D01*
X144402735Y-102510177D02*
X144402735Y-105772177D01*
X144542735Y-102689177D02*
X144542735Y-105593177D01*
X144682735Y-102908177D02*
X144682735Y-105374177D01*
X144822735Y-103197177D02*
X144822735Y-105085177D01*
X144962735Y-103669177D02*
X144962735Y-104613177D01*
X144307735Y-104141177D02*
G75*
G03X144307735Y-104141177I-800000J0D01*
G01*
X145045235Y-104141177D02*
G75*
G03X145045235Y-104141177I-2537500J0D01*
G01*
X124112735Y-106640177D02*
X124112735Y-101642177D01*
X123972735Y-106632177D02*
X123972735Y-104295177D01*
X123972735Y-103987177D02*
X123972735Y-101650177D01*
X123832735Y-106616177D02*
X123832735Y-104614177D01*
X123832735Y-103668177D02*
X123832735Y-101666177D01*
X123692735Y-106592177D02*
X123692735Y-104761177D01*
X123692735Y-103521177D02*
X123692735Y-101690177D01*
X123552735Y-106559177D02*
X123552735Y-104853177D01*
X123552735Y-103429177D02*
X123552735Y-101723177D01*
X123412735Y-106518177D02*
X123412735Y-104909177D01*
X123412735Y-103373177D02*
X123412735Y-101764177D01*
X123272735Y-106468177D02*
X123272735Y-104936177D01*
X123272735Y-103346177D02*
X123272735Y-101814177D01*
X123132735Y-106407177D02*
X123132735Y-104939177D01*
X123132735Y-103343177D02*
X123132735Y-101875177D01*
X122992735Y-106337177D02*
X122992735Y-104917177D01*
X122992735Y-103365177D02*
X122992735Y-101945177D01*
X122852735Y-106255177D02*
X122852735Y-104867177D01*
X122852735Y-103415177D02*
X122852735Y-102027177D01*
X122712735Y-106160177D02*
X122712735Y-104785177D01*
X122712735Y-103497177D02*
X122712735Y-102122177D01*
X122572735Y-106049177D02*
X122572735Y-104653177D01*
X122572735Y-103629177D02*
X122572735Y-102233177D01*
X122432735Y-105921177D02*
X122432735Y-104406177D01*
X122432735Y-103876177D02*
X122432735Y-102361177D01*
X122292735Y-105772177D02*
X122292735Y-102510177D01*
X122152735Y-105593177D02*
X122152735Y-102689177D01*
X122012735Y-105374177D02*
X122012735Y-102908177D01*
X121872735Y-105085177D02*
X121872735Y-103197177D01*
X121732735Y-104613177D02*
X121732735Y-103669177D01*
X123987735Y-104141177D02*
G75*
G03X123987735Y-104141177I-800000J0D01*
G01*
X126725235Y-104141177D02*
G75*
G03X126725235Y-104141177I-2537500J0D01*
G01*
X142677735Y-87037177D02*
X142677735Y-92035177D01*
X142817735Y-87045177D02*
X142817735Y-89382177D01*
X142817735Y-89690177D02*
X142817735Y-92027177D01*
X142957735Y-87061177D02*
X142957735Y-89063177D01*
X142957735Y-90009177D02*
X142957735Y-92011177D01*
X143097735Y-87085177D02*
X143097735Y-88916177D01*
X143097735Y-90156177D02*
X143097735Y-91987177D01*
X143237735Y-87118177D02*
X143237735Y-88824177D01*
X143237735Y-90248177D02*
X143237735Y-91954177D01*
X143377735Y-87159177D02*
X143377735Y-88768177D01*
X143377735Y-90304177D02*
X143377735Y-91913177D01*
X143517735Y-87209177D02*
X143517735Y-88741177D01*
X143517735Y-90331177D02*
X143517735Y-91863177D01*
X143657735Y-87270177D02*
X143657735Y-88738177D01*
X143657735Y-90334177D02*
X143657735Y-91802177D01*
X143797735Y-87340177D02*
X143797735Y-88760177D01*
X143797735Y-90312177D02*
X143797735Y-91732177D01*
X143937735Y-87422177D02*
X143937735Y-88810177D01*
X143937735Y-90262177D02*
X143937735Y-91650177D01*
X144077735Y-87517177D02*
X144077735Y-88892177D01*
X144077735Y-90180177D02*
X144077735Y-91555177D01*
X144217735Y-87628177D02*
X144217735Y-89024177D01*
X144217735Y-90048177D02*
X144217735Y-91444177D01*
X144357735Y-87756177D02*
X144357735Y-89271177D01*
X144357735Y-89801177D02*
X144357735Y-91316177D01*
X144497735Y-87905177D02*
X144497735Y-91167177D01*
X144637735Y-88084177D02*
X144637735Y-90988177D01*
X144777735Y-88303177D02*
X144777735Y-90769177D01*
X144917735Y-88592177D02*
X144917735Y-90480177D01*
X145057735Y-89064177D02*
X145057735Y-90008177D01*
X144402735Y-89536177D02*
G75*
G03X144402735Y-89536177I-800000J0D01*
G01*
X145140235Y-89536177D02*
G75*
G03X145140235Y-89536177I-2537500J0D01*
G01*
X149898735Y-105701177D02*
X154896735Y-105701177D01*
X149906735Y-105561177D02*
X152243735Y-105561177D01*
X152551735Y-105561177D02*
X154888735Y-105561177D01*
X149922735Y-105421177D02*
X151924735Y-105421177D01*
X152870735Y-105421177D02*
X154872735Y-105421177D01*
X149946735Y-105281177D02*
X151777735Y-105281177D01*
X153017735Y-105281177D02*
X154848735Y-105281177D01*
X149979735Y-105141177D02*
X151685735Y-105141177D01*
X153109735Y-105141177D02*
X154815735Y-105141177D01*
X150020735Y-105001177D02*
X151629735Y-105001177D01*
X153165735Y-105001177D02*
X154774735Y-105001177D01*
X150070735Y-104861177D02*
X151602735Y-104861177D01*
X153192735Y-104861177D02*
X154724735Y-104861177D01*
X150131735Y-104721177D02*
X151599735Y-104721177D01*
X153195735Y-104721177D02*
X154663735Y-104721177D01*
X150201735Y-104581177D02*
X151621735Y-104581177D01*
X153173735Y-104581177D02*
X154593735Y-104581177D01*
X150283735Y-104441177D02*
X151671735Y-104441177D01*
X153123735Y-104441177D02*
X154511735Y-104441177D01*
X150378735Y-104301177D02*
X151753735Y-104301177D01*
X153041735Y-104301177D02*
X154416735Y-104301177D01*
X150489735Y-104161177D02*
X151885735Y-104161177D01*
X152909735Y-104161177D02*
X154305735Y-104161177D01*
X150617735Y-104021177D02*
X152132735Y-104021177D01*
X152662735Y-104021177D02*
X154177735Y-104021177D01*
X150766735Y-103881177D02*
X154028735Y-103881177D01*
X150945735Y-103741177D02*
X153849735Y-103741177D01*
X151164735Y-103601177D02*
X153630735Y-103601177D01*
X151453735Y-103461177D02*
X153341735Y-103461177D01*
X151925735Y-103321177D02*
X152869735Y-103321177D01*
X153197735Y-104776177D02*
G75*
G03X153197735Y-104776177I-800000J0D01*
G01*
X154935235Y-105776177D02*
G75*
G03X154935235Y-105776177I-2537500J0D01*
G01*
X154896735Y-95056177D02*
X149898735Y-95056177D01*
X154888735Y-95196177D02*
X152551735Y-95196177D01*
X152243735Y-95196177D02*
X149906735Y-95196177D01*
X154872735Y-95336177D02*
X152870735Y-95336177D01*
X151924735Y-95336177D02*
X149922735Y-95336177D01*
X154848735Y-95476177D02*
X153017735Y-95476177D01*
X151777735Y-95476177D02*
X149946735Y-95476177D01*
X154815735Y-95616177D02*
X153109735Y-95616177D01*
X151685735Y-95616177D02*
X149979735Y-95616177D01*
X154774735Y-95756177D02*
X153165735Y-95756177D01*
X151629735Y-95756177D02*
X150020735Y-95756177D01*
X154724735Y-95896177D02*
X153192735Y-95896177D01*
X151602735Y-95896177D02*
X150070735Y-95896177D01*
X154663735Y-96036177D02*
X153195735Y-96036177D01*
X151599735Y-96036177D02*
X150131735Y-96036177D01*
X154593735Y-96176177D02*
X153173735Y-96176177D01*
X151621735Y-96176177D02*
X150201735Y-96176177D01*
X154511735Y-96316177D02*
X153123735Y-96316177D01*
X151671735Y-96316177D02*
X150283735Y-96316177D01*
X154416735Y-96456177D02*
X153041735Y-96456177D01*
X151753735Y-96456177D02*
X150378735Y-96456177D01*
X154305735Y-96596177D02*
X152909735Y-96596177D01*
X151885735Y-96596177D02*
X150489735Y-96596177D01*
X154177735Y-96736177D02*
X152662735Y-96736177D01*
X152132735Y-96736177D02*
X150617735Y-96736177D01*
X154028735Y-96876177D02*
X150766735Y-96876177D01*
X153849735Y-97016177D02*
X150945735Y-97016177D01*
X153630735Y-97156177D02*
X151164735Y-97156177D01*
X153341735Y-97296177D02*
X151453735Y-97296177D01*
X152869735Y-97436177D02*
X151925735Y-97436177D01*
X153197735Y-95981177D02*
G75*
G03X153197735Y-95981177I-800000J0D01*
G01*
X154935235Y-94981177D02*
G75*
G03X154935235Y-94981177I-2537500J0D01*
G01*
X111798735Y-93001177D02*
X116796735Y-93001177D01*
X111806735Y-92861177D02*
X114143735Y-92861177D01*
X114451735Y-92861177D02*
X116788735Y-92861177D01*
X111822735Y-92721177D02*
X113824735Y-92721177D01*
X114770735Y-92721177D02*
X116772735Y-92721177D01*
X111846735Y-92581177D02*
X113677735Y-92581177D01*
X114917735Y-92581177D02*
X116748735Y-92581177D01*
X111879735Y-92441177D02*
X113585735Y-92441177D01*
X115009735Y-92441177D02*
X116715735Y-92441177D01*
X111920735Y-92301177D02*
X113529735Y-92301177D01*
X115065735Y-92301177D02*
X116674735Y-92301177D01*
X111970735Y-92161177D02*
X113502735Y-92161177D01*
X115092735Y-92161177D02*
X116624735Y-92161177D01*
X112031735Y-92021177D02*
X113499735Y-92021177D01*
X115095735Y-92021177D02*
X116563735Y-92021177D01*
X112101735Y-91881177D02*
X113521735Y-91881177D01*
X115073735Y-91881177D02*
X116493735Y-91881177D01*
X112183735Y-91741177D02*
X113571735Y-91741177D01*
X115023735Y-91741177D02*
X116411735Y-91741177D01*
X112278735Y-91601177D02*
X113653735Y-91601177D01*
X114941735Y-91601177D02*
X116316735Y-91601177D01*
X112389735Y-91461177D02*
X113785735Y-91461177D01*
X114809735Y-91461177D02*
X116205735Y-91461177D01*
X112517735Y-91321177D02*
X114032735Y-91321177D01*
X114562735Y-91321177D02*
X116077735Y-91321177D01*
X112666735Y-91181177D02*
X115928735Y-91181177D01*
X112845735Y-91041177D02*
X115749735Y-91041177D01*
X113064735Y-90901177D02*
X115530735Y-90901177D01*
X113353735Y-90761177D02*
X115241735Y-90761177D01*
X113825735Y-90621177D02*
X114769735Y-90621177D01*
X115097735Y-92076177D02*
G75*
G03X115097735Y-92076177I-800000J0D01*
G01*
X116835235Y-93076177D02*
G75*
G03X116835235Y-93076177I-2537500J0D01*
G01*
X132327735Y-90786177D02*
X129327735Y-90786177D01*
X129327735Y-88286177D02*
X132327735Y-88286177D01*
X122496855Y-151522337D02*
X131498615Y-151522337D01*
X122496855Y-155022457D02*
X131498615Y-155022457D01*
X131498615Y-155022457D02*
X131498615Y-140521597D01*
X131498615Y-140521597D02*
X122496855Y-140521597D01*
X122496855Y-140521597D02*
X122496855Y-155022457D01*
X149857735Y-74931177D02*
X149857735Y-75947177D01*
X149857735Y-70105177D02*
X149857735Y-68835177D01*
X151127735Y-70359177D02*
X148587735Y-70359177D01*
X151127735Y-70613177D02*
X148587735Y-70613177D01*
X151127735Y-70867177D02*
X148587735Y-70867177D01*
X151127735Y-70105177D02*
X148587735Y-70105177D01*
X151127735Y-71121177D02*
X148587735Y-69851177D01*
X151127735Y-69851177D02*
X148587735Y-71121177D01*
X151127735Y-71121177D02*
X148587735Y-71121177D01*
X151127735Y-70486177D02*
X148587735Y-70486177D01*
X148587735Y-69851177D02*
X151127735Y-69851177D01*
X151127735Y-69851177D02*
X151127735Y-74931177D01*
X151127735Y-74931177D02*
X148587735Y-74931177D01*
X148587735Y-74931177D02*
X148587735Y-69851177D01*
X122552735Y-69216177D02*
X122552735Y-70232177D01*
X122552735Y-64390177D02*
X122552735Y-63120177D01*
X123822735Y-64644177D02*
X121282735Y-64644177D01*
X123822735Y-64898177D02*
X121282735Y-64898177D01*
X123822735Y-65152177D02*
X121282735Y-65152177D01*
X123822735Y-64390177D02*
X121282735Y-64390177D01*
X123822735Y-65406177D02*
X121282735Y-64136177D01*
X123822735Y-64136177D02*
X121282735Y-65406177D01*
X123822735Y-65406177D02*
X121282735Y-65406177D01*
X123822735Y-64771177D02*
X121282735Y-64771177D01*
X121282735Y-64136177D02*
X123822735Y-64136177D01*
X123822735Y-64136177D02*
X123822735Y-69216177D01*
X123822735Y-69216177D02*
X121282735Y-69216177D01*
X121282735Y-69216177D02*
X121282735Y-64136177D01*
X114295195Y-71121177D02*
X114295195Y-70105177D01*
X114295195Y-75947177D02*
X114295195Y-77217177D01*
X113025195Y-75693177D02*
X115565195Y-75693177D01*
X113025195Y-75439177D02*
X115565195Y-75439177D01*
X113025195Y-75185177D02*
X115565195Y-75185177D01*
X113025195Y-75947177D02*
X115565195Y-75947177D01*
X113025195Y-74931177D02*
X115565195Y-76201177D01*
X113025195Y-76201177D02*
X115565195Y-74931177D01*
X113025195Y-74931177D02*
X115565195Y-74931177D01*
X113025195Y-75566177D02*
X115565195Y-75566177D01*
X115565195Y-76201177D02*
X113025195Y-76201177D01*
X113025195Y-76201177D02*
X113025195Y-71121177D01*
X113025195Y-71121177D02*
X115565195Y-71121177D01*
X115565195Y-71121177D02*
X115565195Y-76201177D01*
X65276639Y-128978065D02*
G75*
G03X62251735Y-128993177I-1524904J2484888D01*
G01*
X65251735Y-128993177D02*
X62251735Y-128993177D01*
X66269671Y-126493177D02*
G75*
G03X66269671Y-126493177I-2517936J0D01*
G01*
X57148639Y-128978065D02*
G75*
G03X54123735Y-128993177I-1524904J2484888D01*
G01*
X57123735Y-128993177D02*
X54123735Y-128993177D01*
X58141671Y-126493177D02*
G75*
G03X58141671Y-126493177I-2517936J0D01*
G01*
X65276639Y-103578065D02*
G75*
G03X62251735Y-103593177I-1524904J2484888D01*
G01*
X65251735Y-103593177D02*
X62251735Y-103593177D01*
X66269671Y-101093177D02*
G75*
G03X66269671Y-101093177I-2517936J0D01*
G01*
X57148639Y-103578065D02*
G75*
G03X54123735Y-103593177I-1524904J2484888D01*
G01*
X57123735Y-103593177D02*
X54123735Y-103593177D01*
X58141671Y-101093177D02*
G75*
G03X58141671Y-101093177I-2517936J0D01*
G01*
X65276639Y-78178065D02*
G75*
G03X62251735Y-78193177I-1524904J2484888D01*
G01*
X65251735Y-78193177D02*
X62251735Y-78193177D01*
X66269671Y-75693177D02*
G75*
G03X66269671Y-75693177I-2517936J0D01*
G01*
X57148639Y-78178065D02*
G75*
G03X54123735Y-78193177I-1524904J2484888D01*
G01*
X57123735Y-78193177D02*
X54123735Y-78193177D01*
X58141671Y-75693177D02*
G75*
G03X58141671Y-75693177I-2517936J0D01*
G01*
X65276639Y-120342065D02*
G75*
G03X62251735Y-120357177I-1524904J2484888D01*
G01*
X65251735Y-120357177D02*
X62251735Y-120357177D01*
X66269671Y-117857177D02*
G75*
G03X66269671Y-117857177I-2517936J0D01*
G01*
X57148639Y-120342065D02*
G75*
G03X54123735Y-120357177I-1524904J2484888D01*
G01*
X57123735Y-120357177D02*
X54123735Y-120357177D01*
X58141671Y-117857177D02*
G75*
G03X58141671Y-117857177I-2517936J0D01*
G01*
X65276639Y-94942065D02*
G75*
G03X62251735Y-94957177I-1524904J2484888D01*
G01*
X65251735Y-94957177D02*
X62251735Y-94957177D01*
X66269671Y-92457177D02*
G75*
G03X66269671Y-92457177I-2517936J0D01*
G01*
X57148639Y-94942065D02*
G75*
G03X54123735Y-94957177I-1524904J2484888D01*
G01*
X57123735Y-94957177D02*
X54123735Y-94957177D01*
X58141671Y-92457177D02*
G75*
G03X58141671Y-92457177I-2517936J0D01*
G01*
X65276639Y-69542065D02*
G75*
G03X62251735Y-69557177I-1524904J2484888D01*
G01*
X65251735Y-69557177D02*
X62251735Y-69557177D01*
X66269671Y-67057177D02*
G75*
G03X66269671Y-67057177I-2517936J0D01*
G01*
X57148639Y-69542065D02*
G75*
G03X54123735Y-69557177I-1524904J2484888D01*
G01*
X57123735Y-69557177D02*
X54123735Y-69557177D01*
X58141671Y-67057177D02*
G75*
G03X58141671Y-67057177I-2517936J0D01*
G01*
X152397735Y-118111177D02*
X152397735Y-119127177D01*
X152397735Y-113285177D02*
X152397735Y-112015177D01*
X153667735Y-113539177D02*
X151127735Y-113539177D01*
X153667735Y-113793177D02*
X151127735Y-113793177D01*
X153667735Y-114047177D02*
X151127735Y-114047177D01*
X153667735Y-113285177D02*
X151127735Y-113285177D01*
X153667735Y-114301177D02*
X151127735Y-113031177D01*
X153667735Y-113031177D02*
X151127735Y-114301177D01*
X153667735Y-114301177D02*
X151127735Y-114301177D01*
X153667735Y-113666177D02*
X151127735Y-113666177D01*
X151127735Y-113031177D02*
X153667735Y-113031177D01*
X153667735Y-113031177D02*
X153667735Y-118111177D01*
X153667735Y-118111177D02*
X151127735Y-118111177D01*
X151127735Y-118111177D02*
X151127735Y-113031177D01*
X147320275Y-101601177D02*
X147320275Y-102617177D01*
X147320275Y-96775177D02*
X147320275Y-95505177D01*
X148590275Y-97029177D02*
X146050275Y-97029177D01*
X148590275Y-97283177D02*
X146050275Y-97283177D01*
X148590275Y-97537177D02*
X146050275Y-97537177D01*
X148590275Y-96775177D02*
X146050275Y-96775177D01*
X148590275Y-97791177D02*
X146050275Y-96521177D01*
X148590275Y-96521177D02*
X146050275Y-97791177D01*
X148590275Y-97791177D02*
X146050275Y-97791177D01*
X148590275Y-97156177D02*
X146050275Y-97156177D01*
X146050275Y-96521177D02*
X148590275Y-96521177D01*
X148590275Y-96521177D02*
X148590275Y-101601177D01*
X148590275Y-101601177D02*
X146050275Y-101601177D01*
X146050275Y-101601177D02*
X146050275Y-96521177D01*
X119634275Y-101601177D02*
X119634275Y-102617177D01*
X119634275Y-96775177D02*
X119634275Y-95505177D01*
X120904275Y-97029177D02*
X118364275Y-97029177D01*
X120904275Y-97283177D02*
X118364275Y-97283177D01*
X120904275Y-97537177D02*
X118364275Y-97537177D01*
X120904275Y-96775177D02*
X118364275Y-96775177D01*
X120904275Y-97791177D02*
X118364275Y-96521177D01*
X120904275Y-96521177D02*
X118364275Y-97791177D01*
X120904275Y-97791177D02*
X118364275Y-97791177D01*
X120904275Y-97156177D02*
X118364275Y-97156177D01*
X118364275Y-96521177D02*
X120904275Y-96521177D01*
X120904275Y-96521177D02*
X120904275Y-101601177D01*
X120904275Y-101601177D02*
X118364275Y-101601177D01*
X118364275Y-101601177D02*
X118364275Y-96521177D01*
X202436639Y-128978065D02*
G75*
G03X199411735Y-128993177I-1524904J2484888D01*
G01*
X202411735Y-128993177D02*
X199411735Y-128993177D01*
X203429671Y-126493177D02*
G75*
G03X203429671Y-126493177I-2517936J0D01*
G01*
X210564639Y-128978065D02*
G75*
G03X207539735Y-128993177I-1524904J2484888D01*
G01*
X210539735Y-128993177D02*
X207539735Y-128993177D01*
X211557671Y-126493177D02*
G75*
G03X211557671Y-126493177I-2517936J0D01*
G01*
X210564639Y-103578065D02*
G75*
G03X207539735Y-103593177I-1524904J2484888D01*
G01*
X210539735Y-103593177D02*
X207539735Y-103593177D01*
X211557671Y-101093177D02*
G75*
G03X211557671Y-101093177I-2517936J0D01*
G01*
X202436639Y-103578065D02*
G75*
G03X199411735Y-103593177I-1524904J2484888D01*
G01*
X202411735Y-103593177D02*
X199411735Y-103593177D01*
X203429671Y-101093177D02*
G75*
G03X203429671Y-101093177I-2517936J0D01*
G01*
X202436639Y-78178065D02*
G75*
G03X199411735Y-78193177I-1524904J2484888D01*
G01*
X202411735Y-78193177D02*
X199411735Y-78193177D01*
X203429671Y-75693177D02*
G75*
G03X203429671Y-75693177I-2517936J0D01*
G01*
X210564639Y-78178065D02*
G75*
G03X207539735Y-78193177I-1524904J2484888D01*
G01*
X210539735Y-78193177D02*
X207539735Y-78193177D01*
X211557671Y-75693177D02*
G75*
G03X211557671Y-75693177I-2517936J0D01*
G01*
X202436639Y-120342065D02*
G75*
G03X199411735Y-120357177I-1524904J2484888D01*
G01*
X202411735Y-120357177D02*
X199411735Y-120357177D01*
X203429671Y-117857177D02*
G75*
G03X203429671Y-117857177I-2517936J0D01*
G01*
X210564639Y-120342065D02*
G75*
G03X207539735Y-120357177I-1524904J2484888D01*
G01*
X210539735Y-120357177D02*
X207539735Y-120357177D01*
X211557671Y-117857177D02*
G75*
G03X211557671Y-117857177I-2517936J0D01*
G01*
X210564639Y-94942065D02*
G75*
G03X207539735Y-94957177I-1524904J2484888D01*
G01*
X210539735Y-94957177D02*
X207539735Y-94957177D01*
X211557671Y-92457177D02*
G75*
G03X211557671Y-92457177I-2517936J0D01*
G01*
X202436639Y-94942065D02*
G75*
G03X199411735Y-94957177I-1524904J2484888D01*
G01*
X202411735Y-94957177D02*
X199411735Y-94957177D01*
X203429671Y-92457177D02*
G75*
G03X203429671Y-92457177I-2517936J0D01*
G01*
X202436639Y-69542065D02*
G75*
G03X199411735Y-69557177I-1524904J2484888D01*
G01*
X202411735Y-69557177D02*
X199411735Y-69557177D01*
X203429671Y-67057177D02*
G75*
G03X203429671Y-67057177I-2517936J0D01*
G01*
X210564639Y-69542065D02*
G75*
G03X207539735Y-69557177I-1524904J2484888D01*
G01*
X210539735Y-69557177D02*
X207539735Y-69557177D01*
X211557671Y-67057177D02*
G75*
G03X211557671Y-67057177I-2517936J0D01*
G01*
X151197735Y-138971177D02*
X138197735Y-138971177D01*
X138197735Y-138971177D02*
X138197735Y-149471177D01*
X138197735Y-149471177D02*
X151197735Y-149471177D01*
X151197735Y-149471177D02*
X151197735Y-138971177D01*
X80642735Y-117730177D02*
X80642735Y-114936177D01*
X79372735Y-117730177D02*
X79372735Y-114936177D01*
X78102735Y-117730177D02*
X78102735Y-114936177D01*
X81772735Y-114936177D02*
X76972735Y-114936177D01*
X76972735Y-114936177D02*
X76972735Y-109746177D01*
X76972735Y-109746177D02*
X81772735Y-109746177D01*
X81772735Y-109746177D02*
X81772735Y-114936177D01*
X80642735Y-92330177D02*
X80642735Y-89536177D01*
X79372735Y-92330177D02*
X79372735Y-89536177D01*
X78102735Y-92330177D02*
X78102735Y-89536177D01*
X81772735Y-89536177D02*
X76972735Y-89536177D01*
X76972735Y-89536177D02*
X76972735Y-84346177D01*
X76972735Y-84346177D02*
X81772735Y-84346177D01*
X81772735Y-84346177D02*
X81772735Y-89536177D01*
X80642735Y-65660177D02*
X80642735Y-62866177D01*
X79372735Y-65660177D02*
X79372735Y-62866177D01*
X78102735Y-65660177D02*
X78102735Y-62866177D01*
X81772735Y-62866177D02*
X76972735Y-62866177D01*
X76972735Y-62866177D02*
X76972735Y-57676177D01*
X76972735Y-57676177D02*
X81772735Y-57676177D01*
X81772735Y-57676177D02*
X81772735Y-62866177D01*
X184782735Y-117730177D02*
X184782735Y-114936177D01*
X183512735Y-117730177D02*
X183512735Y-114936177D01*
X182242735Y-117730177D02*
X182242735Y-114936177D01*
X185912735Y-114936177D02*
X181112735Y-114936177D01*
X181112735Y-114936177D02*
X181112735Y-109746177D01*
X181112735Y-109746177D02*
X185912735Y-109746177D01*
X185912735Y-109746177D02*
X185912735Y-114936177D01*
X184782735Y-92330177D02*
X184782735Y-89536177D01*
X183512735Y-92330177D02*
X183512735Y-89536177D01*
X182242735Y-92330177D02*
X182242735Y-89536177D01*
X185912735Y-89536177D02*
X181112735Y-89536177D01*
X181112735Y-89536177D02*
X181112735Y-84346177D01*
X181112735Y-84346177D02*
X185912735Y-84346177D01*
X185912735Y-84346177D02*
X185912735Y-89536177D01*
X184782735Y-66930177D02*
X184782735Y-64136177D01*
X183512735Y-66930177D02*
X183512735Y-64136177D01*
X182242735Y-66930177D02*
X182242735Y-64136177D01*
X185912735Y-64136177D02*
X181112735Y-64136177D01*
X181112735Y-64136177D02*
X181112735Y-58946177D01*
X181112735Y-58946177D02*
X185912735Y-58946177D01*
X185912735Y-58946177D02*
X185912735Y-64136177D01*
X92707735Y-123191177D02*
X92707735Y-118111177D01*
X92707735Y-118111177D02*
X95247735Y-118111177D01*
X95247735Y-118111177D02*
X95247735Y-123191177D01*
X95247735Y-123191177D02*
X92707735Y-123191177D01*
X92707735Y-97791177D02*
X92707735Y-92711177D01*
X92707735Y-92711177D02*
X95247735Y-92711177D01*
X95247735Y-92711177D02*
X95247735Y-97791177D01*
X95247735Y-97791177D02*
X92707735Y-97791177D01*
X92707735Y-73661177D02*
X92707735Y-68581177D01*
X92707735Y-68581177D02*
X95247735Y-68581177D01*
X95247735Y-68581177D02*
X95247735Y-73661177D01*
X95247735Y-73661177D02*
X92707735Y-73661177D01*
X88897735Y-123191177D02*
X88897735Y-118111177D01*
X88897735Y-118111177D02*
X91437735Y-118111177D01*
X91437735Y-118111177D02*
X91437735Y-123191177D01*
X91437735Y-123191177D02*
X88897735Y-123191177D01*
X88897735Y-97791177D02*
X88897735Y-92711177D01*
X88897735Y-92711177D02*
X91437735Y-92711177D01*
X91437735Y-92711177D02*
X91437735Y-97791177D01*
X91437735Y-97791177D02*
X88897735Y-97791177D01*
X88897735Y-73661177D02*
X88897735Y-68581177D01*
X88897735Y-68581177D02*
X91437735Y-68581177D01*
X91437735Y-68581177D02*
X91437735Y-73661177D01*
X91437735Y-73661177D02*
X88897735Y-73661177D01*
X95882735Y-112396177D02*
X100962735Y-112396177D01*
X100962735Y-112396177D02*
X100962735Y-114936177D01*
X100962735Y-114936177D02*
X95882735Y-114936177D01*
X95882735Y-114936177D02*
X95882735Y-112396177D01*
X95882735Y-86996177D02*
X100962735Y-86996177D01*
X100962735Y-86996177D02*
X100962735Y-89536177D01*
X100962735Y-89536177D02*
X95882735Y-89536177D01*
X95882735Y-89536177D02*
X95882735Y-86996177D01*
X95882735Y-61596177D02*
X100962735Y-61596177D01*
X100962735Y-61596177D02*
X100962735Y-64136177D01*
X100962735Y-64136177D02*
X95882735Y-64136177D01*
X95882735Y-64136177D02*
X95882735Y-61596177D01*
X145412735Y-83821177D02*
X145412735Y-78741177D01*
X145412735Y-78741177D02*
X147952735Y-78741177D01*
X147952735Y-78741177D02*
X147952735Y-83821177D01*
X147952735Y-83821177D02*
X145412735Y-83821177D01*
X119377735Y-83821177D02*
X119377735Y-78741177D01*
X119377735Y-78741177D02*
X121917735Y-78741177D01*
X121917735Y-78741177D02*
X121917735Y-83821177D01*
X121917735Y-83821177D02*
X119377735Y-83821177D01*
X109852735Y-75566177D02*
X109852735Y-70486177D01*
X109852735Y-70486177D02*
X112392735Y-70486177D01*
X112392735Y-70486177D02*
X112392735Y-75566177D01*
X112392735Y-75566177D02*
X109852735Y-75566177D01*
X138427735Y-133351177D02*
X133347735Y-133351177D01*
X133347735Y-133351177D02*
X133347735Y-130811177D01*
X133347735Y-130811177D02*
X138427735Y-130811177D01*
X138427735Y-130811177D02*
X138427735Y-133351177D01*
X152397735Y-73661177D02*
X152397735Y-68581177D01*
X152397735Y-68581177D02*
X154937735Y-68581177D01*
X154937735Y-68581177D02*
X154937735Y-73661177D01*
X154937735Y-73661177D02*
X152397735Y-73661177D01*
X117472735Y-67946177D02*
X117472735Y-62866177D01*
X117472735Y-62866177D02*
X120012735Y-62866177D01*
X120012735Y-62866177D02*
X120012735Y-67946177D01*
X120012735Y-67946177D02*
X117472735Y-67946177D01*
X109217735Y-78106177D02*
X109217735Y-83186177D01*
X109217735Y-83186177D02*
X106677735Y-83186177D01*
X106677735Y-83186177D02*
X106677735Y-78106177D01*
X106677735Y-78106177D02*
X109217735Y-78106177D01*
X133347735Y-127636177D02*
X138427735Y-127636177D01*
X138427735Y-127636177D02*
X138427735Y-130176177D01*
X138427735Y-130176177D02*
X133347735Y-130176177D01*
X133347735Y-130176177D02*
X133347735Y-127636177D01*
X74292735Y-126366177D02*
X79372735Y-126366177D01*
X79372735Y-126366177D02*
X79372735Y-128906177D01*
X79372735Y-128906177D02*
X74292735Y-128906177D01*
X74292735Y-128906177D02*
X74292735Y-126366177D01*
X74292735Y-123191177D02*
X79372735Y-123191177D01*
X79372735Y-123191177D02*
X79372735Y-125731177D01*
X79372735Y-125731177D02*
X74292735Y-125731177D01*
X74292735Y-125731177D02*
X74292735Y-123191177D01*
X74292735Y-100966177D02*
X79372735Y-100966177D01*
X79372735Y-100966177D02*
X79372735Y-103506177D01*
X79372735Y-103506177D02*
X74292735Y-103506177D01*
X74292735Y-103506177D02*
X74292735Y-100966177D01*
X74292735Y-97791177D02*
X79372735Y-97791177D01*
X79372735Y-97791177D02*
X79372735Y-100331177D01*
X79372735Y-100331177D02*
X74292735Y-100331177D01*
X74292735Y-100331177D02*
X74292735Y-97791177D01*
X74292735Y-74296177D02*
X79372735Y-74296177D01*
X79372735Y-74296177D02*
X79372735Y-76836177D01*
X79372735Y-76836177D02*
X74292735Y-76836177D01*
X74292735Y-76836177D02*
X74292735Y-74296177D01*
X74292735Y-71121177D02*
X79372735Y-71121177D01*
X79372735Y-71121177D02*
X79372735Y-73661177D01*
X79372735Y-73661177D02*
X74292735Y-73661177D01*
X74292735Y-73661177D02*
X74292735Y-71121177D01*
X168907735Y-97791177D02*
X168907735Y-92711177D01*
X168907735Y-92711177D02*
X171447735Y-92711177D01*
X171447735Y-92711177D02*
X171447735Y-97791177D01*
X171447735Y-97791177D02*
X168907735Y-97791177D01*
X168907735Y-73661177D02*
X168907735Y-68581177D01*
X168907735Y-68581177D02*
X171447735Y-68581177D01*
X171447735Y-68581177D02*
X171447735Y-73661177D01*
X171447735Y-73661177D02*
X168907735Y-73661177D01*
X172717735Y-123191177D02*
X172717735Y-118111177D01*
X172717735Y-118111177D02*
X175257735Y-118111177D01*
X175257735Y-118111177D02*
X175257735Y-123191177D01*
X175257735Y-123191177D02*
X172717735Y-123191177D01*
X172717735Y-97791177D02*
X172717735Y-92711177D01*
X172717735Y-92711177D02*
X175257735Y-92711177D01*
X175257735Y-92711177D02*
X175257735Y-97791177D01*
X175257735Y-97791177D02*
X172717735Y-97791177D01*
X172717735Y-73661177D02*
X172717735Y-68581177D01*
X172717735Y-68581177D02*
X175257735Y-68581177D01*
X175257735Y-68581177D02*
X175257735Y-73661177D01*
X175257735Y-73661177D02*
X172717735Y-73661177D01*
X151127735Y-130811177D02*
X156207735Y-130811177D01*
X156207735Y-130811177D02*
X156207735Y-133351177D01*
X156207735Y-133351177D02*
X151127735Y-133351177D01*
X151127735Y-133351177D02*
X151127735Y-130811177D01*
X168272735Y-114936177D02*
X163192735Y-114936177D01*
X163192735Y-114936177D02*
X163192735Y-112396177D01*
X163192735Y-112396177D02*
X168272735Y-112396177D01*
X168272735Y-112396177D02*
X168272735Y-114936177D01*
X168272735Y-89536177D02*
X163192735Y-89536177D01*
X163192735Y-89536177D02*
X163192735Y-86996177D01*
X163192735Y-86996177D02*
X168272735Y-86996177D01*
X168272735Y-86996177D02*
X168272735Y-89536177D01*
X168272735Y-64136177D02*
X163192735Y-64136177D01*
X163192735Y-64136177D02*
X163192735Y-61596177D01*
X163192735Y-61596177D02*
X168272735Y-61596177D01*
X168272735Y-61596177D02*
X168272735Y-64136177D01*
X156207735Y-130176177D02*
X151127735Y-130176177D01*
X151127735Y-130176177D02*
X151127735Y-127636177D01*
X151127735Y-127636177D02*
X156207735Y-127636177D01*
X156207735Y-127636177D02*
X156207735Y-130176177D01*
X147317735Y-111761177D02*
X147317735Y-116841177D01*
X147317735Y-116841177D02*
X144777735Y-116841177D01*
X144777735Y-116841177D02*
X144777735Y-111761177D01*
X144777735Y-111761177D02*
X147317735Y-111761177D01*
X147952735Y-116841177D02*
X147952735Y-111761177D01*
X147952735Y-111761177D02*
X150492735Y-111761177D01*
X150492735Y-111761177D02*
X150492735Y-116841177D01*
X150492735Y-116841177D02*
X147952735Y-116841177D01*
X120012735Y-116841177D02*
X120012735Y-111761177D01*
X120012735Y-111761177D02*
X122552735Y-111761177D01*
X122552735Y-111761177D02*
X122552735Y-116841177D01*
X122552735Y-116841177D02*
X120012735Y-116841177D01*
X158747735Y-104776177D02*
X158747735Y-109856177D01*
X158747735Y-109856177D02*
X156207735Y-109856177D01*
X156207735Y-109856177D02*
X156207735Y-104776177D01*
X156207735Y-104776177D02*
X158747735Y-104776177D01*
X153667735Y-83821177D02*
X153667735Y-88901177D01*
X153667735Y-88901177D02*
X151127735Y-88901177D01*
X151127735Y-88901177D02*
X151127735Y-83821177D01*
X151127735Y-83821177D02*
X153667735Y-83821177D01*
X108582735Y-109221177D02*
X108582735Y-104141177D01*
X108582735Y-104141177D02*
X111122735Y-104141177D01*
X111122735Y-104141177D02*
X111122735Y-109221177D01*
X111122735Y-109221177D02*
X108582735Y-109221177D01*
X114932735Y-109221177D02*
X114932735Y-104141177D01*
X114932735Y-104141177D02*
X117472735Y-104141177D01*
X117472735Y-104141177D02*
X117472735Y-109221177D01*
X117472735Y-109221177D02*
X114932735Y-109221177D01*
X114297735Y-104141177D02*
X114297735Y-109221177D01*
X114297735Y-109221177D02*
X111757735Y-109221177D01*
X111757735Y-109221177D02*
X111757735Y-104141177D01*
X111757735Y-104141177D02*
X114297735Y-104141177D01*
X191132735Y-128906177D02*
X186052735Y-128906177D01*
X186052735Y-128906177D02*
X186052735Y-126366177D01*
X186052735Y-126366177D02*
X191132735Y-126366177D01*
X191132735Y-126366177D02*
X191132735Y-128906177D01*
X191132735Y-125731177D02*
X186052735Y-125731177D01*
X186052735Y-125731177D02*
X186052735Y-123191177D01*
X186052735Y-123191177D02*
X191132735Y-123191177D01*
X191132735Y-123191177D02*
X191132735Y-125731177D01*
X191132735Y-103506177D02*
X186052735Y-103506177D01*
X186052735Y-103506177D02*
X186052735Y-100966177D01*
X186052735Y-100966177D02*
X191132735Y-100966177D01*
X191132735Y-100966177D02*
X191132735Y-103506177D01*
X186052735Y-97791177D02*
X191132735Y-97791177D01*
X191132735Y-97791177D02*
X191132735Y-100331177D01*
X191132735Y-100331177D02*
X186052735Y-100331177D01*
X186052735Y-100331177D02*
X186052735Y-97791177D01*
X191132735Y-78106177D02*
X186052735Y-78106177D01*
X186052735Y-78106177D02*
X186052735Y-75566177D01*
X186052735Y-75566177D02*
X191132735Y-75566177D01*
X191132735Y-75566177D02*
X191132735Y-78106177D01*
X191132735Y-74931177D02*
X186052735Y-74931177D01*
X186052735Y-74931177D02*
X186052735Y-72391177D01*
X186052735Y-72391177D02*
X191132735Y-72391177D01*
X191132735Y-72391177D02*
X191132735Y-74931177D01*
X96517735Y-117095177D02*
X97025735Y-117095177D01*
X96517735Y-118111177D02*
X96517735Y-116079177D01*
X98041735Y-118111177D02*
X96517735Y-118111177D01*
X98041735Y-116079177D02*
X96517735Y-116079177D01*
X108201735Y-115825177D02*
X98041735Y-115825177D01*
X98041735Y-125477177D02*
X108201735Y-125477177D01*
X108201735Y-125477177D02*
X108201735Y-124969177D01*
X108201735Y-124969177D02*
X107693735Y-124969177D01*
X107693735Y-124969177D02*
X107693735Y-116333177D01*
X107693735Y-116333177D02*
X108201735Y-116333177D01*
X108201735Y-116333177D02*
X108201735Y-115825177D01*
X98041735Y-125477177D02*
X98041735Y-115825177D01*
X96517735Y-91695177D02*
X97025735Y-91695177D01*
X96517735Y-92711177D02*
X96517735Y-90679177D01*
X98041735Y-92711177D02*
X96517735Y-92711177D01*
X98041735Y-90679177D02*
X96517735Y-90679177D01*
X108201735Y-90425177D02*
X98041735Y-90425177D01*
X98041735Y-100077177D02*
X108201735Y-100077177D01*
X108201735Y-100077177D02*
X108201735Y-99569177D01*
X108201735Y-99569177D02*
X107693735Y-99569177D01*
X107693735Y-99569177D02*
X107693735Y-90933177D01*
X107693735Y-90933177D02*
X108201735Y-90933177D01*
X108201735Y-90933177D02*
X108201735Y-90425177D01*
X98041735Y-100077177D02*
X98041735Y-90425177D01*
X96517735Y-66295177D02*
X97025735Y-66295177D01*
X96517735Y-67311177D02*
X96517735Y-65279177D01*
X98041735Y-67311177D02*
X96517735Y-67311177D01*
X98041735Y-65279177D02*
X96517735Y-65279177D01*
X108201735Y-65025177D02*
X98041735Y-65025177D01*
X98041735Y-74677177D02*
X108201735Y-74677177D01*
X108201735Y-74677177D02*
X108201735Y-74169177D01*
X108201735Y-74169177D02*
X107693735Y-74169177D01*
X107693735Y-74169177D02*
X107693735Y-65533177D01*
X107693735Y-65533177D02*
X108201735Y-65533177D01*
X108201735Y-65533177D02*
X108201735Y-65025177D01*
X98041735Y-74677177D02*
X98041735Y-65025177D01*
X167637735Y-124207177D02*
X167129735Y-124207177D01*
X167637735Y-123191177D02*
X167637735Y-125223177D01*
X166113735Y-123191177D02*
X167637735Y-123191177D01*
X166113735Y-125223177D02*
X167637735Y-125223177D01*
X155953735Y-125477177D02*
X166113735Y-125477177D01*
X166113735Y-115825177D02*
X155953735Y-115825177D01*
X155953735Y-115825177D02*
X155953735Y-116333177D01*
X155953735Y-116333177D02*
X156461735Y-116333177D01*
X156461735Y-116333177D02*
X156461735Y-124969177D01*
X156461735Y-124969177D02*
X155953735Y-124969177D01*
X155953735Y-124969177D02*
X155953735Y-125477177D01*
X166113735Y-115825177D02*
X166113735Y-125477177D01*
X167637735Y-98807177D02*
X167129735Y-98807177D01*
X167637735Y-97791177D02*
X167637735Y-99823177D01*
X166113735Y-97791177D02*
X167637735Y-97791177D01*
X166113735Y-99823177D02*
X167637735Y-99823177D01*
X155953735Y-100077177D02*
X166113735Y-100077177D01*
X166113735Y-90425177D02*
X155953735Y-90425177D01*
X155953735Y-90425177D02*
X155953735Y-90933177D01*
X155953735Y-90933177D02*
X156461735Y-90933177D01*
X156461735Y-90933177D02*
X156461735Y-99569177D01*
X156461735Y-99569177D02*
X155953735Y-99569177D01*
X155953735Y-99569177D02*
X155953735Y-100077177D01*
X166113735Y-90425177D02*
X166113735Y-100077177D01*
X167637735Y-73407177D02*
X167129735Y-73407177D01*
X167637735Y-72391177D02*
X167637735Y-74423177D01*
X166113735Y-72391177D02*
X167637735Y-72391177D01*
X166113735Y-74423177D02*
X167637735Y-74423177D01*
X155953735Y-74677177D02*
X166113735Y-74677177D01*
X166113735Y-65025177D02*
X155953735Y-65025177D01*
X155953735Y-65025177D02*
X155953735Y-65533177D01*
X155953735Y-65533177D02*
X156461735Y-65533177D01*
X156461735Y-65533177D02*
X156461735Y-74169177D01*
X156461735Y-74169177D02*
X155953735Y-74169177D01*
X155953735Y-74169177D02*
X155953735Y-74677177D01*
X166113735Y-65025177D02*
X166113735Y-74677177D01*
X121917735Y-147829177D02*
X111757735Y-147829177D01*
X111757735Y-142241177D02*
X121917735Y-142241177D01*
X117345735Y-148337177D02*
X117345735Y-150369177D01*
X115313735Y-148337177D02*
X115313735Y-150369177D01*
X113281735Y-147829177D02*
X113281735Y-148337177D01*
X113281735Y-148337177D02*
X118869735Y-148337177D01*
X118869735Y-148337177D02*
X118869735Y-147829177D01*
X115313735Y-150369177D02*
X117345735Y-150369177D01*
X119377735Y-140971177D02*
X119377735Y-142241177D01*
X116837735Y-140971177D02*
X116837735Y-142241177D01*
X114297735Y-140971177D02*
X114297735Y-142241177D01*
X121917735Y-142241177D02*
X121917735Y-147829177D01*
X111757735Y-142241177D02*
X111757735Y-147829177D01*
X123432735Y-83686177D02*
X124702735Y-83686177D01*
X123432735Y-76336177D02*
X124702735Y-76336177D01*
X143262735Y-76336177D02*
X141992735Y-76336177D01*
X143262735Y-83686177D02*
X141992735Y-83686177D01*
X123432735Y-83686177D02*
X123432735Y-76336177D01*
X143262735Y-83686177D02*
X143262735Y-76336177D01*
X124702735Y-83686177D02*
X124702735Y-84971177D01*
X139452735Y-92846177D02*
X138182735Y-92846177D01*
X139452735Y-100196177D02*
X138182735Y-100196177D01*
X127242735Y-100196177D02*
X128512735Y-100196177D01*
X127242735Y-92846177D02*
X128512735Y-92846177D01*
X139452735Y-92846177D02*
X139452735Y-100196177D01*
X127242735Y-92846177D02*
X127242735Y-100196177D01*
X138182735Y-92846177D02*
X138182735Y-91561177D01*
X169534878Y-126818558D02*
X169201544Y-126342367D01*
X168963449Y-126818558D02*
X168963449Y-125818558D01*
X169344402Y-125818558D01*
X169439640Y-125866177D01*
X169487259Y-125913796D01*
X169534878Y-126009034D01*
X169534878Y-126151891D01*
X169487259Y-126247129D01*
X169439640Y-126294748D01*
X169344402Y-126342367D01*
X168963449Y-126342367D01*
X169915830Y-125913796D02*
X169963449Y-125866177D01*
X170058687Y-125818558D01*
X170296783Y-125818558D01*
X170392021Y-125866177D01*
X170439640Y-125913796D01*
X170487259Y-126009034D01*
X170487259Y-126104272D01*
X170439640Y-126247129D01*
X169868211Y-126818558D01*
X170487259Y-126818558D01*
X171344402Y-126151891D02*
X171344402Y-126818558D01*
X171106306Y-125770939D02*
X170868211Y-126485225D01*
X171487259Y-126485225D01*
X143722116Y-113412082D02*
X144531640Y-113412082D01*
X144626878Y-113364463D01*
X144674497Y-113316844D01*
X144722116Y-113221606D01*
X144722116Y-113031129D01*
X144674497Y-112935891D01*
X144626878Y-112888272D01*
X144531640Y-112840653D01*
X143722116Y-112840653D01*
X143817354Y-112412082D02*
X143769735Y-112364463D01*
X143722116Y-112269225D01*
X143722116Y-112031129D01*
X143769735Y-111935891D01*
X143817354Y-111888272D01*
X143912592Y-111840653D01*
X144007830Y-111840653D01*
X144150687Y-111888272D01*
X144722116Y-112459701D01*
X144722116Y-111840653D01*
X87984878Y-110022843D02*
X88032497Y-110070462D01*
X88080116Y-110213319D01*
X88080116Y-110308557D01*
X88032497Y-110451415D01*
X87937259Y-110546653D01*
X87842021Y-110594272D01*
X87651545Y-110641891D01*
X87508687Y-110641891D01*
X87318211Y-110594272D01*
X87222973Y-110546653D01*
X87127735Y-110451415D01*
X87080116Y-110308557D01*
X87080116Y-110213319D01*
X87127735Y-110070462D01*
X87175354Y-110022843D01*
X88080116Y-109070462D02*
X88080116Y-109641891D01*
X88080116Y-109356177D02*
X87080116Y-109356177D01*
X87222973Y-109451415D01*
X87318211Y-109546653D01*
X87365830Y-109641891D01*
X87984878Y-113197843D02*
X88032497Y-113245462D01*
X88080116Y-113388319D01*
X88080116Y-113483557D01*
X88032497Y-113626415D01*
X87937259Y-113721653D01*
X87842021Y-113769272D01*
X87651545Y-113816891D01*
X87508687Y-113816891D01*
X87318211Y-113769272D01*
X87222973Y-113721653D01*
X87127735Y-113626415D01*
X87080116Y-113483557D01*
X87080116Y-113388319D01*
X87127735Y-113245462D01*
X87175354Y-113197843D01*
X87175354Y-112816891D02*
X87127735Y-112769272D01*
X87080116Y-112674034D01*
X87080116Y-112435938D01*
X87127735Y-112340700D01*
X87175354Y-112293081D01*
X87270592Y-112245462D01*
X87365830Y-112245462D01*
X87508687Y-112293081D01*
X88080116Y-112864510D01*
X88080116Y-112245462D01*
X87984878Y-84622843D02*
X88032497Y-84670462D01*
X88080116Y-84813319D01*
X88080116Y-84908557D01*
X88032497Y-85051415D01*
X87937259Y-85146653D01*
X87842021Y-85194272D01*
X87651545Y-85241891D01*
X87508687Y-85241891D01*
X87318211Y-85194272D01*
X87222973Y-85146653D01*
X87127735Y-85051415D01*
X87080116Y-84908557D01*
X87080116Y-84813319D01*
X87127735Y-84670462D01*
X87175354Y-84622843D01*
X87080116Y-84289510D02*
X87080116Y-83670462D01*
X87461068Y-84003796D01*
X87461068Y-83860938D01*
X87508687Y-83765700D01*
X87556306Y-83718081D01*
X87651545Y-83670462D01*
X87889640Y-83670462D01*
X87984878Y-83718081D01*
X88032497Y-83765700D01*
X88080116Y-83860938D01*
X88080116Y-84146653D01*
X88032497Y-84241891D01*
X87984878Y-84289510D01*
X87984878Y-87797843D02*
X88032497Y-87845462D01*
X88080116Y-87988319D01*
X88080116Y-88083557D01*
X88032497Y-88226415D01*
X87937259Y-88321653D01*
X87842021Y-88369272D01*
X87651545Y-88416891D01*
X87508687Y-88416891D01*
X87318211Y-88369272D01*
X87222973Y-88321653D01*
X87127735Y-88226415D01*
X87080116Y-88083557D01*
X87080116Y-87988319D01*
X87127735Y-87845462D01*
X87175354Y-87797843D01*
X87413449Y-86940700D02*
X88080116Y-86940700D01*
X87032497Y-87178796D02*
X87746783Y-87416891D01*
X87746783Y-86797843D01*
X87984878Y-60492843D02*
X88032497Y-60540462D01*
X88080116Y-60683319D01*
X88080116Y-60778557D01*
X88032497Y-60921415D01*
X87937259Y-61016653D01*
X87842021Y-61064272D01*
X87651545Y-61111891D01*
X87508687Y-61111891D01*
X87318211Y-61064272D01*
X87222973Y-61016653D01*
X87127735Y-60921415D01*
X87080116Y-60778557D01*
X87080116Y-60683319D01*
X87127735Y-60540462D01*
X87175354Y-60492843D01*
X87080116Y-59588081D02*
X87080116Y-60064272D01*
X87556306Y-60111891D01*
X87508687Y-60064272D01*
X87461068Y-59969034D01*
X87461068Y-59730938D01*
X87508687Y-59635700D01*
X87556306Y-59588081D01*
X87651545Y-59540462D01*
X87889640Y-59540462D01*
X87984878Y-59588081D01*
X88032497Y-59635700D01*
X88080116Y-59730938D01*
X88080116Y-59969034D01*
X88032497Y-60064272D01*
X87984878Y-60111891D01*
X87984878Y-63667843D02*
X88032497Y-63715462D01*
X88080116Y-63858319D01*
X88080116Y-63953557D01*
X88032497Y-64096415D01*
X87937259Y-64191653D01*
X87842021Y-64239272D01*
X87651545Y-64286891D01*
X87508687Y-64286891D01*
X87318211Y-64239272D01*
X87222973Y-64191653D01*
X87127735Y-64096415D01*
X87080116Y-63953557D01*
X87080116Y-63858319D01*
X87127735Y-63715462D01*
X87175354Y-63667843D01*
X87080116Y-62810700D02*
X87080116Y-63001177D01*
X87127735Y-63096415D01*
X87175354Y-63144034D01*
X87318211Y-63239272D01*
X87508687Y-63286891D01*
X87889640Y-63286891D01*
X87984878Y-63239272D01*
X88032497Y-63191653D01*
X88080116Y-63096415D01*
X88080116Y-62905938D01*
X88032497Y-62810700D01*
X87984878Y-62763081D01*
X87889640Y-62715462D01*
X87651545Y-62715462D01*
X87556306Y-62763081D01*
X87508687Y-62810700D01*
X87461068Y-62905938D01*
X87461068Y-63096415D01*
X87508687Y-63191653D01*
X87556306Y-63239272D01*
X87651545Y-63286891D01*
X139419878Y-71287843D02*
X139467497Y-71335462D01*
X139515116Y-71478319D01*
X139515116Y-71573557D01*
X139467497Y-71716415D01*
X139372259Y-71811653D01*
X139277021Y-71859272D01*
X139086545Y-71906891D01*
X138943687Y-71906891D01*
X138753211Y-71859272D01*
X138657973Y-71811653D01*
X138562735Y-71716415D01*
X138515116Y-71573557D01*
X138515116Y-71478319D01*
X138562735Y-71335462D01*
X138610354Y-71287843D01*
X138515116Y-70954510D02*
X138515116Y-70287843D01*
X139515116Y-70716415D01*
X131164878Y-71287843D02*
X131212497Y-71335462D01*
X131260116Y-71478319D01*
X131260116Y-71573557D01*
X131212497Y-71716415D01*
X131117259Y-71811653D01*
X131022021Y-71859272D01*
X130831545Y-71906891D01*
X130688687Y-71906891D01*
X130498211Y-71859272D01*
X130402973Y-71811653D01*
X130307735Y-71716415D01*
X130260116Y-71573557D01*
X130260116Y-71478319D01*
X130307735Y-71335462D01*
X130355354Y-71287843D01*
X130688687Y-70716415D02*
X130641068Y-70811653D01*
X130593449Y-70859272D01*
X130498211Y-70906891D01*
X130450592Y-70906891D01*
X130355354Y-70859272D01*
X130307735Y-70811653D01*
X130260116Y-70716415D01*
X130260116Y-70525938D01*
X130307735Y-70430700D01*
X130355354Y-70383081D01*
X130450592Y-70335462D01*
X130498211Y-70335462D01*
X130593449Y-70383081D01*
X130641068Y-70430700D01*
X130688687Y-70525938D01*
X130688687Y-70716415D01*
X130736306Y-70811653D01*
X130783925Y-70859272D01*
X130879164Y-70906891D01*
X131069640Y-70906891D01*
X131164878Y-70859272D01*
X131212497Y-70811653D01*
X131260116Y-70716415D01*
X131260116Y-70525938D01*
X131212497Y-70430700D01*
X131164878Y-70383081D01*
X131069640Y-70335462D01*
X130879164Y-70335462D01*
X130783925Y-70383081D01*
X130736306Y-70430700D01*
X130688687Y-70525938D01*
X111956069Y-67023320D02*
X111908450Y-67070939D01*
X111765593Y-67118558D01*
X111670355Y-67118558D01*
X111527497Y-67070939D01*
X111432259Y-66975701D01*
X111384640Y-66880463D01*
X111337021Y-66689987D01*
X111337021Y-66547129D01*
X111384640Y-66356653D01*
X111432259Y-66261415D01*
X111527497Y-66166177D01*
X111670355Y-66118558D01*
X111765593Y-66118558D01*
X111908450Y-66166177D01*
X111956069Y-66213796D01*
X112432259Y-67118558D02*
X112622735Y-67118558D01*
X112717974Y-67070939D01*
X112765593Y-67023320D01*
X112860831Y-66880463D01*
X112908450Y-66689987D01*
X112908450Y-66309034D01*
X112860831Y-66213796D01*
X112813212Y-66166177D01*
X112717974Y-66118558D01*
X112527497Y-66118558D01*
X112432259Y-66166177D01*
X112384640Y-66213796D01*
X112337021Y-66309034D01*
X112337021Y-66547129D01*
X112384640Y-66642367D01*
X112432259Y-66689987D01*
X112527497Y-66737606D01*
X112717974Y-66737606D01*
X112813212Y-66689987D01*
X112860831Y-66642367D01*
X112908450Y-66547129D01*
X142554878Y-137189034D02*
X142602497Y-137236653D01*
X142650116Y-137379510D01*
X142650116Y-137474748D01*
X142602497Y-137617606D01*
X142507259Y-137712844D01*
X142412021Y-137760463D01*
X142221545Y-137808082D01*
X142078687Y-137808082D01*
X141888211Y-137760463D01*
X141792973Y-137712844D01*
X141697735Y-137617606D01*
X141650116Y-137474748D01*
X141650116Y-137379510D01*
X141697735Y-137236653D01*
X141745354Y-137189034D01*
X142650116Y-136236653D02*
X142650116Y-136808082D01*
X142650116Y-136522368D02*
X141650116Y-136522368D01*
X141792973Y-136617606D01*
X141888211Y-136712844D01*
X141935830Y-136808082D01*
X141650116Y-135617606D02*
X141650116Y-135522367D01*
X141697735Y-135427129D01*
X141745354Y-135379510D01*
X141840592Y-135331891D01*
X142031068Y-135284272D01*
X142269164Y-135284272D01*
X142459640Y-135331891D01*
X142554878Y-135379510D01*
X142602497Y-135427129D01*
X142650116Y-135522367D01*
X142650116Y-135617606D01*
X142602497Y-135712844D01*
X142554878Y-135760463D01*
X142459640Y-135808082D01*
X142269164Y-135855701D01*
X142031068Y-135855701D01*
X141840592Y-135808082D01*
X141745354Y-135760463D01*
X141697735Y-135712844D01*
X141650116Y-135617606D01*
X139292878Y-65414034D02*
X139340497Y-65461653D01*
X139388116Y-65604510D01*
X139388116Y-65699748D01*
X139340497Y-65842606D01*
X139245259Y-65937844D01*
X139150021Y-65985463D01*
X138959545Y-66033082D01*
X138816687Y-66033082D01*
X138626211Y-65985463D01*
X138530973Y-65937844D01*
X138435735Y-65842606D01*
X138388116Y-65699748D01*
X138388116Y-65604510D01*
X138435735Y-65461653D01*
X138483354Y-65414034D01*
X139388116Y-64461653D02*
X139388116Y-65033082D01*
X139388116Y-64747368D02*
X138388116Y-64747368D01*
X138530973Y-64842606D01*
X138626211Y-64937844D01*
X138673830Y-65033082D01*
X139388116Y-63509272D02*
X139388116Y-64080701D01*
X139388116Y-63794987D02*
X138388116Y-63794987D01*
X138530973Y-63890225D01*
X138626211Y-63985463D01*
X138673830Y-64080701D01*
X131196878Y-62239034D02*
X131244497Y-62286653D01*
X131292116Y-62429510D01*
X131292116Y-62524748D01*
X131244497Y-62667606D01*
X131149259Y-62762844D01*
X131054021Y-62810463D01*
X130863545Y-62858082D01*
X130720687Y-62858082D01*
X130530211Y-62810463D01*
X130434973Y-62762844D01*
X130339735Y-62667606D01*
X130292116Y-62524748D01*
X130292116Y-62429510D01*
X130339735Y-62286653D01*
X130387354Y-62239034D01*
X131292116Y-61286653D02*
X131292116Y-61858082D01*
X131292116Y-61572368D02*
X130292116Y-61572368D01*
X130434973Y-61667606D01*
X130530211Y-61762844D01*
X130577830Y-61858082D01*
X130387354Y-60905701D02*
X130339735Y-60858082D01*
X130292116Y-60762844D01*
X130292116Y-60524748D01*
X130339735Y-60429510D01*
X130387354Y-60381891D01*
X130482592Y-60334272D01*
X130577830Y-60334272D01*
X130720687Y-60381891D01*
X131292116Y-60953320D01*
X131292116Y-60334272D01*
X113654878Y-88115320D02*
X113607259Y-88162939D01*
X113464402Y-88210558D01*
X113369164Y-88210558D01*
X113226306Y-88162939D01*
X113131068Y-88067701D01*
X113083449Y-87972463D01*
X113035830Y-87781987D01*
X113035830Y-87639129D01*
X113083449Y-87448653D01*
X113131068Y-87353415D01*
X113226306Y-87258177D01*
X113369164Y-87210558D01*
X113464402Y-87210558D01*
X113607259Y-87258177D01*
X113654878Y-87305796D01*
X114607259Y-88210558D02*
X114035830Y-88210558D01*
X114321544Y-88210558D02*
X114321544Y-87210558D01*
X114226306Y-87353415D01*
X114131068Y-87448653D01*
X114035830Y-87496272D01*
X114940592Y-87210558D02*
X115559640Y-87210558D01*
X115226306Y-87591510D01*
X115369164Y-87591510D01*
X115464402Y-87639129D01*
X115512021Y-87686748D01*
X115559640Y-87781987D01*
X115559640Y-88020082D01*
X115512021Y-88115320D01*
X115464402Y-88162939D01*
X115369164Y-88210558D01*
X115083449Y-88210558D01*
X114988211Y-88162939D01*
X114940592Y-88115320D01*
X123544878Y-94328320D02*
X123497259Y-94375939D01*
X123354402Y-94423558D01*
X123259164Y-94423558D01*
X123116306Y-94375939D01*
X123021068Y-94280701D01*
X122973449Y-94185463D01*
X122925830Y-93994987D01*
X122925830Y-93852129D01*
X122973449Y-93661653D01*
X123021068Y-93566415D01*
X123116306Y-93471177D01*
X123259164Y-93423558D01*
X123354402Y-93423558D01*
X123497259Y-93471177D01*
X123544878Y-93518796D01*
X124497259Y-94423558D02*
X123925830Y-94423558D01*
X124211544Y-94423558D02*
X124211544Y-93423558D01*
X124116306Y-93566415D01*
X124021068Y-93661653D01*
X123925830Y-93709272D01*
X125354402Y-93756891D02*
X125354402Y-94423558D01*
X125116306Y-93375939D02*
X124878211Y-94090225D01*
X125497259Y-94090225D01*
X152714878Y-137149034D02*
X152762497Y-137196653D01*
X152810116Y-137339510D01*
X152810116Y-137434748D01*
X152762497Y-137577606D01*
X152667259Y-137672844D01*
X152572021Y-137720463D01*
X152381545Y-137768082D01*
X152238687Y-137768082D01*
X152048211Y-137720463D01*
X151952973Y-137672844D01*
X151857735Y-137577606D01*
X151810116Y-137434748D01*
X151810116Y-137339510D01*
X151857735Y-137196653D01*
X151905354Y-137149034D01*
X152810116Y-136196653D02*
X152810116Y-136768082D01*
X152810116Y-136482368D02*
X151810116Y-136482368D01*
X151952973Y-136577606D01*
X152048211Y-136672844D01*
X152095830Y-136768082D01*
X151810116Y-135291891D02*
X151810116Y-135768082D01*
X152286306Y-135815701D01*
X152238687Y-135768082D01*
X152191068Y-135672844D01*
X152191068Y-135434748D01*
X152238687Y-135339510D01*
X152286306Y-135291891D01*
X152381545Y-135244272D01*
X152619640Y-135244272D01*
X152714878Y-135291891D01*
X152762497Y-135339510D01*
X152810116Y-135434748D01*
X152810116Y-135672844D01*
X152762497Y-135768082D01*
X152714878Y-135815701D01*
X176884878Y-111134034D02*
X176932497Y-111181653D01*
X176980116Y-111324510D01*
X176980116Y-111419748D01*
X176932497Y-111562606D01*
X176837259Y-111657844D01*
X176742021Y-111705463D01*
X176551545Y-111753082D01*
X176408687Y-111753082D01*
X176218211Y-111705463D01*
X176122973Y-111657844D01*
X176027735Y-111562606D01*
X175980116Y-111419748D01*
X175980116Y-111324510D01*
X176027735Y-111181653D01*
X176075354Y-111134034D01*
X176980116Y-110181653D02*
X176980116Y-110753082D01*
X176980116Y-110467368D02*
X175980116Y-110467368D01*
X176122973Y-110562606D01*
X176218211Y-110657844D01*
X176265830Y-110753082D01*
X175980116Y-109324510D02*
X175980116Y-109514987D01*
X176027735Y-109610225D01*
X176075354Y-109657844D01*
X176218211Y-109753082D01*
X176408687Y-109800701D01*
X176789640Y-109800701D01*
X176884878Y-109753082D01*
X176932497Y-109705463D01*
X176980116Y-109610225D01*
X176980116Y-109419748D01*
X176932497Y-109324510D01*
X176884878Y-109276891D01*
X176789640Y-109229272D01*
X176551545Y-109229272D01*
X176456306Y-109276891D01*
X176408687Y-109324510D01*
X176361068Y-109419748D01*
X176361068Y-109610225D01*
X176408687Y-109705463D01*
X176456306Y-109753082D01*
X176551545Y-109800701D01*
X176884878Y-114309034D02*
X176932497Y-114356653D01*
X176980116Y-114499510D01*
X176980116Y-114594748D01*
X176932497Y-114737606D01*
X176837259Y-114832844D01*
X176742021Y-114880463D01*
X176551545Y-114928082D01*
X176408687Y-114928082D01*
X176218211Y-114880463D01*
X176122973Y-114832844D01*
X176027735Y-114737606D01*
X175980116Y-114594748D01*
X175980116Y-114499510D01*
X176027735Y-114356653D01*
X176075354Y-114309034D01*
X176980116Y-113356653D02*
X176980116Y-113928082D01*
X176980116Y-113642368D02*
X175980116Y-113642368D01*
X176122973Y-113737606D01*
X176218211Y-113832844D01*
X176265830Y-113928082D01*
X175980116Y-113023320D02*
X175980116Y-112356653D01*
X176980116Y-112785225D01*
X176924878Y-85734034D02*
X176972497Y-85781653D01*
X177020116Y-85924510D01*
X177020116Y-86019748D01*
X176972497Y-86162606D01*
X176877259Y-86257844D01*
X176782021Y-86305463D01*
X176591545Y-86353082D01*
X176448687Y-86353082D01*
X176258211Y-86305463D01*
X176162973Y-86257844D01*
X176067735Y-86162606D01*
X176020116Y-86019748D01*
X176020116Y-85924510D01*
X176067735Y-85781653D01*
X176115354Y-85734034D01*
X177020116Y-84781653D02*
X177020116Y-85353082D01*
X177020116Y-85067368D02*
X176020116Y-85067368D01*
X176162973Y-85162606D01*
X176258211Y-85257844D01*
X176305830Y-85353082D01*
X176448687Y-84210225D02*
X176401068Y-84305463D01*
X176353449Y-84353082D01*
X176258211Y-84400701D01*
X176210592Y-84400701D01*
X176115354Y-84353082D01*
X176067735Y-84305463D01*
X176020116Y-84210225D01*
X176020116Y-84019748D01*
X176067735Y-83924510D01*
X176115354Y-83876891D01*
X176210592Y-83829272D01*
X176258211Y-83829272D01*
X176353449Y-83876891D01*
X176401068Y-83924510D01*
X176448687Y-84019748D01*
X176448687Y-84210225D01*
X176496306Y-84305463D01*
X176543925Y-84353082D01*
X176639164Y-84400701D01*
X176829640Y-84400701D01*
X176924878Y-84353082D01*
X176972497Y-84305463D01*
X177020116Y-84210225D01*
X177020116Y-84019748D01*
X176972497Y-83924510D01*
X176924878Y-83876891D01*
X176829640Y-83829272D01*
X176639164Y-83829272D01*
X176543925Y-83876891D01*
X176496306Y-83924510D01*
X176448687Y-84019748D01*
X176884878Y-88909034D02*
X176932497Y-88956653D01*
X176980116Y-89099510D01*
X176980116Y-89194748D01*
X176932497Y-89337606D01*
X176837259Y-89432844D01*
X176742021Y-89480463D01*
X176551545Y-89528082D01*
X176408687Y-89528082D01*
X176218211Y-89480463D01*
X176122973Y-89432844D01*
X176027735Y-89337606D01*
X175980116Y-89194748D01*
X175980116Y-89099510D01*
X176027735Y-88956653D01*
X176075354Y-88909034D01*
X176980116Y-87956653D02*
X176980116Y-88528082D01*
X176980116Y-88242368D02*
X175980116Y-88242368D01*
X176122973Y-88337606D01*
X176218211Y-88432844D01*
X176265830Y-88528082D01*
X176980116Y-87480463D02*
X176980116Y-87289987D01*
X176932497Y-87194748D01*
X176884878Y-87147129D01*
X176742021Y-87051891D01*
X176551545Y-87004272D01*
X176170592Y-87004272D01*
X176075354Y-87051891D01*
X176027735Y-87099510D01*
X175980116Y-87194748D01*
X175980116Y-87385225D01*
X176027735Y-87480463D01*
X176075354Y-87528082D01*
X176170592Y-87575701D01*
X176408687Y-87575701D01*
X176503925Y-87528082D01*
X176551545Y-87480463D01*
X176599164Y-87385225D01*
X176599164Y-87194748D01*
X176551545Y-87099510D01*
X176503925Y-87051891D01*
X176408687Y-87004272D01*
X176884878Y-61604034D02*
X176932497Y-61651653D01*
X176980116Y-61794510D01*
X176980116Y-61889748D01*
X176932497Y-62032606D01*
X176837259Y-62127844D01*
X176742021Y-62175463D01*
X176551545Y-62223082D01*
X176408687Y-62223082D01*
X176218211Y-62175463D01*
X176122973Y-62127844D01*
X176027735Y-62032606D01*
X175980116Y-61889748D01*
X175980116Y-61794510D01*
X176027735Y-61651653D01*
X176075354Y-61604034D01*
X176075354Y-61223082D02*
X176027735Y-61175463D01*
X175980116Y-61080225D01*
X175980116Y-60842129D01*
X176027735Y-60746891D01*
X176075354Y-60699272D01*
X176170592Y-60651653D01*
X176265830Y-60651653D01*
X176408687Y-60699272D01*
X176980116Y-61270701D01*
X176980116Y-60651653D01*
X175980116Y-60032606D02*
X175980116Y-59937367D01*
X176027735Y-59842129D01*
X176075354Y-59794510D01*
X176170592Y-59746891D01*
X176361068Y-59699272D01*
X176599164Y-59699272D01*
X176789640Y-59746891D01*
X176884878Y-59794510D01*
X176932497Y-59842129D01*
X176980116Y-59937367D01*
X176980116Y-60032606D01*
X176932497Y-60127844D01*
X176884878Y-60175463D01*
X176789640Y-60223082D01*
X176599164Y-60270701D01*
X176361068Y-60270701D01*
X176170592Y-60223082D01*
X176075354Y-60175463D01*
X176027735Y-60127844D01*
X175980116Y-60032606D01*
X176884878Y-64779034D02*
X176932497Y-64826653D01*
X176980116Y-64969510D01*
X176980116Y-65064748D01*
X176932497Y-65207606D01*
X176837259Y-65302844D01*
X176742021Y-65350463D01*
X176551545Y-65398082D01*
X176408687Y-65398082D01*
X176218211Y-65350463D01*
X176122973Y-65302844D01*
X176027735Y-65207606D01*
X175980116Y-65064748D01*
X175980116Y-64969510D01*
X176027735Y-64826653D01*
X176075354Y-64779034D01*
X176075354Y-64398082D02*
X176027735Y-64350463D01*
X175980116Y-64255225D01*
X175980116Y-64017129D01*
X176027735Y-63921891D01*
X176075354Y-63874272D01*
X176170592Y-63826653D01*
X176265830Y-63826653D01*
X176408687Y-63874272D01*
X176980116Y-64445701D01*
X176980116Y-63826653D01*
X176980116Y-62874272D02*
X176980116Y-63445701D01*
X176980116Y-63159987D02*
X175980116Y-63159987D01*
X176122973Y-63255225D01*
X176218211Y-63350463D01*
X176265830Y-63445701D01*
X142134878Y-126088320D02*
X142087259Y-126135939D01*
X141944402Y-126183558D01*
X141849164Y-126183558D01*
X141706306Y-126135939D01*
X141611068Y-126040701D01*
X141563449Y-125945463D01*
X141515830Y-125754987D01*
X141515830Y-125612129D01*
X141563449Y-125421653D01*
X141611068Y-125326415D01*
X141706306Y-125231177D01*
X141849164Y-125183558D01*
X141944402Y-125183558D01*
X142087259Y-125231177D01*
X142134878Y-125278796D01*
X142515830Y-125278796D02*
X142563449Y-125231177D01*
X142658687Y-125183558D01*
X142896783Y-125183558D01*
X142992021Y-125231177D01*
X143039640Y-125278796D01*
X143087259Y-125374034D01*
X143087259Y-125469272D01*
X143039640Y-125612129D01*
X142468211Y-126183558D01*
X143087259Y-126183558D01*
X143468211Y-125278796D02*
X143515830Y-125231177D01*
X143611068Y-125183558D01*
X143849164Y-125183558D01*
X143944402Y-125231177D01*
X143992021Y-125278796D01*
X144039640Y-125374034D01*
X144039640Y-125469272D01*
X143992021Y-125612129D01*
X143420592Y-126183558D01*
X144039640Y-126183558D01*
X141864878Y-100698320D02*
X141817259Y-100745939D01*
X141674402Y-100793558D01*
X141579164Y-100793558D01*
X141436306Y-100745939D01*
X141341068Y-100650701D01*
X141293449Y-100555463D01*
X141245830Y-100364987D01*
X141245830Y-100222129D01*
X141293449Y-100031653D01*
X141341068Y-99936415D01*
X141436306Y-99841177D01*
X141579164Y-99793558D01*
X141674402Y-99793558D01*
X141817259Y-99841177D01*
X141864878Y-99888796D01*
X142245830Y-99888796D02*
X142293449Y-99841177D01*
X142388687Y-99793558D01*
X142626783Y-99793558D01*
X142722021Y-99841177D01*
X142769640Y-99888796D01*
X142817259Y-99984034D01*
X142817259Y-100079272D01*
X142769640Y-100222129D01*
X142198211Y-100793558D01*
X142817259Y-100793558D01*
X143150592Y-99793558D02*
X143769640Y-99793558D01*
X143436306Y-100174510D01*
X143579164Y-100174510D01*
X143674402Y-100222129D01*
X143722021Y-100269748D01*
X143769640Y-100364987D01*
X143769640Y-100603082D01*
X143722021Y-100698320D01*
X143674402Y-100745939D01*
X143579164Y-100793558D01*
X143293449Y-100793558D01*
X143198211Y-100745939D01*
X143150592Y-100698320D01*
X123544878Y-100688320D02*
X123497259Y-100735939D01*
X123354402Y-100783558D01*
X123259164Y-100783558D01*
X123116306Y-100735939D01*
X123021068Y-100640701D01*
X122973449Y-100545463D01*
X122925830Y-100354987D01*
X122925830Y-100212129D01*
X122973449Y-100021653D01*
X123021068Y-99926415D01*
X123116306Y-99831177D01*
X123259164Y-99783558D01*
X123354402Y-99783558D01*
X123497259Y-99831177D01*
X123544878Y-99878796D01*
X123925830Y-99878796D02*
X123973449Y-99831177D01*
X124068687Y-99783558D01*
X124306783Y-99783558D01*
X124402021Y-99831177D01*
X124449640Y-99878796D01*
X124497259Y-99974034D01*
X124497259Y-100069272D01*
X124449640Y-100212129D01*
X123878211Y-100783558D01*
X124497259Y-100783558D01*
X125354402Y-100116891D02*
X125354402Y-100783558D01*
X125116306Y-99735939D02*
X124878211Y-100450225D01*
X125497259Y-100450225D01*
X142229878Y-93703320D02*
X142182259Y-93750939D01*
X142039402Y-93798558D01*
X141944164Y-93798558D01*
X141801306Y-93750939D01*
X141706068Y-93655701D01*
X141658449Y-93560463D01*
X141610830Y-93369987D01*
X141610830Y-93227129D01*
X141658449Y-93036653D01*
X141706068Y-92941415D01*
X141801306Y-92846177D01*
X141944164Y-92798558D01*
X142039402Y-92798558D01*
X142182259Y-92846177D01*
X142229878Y-92893796D01*
X142610830Y-92893796D02*
X142658449Y-92846177D01*
X142753687Y-92798558D01*
X142991783Y-92798558D01*
X143087021Y-92846177D01*
X143134640Y-92893796D01*
X143182259Y-92989034D01*
X143182259Y-93084272D01*
X143134640Y-93227129D01*
X142563211Y-93798558D01*
X143182259Y-93798558D01*
X144087021Y-92798558D02*
X143610830Y-92798558D01*
X143563211Y-93274748D01*
X143610830Y-93227129D01*
X143706068Y-93179510D01*
X143944164Y-93179510D01*
X144039402Y-93227129D01*
X144087021Y-93274748D01*
X144134640Y-93369987D01*
X144134640Y-93608082D01*
X144087021Y-93703320D01*
X144039402Y-93750939D01*
X143944164Y-93798558D01*
X143706068Y-93798558D01*
X143610830Y-93750939D01*
X143563211Y-93703320D01*
X151754878Y-102561320D02*
X151707259Y-102608939D01*
X151564402Y-102656558D01*
X151469164Y-102656558D01*
X151326306Y-102608939D01*
X151231068Y-102513701D01*
X151183449Y-102418463D01*
X151135830Y-102227987D01*
X151135830Y-102085129D01*
X151183449Y-101894653D01*
X151231068Y-101799415D01*
X151326306Y-101704177D01*
X151469164Y-101656558D01*
X151564402Y-101656558D01*
X151707259Y-101704177D01*
X151754878Y-101751796D01*
X152135830Y-101751796D02*
X152183449Y-101704177D01*
X152278687Y-101656558D01*
X152516783Y-101656558D01*
X152612021Y-101704177D01*
X152659640Y-101751796D01*
X152707259Y-101847034D01*
X152707259Y-101942272D01*
X152659640Y-102085129D01*
X152088211Y-102656558D01*
X152707259Y-102656558D01*
X153564402Y-101656558D02*
X153373925Y-101656558D01*
X153278687Y-101704177D01*
X153231068Y-101751796D01*
X153135830Y-101894653D01*
X153088211Y-102085129D01*
X153088211Y-102466082D01*
X153135830Y-102561320D01*
X153183449Y-102608939D01*
X153278687Y-102656558D01*
X153469164Y-102656558D01*
X153564402Y-102608939D01*
X153612021Y-102561320D01*
X153659640Y-102466082D01*
X153659640Y-102227987D01*
X153612021Y-102132748D01*
X153564402Y-102085129D01*
X153469164Y-102037510D01*
X153278687Y-102037510D01*
X153183449Y-102085129D01*
X153135830Y-102132748D01*
X153088211Y-102227987D01*
X151754878Y-98910320D02*
X151707259Y-98957939D01*
X151564402Y-99005558D01*
X151469164Y-99005558D01*
X151326306Y-98957939D01*
X151231068Y-98862701D01*
X151183449Y-98767463D01*
X151135830Y-98576987D01*
X151135830Y-98434129D01*
X151183449Y-98243653D01*
X151231068Y-98148415D01*
X151326306Y-98053177D01*
X151469164Y-98005558D01*
X151564402Y-98005558D01*
X151707259Y-98053177D01*
X151754878Y-98100796D01*
X152135830Y-98100796D02*
X152183449Y-98053177D01*
X152278687Y-98005558D01*
X152516783Y-98005558D01*
X152612021Y-98053177D01*
X152659640Y-98100796D01*
X152707259Y-98196034D01*
X152707259Y-98291272D01*
X152659640Y-98434129D01*
X152088211Y-99005558D01*
X152707259Y-99005558D01*
X153040592Y-98005558D02*
X153707259Y-98005558D01*
X153278687Y-99005558D01*
X113654878Y-89861320D02*
X113607259Y-89908939D01*
X113464402Y-89956558D01*
X113369164Y-89956558D01*
X113226306Y-89908939D01*
X113131068Y-89813701D01*
X113083449Y-89718463D01*
X113035830Y-89527987D01*
X113035830Y-89385129D01*
X113083449Y-89194653D01*
X113131068Y-89099415D01*
X113226306Y-89004177D01*
X113369164Y-88956558D01*
X113464402Y-88956558D01*
X113607259Y-89004177D01*
X113654878Y-89051796D01*
X114035830Y-89051796D02*
X114083449Y-89004177D01*
X114178687Y-88956558D01*
X114416783Y-88956558D01*
X114512021Y-89004177D01*
X114559640Y-89051796D01*
X114607259Y-89147034D01*
X114607259Y-89242272D01*
X114559640Y-89385129D01*
X113988211Y-89956558D01*
X114607259Y-89956558D01*
X115178687Y-89385129D02*
X115083449Y-89337510D01*
X115035830Y-89289891D01*
X114988211Y-89194653D01*
X114988211Y-89147034D01*
X115035830Y-89051796D01*
X115083449Y-89004177D01*
X115178687Y-88956558D01*
X115369164Y-88956558D01*
X115464402Y-89004177D01*
X115512021Y-89051796D01*
X115559640Y-89147034D01*
X115559640Y-89194653D01*
X115512021Y-89289891D01*
X115464402Y-89337510D01*
X115369164Y-89385129D01*
X115178687Y-89385129D01*
X115083449Y-89432748D01*
X115035830Y-89480367D01*
X114988211Y-89575606D01*
X114988211Y-89766082D01*
X115035830Y-89861320D01*
X115083449Y-89908939D01*
X115178687Y-89956558D01*
X115369164Y-89956558D01*
X115464402Y-89908939D01*
X115512021Y-89861320D01*
X115559640Y-89766082D01*
X115559640Y-89575606D01*
X115512021Y-89480367D01*
X115464402Y-89432748D01*
X115369164Y-89385129D01*
X133958878Y-90179034D02*
X134006497Y-90226653D01*
X134054116Y-90369510D01*
X134054116Y-90464748D01*
X134006497Y-90607606D01*
X133911259Y-90702844D01*
X133816021Y-90750463D01*
X133625545Y-90798082D01*
X133482687Y-90798082D01*
X133292211Y-90750463D01*
X133196973Y-90702844D01*
X133101735Y-90607606D01*
X133054116Y-90464748D01*
X133054116Y-90369510D01*
X133101735Y-90226653D01*
X133149354Y-90179034D01*
X133149354Y-89798082D02*
X133101735Y-89750463D01*
X133054116Y-89655225D01*
X133054116Y-89417129D01*
X133101735Y-89321891D01*
X133149354Y-89274272D01*
X133244592Y-89226653D01*
X133339830Y-89226653D01*
X133482687Y-89274272D01*
X134054116Y-89845701D01*
X134054116Y-89226653D01*
X134054116Y-88750463D02*
X134054116Y-88559987D01*
X134006497Y-88464748D01*
X133958878Y-88417129D01*
X133816021Y-88321891D01*
X133625545Y-88274272D01*
X133244592Y-88274272D01*
X133149354Y-88321891D01*
X133101735Y-88369510D01*
X133054116Y-88464748D01*
X133054116Y-88655225D01*
X133101735Y-88750463D01*
X133149354Y-88798082D01*
X133244592Y-88845701D01*
X133482687Y-88845701D01*
X133577925Y-88798082D01*
X133625545Y-88750463D01*
X133673164Y-88655225D01*
X133673164Y-88464748D01*
X133625545Y-88369510D01*
X133577925Y-88321891D01*
X133482687Y-88274272D01*
X125783450Y-137779940D02*
X125735831Y-137827559D01*
X125592974Y-137875178D01*
X125497736Y-137875178D01*
X125354878Y-137827559D01*
X125259640Y-137732321D01*
X125212021Y-137637083D01*
X125164402Y-137446607D01*
X125164402Y-137303749D01*
X125212021Y-137113273D01*
X125259640Y-137018035D01*
X125354878Y-136922797D01*
X125497736Y-136875178D01*
X125592974Y-136875178D01*
X125735831Y-136922797D01*
X125783450Y-136970416D01*
X126402497Y-136875178D02*
X126592974Y-136875178D01*
X126688212Y-136922797D01*
X126783450Y-137018035D01*
X126831069Y-137208511D01*
X126831069Y-137541845D01*
X126783450Y-137732321D01*
X126688212Y-137827559D01*
X126592974Y-137875178D01*
X126402497Y-137875178D01*
X126307259Y-137827559D01*
X126212021Y-137732321D01*
X126164402Y-137541845D01*
X126164402Y-137208511D01*
X126212021Y-137018035D01*
X126307259Y-136922797D01*
X126402497Y-136875178D01*
X127259640Y-137875178D02*
X127259640Y-136875178D01*
X127831069Y-137875178D01*
X127831069Y-136875178D01*
X128831069Y-137875178D02*
X128259640Y-137875178D01*
X128545354Y-137875178D02*
X128545354Y-136875178D01*
X128450116Y-137018035D01*
X128354878Y-137113273D01*
X128259640Y-137160892D01*
X150307576Y-73637272D02*
X149307576Y-73637272D01*
X149307576Y-73399177D01*
X149355195Y-73256319D01*
X149450433Y-73161081D01*
X149545671Y-73113462D01*
X149736147Y-73065843D01*
X149879005Y-73065843D01*
X150069481Y-73113462D01*
X150164719Y-73161081D01*
X150259957Y-73256319D01*
X150307576Y-73399177D01*
X150307576Y-73637272D01*
X150307576Y-72113462D02*
X150307576Y-72684891D01*
X150307576Y-72399177D02*
X149307576Y-72399177D01*
X149450433Y-72494415D01*
X149545671Y-72589653D01*
X149593290Y-72684891D01*
X123002576Y-67922272D02*
X122002576Y-67922272D01*
X122002576Y-67684177D01*
X122050195Y-67541319D01*
X122145433Y-67446081D01*
X122240671Y-67398462D01*
X122431147Y-67350843D01*
X122574005Y-67350843D01*
X122764481Y-67398462D01*
X122859719Y-67446081D01*
X122954957Y-67541319D01*
X123002576Y-67684177D01*
X123002576Y-67922272D01*
X122097814Y-66969891D02*
X122050195Y-66922272D01*
X122002576Y-66827034D01*
X122002576Y-66588938D01*
X122050195Y-66493700D01*
X122097814Y-66446081D01*
X122193052Y-66398462D01*
X122288290Y-66398462D01*
X122431147Y-66446081D01*
X123002576Y-67017510D01*
X123002576Y-66398462D01*
X114750116Y-73891272D02*
X113750116Y-73891272D01*
X113750116Y-73653177D01*
X113797735Y-73510319D01*
X113892973Y-73415081D01*
X113988211Y-73367462D01*
X114178687Y-73319843D01*
X114321545Y-73319843D01*
X114512021Y-73367462D01*
X114607259Y-73415081D01*
X114702497Y-73510319D01*
X114750116Y-73653177D01*
X114750116Y-73891272D01*
X113750116Y-72986510D02*
X113750116Y-72367462D01*
X114131068Y-72700796D01*
X114131068Y-72557938D01*
X114178687Y-72462700D01*
X114226306Y-72415081D01*
X114321545Y-72367462D01*
X114559640Y-72367462D01*
X114654878Y-72415081D01*
X114702497Y-72462700D01*
X114750116Y-72557938D01*
X114750116Y-72843653D01*
X114702497Y-72938891D01*
X114654878Y-72986510D01*
X68268116Y-126977272D02*
X67268116Y-126977272D01*
X67268116Y-126739177D01*
X67315735Y-126596319D01*
X67410973Y-126501081D01*
X67506211Y-126453462D01*
X67696687Y-126405843D01*
X67839545Y-126405843D01*
X68030021Y-126453462D01*
X68125259Y-126501081D01*
X68220497Y-126596319D01*
X68268116Y-126739177D01*
X68268116Y-126977272D01*
X67601449Y-125548700D02*
X68268116Y-125548700D01*
X67220497Y-125786796D02*
X67934783Y-126024891D01*
X67934783Y-125405843D01*
X66109116Y-129930082D02*
X65109116Y-129930082D01*
X66109116Y-129358653D02*
X65537687Y-129787225D01*
X65109116Y-129358653D02*
X65680545Y-129930082D01*
X60140116Y-126977272D02*
X59140116Y-126977272D01*
X59140116Y-126739177D01*
X59187735Y-126596319D01*
X59282973Y-126501081D01*
X59378211Y-126453462D01*
X59568687Y-126405843D01*
X59711545Y-126405843D01*
X59902021Y-126453462D01*
X59997259Y-126501081D01*
X60092497Y-126596319D01*
X60140116Y-126739177D01*
X60140116Y-126977272D01*
X59140116Y-125501081D02*
X59140116Y-125977272D01*
X59616306Y-126024891D01*
X59568687Y-125977272D01*
X59521068Y-125882034D01*
X59521068Y-125643938D01*
X59568687Y-125548700D01*
X59616306Y-125501081D01*
X59711545Y-125453462D01*
X59949640Y-125453462D01*
X60044878Y-125501081D01*
X60092497Y-125548700D01*
X60140116Y-125643938D01*
X60140116Y-125882034D01*
X60092497Y-125977272D01*
X60044878Y-126024891D01*
X57981116Y-129930082D02*
X56981116Y-129930082D01*
X57981116Y-129358653D02*
X57409687Y-129787225D01*
X56981116Y-129358653D02*
X57552545Y-129930082D01*
X68268116Y-101577272D02*
X67268116Y-101577272D01*
X67268116Y-101339177D01*
X67315735Y-101196319D01*
X67410973Y-101101081D01*
X67506211Y-101053462D01*
X67696687Y-101005843D01*
X67839545Y-101005843D01*
X68030021Y-101053462D01*
X68125259Y-101101081D01*
X68220497Y-101196319D01*
X68268116Y-101339177D01*
X68268116Y-101577272D01*
X67268116Y-100148700D02*
X67268116Y-100339177D01*
X67315735Y-100434415D01*
X67363354Y-100482034D01*
X67506211Y-100577272D01*
X67696687Y-100624891D01*
X68077640Y-100624891D01*
X68172878Y-100577272D01*
X68220497Y-100529653D01*
X68268116Y-100434415D01*
X68268116Y-100243938D01*
X68220497Y-100148700D01*
X68172878Y-100101081D01*
X68077640Y-100053462D01*
X67839545Y-100053462D01*
X67744306Y-100101081D01*
X67696687Y-100148700D01*
X67649068Y-100243938D01*
X67649068Y-100434415D01*
X67696687Y-100529653D01*
X67744306Y-100577272D01*
X67839545Y-100624891D01*
X66109116Y-104530082D02*
X65109116Y-104530082D01*
X66109116Y-103958653D02*
X65537687Y-104387225D01*
X65109116Y-103958653D02*
X65680545Y-104530082D01*
X60140116Y-101577272D02*
X59140116Y-101577272D01*
X59140116Y-101339177D01*
X59187735Y-101196319D01*
X59282973Y-101101081D01*
X59378211Y-101053462D01*
X59568687Y-101005843D01*
X59711545Y-101005843D01*
X59902021Y-101053462D01*
X59997259Y-101101081D01*
X60092497Y-101196319D01*
X60140116Y-101339177D01*
X60140116Y-101577272D01*
X59140116Y-100672510D02*
X59140116Y-100005843D01*
X60140116Y-100434415D01*
X57981116Y-104530082D02*
X56981116Y-104530082D01*
X57981116Y-103958653D02*
X57409687Y-104387225D01*
X56981116Y-103958653D02*
X57552545Y-104530082D01*
X68268116Y-76177272D02*
X67268116Y-76177272D01*
X67268116Y-75939177D01*
X67315735Y-75796319D01*
X67410973Y-75701081D01*
X67506211Y-75653462D01*
X67696687Y-75605843D01*
X67839545Y-75605843D01*
X68030021Y-75653462D01*
X68125259Y-75701081D01*
X68220497Y-75796319D01*
X68268116Y-75939177D01*
X68268116Y-76177272D01*
X67696687Y-75034415D02*
X67649068Y-75129653D01*
X67601449Y-75177272D01*
X67506211Y-75224891D01*
X67458592Y-75224891D01*
X67363354Y-75177272D01*
X67315735Y-75129653D01*
X67268116Y-75034415D01*
X67268116Y-74843938D01*
X67315735Y-74748700D01*
X67363354Y-74701081D01*
X67458592Y-74653462D01*
X67506211Y-74653462D01*
X67601449Y-74701081D01*
X67649068Y-74748700D01*
X67696687Y-74843938D01*
X67696687Y-75034415D01*
X67744306Y-75129653D01*
X67791925Y-75177272D01*
X67887164Y-75224891D01*
X68077640Y-75224891D01*
X68172878Y-75177272D01*
X68220497Y-75129653D01*
X68268116Y-75034415D01*
X68268116Y-74843938D01*
X68220497Y-74748700D01*
X68172878Y-74701081D01*
X68077640Y-74653462D01*
X67887164Y-74653462D01*
X67791925Y-74701081D01*
X67744306Y-74748700D01*
X67696687Y-74843938D01*
X66109116Y-79130082D02*
X65109116Y-79130082D01*
X66109116Y-78558653D02*
X65537687Y-78987225D01*
X65109116Y-78558653D02*
X65680545Y-79130082D01*
X60140116Y-76177272D02*
X59140116Y-76177272D01*
X59140116Y-75939177D01*
X59187735Y-75796319D01*
X59282973Y-75701081D01*
X59378211Y-75653462D01*
X59568687Y-75605843D01*
X59711545Y-75605843D01*
X59902021Y-75653462D01*
X59997259Y-75701081D01*
X60092497Y-75796319D01*
X60140116Y-75939177D01*
X60140116Y-76177272D01*
X60140116Y-75129653D02*
X60140116Y-74939177D01*
X60092497Y-74843938D01*
X60044878Y-74796319D01*
X59902021Y-74701081D01*
X59711545Y-74653462D01*
X59330592Y-74653462D01*
X59235354Y-74701081D01*
X59187735Y-74748700D01*
X59140116Y-74843938D01*
X59140116Y-75034415D01*
X59187735Y-75129653D01*
X59235354Y-75177272D01*
X59330592Y-75224891D01*
X59568687Y-75224891D01*
X59663925Y-75177272D01*
X59711545Y-75129653D01*
X59759164Y-75034415D01*
X59759164Y-74843938D01*
X59711545Y-74748700D01*
X59663925Y-74701081D01*
X59568687Y-74653462D01*
X57981116Y-79130082D02*
X56981116Y-79130082D01*
X57981116Y-78558653D02*
X57409687Y-78987225D01*
X56981116Y-78558653D02*
X57552545Y-79130082D01*
X68268116Y-118817463D02*
X67268116Y-118817463D01*
X67268116Y-118579368D01*
X67315735Y-118436510D01*
X67410973Y-118341272D01*
X67506211Y-118293653D01*
X67696687Y-118246034D01*
X67839545Y-118246034D01*
X68030021Y-118293653D01*
X68125259Y-118341272D01*
X68220497Y-118436510D01*
X68268116Y-118579368D01*
X68268116Y-118817463D01*
X68268116Y-117293653D02*
X68268116Y-117865082D01*
X68268116Y-117579368D02*
X67268116Y-117579368D01*
X67410973Y-117674606D01*
X67506211Y-117769844D01*
X67553830Y-117865082D01*
X67268116Y-116674606D02*
X67268116Y-116579367D01*
X67315735Y-116484129D01*
X67363354Y-116436510D01*
X67458592Y-116388891D01*
X67649068Y-116341272D01*
X67887164Y-116341272D01*
X68077640Y-116388891D01*
X68172878Y-116436510D01*
X68220497Y-116484129D01*
X68268116Y-116579367D01*
X68268116Y-116674606D01*
X68220497Y-116769844D01*
X68172878Y-116817463D01*
X68077640Y-116865082D01*
X67887164Y-116912701D01*
X67649068Y-116912701D01*
X67458592Y-116865082D01*
X67363354Y-116817463D01*
X67315735Y-116769844D01*
X67268116Y-116674606D01*
X66109116Y-121294082D02*
X65109116Y-121294082D01*
X66109116Y-120722653D02*
X65537687Y-121151225D01*
X65109116Y-120722653D02*
X65680545Y-121294082D01*
X60140116Y-118817463D02*
X59140116Y-118817463D01*
X59140116Y-118579368D01*
X59187735Y-118436510D01*
X59282973Y-118341272D01*
X59378211Y-118293653D01*
X59568687Y-118246034D01*
X59711545Y-118246034D01*
X59902021Y-118293653D01*
X59997259Y-118341272D01*
X60092497Y-118436510D01*
X60140116Y-118579368D01*
X60140116Y-118817463D01*
X60140116Y-117293653D02*
X60140116Y-117865082D01*
X60140116Y-117579368D02*
X59140116Y-117579368D01*
X59282973Y-117674606D01*
X59378211Y-117769844D01*
X59425830Y-117865082D01*
X60140116Y-116341272D02*
X60140116Y-116912701D01*
X60140116Y-116626987D02*
X59140116Y-116626987D01*
X59282973Y-116722225D01*
X59378211Y-116817463D01*
X59425830Y-116912701D01*
X57981116Y-121294082D02*
X56981116Y-121294082D01*
X57981116Y-120722653D02*
X57409687Y-121151225D01*
X56981116Y-120722653D02*
X57552545Y-121294082D01*
X68268116Y-93417463D02*
X67268116Y-93417463D01*
X67268116Y-93179368D01*
X67315735Y-93036510D01*
X67410973Y-92941272D01*
X67506211Y-92893653D01*
X67696687Y-92846034D01*
X67839545Y-92846034D01*
X68030021Y-92893653D01*
X68125259Y-92941272D01*
X68220497Y-93036510D01*
X68268116Y-93179368D01*
X68268116Y-93417463D01*
X68268116Y-91893653D02*
X68268116Y-92465082D01*
X68268116Y-92179368D02*
X67268116Y-92179368D01*
X67410973Y-92274606D01*
X67506211Y-92369844D01*
X67553830Y-92465082D01*
X67363354Y-91512701D02*
X67315735Y-91465082D01*
X67268116Y-91369844D01*
X67268116Y-91131748D01*
X67315735Y-91036510D01*
X67363354Y-90988891D01*
X67458592Y-90941272D01*
X67553830Y-90941272D01*
X67696687Y-90988891D01*
X68268116Y-91560320D01*
X68268116Y-90941272D01*
X66109116Y-95894082D02*
X65109116Y-95894082D01*
X66109116Y-95322653D02*
X65537687Y-95751225D01*
X65109116Y-95322653D02*
X65680545Y-95894082D01*
X60140116Y-93417463D02*
X59140116Y-93417463D01*
X59140116Y-93179368D01*
X59187735Y-93036510D01*
X59282973Y-92941272D01*
X59378211Y-92893653D01*
X59568687Y-92846034D01*
X59711545Y-92846034D01*
X59902021Y-92893653D01*
X59997259Y-92941272D01*
X60092497Y-93036510D01*
X60140116Y-93179368D01*
X60140116Y-93417463D01*
X60140116Y-91893653D02*
X60140116Y-92465082D01*
X60140116Y-92179368D02*
X59140116Y-92179368D01*
X59282973Y-92274606D01*
X59378211Y-92369844D01*
X59425830Y-92465082D01*
X59140116Y-91560320D02*
X59140116Y-90941272D01*
X59521068Y-91274606D01*
X59521068Y-91131748D01*
X59568687Y-91036510D01*
X59616306Y-90988891D01*
X59711545Y-90941272D01*
X59949640Y-90941272D01*
X60044878Y-90988891D01*
X60092497Y-91036510D01*
X60140116Y-91131748D01*
X60140116Y-91417463D01*
X60092497Y-91512701D01*
X60044878Y-91560320D01*
X57981116Y-95894082D02*
X56981116Y-95894082D01*
X57981116Y-95322653D02*
X57409687Y-95751225D01*
X56981116Y-95322653D02*
X57552545Y-95894082D01*
X68268116Y-68017463D02*
X67268116Y-68017463D01*
X67268116Y-67779368D01*
X67315735Y-67636510D01*
X67410973Y-67541272D01*
X67506211Y-67493653D01*
X67696687Y-67446034D01*
X67839545Y-67446034D01*
X68030021Y-67493653D01*
X68125259Y-67541272D01*
X68220497Y-67636510D01*
X68268116Y-67779368D01*
X68268116Y-68017463D01*
X68268116Y-66493653D02*
X68268116Y-67065082D01*
X68268116Y-66779368D02*
X67268116Y-66779368D01*
X67410973Y-66874606D01*
X67506211Y-66969844D01*
X67553830Y-67065082D01*
X67601449Y-65636510D02*
X68268116Y-65636510D01*
X67220497Y-65874606D02*
X67934783Y-66112701D01*
X67934783Y-65493653D01*
X66109116Y-70494082D02*
X65109116Y-70494082D01*
X66109116Y-69922653D02*
X65537687Y-70351225D01*
X65109116Y-69922653D02*
X65680545Y-70494082D01*
X60140116Y-68017463D02*
X59140116Y-68017463D01*
X59140116Y-67779368D01*
X59187735Y-67636510D01*
X59282973Y-67541272D01*
X59378211Y-67493653D01*
X59568687Y-67446034D01*
X59711545Y-67446034D01*
X59902021Y-67493653D01*
X59997259Y-67541272D01*
X60092497Y-67636510D01*
X60140116Y-67779368D01*
X60140116Y-68017463D01*
X60140116Y-66493653D02*
X60140116Y-67065082D01*
X60140116Y-66779368D02*
X59140116Y-66779368D01*
X59282973Y-66874606D01*
X59378211Y-66969844D01*
X59425830Y-67065082D01*
X59140116Y-65588891D02*
X59140116Y-66065082D01*
X59616306Y-66112701D01*
X59568687Y-66065082D01*
X59521068Y-65969844D01*
X59521068Y-65731748D01*
X59568687Y-65636510D01*
X59616306Y-65588891D01*
X59711545Y-65541272D01*
X59949640Y-65541272D01*
X60044878Y-65588891D01*
X60092497Y-65636510D01*
X60140116Y-65731748D01*
X60140116Y-65969844D01*
X60092497Y-66065082D01*
X60044878Y-66112701D01*
X57981116Y-70494082D02*
X56981116Y-70494082D01*
X57981116Y-69922653D02*
X57409687Y-70351225D01*
X56981116Y-69922653D02*
X57552545Y-70494082D01*
X152847576Y-117293463D02*
X151847576Y-117293463D01*
X151847576Y-117055368D01*
X151895195Y-116912510D01*
X151990433Y-116817272D01*
X152085671Y-116769653D01*
X152276147Y-116722034D01*
X152419005Y-116722034D01*
X152609481Y-116769653D01*
X152704719Y-116817272D01*
X152799957Y-116912510D01*
X152847576Y-117055368D01*
X152847576Y-117293463D01*
X152847576Y-115769653D02*
X152847576Y-116341082D01*
X152847576Y-116055368D02*
X151847576Y-116055368D01*
X151990433Y-116150606D01*
X152085671Y-116245844D01*
X152133290Y-116341082D01*
X151847576Y-114912510D02*
X151847576Y-115102987D01*
X151895195Y-115198225D01*
X151942814Y-115245844D01*
X152085671Y-115341082D01*
X152276147Y-115388701D01*
X152657100Y-115388701D01*
X152752338Y-115341082D01*
X152799957Y-115293463D01*
X152847576Y-115198225D01*
X152847576Y-115007748D01*
X152799957Y-114912510D01*
X152752338Y-114864891D01*
X152657100Y-114817272D01*
X152419005Y-114817272D01*
X152323766Y-114864891D01*
X152276147Y-114912510D01*
X152228528Y-115007748D01*
X152228528Y-115198225D01*
X152276147Y-115293463D01*
X152323766Y-115341082D01*
X152419005Y-115388701D01*
X147770116Y-100783463D02*
X146770116Y-100783463D01*
X146770116Y-100545368D01*
X146817735Y-100402510D01*
X146912973Y-100307272D01*
X147008211Y-100259653D01*
X147198687Y-100212034D01*
X147341545Y-100212034D01*
X147532021Y-100259653D01*
X147627259Y-100307272D01*
X147722497Y-100402510D01*
X147770116Y-100545368D01*
X147770116Y-100783463D01*
X147770116Y-99259653D02*
X147770116Y-99831082D01*
X147770116Y-99545368D02*
X146770116Y-99545368D01*
X146912973Y-99640606D01*
X147008211Y-99735844D01*
X147055830Y-99831082D01*
X146770116Y-98926320D02*
X146770116Y-98259653D01*
X147770116Y-98688225D01*
X120084116Y-100783463D02*
X119084116Y-100783463D01*
X119084116Y-100545368D01*
X119131735Y-100402510D01*
X119226973Y-100307272D01*
X119322211Y-100259653D01*
X119512687Y-100212034D01*
X119655545Y-100212034D01*
X119846021Y-100259653D01*
X119941259Y-100307272D01*
X120036497Y-100402510D01*
X120084116Y-100545368D01*
X120084116Y-100783463D01*
X120084116Y-99259653D02*
X120084116Y-99831082D01*
X120084116Y-99545368D02*
X119084116Y-99545368D01*
X119226973Y-99640606D01*
X119322211Y-99735844D01*
X119369830Y-99831082D01*
X119512687Y-98688225D02*
X119465068Y-98783463D01*
X119417449Y-98831082D01*
X119322211Y-98878701D01*
X119274592Y-98878701D01*
X119179354Y-98831082D01*
X119131735Y-98783463D01*
X119084116Y-98688225D01*
X119084116Y-98497748D01*
X119131735Y-98402510D01*
X119179354Y-98354891D01*
X119274592Y-98307272D01*
X119322211Y-98307272D01*
X119417449Y-98354891D01*
X119465068Y-98402510D01*
X119512687Y-98497748D01*
X119512687Y-98688225D01*
X119560306Y-98783463D01*
X119607925Y-98831082D01*
X119703164Y-98878701D01*
X119893640Y-98878701D01*
X119988878Y-98831082D01*
X120036497Y-98783463D01*
X120084116Y-98688225D01*
X120084116Y-98497748D01*
X120036497Y-98402510D01*
X119988878Y-98354891D01*
X119893640Y-98307272D01*
X119703164Y-98307272D01*
X119607925Y-98354891D01*
X119560306Y-98402510D01*
X119512687Y-98497748D01*
X205428116Y-127453463D02*
X204428116Y-127453463D01*
X204428116Y-127215368D01*
X204475735Y-127072510D01*
X204570973Y-126977272D01*
X204666211Y-126929653D01*
X204856687Y-126882034D01*
X204999545Y-126882034D01*
X205190021Y-126929653D01*
X205285259Y-126977272D01*
X205380497Y-127072510D01*
X205428116Y-127215368D01*
X205428116Y-127453463D01*
X205428116Y-125929653D02*
X205428116Y-126501082D01*
X205428116Y-126215368D02*
X204428116Y-126215368D01*
X204570973Y-126310606D01*
X204666211Y-126405844D01*
X204713830Y-126501082D01*
X205428116Y-125453463D02*
X205428116Y-125262987D01*
X205380497Y-125167748D01*
X205332878Y-125120129D01*
X205190021Y-125024891D01*
X204999545Y-124977272D01*
X204618592Y-124977272D01*
X204523354Y-125024891D01*
X204475735Y-125072510D01*
X204428116Y-125167748D01*
X204428116Y-125358225D01*
X204475735Y-125453463D01*
X204523354Y-125501082D01*
X204618592Y-125548701D01*
X204856687Y-125548701D01*
X204951925Y-125501082D01*
X204999545Y-125453463D01*
X205047164Y-125358225D01*
X205047164Y-125167748D01*
X204999545Y-125072510D01*
X204951925Y-125024891D01*
X204856687Y-124977272D01*
X203269116Y-129930082D02*
X202269116Y-129930082D01*
X203269116Y-129358653D02*
X202697687Y-129787225D01*
X202269116Y-129358653D02*
X202840545Y-129930082D01*
X213556116Y-127453463D02*
X212556116Y-127453463D01*
X212556116Y-127215368D01*
X212603735Y-127072510D01*
X212698973Y-126977272D01*
X212794211Y-126929653D01*
X212984687Y-126882034D01*
X213127545Y-126882034D01*
X213318021Y-126929653D01*
X213413259Y-126977272D01*
X213508497Y-127072510D01*
X213556116Y-127215368D01*
X213556116Y-127453463D01*
X212651354Y-126501082D02*
X212603735Y-126453463D01*
X212556116Y-126358225D01*
X212556116Y-126120129D01*
X212603735Y-126024891D01*
X212651354Y-125977272D01*
X212746592Y-125929653D01*
X212841830Y-125929653D01*
X212984687Y-125977272D01*
X213556116Y-126548701D01*
X213556116Y-125929653D01*
X212556116Y-125310606D02*
X212556116Y-125215367D01*
X212603735Y-125120129D01*
X212651354Y-125072510D01*
X212746592Y-125024891D01*
X212937068Y-124977272D01*
X213175164Y-124977272D01*
X213365640Y-125024891D01*
X213460878Y-125072510D01*
X213508497Y-125120129D01*
X213556116Y-125215367D01*
X213556116Y-125310606D01*
X213508497Y-125405844D01*
X213460878Y-125453463D01*
X213365640Y-125501082D01*
X213175164Y-125548701D01*
X212937068Y-125548701D01*
X212746592Y-125501082D01*
X212651354Y-125453463D01*
X212603735Y-125405844D01*
X212556116Y-125310606D01*
X211397116Y-129930082D02*
X210397116Y-129930082D01*
X211397116Y-129358653D02*
X210825687Y-129787225D01*
X210397116Y-129358653D02*
X210968545Y-129930082D01*
X213556116Y-102053463D02*
X212556116Y-102053463D01*
X212556116Y-101815368D01*
X212603735Y-101672510D01*
X212698973Y-101577272D01*
X212794211Y-101529653D01*
X212984687Y-101482034D01*
X213127545Y-101482034D01*
X213318021Y-101529653D01*
X213413259Y-101577272D01*
X213508497Y-101672510D01*
X213556116Y-101815368D01*
X213556116Y-102053463D01*
X212651354Y-101101082D02*
X212603735Y-101053463D01*
X212556116Y-100958225D01*
X212556116Y-100720129D01*
X212603735Y-100624891D01*
X212651354Y-100577272D01*
X212746592Y-100529653D01*
X212841830Y-100529653D01*
X212984687Y-100577272D01*
X213556116Y-101148701D01*
X213556116Y-100529653D01*
X213556116Y-99577272D02*
X213556116Y-100148701D01*
X213556116Y-99862987D02*
X212556116Y-99862987D01*
X212698973Y-99958225D01*
X212794211Y-100053463D01*
X212841830Y-100148701D01*
X211397116Y-104530082D02*
X210397116Y-104530082D01*
X211397116Y-103958653D02*
X210825687Y-104387225D01*
X210397116Y-103958653D02*
X210968545Y-104530082D01*
X205428116Y-102053463D02*
X204428116Y-102053463D01*
X204428116Y-101815368D01*
X204475735Y-101672510D01*
X204570973Y-101577272D01*
X204666211Y-101529653D01*
X204856687Y-101482034D01*
X204999545Y-101482034D01*
X205190021Y-101529653D01*
X205285259Y-101577272D01*
X205380497Y-101672510D01*
X205428116Y-101815368D01*
X205428116Y-102053463D01*
X204523354Y-101101082D02*
X204475735Y-101053463D01*
X204428116Y-100958225D01*
X204428116Y-100720129D01*
X204475735Y-100624891D01*
X204523354Y-100577272D01*
X204618592Y-100529653D01*
X204713830Y-100529653D01*
X204856687Y-100577272D01*
X205428116Y-101148701D01*
X205428116Y-100529653D01*
X204523354Y-100148701D02*
X204475735Y-100101082D01*
X204428116Y-100005844D01*
X204428116Y-99767748D01*
X204475735Y-99672510D01*
X204523354Y-99624891D01*
X204618592Y-99577272D01*
X204713830Y-99577272D01*
X204856687Y-99624891D01*
X205428116Y-100196320D01*
X205428116Y-99577272D01*
X203269116Y-104530082D02*
X202269116Y-104530082D01*
X203269116Y-103958653D02*
X202697687Y-104387225D01*
X202269116Y-103958653D02*
X202840545Y-104530082D01*
X205428116Y-76653463D02*
X204428116Y-76653463D01*
X204428116Y-76415368D01*
X204475735Y-76272510D01*
X204570973Y-76177272D01*
X204666211Y-76129653D01*
X204856687Y-76082034D01*
X204999545Y-76082034D01*
X205190021Y-76129653D01*
X205285259Y-76177272D01*
X205380497Y-76272510D01*
X205428116Y-76415368D01*
X205428116Y-76653463D01*
X204523354Y-75701082D02*
X204475735Y-75653463D01*
X204428116Y-75558225D01*
X204428116Y-75320129D01*
X204475735Y-75224891D01*
X204523354Y-75177272D01*
X204618592Y-75129653D01*
X204713830Y-75129653D01*
X204856687Y-75177272D01*
X205428116Y-75748701D01*
X205428116Y-75129653D01*
X204428116Y-74796320D02*
X204428116Y-74177272D01*
X204809068Y-74510606D01*
X204809068Y-74367748D01*
X204856687Y-74272510D01*
X204904306Y-74224891D01*
X204999545Y-74177272D01*
X205237640Y-74177272D01*
X205332878Y-74224891D01*
X205380497Y-74272510D01*
X205428116Y-74367748D01*
X205428116Y-74653463D01*
X205380497Y-74748701D01*
X205332878Y-74796320D01*
X203269116Y-79130082D02*
X202269116Y-79130082D01*
X203269116Y-78558653D02*
X202697687Y-78987225D01*
X202269116Y-78558653D02*
X202840545Y-79130082D01*
X213556116Y-76653463D02*
X212556116Y-76653463D01*
X212556116Y-76415368D01*
X212603735Y-76272510D01*
X212698973Y-76177272D01*
X212794211Y-76129653D01*
X212984687Y-76082034D01*
X213127545Y-76082034D01*
X213318021Y-76129653D01*
X213413259Y-76177272D01*
X213508497Y-76272510D01*
X213556116Y-76415368D01*
X213556116Y-76653463D01*
X212651354Y-75701082D02*
X212603735Y-75653463D01*
X212556116Y-75558225D01*
X212556116Y-75320129D01*
X212603735Y-75224891D01*
X212651354Y-75177272D01*
X212746592Y-75129653D01*
X212841830Y-75129653D01*
X212984687Y-75177272D01*
X213556116Y-75748701D01*
X213556116Y-75129653D01*
X212889449Y-74272510D02*
X213556116Y-74272510D01*
X212508497Y-74510606D02*
X213222783Y-74748701D01*
X213222783Y-74129653D01*
X211397116Y-79130082D02*
X210397116Y-79130082D01*
X211397116Y-78558653D02*
X210825687Y-78987225D01*
X210397116Y-78558653D02*
X210968545Y-79130082D01*
X205428116Y-118817463D02*
X204428116Y-118817463D01*
X204428116Y-118579368D01*
X204475735Y-118436510D01*
X204570973Y-118341272D01*
X204666211Y-118293653D01*
X204856687Y-118246034D01*
X204999545Y-118246034D01*
X205190021Y-118293653D01*
X205285259Y-118341272D01*
X205380497Y-118436510D01*
X205428116Y-118579368D01*
X205428116Y-118817463D01*
X204523354Y-117865082D02*
X204475735Y-117817463D01*
X204428116Y-117722225D01*
X204428116Y-117484129D01*
X204475735Y-117388891D01*
X204523354Y-117341272D01*
X204618592Y-117293653D01*
X204713830Y-117293653D01*
X204856687Y-117341272D01*
X205428116Y-117912701D01*
X205428116Y-117293653D01*
X204428116Y-116388891D02*
X204428116Y-116865082D01*
X204904306Y-116912701D01*
X204856687Y-116865082D01*
X204809068Y-116769844D01*
X204809068Y-116531748D01*
X204856687Y-116436510D01*
X204904306Y-116388891D01*
X204999545Y-116341272D01*
X205237640Y-116341272D01*
X205332878Y-116388891D01*
X205380497Y-116436510D01*
X205428116Y-116531748D01*
X205428116Y-116769844D01*
X205380497Y-116865082D01*
X205332878Y-116912701D01*
X203269116Y-121294082D02*
X202269116Y-121294082D01*
X203269116Y-120722653D02*
X202697687Y-121151225D01*
X202269116Y-120722653D02*
X202840545Y-121294082D01*
X213556116Y-118817463D02*
X212556116Y-118817463D01*
X212556116Y-118579368D01*
X212603735Y-118436510D01*
X212698973Y-118341272D01*
X212794211Y-118293653D01*
X212984687Y-118246034D01*
X213127545Y-118246034D01*
X213318021Y-118293653D01*
X213413259Y-118341272D01*
X213508497Y-118436510D01*
X213556116Y-118579368D01*
X213556116Y-118817463D01*
X212651354Y-117865082D02*
X212603735Y-117817463D01*
X212556116Y-117722225D01*
X212556116Y-117484129D01*
X212603735Y-117388891D01*
X212651354Y-117341272D01*
X212746592Y-117293653D01*
X212841830Y-117293653D01*
X212984687Y-117341272D01*
X213556116Y-117912701D01*
X213556116Y-117293653D01*
X212556116Y-116436510D02*
X212556116Y-116626987D01*
X212603735Y-116722225D01*
X212651354Y-116769844D01*
X212794211Y-116865082D01*
X212984687Y-116912701D01*
X213365640Y-116912701D01*
X213460878Y-116865082D01*
X213508497Y-116817463D01*
X213556116Y-116722225D01*
X213556116Y-116531748D01*
X213508497Y-116436510D01*
X213460878Y-116388891D01*
X213365640Y-116341272D01*
X213127545Y-116341272D01*
X213032306Y-116388891D01*
X212984687Y-116436510D01*
X212937068Y-116531748D01*
X212937068Y-116722225D01*
X212984687Y-116817463D01*
X213032306Y-116865082D01*
X213127545Y-116912701D01*
X211397116Y-121294082D02*
X210397116Y-121294082D01*
X211397116Y-120722653D02*
X210825687Y-121151225D01*
X210397116Y-120722653D02*
X210968545Y-121294082D01*
X213556116Y-93417463D02*
X212556116Y-93417463D01*
X212556116Y-93179368D01*
X212603735Y-93036510D01*
X212698973Y-92941272D01*
X212794211Y-92893653D01*
X212984687Y-92846034D01*
X213127545Y-92846034D01*
X213318021Y-92893653D01*
X213413259Y-92941272D01*
X213508497Y-93036510D01*
X213556116Y-93179368D01*
X213556116Y-93417463D01*
X212651354Y-92465082D02*
X212603735Y-92417463D01*
X212556116Y-92322225D01*
X212556116Y-92084129D01*
X212603735Y-91988891D01*
X212651354Y-91941272D01*
X212746592Y-91893653D01*
X212841830Y-91893653D01*
X212984687Y-91941272D01*
X213556116Y-92512701D01*
X213556116Y-91893653D01*
X212556116Y-91560320D02*
X212556116Y-90893653D01*
X213556116Y-91322225D01*
X211397116Y-95894082D02*
X210397116Y-95894082D01*
X211397116Y-95322653D02*
X210825687Y-95751225D01*
X210397116Y-95322653D02*
X210968545Y-95894082D01*
X205428116Y-93417463D02*
X204428116Y-93417463D01*
X204428116Y-93179368D01*
X204475735Y-93036510D01*
X204570973Y-92941272D01*
X204666211Y-92893653D01*
X204856687Y-92846034D01*
X204999545Y-92846034D01*
X205190021Y-92893653D01*
X205285259Y-92941272D01*
X205380497Y-93036510D01*
X205428116Y-93179368D01*
X205428116Y-93417463D01*
X204523354Y-92465082D02*
X204475735Y-92417463D01*
X204428116Y-92322225D01*
X204428116Y-92084129D01*
X204475735Y-91988891D01*
X204523354Y-91941272D01*
X204618592Y-91893653D01*
X204713830Y-91893653D01*
X204856687Y-91941272D01*
X205428116Y-92512701D01*
X205428116Y-91893653D01*
X204856687Y-91322225D02*
X204809068Y-91417463D01*
X204761449Y-91465082D01*
X204666211Y-91512701D01*
X204618592Y-91512701D01*
X204523354Y-91465082D01*
X204475735Y-91417463D01*
X204428116Y-91322225D01*
X204428116Y-91131748D01*
X204475735Y-91036510D01*
X204523354Y-90988891D01*
X204618592Y-90941272D01*
X204666211Y-90941272D01*
X204761449Y-90988891D01*
X204809068Y-91036510D01*
X204856687Y-91131748D01*
X204856687Y-91322225D01*
X204904306Y-91417463D01*
X204951925Y-91465082D01*
X205047164Y-91512701D01*
X205237640Y-91512701D01*
X205332878Y-91465082D01*
X205380497Y-91417463D01*
X205428116Y-91322225D01*
X205428116Y-91131748D01*
X205380497Y-91036510D01*
X205332878Y-90988891D01*
X205237640Y-90941272D01*
X205047164Y-90941272D01*
X204951925Y-90988891D01*
X204904306Y-91036510D01*
X204856687Y-91131748D01*
X203269116Y-95894082D02*
X202269116Y-95894082D01*
X203269116Y-95322653D02*
X202697687Y-95751225D01*
X202269116Y-95322653D02*
X202840545Y-95894082D01*
X205428116Y-68017463D02*
X204428116Y-68017463D01*
X204428116Y-67779368D01*
X204475735Y-67636510D01*
X204570973Y-67541272D01*
X204666211Y-67493653D01*
X204856687Y-67446034D01*
X204999545Y-67446034D01*
X205190021Y-67493653D01*
X205285259Y-67541272D01*
X205380497Y-67636510D01*
X205428116Y-67779368D01*
X205428116Y-68017463D01*
X204523354Y-67065082D02*
X204475735Y-67017463D01*
X204428116Y-66922225D01*
X204428116Y-66684129D01*
X204475735Y-66588891D01*
X204523354Y-66541272D01*
X204618592Y-66493653D01*
X204713830Y-66493653D01*
X204856687Y-66541272D01*
X205428116Y-67112701D01*
X205428116Y-66493653D01*
X205428116Y-66017463D02*
X205428116Y-65826987D01*
X205380497Y-65731748D01*
X205332878Y-65684129D01*
X205190021Y-65588891D01*
X204999545Y-65541272D01*
X204618592Y-65541272D01*
X204523354Y-65588891D01*
X204475735Y-65636510D01*
X204428116Y-65731748D01*
X204428116Y-65922225D01*
X204475735Y-66017463D01*
X204523354Y-66065082D01*
X204618592Y-66112701D01*
X204856687Y-66112701D01*
X204951925Y-66065082D01*
X204999545Y-66017463D01*
X205047164Y-65922225D01*
X205047164Y-65731748D01*
X204999545Y-65636510D01*
X204951925Y-65588891D01*
X204856687Y-65541272D01*
X203269116Y-70494082D02*
X202269116Y-70494082D01*
X203269116Y-69922653D02*
X202697687Y-70351225D01*
X202269116Y-69922653D02*
X202840545Y-70494082D01*
X213556116Y-68017463D02*
X212556116Y-68017463D01*
X212556116Y-67779368D01*
X212603735Y-67636510D01*
X212698973Y-67541272D01*
X212794211Y-67493653D01*
X212984687Y-67446034D01*
X213127545Y-67446034D01*
X213318021Y-67493653D01*
X213413259Y-67541272D01*
X213508497Y-67636510D01*
X213556116Y-67779368D01*
X213556116Y-68017463D01*
X212556116Y-67112701D02*
X212556116Y-66493653D01*
X212937068Y-66826987D01*
X212937068Y-66684129D01*
X212984687Y-66588891D01*
X213032306Y-66541272D01*
X213127545Y-66493653D01*
X213365640Y-66493653D01*
X213460878Y-66541272D01*
X213508497Y-66588891D01*
X213556116Y-66684129D01*
X213556116Y-66969844D01*
X213508497Y-67065082D01*
X213460878Y-67112701D01*
X212556116Y-65874606D02*
X212556116Y-65779367D01*
X212603735Y-65684129D01*
X212651354Y-65636510D01*
X212746592Y-65588891D01*
X212937068Y-65541272D01*
X213175164Y-65541272D01*
X213365640Y-65588891D01*
X213460878Y-65636510D01*
X213508497Y-65684129D01*
X213556116Y-65779367D01*
X213556116Y-65874606D01*
X213508497Y-65969844D01*
X213460878Y-66017463D01*
X213365640Y-66065082D01*
X213175164Y-66112701D01*
X212937068Y-66112701D01*
X212746592Y-66065082D01*
X212651354Y-66017463D01*
X212603735Y-65969844D01*
X212556116Y-65874606D01*
X211397116Y-70494082D02*
X210397116Y-70494082D01*
X211397116Y-69922653D02*
X210825687Y-70351225D01*
X210397116Y-69922653D02*
X210968545Y-70494082D01*
X136650116Y-147804510D02*
X137364402Y-147804510D01*
X137507259Y-147852130D01*
X137602497Y-147947368D01*
X137650116Y-148090225D01*
X137650116Y-148185463D01*
X137650116Y-146804510D02*
X137650116Y-147375939D01*
X137650116Y-147090225D02*
X136650116Y-147090225D01*
X136792973Y-147185463D01*
X136888211Y-147280701D01*
X136935830Y-147375939D01*
X80547497Y-121293796D02*
X80452259Y-121246177D01*
X80357021Y-121150939D01*
X80214164Y-121008082D01*
X80118925Y-120960463D01*
X80023687Y-120960463D01*
X80071306Y-121198558D02*
X79976068Y-121150939D01*
X79880830Y-121055701D01*
X79833211Y-120865225D01*
X79833211Y-120531891D01*
X79880830Y-120341415D01*
X79976068Y-120246177D01*
X80071306Y-120198558D01*
X80261783Y-120198558D01*
X80357021Y-120246177D01*
X80452259Y-120341415D01*
X80499878Y-120531891D01*
X80499878Y-120865225D01*
X80452259Y-121055701D01*
X80357021Y-121150939D01*
X80261783Y-121198558D01*
X80071306Y-121198558D01*
X81452259Y-121198558D02*
X80880830Y-121198558D01*
X81166544Y-121198558D02*
X81166544Y-120198558D01*
X81071306Y-120341415D01*
X80976068Y-120436653D01*
X80880830Y-120484272D01*
X80547497Y-95893796D02*
X80452259Y-95846177D01*
X80357021Y-95750939D01*
X80214164Y-95608082D01*
X80118925Y-95560463D01*
X80023687Y-95560463D01*
X80071306Y-95798558D02*
X79976068Y-95750939D01*
X79880830Y-95655701D01*
X79833211Y-95465225D01*
X79833211Y-95131891D01*
X79880830Y-94941415D01*
X79976068Y-94846177D01*
X80071306Y-94798558D01*
X80261783Y-94798558D01*
X80357021Y-94846177D01*
X80452259Y-94941415D01*
X80499878Y-95131891D01*
X80499878Y-95465225D01*
X80452259Y-95655701D01*
X80357021Y-95750939D01*
X80261783Y-95798558D01*
X80071306Y-95798558D01*
X80880830Y-94893796D02*
X80928449Y-94846177D01*
X81023687Y-94798558D01*
X81261783Y-94798558D01*
X81357021Y-94846177D01*
X81404640Y-94893796D01*
X81452259Y-94989034D01*
X81452259Y-95084272D01*
X81404640Y-95227129D01*
X80833211Y-95798558D01*
X81452259Y-95798558D01*
X80547497Y-69223796D02*
X80452259Y-69176177D01*
X80357021Y-69080939D01*
X80214164Y-68938082D01*
X80118925Y-68890463D01*
X80023687Y-68890463D01*
X80071306Y-69128558D02*
X79976068Y-69080939D01*
X79880830Y-68985701D01*
X79833211Y-68795225D01*
X79833211Y-68461891D01*
X79880830Y-68271415D01*
X79976068Y-68176177D01*
X80071306Y-68128558D01*
X80261783Y-68128558D01*
X80357021Y-68176177D01*
X80452259Y-68271415D01*
X80499878Y-68461891D01*
X80499878Y-68795225D01*
X80452259Y-68985701D01*
X80357021Y-69080939D01*
X80261783Y-69128558D01*
X80071306Y-69128558D01*
X80833211Y-68128558D02*
X81452259Y-68128558D01*
X81118925Y-68509510D01*
X81261783Y-68509510D01*
X81357021Y-68557129D01*
X81404640Y-68604748D01*
X81452259Y-68699987D01*
X81452259Y-68938082D01*
X81404640Y-69033320D01*
X81357021Y-69080939D01*
X81261783Y-69128558D01*
X80976068Y-69128558D01*
X80880830Y-69080939D01*
X80833211Y-69033320D01*
X184687497Y-121293796D02*
X184592259Y-121246177D01*
X184497021Y-121150939D01*
X184354164Y-121008082D01*
X184258925Y-120960463D01*
X184163687Y-120960463D01*
X184211306Y-121198558D02*
X184116068Y-121150939D01*
X184020830Y-121055701D01*
X183973211Y-120865225D01*
X183973211Y-120531891D01*
X184020830Y-120341415D01*
X184116068Y-120246177D01*
X184211306Y-120198558D01*
X184401783Y-120198558D01*
X184497021Y-120246177D01*
X184592259Y-120341415D01*
X184639878Y-120531891D01*
X184639878Y-120865225D01*
X184592259Y-121055701D01*
X184497021Y-121150939D01*
X184401783Y-121198558D01*
X184211306Y-121198558D01*
X185497021Y-120531891D02*
X185497021Y-121198558D01*
X185258925Y-120150939D02*
X185020830Y-120865225D01*
X185639878Y-120865225D01*
X184687497Y-95893796D02*
X184592259Y-95846177D01*
X184497021Y-95750939D01*
X184354164Y-95608082D01*
X184258925Y-95560463D01*
X184163687Y-95560463D01*
X184211306Y-95798558D02*
X184116068Y-95750939D01*
X184020830Y-95655701D01*
X183973211Y-95465225D01*
X183973211Y-95131891D01*
X184020830Y-94941415D01*
X184116068Y-94846177D01*
X184211306Y-94798558D01*
X184401783Y-94798558D01*
X184497021Y-94846177D01*
X184592259Y-94941415D01*
X184639878Y-95131891D01*
X184639878Y-95465225D01*
X184592259Y-95655701D01*
X184497021Y-95750939D01*
X184401783Y-95798558D01*
X184211306Y-95798558D01*
X185544640Y-94798558D02*
X185068449Y-94798558D01*
X185020830Y-95274748D01*
X185068449Y-95227129D01*
X185163687Y-95179510D01*
X185401783Y-95179510D01*
X185497021Y-95227129D01*
X185544640Y-95274748D01*
X185592259Y-95369987D01*
X185592259Y-95608082D01*
X185544640Y-95703320D01*
X185497021Y-95750939D01*
X185401783Y-95798558D01*
X185163687Y-95798558D01*
X185068449Y-95750939D01*
X185020830Y-95703320D01*
X184687497Y-70493796D02*
X184592259Y-70446177D01*
X184497021Y-70350939D01*
X184354164Y-70208082D01*
X184258925Y-70160463D01*
X184163687Y-70160463D01*
X184211306Y-70398558D02*
X184116068Y-70350939D01*
X184020830Y-70255701D01*
X183973211Y-70065225D01*
X183973211Y-69731891D01*
X184020830Y-69541415D01*
X184116068Y-69446177D01*
X184211306Y-69398558D01*
X184401783Y-69398558D01*
X184497021Y-69446177D01*
X184592259Y-69541415D01*
X184639878Y-69731891D01*
X184639878Y-70065225D01*
X184592259Y-70255701D01*
X184497021Y-70350939D01*
X184401783Y-70398558D01*
X184211306Y-70398558D01*
X185497021Y-69398558D02*
X185306544Y-69398558D01*
X185211306Y-69446177D01*
X185163687Y-69493796D01*
X185068449Y-69636653D01*
X185020830Y-69827129D01*
X185020830Y-70208082D01*
X185068449Y-70303320D01*
X185116068Y-70350939D01*
X185211306Y-70398558D01*
X185401783Y-70398558D01*
X185497021Y-70350939D01*
X185544640Y-70303320D01*
X185592259Y-70208082D01*
X185592259Y-69969987D01*
X185544640Y-69874748D01*
X185497021Y-69827129D01*
X185401783Y-69779510D01*
X185211306Y-69779510D01*
X185116068Y-69827129D01*
X185068449Y-69874748D01*
X185020830Y-69969987D01*
X93811069Y-126945558D02*
X93477735Y-126469367D01*
X93239640Y-126945558D02*
X93239640Y-125945558D01*
X93620593Y-125945558D01*
X93715831Y-125993177D01*
X93763450Y-126040796D01*
X93811069Y-126136034D01*
X93811069Y-126278891D01*
X93763450Y-126374129D01*
X93715831Y-126421748D01*
X93620593Y-126469367D01*
X93239640Y-126469367D01*
X94763450Y-126945558D02*
X94192021Y-126945558D01*
X94477735Y-126945558D02*
X94477735Y-125945558D01*
X94382497Y-126088415D01*
X94287259Y-126183653D01*
X94192021Y-126231272D01*
X93811069Y-101545558D02*
X93477735Y-101069367D01*
X93239640Y-101545558D02*
X93239640Y-100545558D01*
X93620593Y-100545558D01*
X93715831Y-100593177D01*
X93763450Y-100640796D01*
X93811069Y-100736034D01*
X93811069Y-100878891D01*
X93763450Y-100974129D01*
X93715831Y-101021748D01*
X93620593Y-101069367D01*
X93239640Y-101069367D01*
X94192021Y-100640796D02*
X94239640Y-100593177D01*
X94334878Y-100545558D01*
X94572974Y-100545558D01*
X94668212Y-100593177D01*
X94715831Y-100640796D01*
X94763450Y-100736034D01*
X94763450Y-100831272D01*
X94715831Y-100974129D01*
X94144402Y-101545558D01*
X94763450Y-101545558D01*
X93811069Y-77415558D02*
X93477735Y-76939367D01*
X93239640Y-77415558D02*
X93239640Y-76415558D01*
X93620593Y-76415558D01*
X93715831Y-76463177D01*
X93763450Y-76510796D01*
X93811069Y-76606034D01*
X93811069Y-76748891D01*
X93763450Y-76844129D01*
X93715831Y-76891748D01*
X93620593Y-76939367D01*
X93239640Y-76939367D01*
X94144402Y-76415558D02*
X94763450Y-76415558D01*
X94430116Y-76796510D01*
X94572974Y-76796510D01*
X94668212Y-76844129D01*
X94715831Y-76891748D01*
X94763450Y-76986987D01*
X94763450Y-77225082D01*
X94715831Y-77320320D01*
X94668212Y-77367939D01*
X94572974Y-77415558D01*
X94287259Y-77415558D01*
X94192021Y-77367939D01*
X94144402Y-77320320D01*
X90001069Y-126945558D02*
X89667735Y-126469367D01*
X89429640Y-126945558D02*
X89429640Y-125945558D01*
X89810593Y-125945558D01*
X89905831Y-125993177D01*
X89953450Y-126040796D01*
X90001069Y-126136034D01*
X90001069Y-126278891D01*
X89953450Y-126374129D01*
X89905831Y-126421748D01*
X89810593Y-126469367D01*
X89429640Y-126469367D01*
X90858212Y-126278891D02*
X90858212Y-126945558D01*
X90620116Y-125897939D02*
X90382021Y-126612225D01*
X91001069Y-126612225D01*
X90001069Y-101545558D02*
X89667735Y-101069367D01*
X89429640Y-101545558D02*
X89429640Y-100545558D01*
X89810593Y-100545558D01*
X89905831Y-100593177D01*
X89953450Y-100640796D01*
X90001069Y-100736034D01*
X90001069Y-100878891D01*
X89953450Y-100974129D01*
X89905831Y-101021748D01*
X89810593Y-101069367D01*
X89429640Y-101069367D01*
X90905831Y-100545558D02*
X90429640Y-100545558D01*
X90382021Y-101021748D01*
X90429640Y-100974129D01*
X90524878Y-100926510D01*
X90762974Y-100926510D01*
X90858212Y-100974129D01*
X90905831Y-101021748D01*
X90953450Y-101116987D01*
X90953450Y-101355082D01*
X90905831Y-101450320D01*
X90858212Y-101497939D01*
X90762974Y-101545558D01*
X90524878Y-101545558D01*
X90429640Y-101497939D01*
X90382021Y-101450320D01*
X90001069Y-77415558D02*
X89667735Y-76939367D01*
X89429640Y-77415558D02*
X89429640Y-76415558D01*
X89810593Y-76415558D01*
X89905831Y-76463177D01*
X89953450Y-76510796D01*
X90001069Y-76606034D01*
X90001069Y-76748891D01*
X89953450Y-76844129D01*
X89905831Y-76891748D01*
X89810593Y-76939367D01*
X89429640Y-76939367D01*
X90858212Y-76415558D02*
X90667735Y-76415558D01*
X90572497Y-76463177D01*
X90524878Y-76510796D01*
X90429640Y-76653653D01*
X90382021Y-76844129D01*
X90382021Y-77225082D01*
X90429640Y-77320320D01*
X90477259Y-77367939D01*
X90572497Y-77415558D01*
X90762974Y-77415558D01*
X90858212Y-77367939D01*
X90905831Y-77320320D01*
X90953450Y-77225082D01*
X90953450Y-76986987D01*
X90905831Y-76891748D01*
X90858212Y-76844129D01*
X90762974Y-76796510D01*
X90572497Y-76796510D01*
X90477259Y-76844129D01*
X90429640Y-76891748D01*
X90382021Y-76986987D01*
X104717116Y-113832843D02*
X104240925Y-114166177D01*
X104717116Y-114404272D02*
X103717116Y-114404272D01*
X103717116Y-114023319D01*
X103764735Y-113928081D01*
X103812354Y-113880462D01*
X103907592Y-113832843D01*
X104050449Y-113832843D01*
X104145687Y-113880462D01*
X104193306Y-113928081D01*
X104240925Y-114023319D01*
X104240925Y-114404272D01*
X103717116Y-113499510D02*
X103717116Y-112832843D01*
X104717116Y-113261415D01*
X104717116Y-88305843D02*
X104240925Y-88639177D01*
X104717116Y-88877272D02*
X103717116Y-88877272D01*
X103717116Y-88496319D01*
X103764735Y-88401081D01*
X103812354Y-88353462D01*
X103907592Y-88305843D01*
X104050449Y-88305843D01*
X104145687Y-88353462D01*
X104193306Y-88401081D01*
X104240925Y-88496319D01*
X104240925Y-88877272D01*
X104145687Y-87734415D02*
X104098068Y-87829653D01*
X104050449Y-87877272D01*
X103955211Y-87924891D01*
X103907592Y-87924891D01*
X103812354Y-87877272D01*
X103764735Y-87829653D01*
X103717116Y-87734415D01*
X103717116Y-87543938D01*
X103764735Y-87448700D01*
X103812354Y-87401081D01*
X103907592Y-87353462D01*
X103955211Y-87353462D01*
X104050449Y-87401081D01*
X104098068Y-87448700D01*
X104145687Y-87543938D01*
X104145687Y-87734415D01*
X104193306Y-87829653D01*
X104240925Y-87877272D01*
X104336164Y-87924891D01*
X104526640Y-87924891D01*
X104621878Y-87877272D01*
X104669497Y-87829653D01*
X104717116Y-87734415D01*
X104717116Y-87543938D01*
X104669497Y-87448700D01*
X104621878Y-87401081D01*
X104526640Y-87353462D01*
X104336164Y-87353462D01*
X104240925Y-87401081D01*
X104193306Y-87448700D01*
X104145687Y-87543938D01*
X104590116Y-63032843D02*
X104113925Y-63366177D01*
X104590116Y-63604272D02*
X103590116Y-63604272D01*
X103590116Y-63223319D01*
X103637735Y-63128081D01*
X103685354Y-63080462D01*
X103780592Y-63032843D01*
X103923449Y-63032843D01*
X104018687Y-63080462D01*
X104066306Y-63128081D01*
X104113925Y-63223319D01*
X104113925Y-63604272D01*
X104590116Y-62556653D02*
X104590116Y-62366177D01*
X104542497Y-62270938D01*
X104494878Y-62223319D01*
X104352021Y-62128081D01*
X104161545Y-62080462D01*
X103780592Y-62080462D01*
X103685354Y-62128081D01*
X103637735Y-62175700D01*
X103590116Y-62270938D01*
X103590116Y-62461415D01*
X103637735Y-62556653D01*
X103685354Y-62604272D01*
X103780592Y-62651891D01*
X104018687Y-62651891D01*
X104113925Y-62604272D01*
X104161545Y-62556653D01*
X104209164Y-62461415D01*
X104209164Y-62270938D01*
X104161545Y-62175700D01*
X104113925Y-62128081D01*
X104018687Y-62080462D01*
X146039878Y-75891558D02*
X145706544Y-75415367D01*
X145468449Y-75891558D02*
X145468449Y-74891558D01*
X145849402Y-74891558D01*
X145944640Y-74939177D01*
X145992259Y-74986796D01*
X146039878Y-75082034D01*
X146039878Y-75224891D01*
X145992259Y-75320129D01*
X145944640Y-75367748D01*
X145849402Y-75415367D01*
X145468449Y-75415367D01*
X146992259Y-75891558D02*
X146420830Y-75891558D01*
X146706544Y-75891558D02*
X146706544Y-74891558D01*
X146611306Y-75034415D01*
X146516068Y-75129653D01*
X146420830Y-75177272D01*
X147611306Y-74891558D02*
X147706545Y-74891558D01*
X147801783Y-74939177D01*
X147849402Y-74986796D01*
X147897021Y-75082034D01*
X147944640Y-75272510D01*
X147944640Y-75510606D01*
X147897021Y-75701082D01*
X147849402Y-75796320D01*
X147801783Y-75843939D01*
X147706545Y-75891558D01*
X147611306Y-75891558D01*
X147516068Y-75843939D01*
X147468449Y-75796320D01*
X147420830Y-75701082D01*
X147373211Y-75510606D01*
X147373211Y-75272510D01*
X147420830Y-75082034D01*
X147468449Y-74986796D01*
X147516068Y-74939177D01*
X147611306Y-74891558D01*
X120004878Y-87448558D02*
X119671544Y-86972367D01*
X119433449Y-87448558D02*
X119433449Y-86448558D01*
X119814402Y-86448558D01*
X119909640Y-86496177D01*
X119957259Y-86543796D01*
X120004878Y-86639034D01*
X120004878Y-86781891D01*
X119957259Y-86877129D01*
X119909640Y-86924748D01*
X119814402Y-86972367D01*
X119433449Y-86972367D01*
X120957259Y-87448558D02*
X120385830Y-87448558D01*
X120671544Y-87448558D02*
X120671544Y-86448558D01*
X120576306Y-86591415D01*
X120481068Y-86686653D01*
X120385830Y-86734272D01*
X121909640Y-87448558D02*
X121338211Y-87448558D01*
X121623925Y-87448558D02*
X121623925Y-86448558D01*
X121528687Y-86591415D01*
X121433449Y-86686653D01*
X121338211Y-86734272D01*
X109670116Y-73034034D02*
X109193925Y-73367368D01*
X109670116Y-73605463D02*
X108670116Y-73605463D01*
X108670116Y-73224510D01*
X108717735Y-73129272D01*
X108765354Y-73081653D01*
X108860592Y-73034034D01*
X109003449Y-73034034D01*
X109098687Y-73081653D01*
X109146306Y-73129272D01*
X109193925Y-73224510D01*
X109193925Y-73605463D01*
X109670116Y-72081653D02*
X109670116Y-72653082D01*
X109670116Y-72367368D02*
X108670116Y-72367368D01*
X108812973Y-72462606D01*
X108908211Y-72557844D01*
X108955830Y-72653082D01*
X108765354Y-71700701D02*
X108717735Y-71653082D01*
X108670116Y-71557844D01*
X108670116Y-71319748D01*
X108717735Y-71224510D01*
X108765354Y-71176891D01*
X108860592Y-71129272D01*
X108955830Y-71129272D01*
X109098687Y-71176891D01*
X109670116Y-71748320D01*
X109670116Y-71129272D01*
X130625116Y-132724034D02*
X130148925Y-133057368D01*
X130625116Y-133295463D02*
X129625116Y-133295463D01*
X129625116Y-132914510D01*
X129672735Y-132819272D01*
X129720354Y-132771653D01*
X129815592Y-132724034D01*
X129958449Y-132724034D01*
X130053687Y-132771653D01*
X130101306Y-132819272D01*
X130148925Y-132914510D01*
X130148925Y-133295463D01*
X130625116Y-131771653D02*
X130625116Y-132343082D01*
X130625116Y-132057368D02*
X129625116Y-132057368D01*
X129767973Y-132152606D01*
X129863211Y-132247844D01*
X129910830Y-132343082D01*
X129625116Y-131438320D02*
X129625116Y-130819272D01*
X130006068Y-131152606D01*
X130006068Y-131009748D01*
X130053687Y-130914510D01*
X130101306Y-130866891D01*
X130196545Y-130819272D01*
X130434640Y-130819272D01*
X130529878Y-130866891D01*
X130577497Y-130914510D01*
X130625116Y-131009748D01*
X130625116Y-131295463D01*
X130577497Y-131390701D01*
X130529878Y-131438320D01*
X153024878Y-77415558D02*
X152691544Y-76939367D01*
X152453449Y-77415558D02*
X152453449Y-76415558D01*
X152834402Y-76415558D01*
X152929640Y-76463177D01*
X152977259Y-76510796D01*
X153024878Y-76606034D01*
X153024878Y-76748891D01*
X152977259Y-76844129D01*
X152929640Y-76891748D01*
X152834402Y-76939367D01*
X152453449Y-76939367D01*
X153977259Y-77415558D02*
X153405830Y-77415558D01*
X153691544Y-77415558D02*
X153691544Y-76415558D01*
X153596306Y-76558415D01*
X153501068Y-76653653D01*
X153405830Y-76701272D01*
X154834402Y-76748891D02*
X154834402Y-77415558D01*
X154596306Y-76367939D02*
X154358211Y-77082225D01*
X154977259Y-77082225D01*
X118099878Y-71700558D02*
X117766544Y-71224367D01*
X117528449Y-71700558D02*
X117528449Y-70700558D01*
X117909402Y-70700558D01*
X118004640Y-70748177D01*
X118052259Y-70795796D01*
X118099878Y-70891034D01*
X118099878Y-71033891D01*
X118052259Y-71129129D01*
X118004640Y-71176748D01*
X117909402Y-71224367D01*
X117528449Y-71224367D01*
X119052259Y-71700558D02*
X118480830Y-71700558D01*
X118766544Y-71700558D02*
X118766544Y-70700558D01*
X118671306Y-70843415D01*
X118576068Y-70938653D01*
X118480830Y-70986272D01*
X119957021Y-70700558D02*
X119480830Y-70700558D01*
X119433211Y-71176748D01*
X119480830Y-71129129D01*
X119576068Y-71081510D01*
X119814164Y-71081510D01*
X119909402Y-71129129D01*
X119957021Y-71176748D01*
X120004640Y-71271987D01*
X120004640Y-71510082D01*
X119957021Y-71605320D01*
X119909402Y-71652939D01*
X119814164Y-71700558D01*
X119576068Y-71700558D01*
X119480830Y-71652939D01*
X119433211Y-71605320D01*
X107304878Y-86940558D02*
X106971544Y-86464367D01*
X106733449Y-86940558D02*
X106733449Y-85940558D01*
X107114402Y-85940558D01*
X107209640Y-85988177D01*
X107257259Y-86035796D01*
X107304878Y-86131034D01*
X107304878Y-86273891D01*
X107257259Y-86369129D01*
X107209640Y-86416748D01*
X107114402Y-86464367D01*
X106733449Y-86464367D01*
X108257259Y-86940558D02*
X107685830Y-86940558D01*
X107971544Y-86940558D02*
X107971544Y-85940558D01*
X107876306Y-86083415D01*
X107781068Y-86178653D01*
X107685830Y-86226272D01*
X109114402Y-85940558D02*
X108923925Y-85940558D01*
X108828687Y-85988177D01*
X108781068Y-86035796D01*
X108685830Y-86178653D01*
X108638211Y-86369129D01*
X108638211Y-86750082D01*
X108685830Y-86845320D01*
X108733449Y-86892939D01*
X108828687Y-86940558D01*
X109019164Y-86940558D01*
X109114402Y-86892939D01*
X109162021Y-86845320D01*
X109209640Y-86750082D01*
X109209640Y-86511987D01*
X109162021Y-86416748D01*
X109114402Y-86369129D01*
X109019164Y-86321510D01*
X108828687Y-86321510D01*
X108733449Y-86369129D01*
X108685830Y-86416748D01*
X108638211Y-86511987D01*
X130625116Y-129549034D02*
X130148925Y-129882368D01*
X130625116Y-130120463D02*
X129625116Y-130120463D01*
X129625116Y-129739510D01*
X129672735Y-129644272D01*
X129720354Y-129596653D01*
X129815592Y-129549034D01*
X129958449Y-129549034D01*
X130053687Y-129596653D01*
X130101306Y-129644272D01*
X130148925Y-129739510D01*
X130148925Y-130120463D01*
X130625116Y-128596653D02*
X130625116Y-129168082D01*
X130625116Y-128882368D02*
X129625116Y-128882368D01*
X129767973Y-128977606D01*
X129863211Y-129072844D01*
X129910830Y-129168082D01*
X129625116Y-128263320D02*
X129625116Y-127596653D01*
X130625116Y-128025225D01*
X76824878Y-130120558D02*
X76491544Y-129644367D01*
X76253449Y-130120558D02*
X76253449Y-129120558D01*
X76634402Y-129120558D01*
X76729640Y-129168177D01*
X76777259Y-129215796D01*
X76824878Y-129311034D01*
X76824878Y-129453891D01*
X76777259Y-129549129D01*
X76729640Y-129596748D01*
X76634402Y-129644367D01*
X76253449Y-129644367D01*
X77777259Y-130120558D02*
X77205830Y-130120558D01*
X77491544Y-130120558D02*
X77491544Y-129120558D01*
X77396306Y-129263415D01*
X77301068Y-129358653D01*
X77205830Y-129406272D01*
X78348687Y-129549129D02*
X78253449Y-129501510D01*
X78205830Y-129453891D01*
X78158211Y-129358653D01*
X78158211Y-129311034D01*
X78205830Y-129215796D01*
X78253449Y-129168177D01*
X78348687Y-129120558D01*
X78539164Y-129120558D01*
X78634402Y-129168177D01*
X78682021Y-129215796D01*
X78729640Y-129311034D01*
X78729640Y-129358653D01*
X78682021Y-129453891D01*
X78634402Y-129501510D01*
X78539164Y-129549129D01*
X78348687Y-129549129D01*
X78253449Y-129596748D01*
X78205830Y-129644367D01*
X78158211Y-129739606D01*
X78158211Y-129930082D01*
X78205830Y-130025320D01*
X78253449Y-130072939D01*
X78348687Y-130120558D01*
X78539164Y-130120558D01*
X78634402Y-130072939D01*
X78682021Y-130025320D01*
X78729640Y-129930082D01*
X78729640Y-129739606D01*
X78682021Y-129644367D01*
X78634402Y-129596748D01*
X78539164Y-129549129D01*
X76824878Y-122881558D02*
X76491544Y-122405367D01*
X76253449Y-122881558D02*
X76253449Y-121881558D01*
X76634402Y-121881558D01*
X76729640Y-121929177D01*
X76777259Y-121976796D01*
X76824878Y-122072034D01*
X76824878Y-122214891D01*
X76777259Y-122310129D01*
X76729640Y-122357748D01*
X76634402Y-122405367D01*
X76253449Y-122405367D01*
X77777259Y-122881558D02*
X77205830Y-122881558D01*
X77491544Y-122881558D02*
X77491544Y-121881558D01*
X77396306Y-122024415D01*
X77301068Y-122119653D01*
X77205830Y-122167272D01*
X78253449Y-122881558D02*
X78443925Y-122881558D01*
X78539164Y-122833939D01*
X78586783Y-122786320D01*
X78682021Y-122643463D01*
X78729640Y-122452987D01*
X78729640Y-122072034D01*
X78682021Y-121976796D01*
X78634402Y-121929177D01*
X78539164Y-121881558D01*
X78348687Y-121881558D01*
X78253449Y-121929177D01*
X78205830Y-121976796D01*
X78158211Y-122072034D01*
X78158211Y-122310129D01*
X78205830Y-122405367D01*
X78253449Y-122452987D01*
X78348687Y-122500606D01*
X78539164Y-122500606D01*
X78634402Y-122452987D01*
X78682021Y-122405367D01*
X78729640Y-122310129D01*
X76951878Y-104720558D02*
X76618544Y-104244367D01*
X76380449Y-104720558D02*
X76380449Y-103720558D01*
X76761402Y-103720558D01*
X76856640Y-103768177D01*
X76904259Y-103815796D01*
X76951878Y-103911034D01*
X76951878Y-104053891D01*
X76904259Y-104149129D01*
X76856640Y-104196748D01*
X76761402Y-104244367D01*
X76380449Y-104244367D01*
X77332830Y-103815796D02*
X77380449Y-103768177D01*
X77475687Y-103720558D01*
X77713783Y-103720558D01*
X77809021Y-103768177D01*
X77856640Y-103815796D01*
X77904259Y-103911034D01*
X77904259Y-104006272D01*
X77856640Y-104149129D01*
X77285211Y-104720558D01*
X77904259Y-104720558D01*
X78523306Y-103720558D02*
X78618545Y-103720558D01*
X78713783Y-103768177D01*
X78761402Y-103815796D01*
X78809021Y-103911034D01*
X78856640Y-104101510D01*
X78856640Y-104339606D01*
X78809021Y-104530082D01*
X78761402Y-104625320D01*
X78713783Y-104672939D01*
X78618545Y-104720558D01*
X78523306Y-104720558D01*
X78428068Y-104672939D01*
X78380449Y-104625320D01*
X78332830Y-104530082D01*
X78285211Y-104339606D01*
X78285211Y-104101510D01*
X78332830Y-103911034D01*
X78380449Y-103815796D01*
X78428068Y-103768177D01*
X78523306Y-103720558D01*
X76824878Y-96973558D02*
X76491544Y-96497367D01*
X76253449Y-96973558D02*
X76253449Y-95973558D01*
X76634402Y-95973558D01*
X76729640Y-96021177D01*
X76777259Y-96068796D01*
X76824878Y-96164034D01*
X76824878Y-96306891D01*
X76777259Y-96402129D01*
X76729640Y-96449748D01*
X76634402Y-96497367D01*
X76253449Y-96497367D01*
X77205830Y-96068796D02*
X77253449Y-96021177D01*
X77348687Y-95973558D01*
X77586783Y-95973558D01*
X77682021Y-96021177D01*
X77729640Y-96068796D01*
X77777259Y-96164034D01*
X77777259Y-96259272D01*
X77729640Y-96402129D01*
X77158211Y-96973558D01*
X77777259Y-96973558D01*
X78729640Y-96973558D02*
X78158211Y-96973558D01*
X78443925Y-96973558D02*
X78443925Y-95973558D01*
X78348687Y-96116415D01*
X78253449Y-96211653D01*
X78158211Y-96259272D01*
X76951878Y-78050558D02*
X76618544Y-77574367D01*
X76380449Y-78050558D02*
X76380449Y-77050558D01*
X76761402Y-77050558D01*
X76856640Y-77098177D01*
X76904259Y-77145796D01*
X76951878Y-77241034D01*
X76951878Y-77383891D01*
X76904259Y-77479129D01*
X76856640Y-77526748D01*
X76761402Y-77574367D01*
X76380449Y-77574367D01*
X77332830Y-77145796D02*
X77380449Y-77098177D01*
X77475687Y-77050558D01*
X77713783Y-77050558D01*
X77809021Y-77098177D01*
X77856640Y-77145796D01*
X77904259Y-77241034D01*
X77904259Y-77336272D01*
X77856640Y-77479129D01*
X77285211Y-78050558D01*
X77904259Y-78050558D01*
X78285211Y-77145796D02*
X78332830Y-77098177D01*
X78428068Y-77050558D01*
X78666164Y-77050558D01*
X78761402Y-77098177D01*
X78809021Y-77145796D01*
X78856640Y-77241034D01*
X78856640Y-77336272D01*
X78809021Y-77479129D01*
X78237592Y-78050558D01*
X78856640Y-78050558D01*
X76951878Y-70303558D02*
X76618544Y-69827367D01*
X76380449Y-70303558D02*
X76380449Y-69303558D01*
X76761402Y-69303558D01*
X76856640Y-69351177D01*
X76904259Y-69398796D01*
X76951878Y-69494034D01*
X76951878Y-69636891D01*
X76904259Y-69732129D01*
X76856640Y-69779748D01*
X76761402Y-69827367D01*
X76380449Y-69827367D01*
X77332830Y-69398796D02*
X77380449Y-69351177D01*
X77475687Y-69303558D01*
X77713783Y-69303558D01*
X77809021Y-69351177D01*
X77856640Y-69398796D01*
X77904259Y-69494034D01*
X77904259Y-69589272D01*
X77856640Y-69732129D01*
X77285211Y-70303558D01*
X77904259Y-70303558D01*
X78237592Y-69303558D02*
X78856640Y-69303558D01*
X78523306Y-69684510D01*
X78666164Y-69684510D01*
X78761402Y-69732129D01*
X78809021Y-69779748D01*
X78856640Y-69874987D01*
X78856640Y-70113082D01*
X78809021Y-70208320D01*
X78761402Y-70255939D01*
X78666164Y-70303558D01*
X78380449Y-70303558D01*
X78285211Y-70255939D01*
X78237592Y-70208320D01*
X169534878Y-101418558D02*
X169201544Y-100942367D01*
X168963449Y-101418558D02*
X168963449Y-100418558D01*
X169344402Y-100418558D01*
X169439640Y-100466177D01*
X169487259Y-100513796D01*
X169534878Y-100609034D01*
X169534878Y-100751891D01*
X169487259Y-100847129D01*
X169439640Y-100894748D01*
X169344402Y-100942367D01*
X168963449Y-100942367D01*
X169915830Y-100513796D02*
X169963449Y-100466177D01*
X170058687Y-100418558D01*
X170296783Y-100418558D01*
X170392021Y-100466177D01*
X170439640Y-100513796D01*
X170487259Y-100609034D01*
X170487259Y-100704272D01*
X170439640Y-100847129D01*
X169868211Y-101418558D01*
X170487259Y-101418558D01*
X171392021Y-100418558D02*
X170915830Y-100418558D01*
X170868211Y-100894748D01*
X170915830Y-100847129D01*
X171011068Y-100799510D01*
X171249164Y-100799510D01*
X171344402Y-100847129D01*
X171392021Y-100894748D01*
X171439640Y-100989987D01*
X171439640Y-101228082D01*
X171392021Y-101323320D01*
X171344402Y-101370939D01*
X171249164Y-101418558D01*
X171011068Y-101418558D01*
X170915830Y-101370939D01*
X170868211Y-101323320D01*
X169534878Y-77288558D02*
X169201544Y-76812367D01*
X168963449Y-77288558D02*
X168963449Y-76288558D01*
X169344402Y-76288558D01*
X169439640Y-76336177D01*
X169487259Y-76383796D01*
X169534878Y-76479034D01*
X169534878Y-76621891D01*
X169487259Y-76717129D01*
X169439640Y-76764748D01*
X169344402Y-76812367D01*
X168963449Y-76812367D01*
X169915830Y-76383796D02*
X169963449Y-76336177D01*
X170058687Y-76288558D01*
X170296783Y-76288558D01*
X170392021Y-76336177D01*
X170439640Y-76383796D01*
X170487259Y-76479034D01*
X170487259Y-76574272D01*
X170439640Y-76717129D01*
X169868211Y-77288558D01*
X170487259Y-77288558D01*
X171344402Y-76288558D02*
X171153925Y-76288558D01*
X171058687Y-76336177D01*
X171011068Y-76383796D01*
X170915830Y-76526653D01*
X170868211Y-76717129D01*
X170868211Y-77098082D01*
X170915830Y-77193320D01*
X170963449Y-77240939D01*
X171058687Y-77288558D01*
X171249164Y-77288558D01*
X171344402Y-77240939D01*
X171392021Y-77193320D01*
X171439640Y-77098082D01*
X171439640Y-76859987D01*
X171392021Y-76764748D01*
X171344402Y-76717129D01*
X171249164Y-76669510D01*
X171058687Y-76669510D01*
X170963449Y-76717129D01*
X170915830Y-76764748D01*
X170868211Y-76859987D01*
X173344878Y-126818558D02*
X173011544Y-126342367D01*
X172773449Y-126818558D02*
X172773449Y-125818558D01*
X173154402Y-125818558D01*
X173249640Y-125866177D01*
X173297259Y-125913796D01*
X173344878Y-126009034D01*
X173344878Y-126151891D01*
X173297259Y-126247129D01*
X173249640Y-126294748D01*
X173154402Y-126342367D01*
X172773449Y-126342367D01*
X173725830Y-125913796D02*
X173773449Y-125866177D01*
X173868687Y-125818558D01*
X174106783Y-125818558D01*
X174202021Y-125866177D01*
X174249640Y-125913796D01*
X174297259Y-126009034D01*
X174297259Y-126104272D01*
X174249640Y-126247129D01*
X173678211Y-126818558D01*
X174297259Y-126818558D01*
X174630592Y-125818558D02*
X175297259Y-125818558D01*
X174868687Y-126818558D01*
X173344878Y-101418558D02*
X173011544Y-100942367D01*
X172773449Y-101418558D02*
X172773449Y-100418558D01*
X173154402Y-100418558D01*
X173249640Y-100466177D01*
X173297259Y-100513796D01*
X173344878Y-100609034D01*
X173344878Y-100751891D01*
X173297259Y-100847129D01*
X173249640Y-100894748D01*
X173154402Y-100942367D01*
X172773449Y-100942367D01*
X173725830Y-100513796D02*
X173773449Y-100466177D01*
X173868687Y-100418558D01*
X174106783Y-100418558D01*
X174202021Y-100466177D01*
X174249640Y-100513796D01*
X174297259Y-100609034D01*
X174297259Y-100704272D01*
X174249640Y-100847129D01*
X173678211Y-101418558D01*
X174297259Y-101418558D01*
X174868687Y-100847129D02*
X174773449Y-100799510D01*
X174725830Y-100751891D01*
X174678211Y-100656653D01*
X174678211Y-100609034D01*
X174725830Y-100513796D01*
X174773449Y-100466177D01*
X174868687Y-100418558D01*
X175059164Y-100418558D01*
X175154402Y-100466177D01*
X175202021Y-100513796D01*
X175249640Y-100609034D01*
X175249640Y-100656653D01*
X175202021Y-100751891D01*
X175154402Y-100799510D01*
X175059164Y-100847129D01*
X174868687Y-100847129D01*
X174773449Y-100894748D01*
X174725830Y-100942367D01*
X174678211Y-101037606D01*
X174678211Y-101228082D01*
X174725830Y-101323320D01*
X174773449Y-101370939D01*
X174868687Y-101418558D01*
X175059164Y-101418558D01*
X175154402Y-101370939D01*
X175202021Y-101323320D01*
X175249640Y-101228082D01*
X175249640Y-101037606D01*
X175202021Y-100942367D01*
X175154402Y-100894748D01*
X175059164Y-100847129D01*
X173344878Y-77288558D02*
X173011544Y-76812367D01*
X172773449Y-77288558D02*
X172773449Y-76288558D01*
X173154402Y-76288558D01*
X173249640Y-76336177D01*
X173297259Y-76383796D01*
X173344878Y-76479034D01*
X173344878Y-76621891D01*
X173297259Y-76717129D01*
X173249640Y-76764748D01*
X173154402Y-76812367D01*
X172773449Y-76812367D01*
X173725830Y-76383796D02*
X173773449Y-76336177D01*
X173868687Y-76288558D01*
X174106783Y-76288558D01*
X174202021Y-76336177D01*
X174249640Y-76383796D01*
X174297259Y-76479034D01*
X174297259Y-76574272D01*
X174249640Y-76717129D01*
X173678211Y-77288558D01*
X174297259Y-77288558D01*
X174773449Y-77288558D02*
X174963925Y-77288558D01*
X175059164Y-77240939D01*
X175106783Y-77193320D01*
X175202021Y-77050463D01*
X175249640Y-76859987D01*
X175249640Y-76479034D01*
X175202021Y-76383796D01*
X175154402Y-76336177D01*
X175059164Y-76288558D01*
X174868687Y-76288558D01*
X174773449Y-76336177D01*
X174725830Y-76383796D01*
X174678211Y-76479034D01*
X174678211Y-76717129D01*
X174725830Y-76812367D01*
X174773449Y-76859987D01*
X174868687Y-76907606D01*
X175059164Y-76907606D01*
X175154402Y-76859987D01*
X175202021Y-76812367D01*
X175249640Y-76717129D01*
X160470116Y-132724034D02*
X159993925Y-133057368D01*
X160470116Y-133295463D02*
X159470116Y-133295463D01*
X159470116Y-132914510D01*
X159517735Y-132819272D01*
X159565354Y-132771653D01*
X159660592Y-132724034D01*
X159803449Y-132724034D01*
X159898687Y-132771653D01*
X159946306Y-132819272D01*
X159993925Y-132914510D01*
X159993925Y-133295463D01*
X159470116Y-132390701D02*
X159470116Y-131771653D01*
X159851068Y-132104987D01*
X159851068Y-131962129D01*
X159898687Y-131866891D01*
X159946306Y-131819272D01*
X160041545Y-131771653D01*
X160279640Y-131771653D01*
X160374878Y-131819272D01*
X160422497Y-131866891D01*
X160470116Y-131962129D01*
X160470116Y-132247844D01*
X160422497Y-132343082D01*
X160374878Y-132390701D01*
X159470116Y-131152606D02*
X159470116Y-131057367D01*
X159517735Y-130962129D01*
X159565354Y-130914510D01*
X159660592Y-130866891D01*
X159851068Y-130819272D01*
X160089164Y-130819272D01*
X160279640Y-130866891D01*
X160374878Y-130914510D01*
X160422497Y-130962129D01*
X160470116Y-131057367D01*
X160470116Y-131152606D01*
X160422497Y-131247844D01*
X160374878Y-131295463D01*
X160279640Y-131343082D01*
X160089164Y-131390701D01*
X159851068Y-131390701D01*
X159660592Y-131343082D01*
X159565354Y-131295463D01*
X159517735Y-131247844D01*
X159470116Y-131152606D01*
X160343116Y-114309034D02*
X159866925Y-114642368D01*
X160343116Y-114880463D02*
X159343116Y-114880463D01*
X159343116Y-114499510D01*
X159390735Y-114404272D01*
X159438354Y-114356653D01*
X159533592Y-114309034D01*
X159676449Y-114309034D01*
X159771687Y-114356653D01*
X159819306Y-114404272D01*
X159866925Y-114499510D01*
X159866925Y-114880463D01*
X159343116Y-113975701D02*
X159343116Y-113356653D01*
X159724068Y-113689987D01*
X159724068Y-113547129D01*
X159771687Y-113451891D01*
X159819306Y-113404272D01*
X159914545Y-113356653D01*
X160152640Y-113356653D01*
X160247878Y-113404272D01*
X160295497Y-113451891D01*
X160343116Y-113547129D01*
X160343116Y-113832844D01*
X160295497Y-113928082D01*
X160247878Y-113975701D01*
X160343116Y-112404272D02*
X160343116Y-112975701D01*
X160343116Y-112689987D02*
X159343116Y-112689987D01*
X159485973Y-112785225D01*
X159581211Y-112880463D01*
X159628830Y-112975701D01*
X160470116Y-88909034D02*
X159993925Y-89242368D01*
X160470116Y-89480463D02*
X159470116Y-89480463D01*
X159470116Y-89099510D01*
X159517735Y-89004272D01*
X159565354Y-88956653D01*
X159660592Y-88909034D01*
X159803449Y-88909034D01*
X159898687Y-88956653D01*
X159946306Y-89004272D01*
X159993925Y-89099510D01*
X159993925Y-89480463D01*
X159470116Y-88575701D02*
X159470116Y-87956653D01*
X159851068Y-88289987D01*
X159851068Y-88147129D01*
X159898687Y-88051891D01*
X159946306Y-88004272D01*
X160041545Y-87956653D01*
X160279640Y-87956653D01*
X160374878Y-88004272D01*
X160422497Y-88051891D01*
X160470116Y-88147129D01*
X160470116Y-88432844D01*
X160422497Y-88528082D01*
X160374878Y-88575701D01*
X159565354Y-87575701D02*
X159517735Y-87528082D01*
X159470116Y-87432844D01*
X159470116Y-87194748D01*
X159517735Y-87099510D01*
X159565354Y-87051891D01*
X159660592Y-87004272D01*
X159755830Y-87004272D01*
X159898687Y-87051891D01*
X160470116Y-87623320D01*
X160470116Y-87004272D01*
X160470116Y-63509034D02*
X159993925Y-63842368D01*
X160470116Y-64080463D02*
X159470116Y-64080463D01*
X159470116Y-63699510D01*
X159517735Y-63604272D01*
X159565354Y-63556653D01*
X159660592Y-63509034D01*
X159803449Y-63509034D01*
X159898687Y-63556653D01*
X159946306Y-63604272D01*
X159993925Y-63699510D01*
X159993925Y-64080463D01*
X159470116Y-63175701D02*
X159470116Y-62556653D01*
X159851068Y-62889987D01*
X159851068Y-62747129D01*
X159898687Y-62651891D01*
X159946306Y-62604272D01*
X160041545Y-62556653D01*
X160279640Y-62556653D01*
X160374878Y-62604272D01*
X160422497Y-62651891D01*
X160470116Y-62747129D01*
X160470116Y-63032844D01*
X160422497Y-63128082D01*
X160374878Y-63175701D01*
X159470116Y-62223320D02*
X159470116Y-61604272D01*
X159851068Y-61937606D01*
X159851068Y-61794748D01*
X159898687Y-61699510D01*
X159946306Y-61651891D01*
X160041545Y-61604272D01*
X160279640Y-61604272D01*
X160374878Y-61651891D01*
X160422497Y-61699510D01*
X160470116Y-61794748D01*
X160470116Y-62080463D01*
X160422497Y-62175701D01*
X160374878Y-62223320D01*
X160470116Y-129549034D02*
X159993925Y-129882368D01*
X160470116Y-130120463D02*
X159470116Y-130120463D01*
X159470116Y-129739510D01*
X159517735Y-129644272D01*
X159565354Y-129596653D01*
X159660592Y-129549034D01*
X159803449Y-129549034D01*
X159898687Y-129596653D01*
X159946306Y-129644272D01*
X159993925Y-129739510D01*
X159993925Y-130120463D01*
X159470116Y-129215701D02*
X159470116Y-128596653D01*
X159851068Y-128929987D01*
X159851068Y-128787129D01*
X159898687Y-128691891D01*
X159946306Y-128644272D01*
X160041545Y-128596653D01*
X160279640Y-128596653D01*
X160374878Y-128644272D01*
X160422497Y-128691891D01*
X160470116Y-128787129D01*
X160470116Y-129072844D01*
X160422497Y-129168082D01*
X160374878Y-129215701D01*
X159803449Y-127739510D02*
X160470116Y-127739510D01*
X159422497Y-127977606D02*
X160136783Y-128215701D01*
X160136783Y-127596653D01*
X145404878Y-108911558D02*
X145071544Y-108435367D01*
X144833449Y-108911558D02*
X144833449Y-107911558D01*
X145214402Y-107911558D01*
X145309640Y-107959177D01*
X145357259Y-108006796D01*
X145404878Y-108102034D01*
X145404878Y-108244891D01*
X145357259Y-108340129D01*
X145309640Y-108387748D01*
X145214402Y-108435367D01*
X144833449Y-108435367D01*
X145738211Y-107911558D02*
X146357259Y-107911558D01*
X146023925Y-108292510D01*
X146166783Y-108292510D01*
X146262021Y-108340129D01*
X146309640Y-108387748D01*
X146357259Y-108482987D01*
X146357259Y-108721082D01*
X146309640Y-108816320D01*
X146262021Y-108863939D01*
X146166783Y-108911558D01*
X145881068Y-108911558D01*
X145785830Y-108863939D01*
X145738211Y-108816320D01*
X147262021Y-107911558D02*
X146785830Y-107911558D01*
X146738211Y-108387748D01*
X146785830Y-108340129D01*
X146881068Y-108292510D01*
X147119164Y-108292510D01*
X147214402Y-108340129D01*
X147262021Y-108387748D01*
X147309640Y-108482987D01*
X147309640Y-108721082D01*
X147262021Y-108816320D01*
X147214402Y-108863939D01*
X147119164Y-108911558D01*
X146881068Y-108911558D01*
X146785830Y-108863939D01*
X146738211Y-108816320D01*
X148579878Y-120595558D02*
X148246544Y-120119367D01*
X148008449Y-120595558D02*
X148008449Y-119595558D01*
X148389402Y-119595558D01*
X148484640Y-119643177D01*
X148532259Y-119690796D01*
X148579878Y-119786034D01*
X148579878Y-119928891D01*
X148532259Y-120024129D01*
X148484640Y-120071748D01*
X148389402Y-120119367D01*
X148008449Y-120119367D01*
X148913211Y-119595558D02*
X149532259Y-119595558D01*
X149198925Y-119976510D01*
X149341783Y-119976510D01*
X149437021Y-120024129D01*
X149484640Y-120071748D01*
X149532259Y-120166987D01*
X149532259Y-120405082D01*
X149484640Y-120500320D01*
X149437021Y-120547939D01*
X149341783Y-120595558D01*
X149056068Y-120595558D01*
X148960830Y-120547939D01*
X148913211Y-120500320D01*
X150389402Y-119595558D02*
X150198925Y-119595558D01*
X150103687Y-119643177D01*
X150056068Y-119690796D01*
X149960830Y-119833653D01*
X149913211Y-120024129D01*
X149913211Y-120405082D01*
X149960830Y-120500320D01*
X150008449Y-120547939D01*
X150103687Y-120595558D01*
X150294164Y-120595558D01*
X150389402Y-120547939D01*
X150437021Y-120500320D01*
X150484640Y-120405082D01*
X150484640Y-120166987D01*
X150437021Y-120071748D01*
X150389402Y-120024129D01*
X150294164Y-119976510D01*
X150103687Y-119976510D01*
X150008449Y-120024129D01*
X149960830Y-120071748D01*
X149913211Y-120166987D01*
X120639878Y-120595558D02*
X120306544Y-120119367D01*
X120068449Y-120595558D02*
X120068449Y-119595558D01*
X120449402Y-119595558D01*
X120544640Y-119643177D01*
X120592259Y-119690796D01*
X120639878Y-119786034D01*
X120639878Y-119928891D01*
X120592259Y-120024129D01*
X120544640Y-120071748D01*
X120449402Y-120119367D01*
X120068449Y-120119367D01*
X120973211Y-119595558D02*
X121592259Y-119595558D01*
X121258925Y-119976510D01*
X121401783Y-119976510D01*
X121497021Y-120024129D01*
X121544640Y-120071748D01*
X121592259Y-120166987D01*
X121592259Y-120405082D01*
X121544640Y-120500320D01*
X121497021Y-120547939D01*
X121401783Y-120595558D01*
X121116068Y-120595558D01*
X121020830Y-120547939D01*
X120973211Y-120500320D01*
X121925592Y-119595558D02*
X122592259Y-119595558D01*
X122163687Y-120595558D01*
X156834878Y-101926558D02*
X156501544Y-101450367D01*
X156263449Y-101926558D02*
X156263449Y-100926558D01*
X156644402Y-100926558D01*
X156739640Y-100974177D01*
X156787259Y-101021796D01*
X156834878Y-101117034D01*
X156834878Y-101259891D01*
X156787259Y-101355129D01*
X156739640Y-101402748D01*
X156644402Y-101450367D01*
X156263449Y-101450367D01*
X157168211Y-100926558D02*
X157787259Y-100926558D01*
X157453925Y-101307510D01*
X157596783Y-101307510D01*
X157692021Y-101355129D01*
X157739640Y-101402748D01*
X157787259Y-101497987D01*
X157787259Y-101736082D01*
X157739640Y-101831320D01*
X157692021Y-101878939D01*
X157596783Y-101926558D01*
X157311068Y-101926558D01*
X157215830Y-101878939D01*
X157168211Y-101831320D01*
X158358687Y-101355129D02*
X158263449Y-101307510D01*
X158215830Y-101259891D01*
X158168211Y-101164653D01*
X158168211Y-101117034D01*
X158215830Y-101021796D01*
X158263449Y-100974177D01*
X158358687Y-100926558D01*
X158549164Y-100926558D01*
X158644402Y-100974177D01*
X158692021Y-101021796D01*
X158739640Y-101117034D01*
X158739640Y-101164653D01*
X158692021Y-101259891D01*
X158644402Y-101307510D01*
X158549164Y-101355129D01*
X158358687Y-101355129D01*
X158263449Y-101402748D01*
X158215830Y-101450367D01*
X158168211Y-101545606D01*
X158168211Y-101736082D01*
X158215830Y-101831320D01*
X158263449Y-101878939D01*
X158358687Y-101926558D01*
X158549164Y-101926558D01*
X158644402Y-101878939D01*
X158692021Y-101831320D01*
X158739640Y-101736082D01*
X158739640Y-101545606D01*
X158692021Y-101450367D01*
X158644402Y-101402748D01*
X158549164Y-101355129D01*
X151754878Y-80971558D02*
X151421544Y-80495367D01*
X151183449Y-80971558D02*
X151183449Y-79971558D01*
X151564402Y-79971558D01*
X151659640Y-80019177D01*
X151707259Y-80066796D01*
X151754878Y-80162034D01*
X151754878Y-80304891D01*
X151707259Y-80400129D01*
X151659640Y-80447748D01*
X151564402Y-80495367D01*
X151183449Y-80495367D01*
X152088211Y-79971558D02*
X152707259Y-79971558D01*
X152373925Y-80352510D01*
X152516783Y-80352510D01*
X152612021Y-80400129D01*
X152659640Y-80447748D01*
X152707259Y-80542987D01*
X152707259Y-80781082D01*
X152659640Y-80876320D01*
X152612021Y-80923939D01*
X152516783Y-80971558D01*
X152231068Y-80971558D01*
X152135830Y-80923939D01*
X152088211Y-80876320D01*
X153183449Y-80971558D02*
X153373925Y-80971558D01*
X153469164Y-80923939D01*
X153516783Y-80876320D01*
X153612021Y-80733463D01*
X153659640Y-80542987D01*
X153659640Y-80162034D01*
X153612021Y-80066796D01*
X153564402Y-80019177D01*
X153469164Y-79971558D01*
X153278687Y-79971558D01*
X153183449Y-80019177D01*
X153135830Y-80066796D01*
X153088211Y-80162034D01*
X153088211Y-80400129D01*
X153135830Y-80495367D01*
X153183449Y-80542987D01*
X153278687Y-80590606D01*
X153469164Y-80590606D01*
X153564402Y-80542987D01*
X153612021Y-80495367D01*
X153659640Y-80400129D01*
X109209878Y-112975558D02*
X108876544Y-112499367D01*
X108638449Y-112975558D02*
X108638449Y-111975558D01*
X109019402Y-111975558D01*
X109114640Y-112023177D01*
X109162259Y-112070796D01*
X109209878Y-112166034D01*
X109209878Y-112308891D01*
X109162259Y-112404129D01*
X109114640Y-112451748D01*
X109019402Y-112499367D01*
X108638449Y-112499367D01*
X110067021Y-112308891D02*
X110067021Y-112975558D01*
X109828925Y-111927939D02*
X109590830Y-112642225D01*
X110209878Y-112642225D01*
X110781306Y-111975558D02*
X110876545Y-111975558D01*
X110971783Y-112023177D01*
X111019402Y-112070796D01*
X111067021Y-112166034D01*
X111114640Y-112356510D01*
X111114640Y-112594606D01*
X111067021Y-112785082D01*
X111019402Y-112880320D01*
X110971783Y-112927939D01*
X110876545Y-112975558D01*
X110781306Y-112975558D01*
X110686068Y-112927939D01*
X110638449Y-112880320D01*
X110590830Y-112785082D01*
X110543211Y-112594606D01*
X110543211Y-112356510D01*
X110590830Y-112166034D01*
X110638449Y-112070796D01*
X110686068Y-112023177D01*
X110781306Y-111975558D01*
X115559878Y-101291558D02*
X115226544Y-100815367D01*
X114988449Y-101291558D02*
X114988449Y-100291558D01*
X115369402Y-100291558D01*
X115464640Y-100339177D01*
X115512259Y-100386796D01*
X115559878Y-100482034D01*
X115559878Y-100624891D01*
X115512259Y-100720129D01*
X115464640Y-100767748D01*
X115369402Y-100815367D01*
X114988449Y-100815367D01*
X116417021Y-100624891D02*
X116417021Y-101291558D01*
X116178925Y-100243939D02*
X115940830Y-100958225D01*
X116559878Y-100958225D01*
X117464640Y-101291558D02*
X116893211Y-101291558D01*
X117178925Y-101291558D02*
X117178925Y-100291558D01*
X117083687Y-100434415D01*
X116988449Y-100529653D01*
X116893211Y-100577272D01*
X112384878Y-101291558D02*
X112051544Y-100815367D01*
X111813449Y-101291558D02*
X111813449Y-100291558D01*
X112194402Y-100291558D01*
X112289640Y-100339177D01*
X112337259Y-100386796D01*
X112384878Y-100482034D01*
X112384878Y-100624891D01*
X112337259Y-100720129D01*
X112289640Y-100767748D01*
X112194402Y-100815367D01*
X111813449Y-100815367D01*
X113242021Y-100624891D02*
X113242021Y-101291558D01*
X113003925Y-100243939D02*
X112765830Y-100958225D01*
X113384878Y-100958225D01*
X113718211Y-100386796D02*
X113765830Y-100339177D01*
X113861068Y-100291558D01*
X114099164Y-100291558D01*
X114194402Y-100339177D01*
X114242021Y-100386796D01*
X114289640Y-100482034D01*
X114289640Y-100577272D01*
X114242021Y-100720129D01*
X113670592Y-101291558D01*
X114289640Y-101291558D01*
X188203878Y-130120558D02*
X187870544Y-129644367D01*
X187632449Y-130120558D02*
X187632449Y-129120558D01*
X188013402Y-129120558D01*
X188108640Y-129168177D01*
X188156259Y-129215796D01*
X188203878Y-129311034D01*
X188203878Y-129453891D01*
X188156259Y-129549129D01*
X188108640Y-129596748D01*
X188013402Y-129644367D01*
X187632449Y-129644367D01*
X189061021Y-129453891D02*
X189061021Y-130120558D01*
X188822925Y-129072939D02*
X188584830Y-129787225D01*
X189203878Y-129787225D01*
X189489592Y-129120558D02*
X190108640Y-129120558D01*
X189775306Y-129501510D01*
X189918164Y-129501510D01*
X190013402Y-129549129D01*
X190061021Y-129596748D01*
X190108640Y-129691987D01*
X190108640Y-129930082D01*
X190061021Y-130025320D01*
X190013402Y-130072939D01*
X189918164Y-130120558D01*
X189632449Y-130120558D01*
X189537211Y-130072939D01*
X189489592Y-130025320D01*
X187695878Y-122881558D02*
X187362544Y-122405367D01*
X187124449Y-122881558D02*
X187124449Y-121881558D01*
X187505402Y-121881558D01*
X187600640Y-121929177D01*
X187648259Y-121976796D01*
X187695878Y-122072034D01*
X187695878Y-122214891D01*
X187648259Y-122310129D01*
X187600640Y-122357748D01*
X187505402Y-122405367D01*
X187124449Y-122405367D01*
X188553021Y-122214891D02*
X188553021Y-122881558D01*
X188314925Y-121833939D02*
X188076830Y-122548225D01*
X188695878Y-122548225D01*
X189505402Y-122214891D02*
X189505402Y-122881558D01*
X189267306Y-121833939D02*
X189029211Y-122548225D01*
X189648259Y-122548225D01*
X187949878Y-104593558D02*
X187616544Y-104117367D01*
X187378449Y-104593558D02*
X187378449Y-103593558D01*
X187759402Y-103593558D01*
X187854640Y-103641177D01*
X187902259Y-103688796D01*
X187949878Y-103784034D01*
X187949878Y-103926891D01*
X187902259Y-104022129D01*
X187854640Y-104069748D01*
X187759402Y-104117367D01*
X187378449Y-104117367D01*
X188807021Y-103926891D02*
X188807021Y-104593558D01*
X188568925Y-103545939D02*
X188330830Y-104260225D01*
X188949878Y-104260225D01*
X189807021Y-103593558D02*
X189330830Y-103593558D01*
X189283211Y-104069748D01*
X189330830Y-104022129D01*
X189426068Y-103974510D01*
X189664164Y-103974510D01*
X189759402Y-104022129D01*
X189807021Y-104069748D01*
X189854640Y-104164987D01*
X189854640Y-104403082D01*
X189807021Y-104498320D01*
X189759402Y-104545939D01*
X189664164Y-104593558D01*
X189426068Y-104593558D01*
X189330830Y-104545939D01*
X189283211Y-104498320D01*
X187949878Y-96973558D02*
X187616544Y-96497367D01*
X187378449Y-96973558D02*
X187378449Y-95973558D01*
X187759402Y-95973558D01*
X187854640Y-96021177D01*
X187902259Y-96068796D01*
X187949878Y-96164034D01*
X187949878Y-96306891D01*
X187902259Y-96402129D01*
X187854640Y-96449748D01*
X187759402Y-96497367D01*
X187378449Y-96497367D01*
X188807021Y-96306891D02*
X188807021Y-96973558D01*
X188568925Y-95925939D02*
X188330830Y-96640225D01*
X188949878Y-96640225D01*
X189759402Y-95973558D02*
X189568925Y-95973558D01*
X189473687Y-96021177D01*
X189426068Y-96068796D01*
X189330830Y-96211653D01*
X189283211Y-96402129D01*
X189283211Y-96783082D01*
X189330830Y-96878320D01*
X189378449Y-96925939D01*
X189473687Y-96973558D01*
X189664164Y-96973558D01*
X189759402Y-96925939D01*
X189807021Y-96878320D01*
X189854640Y-96783082D01*
X189854640Y-96544987D01*
X189807021Y-96449748D01*
X189759402Y-96402129D01*
X189664164Y-96354510D01*
X189473687Y-96354510D01*
X189378449Y-96402129D01*
X189330830Y-96449748D01*
X189283211Y-96544987D01*
X187949878Y-79193558D02*
X187616544Y-78717367D01*
X187378449Y-79193558D02*
X187378449Y-78193558D01*
X187759402Y-78193558D01*
X187854640Y-78241177D01*
X187902259Y-78288796D01*
X187949878Y-78384034D01*
X187949878Y-78526891D01*
X187902259Y-78622129D01*
X187854640Y-78669748D01*
X187759402Y-78717367D01*
X187378449Y-78717367D01*
X188807021Y-78526891D02*
X188807021Y-79193558D01*
X188568925Y-78145939D02*
X188330830Y-78860225D01*
X188949878Y-78860225D01*
X189235592Y-78193558D02*
X189902259Y-78193558D01*
X189473687Y-79193558D01*
X187949878Y-71573558D02*
X187616544Y-71097367D01*
X187378449Y-71573558D02*
X187378449Y-70573558D01*
X187759402Y-70573558D01*
X187854640Y-70621177D01*
X187902259Y-70668796D01*
X187949878Y-70764034D01*
X187949878Y-70906891D01*
X187902259Y-71002129D01*
X187854640Y-71049748D01*
X187759402Y-71097367D01*
X187378449Y-71097367D01*
X188807021Y-70906891D02*
X188807021Y-71573558D01*
X188568925Y-70525939D02*
X188330830Y-71240225D01*
X188949878Y-71240225D01*
X189473687Y-71002129D02*
X189378449Y-70954510D01*
X189330830Y-70906891D01*
X189283211Y-70811653D01*
X189283211Y-70764034D01*
X189330830Y-70668796D01*
X189378449Y-70621177D01*
X189473687Y-70573558D01*
X189664164Y-70573558D01*
X189759402Y-70621177D01*
X189807021Y-70668796D01*
X189854640Y-70764034D01*
X189854640Y-70811653D01*
X189807021Y-70906891D01*
X189759402Y-70954510D01*
X189664164Y-71002129D01*
X189473687Y-71002129D01*
X189378449Y-71049748D01*
X189330830Y-71097367D01*
X189283211Y-71192606D01*
X189283211Y-71383082D01*
X189330830Y-71478320D01*
X189378449Y-71525939D01*
X189473687Y-71573558D01*
X189664164Y-71573558D01*
X189759402Y-71525939D01*
X189807021Y-71478320D01*
X189854640Y-71383082D01*
X189854640Y-71192606D01*
X189807021Y-71097367D01*
X189759402Y-71049748D01*
X189664164Y-71002129D01*
X97605116Y-120357415D02*
X97128925Y-120690749D01*
X97605116Y-120928844D02*
X96605116Y-120928844D01*
X96605116Y-120547891D01*
X96652735Y-120452653D01*
X96700354Y-120405034D01*
X96795592Y-120357415D01*
X96938449Y-120357415D01*
X97033687Y-120405034D01*
X97081306Y-120452653D01*
X97128925Y-120547891D01*
X97128925Y-120928844D01*
X96605116Y-120071701D02*
X97605116Y-119738368D01*
X96605116Y-119405034D01*
X97605116Y-118547891D02*
X97605116Y-119119320D01*
X97605116Y-118833606D02*
X96605116Y-118833606D01*
X96747973Y-118928844D01*
X96843211Y-119024082D01*
X96890830Y-119119320D01*
X97605116Y-94957415D02*
X97128925Y-95290749D01*
X97605116Y-95528844D02*
X96605116Y-95528844D01*
X96605116Y-95147891D01*
X96652735Y-95052653D01*
X96700354Y-95005034D01*
X96795592Y-94957415D01*
X96938449Y-94957415D01*
X97033687Y-95005034D01*
X97081306Y-95052653D01*
X97128925Y-95147891D01*
X97128925Y-95528844D01*
X96605116Y-94671701D02*
X97605116Y-94338368D01*
X96605116Y-94005034D01*
X96700354Y-93719320D02*
X96652735Y-93671701D01*
X96605116Y-93576463D01*
X96605116Y-93338367D01*
X96652735Y-93243129D01*
X96700354Y-93195510D01*
X96795592Y-93147891D01*
X96890830Y-93147891D01*
X97033687Y-93195510D01*
X97605116Y-93766939D01*
X97605116Y-93147891D01*
X97605116Y-69557415D02*
X97128925Y-69890749D01*
X97605116Y-70128844D02*
X96605116Y-70128844D01*
X96605116Y-69747891D01*
X96652735Y-69652653D01*
X96700354Y-69605034D01*
X96795592Y-69557415D01*
X96938449Y-69557415D01*
X97033687Y-69605034D01*
X97081306Y-69652653D01*
X97128925Y-69747891D01*
X97128925Y-70128844D01*
X96605116Y-69271701D02*
X97605116Y-68938368D01*
X96605116Y-68605034D01*
X96605116Y-68366939D02*
X96605116Y-67747891D01*
X96986068Y-68081225D01*
X96986068Y-67938367D01*
X97033687Y-67843129D01*
X97081306Y-67795510D01*
X97176545Y-67747891D01*
X97414640Y-67747891D01*
X97509878Y-67795510D01*
X97557497Y-67843129D01*
X97605116Y-67938367D01*
X97605116Y-68224082D01*
X97557497Y-68319320D01*
X97509878Y-68366939D01*
X167328116Y-122135415D02*
X166851925Y-122468749D01*
X167328116Y-122706844D02*
X166328116Y-122706844D01*
X166328116Y-122325891D01*
X166375735Y-122230653D01*
X166423354Y-122183034D01*
X166518592Y-122135415D01*
X166661449Y-122135415D01*
X166756687Y-122183034D01*
X166804306Y-122230653D01*
X166851925Y-122325891D01*
X166851925Y-122706844D01*
X166328116Y-121849701D02*
X167328116Y-121516368D01*
X166328116Y-121183034D01*
X166661449Y-120421129D02*
X167328116Y-120421129D01*
X166280497Y-120659225D02*
X166994783Y-120897320D01*
X166994783Y-120278272D01*
X167328116Y-96735415D02*
X166851925Y-97068749D01*
X167328116Y-97306844D02*
X166328116Y-97306844D01*
X166328116Y-96925891D01*
X166375735Y-96830653D01*
X166423354Y-96783034D01*
X166518592Y-96735415D01*
X166661449Y-96735415D01*
X166756687Y-96783034D01*
X166804306Y-96830653D01*
X166851925Y-96925891D01*
X166851925Y-97306844D01*
X166328116Y-96449701D02*
X167328116Y-96116368D01*
X166328116Y-95783034D01*
X166328116Y-94973510D02*
X166328116Y-95449701D01*
X166804306Y-95497320D01*
X166756687Y-95449701D01*
X166709068Y-95354463D01*
X166709068Y-95116367D01*
X166756687Y-95021129D01*
X166804306Y-94973510D01*
X166899545Y-94925891D01*
X167137640Y-94925891D01*
X167232878Y-94973510D01*
X167280497Y-95021129D01*
X167328116Y-95116367D01*
X167328116Y-95354463D01*
X167280497Y-95449701D01*
X167232878Y-95497320D01*
X167328116Y-71335415D02*
X166851925Y-71668749D01*
X167328116Y-71906844D02*
X166328116Y-71906844D01*
X166328116Y-71525891D01*
X166375735Y-71430653D01*
X166423354Y-71383034D01*
X166518592Y-71335415D01*
X166661449Y-71335415D01*
X166756687Y-71383034D01*
X166804306Y-71430653D01*
X166851925Y-71525891D01*
X166851925Y-71906844D01*
X166328116Y-71049701D02*
X167328116Y-70716368D01*
X166328116Y-70383034D01*
X166328116Y-69621129D02*
X166328116Y-69811606D01*
X166375735Y-69906844D01*
X166423354Y-69954463D01*
X166566211Y-70049701D01*
X166756687Y-70097320D01*
X167137640Y-70097320D01*
X167232878Y-70049701D01*
X167280497Y-70002082D01*
X167328116Y-69906844D01*
X167328116Y-69716367D01*
X167280497Y-69621129D01*
X167232878Y-69573510D01*
X167137640Y-69525891D01*
X166899545Y-69525891D01*
X166804306Y-69573510D01*
X166756687Y-69621129D01*
X166709068Y-69716367D01*
X166709068Y-69906844D01*
X166756687Y-70002082D01*
X166804306Y-70049701D01*
X166899545Y-70097320D01*
X115504402Y-144169939D02*
X115647259Y-144217558D01*
X115885355Y-144217558D01*
X115980593Y-144169939D01*
X116028212Y-144122320D01*
X116075831Y-144027082D01*
X116075831Y-143931844D01*
X116028212Y-143836606D01*
X115980593Y-143788987D01*
X115885355Y-143741367D01*
X115694878Y-143693748D01*
X115599640Y-143646129D01*
X115552021Y-143598510D01*
X115504402Y-143503272D01*
X115504402Y-143408034D01*
X115552021Y-143312796D01*
X115599640Y-143265177D01*
X115694878Y-143217558D01*
X115932974Y-143217558D01*
X116075831Y-143265177D01*
X116409164Y-143217558D02*
X116647259Y-144217558D01*
X116837736Y-143503272D01*
X117028212Y-144217558D01*
X117266307Y-143217558D01*
X118171069Y-144217558D02*
X117599640Y-144217558D01*
X117885354Y-144217558D02*
X117885354Y-143217558D01*
X117790116Y-143360415D01*
X117694878Y-143455653D01*
X117599640Y-143503272D01*
X143722116Y-80519082D02*
X144531640Y-80519082D01*
X144626878Y-80471463D01*
X144674497Y-80423844D01*
X144722116Y-80328606D01*
X144722116Y-80138129D01*
X144674497Y-80042891D01*
X144626878Y-79995272D01*
X144531640Y-79947653D01*
X143722116Y-79947653D01*
X144722116Y-78947653D02*
X144722116Y-79519082D01*
X144722116Y-79233368D02*
X143722116Y-79233368D01*
X143864973Y-79328606D01*
X143960211Y-79423844D01*
X144007830Y-79519082D01*
X139912116Y-97029082D02*
X140721640Y-97029082D01*
X140816878Y-96981463D01*
X140864497Y-96933844D01*
X140912116Y-96838606D01*
X140912116Y-96648129D01*
X140864497Y-96552891D01*
X140816878Y-96505272D01*
X140721640Y-96457653D01*
X139912116Y-96457653D01*
X139912116Y-96076701D02*
X139912116Y-95457653D01*
X140293068Y-95790987D01*
X140293068Y-95648129D01*
X140340687Y-95552891D01*
X140388306Y-95505272D01*
X140483545Y-95457653D01*
X140721640Y-95457653D01*
X140816878Y-95505272D01*
X140864497Y-95552891D01*
X140912116Y-95648129D01*
X140912116Y-95933844D01*
X140864497Y-96029082D01*
X140816878Y-96076701D01*
M02*
