M48
;DRILL file {KiCad 4.0.3-stable} date 10/01/16 01:25:54
;FORMAT={-:-/ absolute / inch / decimal}
FMAT,2
INCH,TZ
T1C0.016
T2C0.024
T3C0.031
T4C0.032
T5C0.032
T6C0.039
T7C0.050
T8C0.051
%
G90
G05
M72
T1
X4.062Y-2.8449
X4.367Y-4.6949
X4.492Y-2.2699
X4.632Y-3.9549
X4.702Y-4.4249
X4.772Y-2.8349
X4.842Y-2.5249
X4.892Y-4.2549
X4.972Y-2.5349
X5.032Y-2.8649
X5.042Y-3.2749
X5.122Y-3.7149
X5.182Y-3.5449
X5.262Y-3.4149
X5.432Y-3.1549
X5.892Y-3.6949
X5.952Y-3.6149
X6.002Y-3.4849
X6.002Y-4.1249
X6.042Y-4.1249
X6.0445Y-3.0149
X6.267Y-3.0349
X6.302Y-2.5049
X6.802Y-2.7149
T2
X3.467Y-2.3199
X3.467Y-3.3699
X3.467Y-4.3699
X3.517Y-2.3199
X3.517Y-3.3699
X3.517Y-4.3699
X3.567Y-2.3199
X3.567Y-3.3699
X3.567Y-4.3699
X7.567Y-2.3699
X7.567Y-3.3699
X7.567Y-4.3699
X7.617Y-2.3699
X7.617Y-3.3699
X7.617Y-4.3699
X7.667Y-2.3699
X7.667Y-3.3699
X7.667Y-4.3699
T3
X4.0155Y-2.0949
X4.0155Y-3.1699
X4.0155Y-4.0449
X4.017Y-2.2199
X4.017Y-3.0449
X4.017Y-4.1699
X4.767Y-2.1699
X4.8458Y-2.1699
X4.892Y-2.9699
X4.892Y-3.0487
X4.892Y-3.3199
X4.892Y-3.3987
X5.242Y-3.2449
X5.242Y-3.7949
X5.3208Y-3.2449
X5.3208Y-3.7949
X5.342Y-2.6949
X5.342Y-2.9949
X5.342Y-3.9949
X5.342Y-4.2949
X5.3633Y-2.1199
X5.367Y-2.4949
X5.442Y-2.1199
X5.442Y-2.6949
X5.442Y-2.9949
X5.442Y-3.9949
X5.442Y-4.2949
X5.4458Y-2.4949
X5.492Y-3.3449
X5.492Y-3.6449
X5.542Y-2.6949
X5.542Y-2.9949
X5.542Y-3.9949
X5.542Y-4.2949
X5.592Y-3.2199
X5.592Y-3.3449
X5.592Y-3.6449
X5.642Y-2.6949
X5.642Y-2.9949
X5.642Y-3.9949
X5.642Y-4.2949
X5.692Y-3.3449
X5.692Y-3.6449
X5.742Y-2.6949
X5.742Y-2.9949
X5.742Y-3.9949
X5.742Y-4.2949
X5.792Y-3.3449
X5.792Y-3.6449
X5.842Y-2.6949
X5.842Y-2.9949
X5.842Y-3.9949
X5.842Y-4.2949
X5.892Y-5.0215
X5.942Y-2.6949
X5.942Y-2.9949
X5.942Y-3.9949
X5.942Y-4.2949
X5.9633Y-2.2449
X5.9633Y-3.7949
X5.9633Y-4.4949
X5.967Y-2.4949
X5.967Y-3.2199
X6.042Y-2.2449
X6.042Y-3.7949
X6.042Y-4.4949
X6.0458Y-2.4949
X6.0458Y-3.2199
X6.292Y-5.0199
X6.392Y-3.3949
X6.392Y-3.4737
X6.392Y-3.8199
X6.392Y-3.8987
X7.167Y-2.2199
X7.167Y-4.1699
X7.1686Y-2.0949
X7.1686Y-3.0449
X7.1686Y-3.1699
X7.1686Y-4.0449
T4
X3.917Y-2.0949
X3.917Y-3.1699
X3.917Y-4.0449
X3.9186Y-2.2199
X3.9186Y-3.0449
X3.9186Y-4.1699
X5.4936Y-3.2199
X5.892Y-5.1199
X6.292Y-5.1184
X7.2655Y-2.2199
X7.2655Y-4.1699
X7.267Y-2.0949
X7.267Y-3.0449
X7.267Y-3.1699
X7.267Y-4.0449
T5
X4.342Y-2.4449
X4.342Y-3.4449
X4.342Y-4.4449
X4.442Y-2.3449
X4.442Y-2.5449
X4.442Y-3.3449
X4.442Y-3.5449
X4.442Y-4.3449
X4.442Y-4.5449
X4.892Y-5.2449
X4.992Y-5.2449
X5.092Y-5.2449
X6.742Y-2.3449
X6.742Y-2.5449
X6.742Y-3.3449
X6.742Y-3.5449
X6.742Y-4.3449
X6.742Y-4.5449
X6.842Y-2.4449
X6.842Y-3.4449
X6.842Y-4.4449
T6
X2.582Y-2.2849
X2.582Y-2.3849
X2.582Y-2.6249
X2.582Y-2.7249
X2.582Y-3.2849
X2.582Y-3.3849
X2.582Y-3.6249
X2.582Y-3.7249
X2.582Y-4.2849
X2.582Y-4.3849
X2.582Y-4.6249
X2.582Y-4.7249
X2.902Y-2.2849
X2.902Y-2.3849
X2.902Y-2.6249
X2.902Y-2.7249
X2.902Y-3.2849
X2.902Y-3.3849
X2.902Y-3.6249
X2.902Y-3.7249
X2.902Y-4.2849
X2.902Y-4.3849
X2.902Y-4.6249
X2.902Y-4.7249
X3.267Y-2.5449
X3.267Y-2.6699
X3.267Y-3.5949
X3.267Y-3.7199
X3.267Y-4.5949
X3.267Y-4.7199
X3.567Y-2.5449
X3.567Y-2.6699
X3.567Y-3.5949
X3.567Y-3.7199
X3.567Y-4.5949
X3.567Y-4.7199
X3.942Y-2.3449
X3.942Y-2.6449
X3.942Y-3.2949
X3.942Y-3.5949
X3.942Y-4.2949
X3.942Y-4.5949
X4.092Y-2.3449
X4.092Y-2.6449
X4.092Y-3.2949
X4.092Y-3.5949
X4.092Y-4.2949
X4.092Y-4.5949
X4.117Y-2.1699
X4.117Y-3.1699
X4.117Y-4.1699
X4.417Y-2.1699
X4.417Y-3.1699
X4.417Y-4.1699
X4.642Y-2.7199
X4.642Y-3.0199
X4.717Y-3.7449
X4.717Y-4.0449
X4.767Y-2.4199
X4.767Y-2.7199
X4.842Y-3.7449
X4.842Y-4.0449
X4.8919Y-2.7949
X4.967Y-3.7449
X4.967Y-4.0449
X5.067Y-2.1199
X5.067Y-2.4199
X5.1021Y-3.3949
X5.142Y-2.7449
X5.142Y-3.0449
X5.167Y-4.0449
X5.167Y-4.3449
X5.217Y-2.1199
X5.592Y-4.7699
X5.592Y-4.8949
X5.892Y-4.7699
X5.892Y-4.8949
X6.142Y-4.0449
X6.142Y-4.3449
X6.167Y-2.7449
X6.167Y-3.0449
X6.1921Y-3.3949
X6.267Y-4.0449
X6.267Y-4.3449
X6.292Y-2.3449
X6.292Y-4.7699
X6.292Y-4.8949
X6.392Y-2.9449
X6.392Y-3.2449
X6.392Y-4.0449
X6.442Y-2.3449
X6.442Y-2.6449
X6.592Y-3.7699
X6.592Y-4.0699
X6.592Y-4.7699
X6.592Y-4.8949
X6.767Y-2.1699
X6.767Y-3.1699
X6.767Y-4.1699
X7.067Y-2.1699
X7.067Y-3.1699
X7.067Y-4.1699
X7.092Y-2.3449
X7.092Y-2.6449
X7.092Y-3.2949
X7.092Y-3.5949
X7.092Y-4.2949
X7.092Y-4.5949
X7.242Y-2.3449
X7.242Y-2.6449
X7.242Y-3.2949
X7.242Y-3.5949
X7.242Y-4.2949
X7.242Y-4.5949
X7.667Y-2.5949
X7.667Y-2.7199
X7.667Y-3.5949
X7.667Y-3.7199
X7.667Y-4.5949
X7.667Y-4.7199
X7.967Y-2.5949
X7.967Y-2.7199
X7.967Y-3.5949
X7.967Y-3.7199
X7.967Y-4.5949
X7.967Y-4.7199
X8.302Y-2.2849
X8.302Y-2.3849
X8.302Y-2.6249
X8.302Y-2.7249
X8.302Y-3.2849
X8.302Y-3.3849
X8.302Y-3.6249
X8.302Y-3.7249
X8.302Y-4.2849
X8.302Y-4.3849
X8.302Y-4.6249
X8.302Y-4.7249
X8.622Y-2.2849
X8.622Y-2.3849
X8.622Y-2.6249
X8.622Y-2.7249
X8.622Y-3.2849
X8.622Y-3.3849
X8.622Y-3.6249
X8.622Y-3.7249
X8.622Y-4.2849
X8.622Y-4.3849
X8.622Y-4.6249
X8.622Y-4.7249
T7
X4.8919Y-2.3949
X5.1021Y-3.7949
X5.217Y-2.5199
X6.1921Y-3.7949
X6.292Y-2.7449
X6.392Y-4.4449
T8
X5.892Y-5.2449
X6.0889Y-5.5008
X6.2857Y-5.2449
T6
X5.3527Y-5.2587G85X5.4314Y-5.2587
G05
X5.3527Y-5.4949G85X5.4314Y-5.4949
G05
X5.577Y-5.4162G85X5.577Y-5.3375
G05
T0
M30
