M48
;DRILL file {KiCad 4.0.3-stable} date 10/01/16 13:54:20
;FORMAT={-:-/ absolute / inch / decimal}
FMAT,2
INCH,TZ
T1C0.013
T2C0.024
T3C0.031
T4C0.032
T5C0.032
T6C0.039
T7C0.050
T8C0.051
%
G90
G05
M72
T1
X3.6699Y-3.15
X3.9749Y-5.
X4.0999Y-2.575
X4.2399Y-4.26
X4.3079Y-4.7301
X4.3799Y-3.14
X4.4499Y-2.83
X4.4999Y-4.56
X4.5799Y-2.84
X4.6399Y-3.17
X4.6499Y-3.58
X4.7299Y-4.02
X4.7899Y-3.85
X4.8699Y-3.72
X5.5179Y-3.8351
X5.5599Y-3.92
X5.6099Y-3.79
X5.6099Y-4.43
X5.6499Y-4.43
X5.6879Y-3.2651
X5.8749Y-3.34
X5.9099Y-2.81
X6.4099Y-3.02
T2
X3.0749Y-2.625
X3.0749Y-3.675
X3.0749Y-4.675
X3.1249Y-2.625
X3.1249Y-3.675
X3.1249Y-4.675
X3.1749Y-2.625
X3.1749Y-3.675
X3.1749Y-4.675
X7.1749Y-2.675
X7.1749Y-3.675
X7.1749Y-4.675
X7.2249Y-2.675
X7.2249Y-3.675
X7.2249Y-4.675
X7.2749Y-2.675
X7.2749Y-3.675
X7.2749Y-4.675
T3
X3.6233Y-2.4
X3.6233Y-3.475
X3.6233Y-4.35
X3.6249Y-2.525
X3.6249Y-3.35
X3.6249Y-4.475
X4.3749Y-2.475
X4.4537Y-2.475
X4.4999Y-3.275
X4.4999Y-3.3538
X4.4999Y-3.625
X4.4999Y-3.7038
X4.8499Y-3.55
X4.8499Y-4.1
X4.9287Y-3.55
X4.9287Y-4.1
X4.9499Y-3.
X4.9499Y-3.3
X4.9499Y-4.3
X4.9499Y-4.6
X4.9712Y-2.425
X4.9749Y-2.8
X5.0499Y-2.425
X5.0499Y-3.
X5.0499Y-3.3
X5.0499Y-4.3
X5.0499Y-4.6
X5.0537Y-2.8
X5.0999Y-3.65
X5.0999Y-3.95
X5.1499Y-3.
X5.1499Y-3.3
X5.1499Y-4.3
X5.1499Y-4.6
X5.1999Y-3.525
X5.1999Y-3.65
X5.1999Y-3.95
X5.2499Y-3.
X5.2499Y-3.3
X5.2499Y-4.3
X5.2499Y-4.6
X5.2999Y-3.65
X5.2999Y-3.95
X5.3499Y-3.
X5.3499Y-3.3
X5.3499Y-4.3
X5.3499Y-4.6
X5.3999Y-3.65
X5.3999Y-3.95
X5.4499Y-3.
X5.4499Y-3.3
X5.4499Y-4.3
X5.4499Y-4.6
X5.4999Y-5.3266
X5.5499Y-3.
X5.5499Y-3.3
X5.5499Y-4.3
X5.5499Y-4.6
X5.5712Y-2.55
X5.5712Y-4.1
X5.5712Y-4.8
X5.5749Y-2.8
X5.5749Y-3.525
X5.6499Y-2.55
X5.6499Y-4.1
X5.6499Y-4.8
X5.6537Y-2.8
X5.6537Y-3.525
X5.8999Y-5.325
X5.9999Y-3.7
X5.9999Y-3.7788
X5.9999Y-4.125
X5.9999Y-4.2038
X6.7749Y-2.525
X6.7749Y-4.475
X6.7765Y-2.4
X6.7765Y-3.35
X6.7765Y-3.475
X6.7765Y-4.35
T4
X3.5249Y-2.4
X3.5249Y-3.475
X3.5249Y-4.35
X3.5265Y-2.525
X3.5265Y-3.35
X3.5265Y-4.475
X5.1015Y-3.525
X5.4999Y-5.425
X5.8999Y-5.4235
X6.8733Y-2.525
X6.8733Y-4.475
X6.8749Y-2.4
X6.8749Y-3.35
X6.8749Y-3.475
X6.8749Y-4.35
T5
X3.9499Y-2.75
X3.9499Y-3.75
X3.9499Y-4.75
X4.0499Y-2.65
X4.0499Y-2.85
X4.0499Y-3.65
X4.0499Y-3.85
X4.0499Y-4.65
X4.0499Y-4.85
X4.4999Y-5.55
X4.5999Y-5.55
X4.6999Y-5.55
X6.3499Y-2.65
X6.3499Y-2.85
X6.3499Y-3.65
X6.3499Y-3.85
X6.3499Y-4.65
X6.3499Y-4.85
X6.4499Y-2.75
X6.4499Y-3.75
X6.4499Y-4.75
T6
X2.1899Y-2.59
X2.1899Y-2.69
X2.1899Y-2.93
X2.1899Y-3.03
X2.1899Y-3.59
X2.1899Y-3.69
X2.1899Y-3.93
X2.1899Y-4.03
X2.1899Y-4.59
X2.1899Y-4.69
X2.1899Y-4.93
X2.1899Y-5.03
X2.5099Y-2.59
X2.5099Y-2.69
X2.5099Y-2.93
X2.5099Y-3.03
X2.5099Y-3.59
X2.5099Y-3.69
X2.5099Y-3.93
X2.5099Y-4.03
X2.5099Y-4.59
X2.5099Y-4.69
X2.5099Y-4.93
X2.5099Y-5.03
X2.8749Y-2.85
X2.8749Y-2.975
X2.8749Y-3.9
X2.8749Y-4.025
X2.8749Y-4.9
X2.8749Y-5.025
X3.1749Y-2.85
X3.1749Y-2.975
X3.1749Y-3.9
X3.1749Y-4.025
X3.1749Y-4.9
X3.1749Y-5.025
X3.5499Y-2.65
X3.5499Y-2.95
X3.5499Y-3.6
X3.5499Y-3.9
X3.5499Y-4.6
X3.5499Y-4.9
X3.6999Y-2.65
X3.6999Y-2.95
X3.6999Y-3.6
X3.6999Y-3.9
X3.6999Y-4.6
X3.6999Y-4.9
X3.7249Y-2.475
X3.7249Y-3.475
X3.7249Y-4.475
X4.0249Y-2.475
X4.0249Y-3.475
X4.0249Y-4.475
X4.2499Y-3.025
X4.2499Y-3.325
X4.3249Y-4.05
X4.3249Y-4.35
X4.3749Y-2.725
X4.3749Y-3.025
X4.4499Y-4.05
X4.4499Y-4.35
X4.4998Y-3.1
X4.5749Y-4.05
X4.5749Y-4.35
X4.6749Y-2.425
X4.6749Y-2.725
X4.71Y-3.7
X4.7499Y-3.05
X4.7499Y-3.35
X4.7749Y-4.35
X4.7749Y-4.65
X4.8249Y-2.425
X5.1999Y-5.075
X5.1999Y-5.2
X5.4999Y-5.075
X5.4999Y-5.2
X5.7499Y-4.35
X5.7499Y-4.65
X5.7749Y-3.05
X5.7749Y-3.35
X5.8Y-3.7
X5.8749Y-4.35
X5.8749Y-4.65
X5.8999Y-2.65
X5.8999Y-5.075
X5.8999Y-5.2
X5.9999Y-3.25
X5.9999Y-3.55
X5.9999Y-4.35
X6.0499Y-2.65
X6.0499Y-2.95
X6.1999Y-4.075
X6.1999Y-4.375
X6.1999Y-5.075
X6.1999Y-5.2
X6.3749Y-2.475
X6.3749Y-3.475
X6.3749Y-4.475
X6.6749Y-2.475
X6.6749Y-3.475
X6.6749Y-4.475
X6.6999Y-2.65
X6.6999Y-2.95
X6.6999Y-3.6
X6.6999Y-3.9
X6.6999Y-4.6
X6.6999Y-4.9
X6.8499Y-2.65
X6.8499Y-2.95
X6.8499Y-3.6
X6.8499Y-3.9
X6.8499Y-4.6
X6.8499Y-4.9
X7.2749Y-2.9
X7.2749Y-3.025
X7.2749Y-3.9
X7.2749Y-4.025
X7.2749Y-4.9
X7.2749Y-5.025
X7.5749Y-2.9
X7.5749Y-3.025
X7.5749Y-3.9
X7.5749Y-4.025
X7.5749Y-4.9
X7.5749Y-5.025
X7.9099Y-2.59
X7.9099Y-2.69
X7.9099Y-2.93
X7.9099Y-3.03
X7.9099Y-3.59
X7.9099Y-3.69
X7.9099Y-3.93
X7.9099Y-4.03
X7.9099Y-4.59
X7.9099Y-4.69
X7.9099Y-4.93
X7.9099Y-5.03
X8.2299Y-2.59
X8.2299Y-2.69
X8.2299Y-2.93
X8.2299Y-3.03
X8.2299Y-3.59
X8.2299Y-3.69
X8.2299Y-3.93
X8.2299Y-4.03
X8.2299Y-4.59
X8.2299Y-4.69
X8.2299Y-4.93
X8.2299Y-5.03
T7
X4.4998Y-2.7
X4.71Y-4.1
X4.8249Y-2.825
X5.8Y-4.1
X5.8999Y-3.05
X5.9999Y-4.75
T8
X5.4999Y-5.55
X5.6968Y-5.806
X5.8936Y-5.55
T6
X4.9606Y-5.5638G85X5.0393Y-5.5638
G05
X4.9606Y-5.8G85X5.0393Y-5.8
G05
X5.1849Y-5.7213G85X5.1849Y-5.6426
G05
T0
M30
